M48
; DRILL file {KiCad (6.0.9)} date Sun Jan  8 15:27:29 2023
; FORMAT={-:-/ absolute / metric / decimal}
; #@! TF.CreationDate,2023-01-08T15:27:29-05:00
; #@! TF.GenerationSoftware,Kicad,Pcbnew,(6.0.9)
; #@! TF.FileFunction,Plated,1,2,PTH
FMAT,2
METRIC
; #@! TA.AperFunction,Plated,PTH,ViaDrill
T1C0.200
; #@! TA.AperFunction,Plated,PTH,ViaDrill
T2C0.400
; #@! TA.AperFunction,Plated,PTH,ComponentDrill
T3C0.950
; #@! TA.AperFunction,Plated,PTH,ComponentDrill
T4C1.000
; #@! TA.AperFunction,Plated,PTH,ComponentDrill
T5C1.200
; #@! TA.AperFunction,Plated,PTH,ComponentDrill
T6C1.700
; #@! TA.AperFunction,Plated,PTH,ComponentDrill
T7C2.200
; #@! TA.AperFunction,Plated,PTH,ComponentDrill
T8C2.970
; #@! TA.AperFunction,Plated,PTH,ComponentDrill
T9C3.200
%
G90
G05
T1
X115.07Y-120.396
X116.069Y-120.396
X119.685Y-101.244
X120.142Y-112.014
X122.156Y-100.884
X122.428Y-103.175
X122.936Y-112.014
X124.46Y-100.635
X127.721Y-96.012
X128.515Y-106.053
X128.524Y-103.886
X129.223Y-101.283
X129.785Y-103.919
X129.785Y-105.545
X130.509Y-117.069
X130.509Y-118.44
X130.903Y-96.173
X131.064Y-104.418
X131.22Y-116.357
X131.22Y-117.069
X131.22Y-117.754
X131.22Y-118.44
X131.22Y-119.151
X131.55Y-100.884
X131.752Y-103.304
X131.906Y-117.069
X131.931Y-118.44
X131.946Y-105.289
X132.617Y-116.357
X132.617Y-117.069
X132.617Y-117.754
X132.617Y-118.44
X132.617Y-119.151
X133.303Y-117.069
X133.328Y-118.44
X133.909Y-100.635
X145.415Y-123.688
X147.044Y-123.952
X150.059Y-112.45
X151.187Y-113.584
T2
X114.554Y-83.312
X115.316Y-124.46
X119.841Y-94.722
X119.841Y-97.262
X119.866Y-125.476
X127.011Y-92.699
X130.186Y-92.699
X133.074Y-94.722
X133.074Y-97.262
X136.144Y-97.536
X140.694Y-125.476
X142.726Y-127.95
X143.256Y-112.268
X144.526Y-81.788
X145.266Y-127.95
X147.32Y-92.456
X148.844Y-86.36
X150.104Y-92.456
X152.781Y-98.679
X152.781Y-100.965
X152.908Y-92.456
X152.908Y-107.315
X152.908Y-109.855
X154.94Y-84.836
X155.702Y-83.566
X162.184Y-100.584
X164.719Y-87.884
X164.719Y-88.9
X165.232Y-125.344
X167.132Y-123.444
X179.832Y-83.312
T3
X123.25Y-84.853
X125.75Y-84.853
X128.25Y-84.853
X130.75Y-84.853
T4
X139.192Y-82.804
X139.192Y-85.344
X141.732Y-82.804
X141.732Y-85.344
X177.098Y-115.563
X179.598Y-115.563
X182.098Y-115.563
X184.598Y-115.563
T5
X103.406Y-82.623
X103.406Y-126.123
X106.906Y-126.123
T6
X100.956Y-87.973
X100.956Y-120.773
X109.356Y-86.773
X109.356Y-121.973
T7
X170.18Y-83.414
T8
X175.048Y-104.563
X186.648Y-104.563
T9
X114.725Y-104.648
T0
M30
