%TF.GenerationSoftware,KiCad,Pcbnew,(6.0.9)*%
%TF.CreationDate,2023-01-08T15:27:36-05:00*%
%TF.ProjectId,v1-USMX,76312d55-534d-4582-9e6b-696361645f70,rev?*%
%TF.SameCoordinates,Original*%
%TF.FileFunction,Drillmap*%
%TF.FilePolarity,Positive*%
%FSLAX45Y45*%
G04 Gerber Fmt 4.5, Leading zero omitted, Abs format (unit mm)*
G04 Created by KiCad (PCBNEW (6.0.9)) date 2023-01-08 15:27:36*
%MOMM*%
%LPD*%
G01*
G04 APERTURE LIST*
%ADD10C,0.100000*%
%ADD11C,0.200000*%
G04 APERTURE END LIST*
D10*
X15659100Y-8280400D02*
X15659100Y-8026400D01*
X16421100Y-8432800D02*
X15811500Y-8432800D01*
X18999200Y-8280400D02*
X18999200Y-12649200D01*
X15659100Y-8026400D02*
X10109200Y-8026400D01*
X10109200Y-8026400D02*
G75*
G03*
X9855200Y-8280400I0J-254000D01*
G01*
X18999200Y-8280400D02*
G75*
G03*
X18745200Y-8026400I-254000J0D01*
G01*
X9855200Y-12649200D02*
G75*
G03*
X10109200Y-12903200I254000J0D01*
G01*
X18745200Y-12903200D02*
G75*
G03*
X18999200Y-12649200I0J254000D01*
G01*
X15659100Y-8280400D02*
G75*
G03*
X15811500Y-8432800I152400J0D01*
G01*
X10109200Y-12903200D02*
X18745200Y-12903200D01*
X16573500Y-8280400D02*
X16573500Y-8026400D01*
X9855200Y-8280400D02*
X9855200Y-12649200D01*
X16421100Y-8432800D02*
G75*
G03*
X16573500Y-8280400I0J152400D01*
G01*
X18745200Y-8026400D02*
X16573500Y-8026400D01*
D11*
X10107819Y-13218676D02*
X10107819Y-13018676D01*
X10155438Y-13018676D01*
X10184009Y-13028200D01*
X10203057Y-13047248D01*
X10212581Y-13066295D01*
X10222105Y-13104390D01*
X10222105Y-13132962D01*
X10212581Y-13171057D01*
X10203057Y-13190105D01*
X10184009Y-13209152D01*
X10155438Y-13218676D01*
X10107819Y-13218676D01*
X10307819Y-13218676D02*
X10307819Y-13085343D01*
X10307819Y-13123438D02*
X10317343Y-13104390D01*
X10326867Y-13094867D01*
X10345914Y-13085343D01*
X10364962Y-13085343D01*
X10431628Y-13218676D02*
X10431628Y-13085343D01*
X10431628Y-13018676D02*
X10422105Y-13028200D01*
X10431628Y-13037724D01*
X10441152Y-13028200D01*
X10431628Y-13018676D01*
X10431628Y-13037724D01*
X10555438Y-13218676D02*
X10536390Y-13209152D01*
X10526867Y-13190105D01*
X10526867Y-13018676D01*
X10660200Y-13218676D02*
X10641152Y-13209152D01*
X10631628Y-13190105D01*
X10631628Y-13018676D01*
X10888771Y-13218676D02*
X10888771Y-13018676D01*
X10955438Y-13161533D01*
X11022105Y-13018676D01*
X11022105Y-13218676D01*
X11203057Y-13218676D02*
X11203057Y-13113914D01*
X11193533Y-13094867D01*
X11174486Y-13085343D01*
X11136390Y-13085343D01*
X11117343Y-13094867D01*
X11203057Y-13209152D02*
X11184009Y-13218676D01*
X11136390Y-13218676D01*
X11117343Y-13209152D01*
X11107819Y-13190105D01*
X11107819Y-13171057D01*
X11117343Y-13152009D01*
X11136390Y-13142486D01*
X11184009Y-13142486D01*
X11203057Y-13132962D01*
X11298295Y-13085343D02*
X11298295Y-13285343D01*
X11298295Y-13094867D02*
X11317343Y-13085343D01*
X11355438Y-13085343D01*
X11374486Y-13094867D01*
X11384009Y-13104390D01*
X11393533Y-13123438D01*
X11393533Y-13180581D01*
X11384009Y-13199628D01*
X11374486Y-13209152D01*
X11355438Y-13218676D01*
X11317343Y-13218676D01*
X11298295Y-13209152D01*
X11479247Y-13199628D02*
X11488771Y-13209152D01*
X11479247Y-13218676D01*
X11469724Y-13209152D01*
X11479247Y-13199628D01*
X11479247Y-13218676D01*
X11479247Y-13094867D02*
X11488771Y-13104390D01*
X11479247Y-13113914D01*
X11469724Y-13104390D01*
X11479247Y-13094867D01*
X11479247Y-13113914D01*
M02*
