%TF.GenerationSoftware,KiCad,Pcbnew,(6.0.9)*%
%TF.CreationDate,2023-01-08T15:27:36-05:00*%
%TF.ProjectId,v1-USMX,76312d55-534d-4582-9e6b-696361645f70,rev?*%
%TF.SameCoordinates,Original*%
%TF.FileFunction,Drillmap*%
%TF.FilePolarity,Positive*%
%FSLAX45Y45*%
G04 Gerber Fmt 4.5, Leading zero omitted, Abs format (unit mm)*
G04 Created by KiCad (PCBNEW (6.0.9)) date 2023-01-08 15:27:36*
%MOMM*%
%LPD*%
G01*
G04 APERTURE LIST*
%ADD10C,0.100000*%
%ADD11C,0.200000*%
%ADD12C,0.020000*%
%ADD13C,0.040000*%
%ADD14C,0.095000*%
%ADD15C,0.120000*%
%ADD16C,0.170000*%
%ADD17C,0.220000*%
%ADD18C,0.297000*%
%ADD19C,0.320000*%
G04 APERTURE END LIST*
D10*
X15659100Y-8280400D02*
X15659100Y-8026400D01*
X16421100Y-8432800D02*
X15811500Y-8432800D01*
X18999200Y-8280400D02*
X18999200Y-12649200D01*
X15659100Y-8026400D02*
X10109200Y-8026400D01*
X10109200Y-8026400D02*
G75*
G03*
X9855200Y-8280400I0J-254000D01*
G01*
X18999200Y-8280400D02*
G75*
G03*
X18745200Y-8026400I-254000J0D01*
G01*
X9855200Y-12649200D02*
G75*
G03*
X10109200Y-12903200I254000J0D01*
G01*
X18745200Y-12903200D02*
G75*
G03*
X18999200Y-12649200I0J254000D01*
G01*
X15659100Y-8280400D02*
G75*
G03*
X15811500Y-8432800I152400J0D01*
G01*
X10109200Y-12903200D02*
X18745200Y-12903200D01*
X16573500Y-8280400D02*
X16573500Y-8026400D01*
X9855200Y-8280400D02*
X9855200Y-12649200D01*
X16421100Y-8432800D02*
G75*
G03*
X16573500Y-8280400I0J152400D01*
G01*
X18745200Y-8026400D02*
X16573500Y-8026400D01*
D11*
D12*
X11497050Y-12029600D02*
X11517050Y-12049600D01*
X11517050Y-12029600D02*
X11497050Y-12049600D01*
X11596950Y-12029600D02*
X11616950Y-12049600D01*
X11616950Y-12029600D02*
X11596950Y-12049600D01*
X11958480Y-10114440D02*
X11978480Y-10134440D01*
X11978480Y-10114440D02*
X11958480Y-10134440D01*
X12004200Y-11191400D02*
X12024200Y-11211400D01*
X12024200Y-11191400D02*
X12004200Y-11211400D01*
X12205600Y-10078400D02*
X12225600Y-10098400D01*
X12225600Y-10078400D02*
X12205600Y-10098400D01*
X12232800Y-10307480D02*
X12252800Y-10327480D01*
X12252800Y-10307480D02*
X12232800Y-10327480D01*
X12283600Y-11191400D02*
X12303600Y-11211400D01*
X12303600Y-11191400D02*
X12283600Y-11211400D01*
X12436000Y-10053480D02*
X12456000Y-10073480D01*
X12456000Y-10053480D02*
X12436000Y-10073480D01*
X12762050Y-9591200D02*
X12782050Y-9611200D01*
X12782050Y-9591200D02*
X12762050Y-9611200D01*
X12841500Y-10595301D02*
X12861500Y-10615301D01*
X12861500Y-10595301D02*
X12841500Y-10615301D01*
X12842400Y-10378600D02*
X12862400Y-10398600D01*
X12862400Y-10378600D02*
X12842400Y-10398600D01*
X12912270Y-10118270D02*
X12932270Y-10138270D01*
X12932270Y-10118270D02*
X12912270Y-10138270D01*
X12968500Y-10381850D02*
X12988500Y-10401850D01*
X12988500Y-10381850D02*
X12968500Y-10401850D01*
X12968500Y-10544451D02*
X12988500Y-10564451D01*
X12988500Y-10544451D02*
X12968500Y-10564451D01*
X13040860Y-11696860D02*
X13060860Y-11716860D01*
X13060860Y-11696860D02*
X13040860Y-11716860D01*
X13040860Y-11834020D02*
X13060860Y-11854020D01*
X13060860Y-11834020D02*
X13040860Y-11854020D01*
X13080275Y-9607325D02*
X13100275Y-9627325D01*
X13100275Y-9607325D02*
X13080275Y-9627325D01*
X13096400Y-10431800D02*
X13116400Y-10451800D01*
X13116400Y-10431800D02*
X13096400Y-10451800D01*
X13111980Y-11625740D02*
X13131980Y-11645740D01*
X13131980Y-11625740D02*
X13111980Y-11645740D01*
X13111980Y-11696860D02*
X13131980Y-11716860D01*
X13131980Y-11696860D02*
X13111980Y-11716860D01*
X13111980Y-11765440D02*
X13131980Y-11785440D01*
X13131980Y-11765440D02*
X13111980Y-11785440D01*
X13111980Y-11834020D02*
X13131980Y-11854020D01*
X13131980Y-11834020D02*
X13111980Y-11854020D01*
X13111980Y-11905140D02*
X13131980Y-11925140D01*
X13131980Y-11905140D02*
X13111980Y-11925140D01*
X13145000Y-10078400D02*
X13165000Y-10098400D01*
X13165000Y-10078400D02*
X13145000Y-10098400D01*
X13165220Y-10320420D02*
X13185220Y-10340420D01*
X13185220Y-10320420D02*
X13165220Y-10340420D01*
X13180560Y-11696860D02*
X13200560Y-11716860D01*
X13200560Y-11696860D02*
X13180560Y-11716860D01*
X13183100Y-11834020D02*
X13203100Y-11854020D01*
X13203100Y-11834020D02*
X13183100Y-11854020D01*
X13184550Y-10518881D02*
X13204550Y-10538881D01*
X13204550Y-10518881D02*
X13184550Y-10538881D01*
X13251680Y-11625740D02*
X13271680Y-11645740D01*
X13271680Y-11625740D02*
X13251680Y-11645740D01*
X13251680Y-11696860D02*
X13271680Y-11716860D01*
X13271680Y-11696860D02*
X13251680Y-11716860D01*
X13251680Y-11765440D02*
X13271680Y-11785440D01*
X13271680Y-11765440D02*
X13251680Y-11785440D01*
X13251680Y-11834020D02*
X13271680Y-11854020D01*
X13271680Y-11834020D02*
X13251680Y-11854020D01*
X13251680Y-11905140D02*
X13271680Y-11925140D01*
X13271680Y-11905140D02*
X13251680Y-11925140D01*
X13320260Y-11696860D02*
X13340260Y-11716860D01*
X13340260Y-11696860D02*
X13320260Y-11716860D01*
X13322800Y-11834020D02*
X13342800Y-11854020D01*
X13342800Y-11834020D02*
X13322800Y-11854020D01*
X13380880Y-10053480D02*
X13400880Y-10073480D01*
X13400880Y-10053480D02*
X13380880Y-10073480D01*
X14531492Y-12358842D02*
X14551492Y-12378842D01*
X14551492Y-12358842D02*
X14531492Y-12378842D01*
X14694400Y-12385200D02*
X14714400Y-12405200D01*
X14714400Y-12385200D02*
X14694400Y-12405200D01*
X14995891Y-11235009D02*
X15015891Y-11255009D01*
X15015891Y-11235009D02*
X14995891Y-11255009D01*
X15108713Y-11348390D02*
X15128713Y-11368390D01*
X15128713Y-11348390D02*
X15108713Y-11368390D01*
D13*
X11475400Y-8331200D02*
G75*
G03*
X11475400Y-8331200I-20000J0D01*
G01*
X11551600Y-12446000D02*
G75*
G03*
X11551600Y-12446000I-20000J0D01*
G01*
X12004100Y-9472200D02*
G75*
G03*
X12004100Y-9472200I-20000J0D01*
G01*
X12004100Y-9726200D02*
G75*
G03*
X12004100Y-9726200I-20000J0D01*
G01*
X12006600Y-12547600D02*
G75*
G03*
X12006600Y-12547600I-20000J0D01*
G01*
X12721100Y-9269900D02*
G75*
G03*
X12721100Y-9269900I-20000J0D01*
G01*
X13038600Y-9269900D02*
G75*
G03*
X13038600Y-9269900I-20000J0D01*
G01*
X13327400Y-9472200D02*
G75*
G03*
X13327400Y-9472200I-20000J0D01*
G01*
X13327400Y-9726200D02*
G75*
G03*
X13327400Y-9726200I-20000J0D01*
G01*
X13634400Y-9753600D02*
G75*
G03*
X13634400Y-9753600I-20000J0D01*
G01*
X14089400Y-12547600D02*
G75*
G03*
X14089400Y-12547600I-20000J0D01*
G01*
X14292600Y-12795000D02*
G75*
G03*
X14292600Y-12795000I-20000J0D01*
G01*
X14345600Y-11226800D02*
G75*
G03*
X14345600Y-11226800I-20000J0D01*
G01*
X14472600Y-8178800D02*
G75*
G03*
X14472600Y-8178800I-20000J0D01*
G01*
X14546600Y-12795000D02*
G75*
G03*
X14546600Y-12795000I-20000J0D01*
G01*
X14752000Y-9245600D02*
G75*
G03*
X14752000Y-9245600I-20000J0D01*
G01*
X14904400Y-8636000D02*
G75*
G03*
X14904400Y-8636000I-20000J0D01*
G01*
X15030400Y-9245600D02*
G75*
G03*
X15030400Y-9245600I-20000J0D01*
G01*
X15298100Y-9867900D02*
G75*
G03*
X15298100Y-9867900I-20000J0D01*
G01*
X15298100Y-10096500D02*
G75*
G03*
X15298100Y-10096500I-20000J0D01*
G01*
X15310800Y-9245600D02*
G75*
G03*
X15310800Y-9245600I-20000J0D01*
G01*
X15310800Y-10731500D02*
G75*
G03*
X15310800Y-10731500I-20000J0D01*
G01*
X15310800Y-10985500D02*
G75*
G03*
X15310800Y-10985500I-20000J0D01*
G01*
X15514000Y-8483600D02*
G75*
G03*
X15514000Y-8483600I-20000J0D01*
G01*
X15590200Y-8356600D02*
G75*
G03*
X15590200Y-8356600I-20000J0D01*
G01*
X16238400Y-10058400D02*
G75*
G03*
X16238400Y-10058400I-20000J0D01*
G01*
X16491900Y-8788400D02*
G75*
G03*
X16491900Y-8788400I-20000J0D01*
G01*
X16491900Y-8890000D02*
G75*
G03*
X16491900Y-8890000I-20000J0D01*
G01*
X16543247Y-12534353D02*
G75*
G03*
X16543247Y-12534353I-20000J0D01*
G01*
X16733200Y-12344400D02*
G75*
G03*
X16733200Y-12344400I-20000J0D01*
G01*
X18003200Y-8331200D02*
G75*
G03*
X18003200Y-8331200I-20000J0D01*
G01*
D14*
X12325000Y-8437800D02*
X12325000Y-8532800D01*
X12277500Y-8485300D02*
X12372500Y-8485300D01*
X12575000Y-8437800D02*
X12575000Y-8532800D01*
X12527500Y-8485300D02*
X12622500Y-8485300D01*
X12825000Y-8437800D02*
X12825000Y-8532800D01*
X12777500Y-8485300D02*
X12872500Y-8485300D01*
X13075000Y-8437800D02*
X13075000Y-8532800D01*
X13027500Y-8485300D02*
X13122500Y-8485300D01*
D10*
X13954556Y-8315756D02*
X13954556Y-8245044D01*
X13883844Y-8245044D01*
X13883844Y-8315756D01*
X13954556Y-8315756D01*
X13954556Y-8569756D02*
X13954556Y-8499044D01*
X13883844Y-8499044D01*
X13883844Y-8569756D01*
X13954556Y-8569756D01*
X14208556Y-8315756D02*
X14208556Y-8245044D01*
X14137844Y-8245044D01*
X14137844Y-8315756D01*
X14208556Y-8315756D01*
X14208556Y-8569756D02*
X14208556Y-8499044D01*
X14137844Y-8499044D01*
X14137844Y-8569756D01*
X14208556Y-8569756D01*
X17745156Y-11591656D02*
X17745156Y-11520944D01*
X17674444Y-11520944D01*
X17674444Y-11591656D01*
X17745156Y-11591656D01*
X17995156Y-11591656D02*
X17995156Y-11520944D01*
X17924444Y-11520944D01*
X17924444Y-11591656D01*
X17995156Y-11591656D01*
X18245156Y-11591656D02*
X18245156Y-11520944D01*
X18174444Y-11520944D01*
X18174444Y-11591656D01*
X18245156Y-11591656D01*
X18495156Y-11591656D02*
X18495156Y-11520944D01*
X18424444Y-11520944D01*
X18424444Y-11591656D01*
X18495156Y-11591656D01*
D15*
X10340600Y-8322300D02*
X10400600Y-8262300D01*
X10340600Y-8202300D01*
X10280600Y-8262300D01*
X10340600Y-8322300D01*
X10340600Y-12672300D02*
X10400600Y-12612300D01*
X10340600Y-12552300D01*
X10280600Y-12612300D01*
X10340600Y-12672300D01*
X10690600Y-12672300D02*
X10750600Y-12612300D01*
X10690600Y-12552300D01*
X10630600Y-12612300D01*
X10690600Y-12672300D01*
D16*
X10010600Y-8712300D02*
X10180600Y-8882300D01*
X10180600Y-8712300D02*
X10010600Y-8882300D01*
X10180600Y-8797300D02*
G75*
G03*
X10180600Y-8797300I-85000J0D01*
G01*
X10010600Y-11992300D02*
X10180600Y-12162300D01*
X10180600Y-11992300D02*
X10010600Y-12162300D01*
X10180600Y-12077300D02*
G75*
G03*
X10180600Y-12077300I-85000J0D01*
G01*
X10850600Y-8592300D02*
X11020600Y-8762300D01*
X11020600Y-8592300D02*
X10850600Y-8762300D01*
X11020600Y-8677300D02*
G75*
G03*
X11020600Y-8677300I-85000J0D01*
G01*
X10850600Y-12112300D02*
X11020600Y-12282300D01*
X11020600Y-12112300D02*
X10850600Y-12282300D01*
X11020600Y-12197300D02*
G75*
G03*
X11020600Y-12197300I-85000J0D01*
G01*
D17*
X16908000Y-8231360D02*
X17128000Y-8451360D01*
X17128000Y-8231360D02*
X16908000Y-8451360D01*
X17018000Y-8231360D02*
X17018000Y-8451360D01*
X16908000Y-8341360D02*
X17128000Y-8341360D01*
D18*
X17356300Y-10307800D02*
X17653300Y-10604800D01*
X17653300Y-10307800D02*
X17356300Y-10604800D01*
X17609806Y-10561306D02*
X17609806Y-10351294D01*
X17399794Y-10351294D01*
X17399794Y-10561306D01*
X17609806Y-10561306D01*
X18516300Y-10307800D02*
X18813300Y-10604800D01*
X18813300Y-10307800D02*
X18516300Y-10604800D01*
X18769806Y-10561306D02*
X18769806Y-10351294D01*
X18559794Y-10351294D01*
X18559794Y-10561306D01*
X18769806Y-10561306D01*
D19*
X11312472Y-10304800D02*
X11632472Y-10624800D01*
X11632472Y-10304800D02*
X11312472Y-10624800D01*
X11472472Y-10624800D02*
X11632472Y-10464800D01*
X11472472Y-10304800D01*
X11312472Y-10464800D01*
X11472472Y-10624800D01*
D11*
X10107819Y-13218676D02*
X10107819Y-13018676D01*
X10155438Y-13018676D01*
X10184009Y-13028200D01*
X10203057Y-13047248D01*
X10212581Y-13066295D01*
X10222105Y-13104390D01*
X10222105Y-13132962D01*
X10212581Y-13171057D01*
X10203057Y-13190105D01*
X10184009Y-13209152D01*
X10155438Y-13218676D01*
X10107819Y-13218676D01*
X10307819Y-13218676D02*
X10307819Y-13085343D01*
X10307819Y-13123438D02*
X10317343Y-13104390D01*
X10326867Y-13094867D01*
X10345914Y-13085343D01*
X10364962Y-13085343D01*
X10431628Y-13218676D02*
X10431628Y-13085343D01*
X10431628Y-13018676D02*
X10422105Y-13028200D01*
X10431628Y-13037724D01*
X10441152Y-13028200D01*
X10431628Y-13018676D01*
X10431628Y-13037724D01*
X10555438Y-13218676D02*
X10536390Y-13209152D01*
X10526867Y-13190105D01*
X10526867Y-13018676D01*
X10660200Y-13218676D02*
X10641152Y-13209152D01*
X10631628Y-13190105D01*
X10631628Y-13018676D01*
X10888771Y-13218676D02*
X10888771Y-13018676D01*
X10955438Y-13161533D01*
X11022105Y-13018676D01*
X11022105Y-13218676D01*
X11203057Y-13218676D02*
X11203057Y-13113914D01*
X11193533Y-13094867D01*
X11174486Y-13085343D01*
X11136390Y-13085343D01*
X11117343Y-13094867D01*
X11203057Y-13209152D02*
X11184009Y-13218676D01*
X11136390Y-13218676D01*
X11117343Y-13209152D01*
X11107819Y-13190105D01*
X11107819Y-13171057D01*
X11117343Y-13152009D01*
X11136390Y-13142486D01*
X11184009Y-13142486D01*
X11203057Y-13132962D01*
X11298295Y-13085343D02*
X11298295Y-13285343D01*
X11298295Y-13094867D02*
X11317343Y-13085343D01*
X11355438Y-13085343D01*
X11374486Y-13094867D01*
X11384009Y-13104390D01*
X11393533Y-13123438D01*
X11393533Y-13180581D01*
X11384009Y-13199628D01*
X11374486Y-13209152D01*
X11355438Y-13218676D01*
X11317343Y-13218676D01*
X11298295Y-13209152D01*
X11479247Y-13199628D02*
X11488771Y-13209152D01*
X11479247Y-13218676D01*
X11469724Y-13209152D01*
X11479247Y-13199628D01*
X11479247Y-13218676D01*
X11479247Y-13094867D02*
X11488771Y-13104390D01*
X11479247Y-13113914D01*
X11469724Y-13104390D01*
X11479247Y-13094867D01*
X11479247Y-13113914D01*
D12*
X9830200Y-13538200D02*
X9850200Y-13558200D01*
X9850200Y-13538200D02*
X9830200Y-13558200D01*
D11*
X10145914Y-13438676D02*
X10164962Y-13438676D01*
X10184009Y-13448200D01*
X10193533Y-13457724D01*
X10203057Y-13476771D01*
X10212581Y-13514867D01*
X10212581Y-13562486D01*
X10203057Y-13600581D01*
X10193533Y-13619628D01*
X10184009Y-13629152D01*
X10164962Y-13638676D01*
X10145914Y-13638676D01*
X10126867Y-13629152D01*
X10117343Y-13619628D01*
X10107819Y-13600581D01*
X10098295Y-13562486D01*
X10098295Y-13514867D01*
X10107819Y-13476771D01*
X10117343Y-13457724D01*
X10126867Y-13448200D01*
X10145914Y-13438676D01*
X10298295Y-13619628D02*
X10307819Y-13629152D01*
X10298295Y-13638676D01*
X10288771Y-13629152D01*
X10298295Y-13619628D01*
X10298295Y-13638676D01*
X10384009Y-13457724D02*
X10393533Y-13448200D01*
X10412581Y-13438676D01*
X10460200Y-13438676D01*
X10479248Y-13448200D01*
X10488771Y-13457724D01*
X10498295Y-13476771D01*
X10498295Y-13495819D01*
X10488771Y-13524390D01*
X10374486Y-13638676D01*
X10498295Y-13638676D01*
X10622105Y-13438676D02*
X10641152Y-13438676D01*
X10660200Y-13448200D01*
X10669724Y-13457724D01*
X10679248Y-13476771D01*
X10688771Y-13514867D01*
X10688771Y-13562486D01*
X10679248Y-13600581D01*
X10669724Y-13619628D01*
X10660200Y-13629152D01*
X10641152Y-13638676D01*
X10622105Y-13638676D01*
X10603057Y-13629152D01*
X10593533Y-13619628D01*
X10584009Y-13600581D01*
X10574486Y-13562486D01*
X10574486Y-13514867D01*
X10584009Y-13476771D01*
X10593533Y-13457724D01*
X10603057Y-13448200D01*
X10622105Y-13438676D01*
X10812581Y-13438676D02*
X10831628Y-13438676D01*
X10850676Y-13448200D01*
X10860200Y-13457724D01*
X10869724Y-13476771D01*
X10879248Y-13514867D01*
X10879248Y-13562486D01*
X10869724Y-13600581D01*
X10860200Y-13619628D01*
X10850676Y-13629152D01*
X10831628Y-13638676D01*
X10812581Y-13638676D01*
X10793533Y-13629152D01*
X10784009Y-13619628D01*
X10774486Y-13600581D01*
X10764962Y-13562486D01*
X10764962Y-13514867D01*
X10774486Y-13476771D01*
X10784009Y-13457724D01*
X10793533Y-13448200D01*
X10812581Y-13438676D01*
X10964962Y-13638676D02*
X10964962Y-13505343D01*
X10964962Y-13524390D02*
X10974486Y-13514867D01*
X10993533Y-13505343D01*
X11022105Y-13505343D01*
X11041152Y-13514867D01*
X11050676Y-13533914D01*
X11050676Y-13638676D01*
X11050676Y-13533914D02*
X11060200Y-13514867D01*
X11079248Y-13505343D01*
X11107819Y-13505343D01*
X11126867Y-13514867D01*
X11136390Y-13533914D01*
X11136390Y-13638676D01*
X11231628Y-13638676D02*
X11231628Y-13505343D01*
X11231628Y-13524390D02*
X11241152Y-13514867D01*
X11260200Y-13505343D01*
X11288771Y-13505343D01*
X11307819Y-13514867D01*
X11317343Y-13533914D01*
X11317343Y-13638676D01*
X11317343Y-13533914D02*
X11326866Y-13514867D01*
X11345914Y-13505343D01*
X11374486Y-13505343D01*
X11393533Y-13514867D01*
X11403057Y-13533914D01*
X11403057Y-13638676D01*
X11793533Y-13429152D02*
X11622105Y-13686295D01*
X12050676Y-13438676D02*
X12069724Y-13438676D01*
X12088771Y-13448200D01*
X12098295Y-13457724D01*
X12107819Y-13476771D01*
X12117343Y-13514867D01*
X12117343Y-13562486D01*
X12107819Y-13600581D01*
X12098295Y-13619628D01*
X12088771Y-13629152D01*
X12069724Y-13638676D01*
X12050676Y-13638676D01*
X12031628Y-13629152D01*
X12022105Y-13619628D01*
X12012581Y-13600581D01*
X12003057Y-13562486D01*
X12003057Y-13514867D01*
X12012581Y-13476771D01*
X12022105Y-13457724D01*
X12031628Y-13448200D01*
X12050676Y-13438676D01*
X12203057Y-13619628D02*
X12212581Y-13629152D01*
X12203057Y-13638676D01*
X12193533Y-13629152D01*
X12203057Y-13619628D01*
X12203057Y-13638676D01*
X12336390Y-13438676D02*
X12355438Y-13438676D01*
X12374486Y-13448200D01*
X12384009Y-13457724D01*
X12393533Y-13476771D01*
X12403057Y-13514867D01*
X12403057Y-13562486D01*
X12393533Y-13600581D01*
X12384009Y-13619628D01*
X12374486Y-13629152D01*
X12355438Y-13638676D01*
X12336390Y-13638676D01*
X12317343Y-13629152D01*
X12307819Y-13619628D01*
X12298295Y-13600581D01*
X12288771Y-13562486D01*
X12288771Y-13514867D01*
X12298295Y-13476771D01*
X12307819Y-13457724D01*
X12317343Y-13448200D01*
X12336390Y-13438676D01*
X12526866Y-13438676D02*
X12545914Y-13438676D01*
X12564962Y-13448200D01*
X12574486Y-13457724D01*
X12584009Y-13476771D01*
X12593533Y-13514867D01*
X12593533Y-13562486D01*
X12584009Y-13600581D01*
X12574486Y-13619628D01*
X12564962Y-13629152D01*
X12545914Y-13638676D01*
X12526866Y-13638676D01*
X12507819Y-13629152D01*
X12498295Y-13619628D01*
X12488771Y-13600581D01*
X12479247Y-13562486D01*
X12479247Y-13514867D01*
X12488771Y-13476771D01*
X12498295Y-13457724D01*
X12507819Y-13448200D01*
X12526866Y-13438676D01*
X12660200Y-13438676D02*
X12793533Y-13438676D01*
X12707819Y-13638676D01*
X12879247Y-13638676D02*
X12917343Y-13638676D01*
X12936390Y-13629152D01*
X12945914Y-13619628D01*
X12964962Y-13591057D01*
X12974486Y-13552962D01*
X12974486Y-13476771D01*
X12964962Y-13457724D01*
X12955438Y-13448200D01*
X12936390Y-13438676D01*
X12898295Y-13438676D01*
X12879247Y-13448200D01*
X12869724Y-13457724D01*
X12860200Y-13476771D01*
X12860200Y-13524390D01*
X12869724Y-13543438D01*
X12879247Y-13552962D01*
X12898295Y-13562486D01*
X12936390Y-13562486D01*
X12955438Y-13552962D01*
X12964962Y-13543438D01*
X12974486Y-13524390D01*
X13050676Y-13438676D02*
X13050676Y-13476771D01*
X13126866Y-13438676D02*
X13126866Y-13476771D01*
X13422105Y-13714867D02*
X13412581Y-13705343D01*
X13393533Y-13676771D01*
X13384009Y-13657724D01*
X13374486Y-13629152D01*
X13364962Y-13581533D01*
X13364962Y-13543438D01*
X13374486Y-13495819D01*
X13384009Y-13467248D01*
X13393533Y-13448200D01*
X13412581Y-13419628D01*
X13422105Y-13410105D01*
X13584009Y-13505343D02*
X13584009Y-13638676D01*
X13536390Y-13429152D02*
X13488771Y-13572009D01*
X13612581Y-13572009D01*
X13726866Y-13438676D02*
X13745914Y-13438676D01*
X13764962Y-13448200D01*
X13774486Y-13457724D01*
X13784009Y-13476771D01*
X13793533Y-13514867D01*
X13793533Y-13562486D01*
X13784009Y-13600581D01*
X13774486Y-13619628D01*
X13764962Y-13629152D01*
X13745914Y-13638676D01*
X13726866Y-13638676D01*
X13707819Y-13629152D01*
X13698295Y-13619628D01*
X13688771Y-13600581D01*
X13679247Y-13562486D01*
X13679247Y-13514867D01*
X13688771Y-13476771D01*
X13698295Y-13457724D01*
X13707819Y-13448200D01*
X13726866Y-13438676D01*
X14031628Y-13638676D02*
X14031628Y-13438676D01*
X14117343Y-13638676D02*
X14117343Y-13533914D01*
X14107819Y-13514867D01*
X14088771Y-13505343D01*
X14060200Y-13505343D01*
X14041152Y-13514867D01*
X14031628Y-13524390D01*
X14241152Y-13638676D02*
X14222105Y-13629152D01*
X14212581Y-13619628D01*
X14203057Y-13600581D01*
X14203057Y-13543438D01*
X14212581Y-13524390D01*
X14222105Y-13514867D01*
X14241152Y-13505343D01*
X14269724Y-13505343D01*
X14288771Y-13514867D01*
X14298295Y-13524390D01*
X14307819Y-13543438D01*
X14307819Y-13600581D01*
X14298295Y-13619628D01*
X14288771Y-13629152D01*
X14269724Y-13638676D01*
X14241152Y-13638676D01*
X14422105Y-13638676D02*
X14403057Y-13629152D01*
X14393533Y-13610105D01*
X14393533Y-13438676D01*
X14574486Y-13629152D02*
X14555438Y-13638676D01*
X14517343Y-13638676D01*
X14498295Y-13629152D01*
X14488771Y-13610105D01*
X14488771Y-13533914D01*
X14498295Y-13514867D01*
X14517343Y-13505343D01*
X14555438Y-13505343D01*
X14574486Y-13514867D01*
X14584009Y-13533914D01*
X14584009Y-13552962D01*
X14488771Y-13572009D01*
X14660200Y-13629152D02*
X14679247Y-13638676D01*
X14717343Y-13638676D01*
X14736390Y-13629152D01*
X14745914Y-13610105D01*
X14745914Y-13600581D01*
X14736390Y-13581533D01*
X14717343Y-13572009D01*
X14688771Y-13572009D01*
X14669724Y-13562486D01*
X14660200Y-13543438D01*
X14660200Y-13533914D01*
X14669724Y-13514867D01*
X14688771Y-13505343D01*
X14717343Y-13505343D01*
X14736390Y-13514867D01*
X14812581Y-13714867D02*
X14822105Y-13705343D01*
X14841152Y-13676771D01*
X14850676Y-13657724D01*
X14860200Y-13629152D01*
X14869724Y-13581533D01*
X14869724Y-13543438D01*
X14860200Y-13495819D01*
X14850676Y-13467248D01*
X14841152Y-13448200D01*
X14822105Y-13419628D01*
X14812581Y-13410105D01*
D13*
X9850200Y-13812200D02*
G75*
G03*
X9850200Y-13812200I-20000J0D01*
G01*
D11*
X10145914Y-13702676D02*
X10164962Y-13702676D01*
X10184009Y-13712200D01*
X10193533Y-13721724D01*
X10203057Y-13740771D01*
X10212581Y-13778867D01*
X10212581Y-13826486D01*
X10203057Y-13864581D01*
X10193533Y-13883628D01*
X10184009Y-13893152D01*
X10164962Y-13902676D01*
X10145914Y-13902676D01*
X10126867Y-13893152D01*
X10117343Y-13883628D01*
X10107819Y-13864581D01*
X10098295Y-13826486D01*
X10098295Y-13778867D01*
X10107819Y-13740771D01*
X10117343Y-13721724D01*
X10126867Y-13712200D01*
X10145914Y-13702676D01*
X10298295Y-13883628D02*
X10307819Y-13893152D01*
X10298295Y-13902676D01*
X10288771Y-13893152D01*
X10298295Y-13883628D01*
X10298295Y-13902676D01*
X10479248Y-13769343D02*
X10479248Y-13902676D01*
X10431628Y-13693152D02*
X10384009Y-13836009D01*
X10507819Y-13836009D01*
X10622105Y-13702676D02*
X10641152Y-13702676D01*
X10660200Y-13712200D01*
X10669724Y-13721724D01*
X10679248Y-13740771D01*
X10688771Y-13778867D01*
X10688771Y-13826486D01*
X10679248Y-13864581D01*
X10669724Y-13883628D01*
X10660200Y-13893152D01*
X10641152Y-13902676D01*
X10622105Y-13902676D01*
X10603057Y-13893152D01*
X10593533Y-13883628D01*
X10584009Y-13864581D01*
X10574486Y-13826486D01*
X10574486Y-13778867D01*
X10584009Y-13740771D01*
X10593533Y-13721724D01*
X10603057Y-13712200D01*
X10622105Y-13702676D01*
X10812581Y-13702676D02*
X10831628Y-13702676D01*
X10850676Y-13712200D01*
X10860200Y-13721724D01*
X10869724Y-13740771D01*
X10879248Y-13778867D01*
X10879248Y-13826486D01*
X10869724Y-13864581D01*
X10860200Y-13883628D01*
X10850676Y-13893152D01*
X10831628Y-13902676D01*
X10812581Y-13902676D01*
X10793533Y-13893152D01*
X10784009Y-13883628D01*
X10774486Y-13864581D01*
X10764962Y-13826486D01*
X10764962Y-13778867D01*
X10774486Y-13740771D01*
X10784009Y-13721724D01*
X10793533Y-13712200D01*
X10812581Y-13702676D01*
X10964962Y-13902676D02*
X10964962Y-13769343D01*
X10964962Y-13788390D02*
X10974486Y-13778867D01*
X10993533Y-13769343D01*
X11022105Y-13769343D01*
X11041152Y-13778867D01*
X11050676Y-13797914D01*
X11050676Y-13902676D01*
X11050676Y-13797914D02*
X11060200Y-13778867D01*
X11079248Y-13769343D01*
X11107819Y-13769343D01*
X11126867Y-13778867D01*
X11136390Y-13797914D01*
X11136390Y-13902676D01*
X11231628Y-13902676D02*
X11231628Y-13769343D01*
X11231628Y-13788390D02*
X11241152Y-13778867D01*
X11260200Y-13769343D01*
X11288771Y-13769343D01*
X11307819Y-13778867D01*
X11317343Y-13797914D01*
X11317343Y-13902676D01*
X11317343Y-13797914D02*
X11326866Y-13778867D01*
X11345914Y-13769343D01*
X11374486Y-13769343D01*
X11393533Y-13778867D01*
X11403057Y-13797914D01*
X11403057Y-13902676D01*
X11793533Y-13693152D02*
X11622105Y-13950295D01*
X12050676Y-13702676D02*
X12069724Y-13702676D01*
X12088771Y-13712200D01*
X12098295Y-13721724D01*
X12107819Y-13740771D01*
X12117343Y-13778867D01*
X12117343Y-13826486D01*
X12107819Y-13864581D01*
X12098295Y-13883628D01*
X12088771Y-13893152D01*
X12069724Y-13902676D01*
X12050676Y-13902676D01*
X12031628Y-13893152D01*
X12022105Y-13883628D01*
X12012581Y-13864581D01*
X12003057Y-13826486D01*
X12003057Y-13778867D01*
X12012581Y-13740771D01*
X12022105Y-13721724D01*
X12031628Y-13712200D01*
X12050676Y-13702676D01*
X12203057Y-13883628D02*
X12212581Y-13893152D01*
X12203057Y-13902676D01*
X12193533Y-13893152D01*
X12203057Y-13883628D01*
X12203057Y-13902676D01*
X12336390Y-13702676D02*
X12355438Y-13702676D01*
X12374486Y-13712200D01*
X12384009Y-13721724D01*
X12393533Y-13740771D01*
X12403057Y-13778867D01*
X12403057Y-13826486D01*
X12393533Y-13864581D01*
X12384009Y-13883628D01*
X12374486Y-13893152D01*
X12355438Y-13902676D01*
X12336390Y-13902676D01*
X12317343Y-13893152D01*
X12307819Y-13883628D01*
X12298295Y-13864581D01*
X12288771Y-13826486D01*
X12288771Y-13778867D01*
X12298295Y-13740771D01*
X12307819Y-13721724D01*
X12317343Y-13712200D01*
X12336390Y-13702676D01*
X12593533Y-13902676D02*
X12479247Y-13902676D01*
X12536390Y-13902676D02*
X12536390Y-13702676D01*
X12517343Y-13731248D01*
X12498295Y-13750295D01*
X12479247Y-13759819D01*
X12774486Y-13702676D02*
X12679247Y-13702676D01*
X12669724Y-13797914D01*
X12679247Y-13788390D01*
X12698295Y-13778867D01*
X12745914Y-13778867D01*
X12764962Y-13788390D01*
X12774486Y-13797914D01*
X12784009Y-13816962D01*
X12784009Y-13864581D01*
X12774486Y-13883628D01*
X12764962Y-13893152D01*
X12745914Y-13902676D01*
X12698295Y-13902676D01*
X12679247Y-13893152D01*
X12669724Y-13883628D01*
X12850676Y-13702676D02*
X12984009Y-13702676D01*
X12898295Y-13902676D01*
X13050676Y-13702676D02*
X13050676Y-13740771D01*
X13126866Y-13702676D02*
X13126866Y-13740771D01*
X13422105Y-13978867D02*
X13412581Y-13969343D01*
X13393533Y-13940771D01*
X13384009Y-13921724D01*
X13374486Y-13893152D01*
X13364962Y-13845533D01*
X13364962Y-13807438D01*
X13374486Y-13759819D01*
X13384009Y-13731248D01*
X13393533Y-13712200D01*
X13412581Y-13683628D01*
X13422105Y-13674105D01*
X13479247Y-13702676D02*
X13603057Y-13702676D01*
X13536390Y-13778867D01*
X13564962Y-13778867D01*
X13584009Y-13788390D01*
X13593533Y-13797914D01*
X13603057Y-13816962D01*
X13603057Y-13864581D01*
X13593533Y-13883628D01*
X13584009Y-13893152D01*
X13564962Y-13902676D01*
X13507819Y-13902676D01*
X13488771Y-13893152D01*
X13479247Y-13883628D01*
X13793533Y-13902676D02*
X13679247Y-13902676D01*
X13736390Y-13902676D02*
X13736390Y-13702676D01*
X13717343Y-13731248D01*
X13698295Y-13750295D01*
X13679247Y-13759819D01*
X14031628Y-13902676D02*
X14031628Y-13702676D01*
X14117343Y-13902676D02*
X14117343Y-13797914D01*
X14107819Y-13778867D01*
X14088771Y-13769343D01*
X14060200Y-13769343D01*
X14041152Y-13778867D01*
X14031628Y-13788390D01*
X14241152Y-13902676D02*
X14222105Y-13893152D01*
X14212581Y-13883628D01*
X14203057Y-13864581D01*
X14203057Y-13807438D01*
X14212581Y-13788390D01*
X14222105Y-13778867D01*
X14241152Y-13769343D01*
X14269724Y-13769343D01*
X14288771Y-13778867D01*
X14298295Y-13788390D01*
X14307819Y-13807438D01*
X14307819Y-13864581D01*
X14298295Y-13883628D01*
X14288771Y-13893152D01*
X14269724Y-13902676D01*
X14241152Y-13902676D01*
X14422105Y-13902676D02*
X14403057Y-13893152D01*
X14393533Y-13874105D01*
X14393533Y-13702676D01*
X14574486Y-13893152D02*
X14555438Y-13902676D01*
X14517343Y-13902676D01*
X14498295Y-13893152D01*
X14488771Y-13874105D01*
X14488771Y-13797914D01*
X14498295Y-13778867D01*
X14517343Y-13769343D01*
X14555438Y-13769343D01*
X14574486Y-13778867D01*
X14584009Y-13797914D01*
X14584009Y-13816962D01*
X14488771Y-13836009D01*
X14660200Y-13893152D02*
X14679247Y-13902676D01*
X14717343Y-13902676D01*
X14736390Y-13893152D01*
X14745914Y-13874105D01*
X14745914Y-13864581D01*
X14736390Y-13845533D01*
X14717343Y-13836009D01*
X14688771Y-13836009D01*
X14669724Y-13826486D01*
X14660200Y-13807438D01*
X14660200Y-13797914D01*
X14669724Y-13778867D01*
X14688771Y-13769343D01*
X14717343Y-13769343D01*
X14736390Y-13778867D01*
X14812581Y-13978867D02*
X14822105Y-13969343D01*
X14841152Y-13940771D01*
X14850676Y-13921724D01*
X14860200Y-13893152D01*
X14869724Y-13845533D01*
X14869724Y-13807438D01*
X14860200Y-13759819D01*
X14850676Y-13731248D01*
X14841152Y-13712200D01*
X14822105Y-13683628D01*
X14812581Y-13674105D01*
D14*
X9802700Y-14028700D02*
X9802700Y-14123700D01*
X9755200Y-14076200D02*
X9850200Y-14076200D01*
D11*
X10145914Y-13966676D02*
X10164962Y-13966676D01*
X10184009Y-13976200D01*
X10193533Y-13985724D01*
X10203057Y-14004771D01*
X10212581Y-14042867D01*
X10212581Y-14090486D01*
X10203057Y-14128581D01*
X10193533Y-14147628D01*
X10184009Y-14157152D01*
X10164962Y-14166676D01*
X10145914Y-14166676D01*
X10126867Y-14157152D01*
X10117343Y-14147628D01*
X10107819Y-14128581D01*
X10098295Y-14090486D01*
X10098295Y-14042867D01*
X10107819Y-14004771D01*
X10117343Y-13985724D01*
X10126867Y-13976200D01*
X10145914Y-13966676D01*
X10298295Y-14147628D02*
X10307819Y-14157152D01*
X10298295Y-14166676D01*
X10288771Y-14157152D01*
X10298295Y-14147628D01*
X10298295Y-14166676D01*
X10403057Y-14166676D02*
X10441152Y-14166676D01*
X10460200Y-14157152D01*
X10469724Y-14147628D01*
X10488771Y-14119057D01*
X10498295Y-14080962D01*
X10498295Y-14004771D01*
X10488771Y-13985724D01*
X10479248Y-13976200D01*
X10460200Y-13966676D01*
X10422105Y-13966676D01*
X10403057Y-13976200D01*
X10393533Y-13985724D01*
X10384009Y-14004771D01*
X10384009Y-14052390D01*
X10393533Y-14071438D01*
X10403057Y-14080962D01*
X10422105Y-14090486D01*
X10460200Y-14090486D01*
X10479248Y-14080962D01*
X10488771Y-14071438D01*
X10498295Y-14052390D01*
X10679248Y-13966676D02*
X10584009Y-13966676D01*
X10574486Y-14061914D01*
X10584009Y-14052390D01*
X10603057Y-14042867D01*
X10650676Y-14042867D01*
X10669724Y-14052390D01*
X10679248Y-14061914D01*
X10688771Y-14080962D01*
X10688771Y-14128581D01*
X10679248Y-14147628D01*
X10669724Y-14157152D01*
X10650676Y-14166676D01*
X10603057Y-14166676D01*
X10584009Y-14157152D01*
X10574486Y-14147628D01*
X10812581Y-13966676D02*
X10831628Y-13966676D01*
X10850676Y-13976200D01*
X10860200Y-13985724D01*
X10869724Y-14004771D01*
X10879248Y-14042867D01*
X10879248Y-14090486D01*
X10869724Y-14128581D01*
X10860200Y-14147628D01*
X10850676Y-14157152D01*
X10831628Y-14166676D01*
X10812581Y-14166676D01*
X10793533Y-14157152D01*
X10784009Y-14147628D01*
X10774486Y-14128581D01*
X10764962Y-14090486D01*
X10764962Y-14042867D01*
X10774486Y-14004771D01*
X10784009Y-13985724D01*
X10793533Y-13976200D01*
X10812581Y-13966676D01*
X10964962Y-14166676D02*
X10964962Y-14033343D01*
X10964962Y-14052390D02*
X10974486Y-14042867D01*
X10993533Y-14033343D01*
X11022105Y-14033343D01*
X11041152Y-14042867D01*
X11050676Y-14061914D01*
X11050676Y-14166676D01*
X11050676Y-14061914D02*
X11060200Y-14042867D01*
X11079248Y-14033343D01*
X11107819Y-14033343D01*
X11126867Y-14042867D01*
X11136390Y-14061914D01*
X11136390Y-14166676D01*
X11231628Y-14166676D02*
X11231628Y-14033343D01*
X11231628Y-14052390D02*
X11241152Y-14042867D01*
X11260200Y-14033343D01*
X11288771Y-14033343D01*
X11307819Y-14042867D01*
X11317343Y-14061914D01*
X11317343Y-14166676D01*
X11317343Y-14061914D02*
X11326866Y-14042867D01*
X11345914Y-14033343D01*
X11374486Y-14033343D01*
X11393533Y-14042867D01*
X11403057Y-14061914D01*
X11403057Y-14166676D01*
X11793533Y-13957152D02*
X11622105Y-14214295D01*
X12050676Y-13966676D02*
X12069724Y-13966676D01*
X12088771Y-13976200D01*
X12098295Y-13985724D01*
X12107819Y-14004771D01*
X12117343Y-14042867D01*
X12117343Y-14090486D01*
X12107819Y-14128581D01*
X12098295Y-14147628D01*
X12088771Y-14157152D01*
X12069724Y-14166676D01*
X12050676Y-14166676D01*
X12031628Y-14157152D01*
X12022105Y-14147628D01*
X12012581Y-14128581D01*
X12003057Y-14090486D01*
X12003057Y-14042867D01*
X12012581Y-14004771D01*
X12022105Y-13985724D01*
X12031628Y-13976200D01*
X12050676Y-13966676D01*
X12203057Y-14147628D02*
X12212581Y-14157152D01*
X12203057Y-14166676D01*
X12193533Y-14157152D01*
X12203057Y-14147628D01*
X12203057Y-14166676D01*
X12336390Y-13966676D02*
X12355438Y-13966676D01*
X12374486Y-13976200D01*
X12384009Y-13985724D01*
X12393533Y-14004771D01*
X12403057Y-14042867D01*
X12403057Y-14090486D01*
X12393533Y-14128581D01*
X12384009Y-14147628D01*
X12374486Y-14157152D01*
X12355438Y-14166676D01*
X12336390Y-14166676D01*
X12317343Y-14157152D01*
X12307819Y-14147628D01*
X12298295Y-14128581D01*
X12288771Y-14090486D01*
X12288771Y-14042867D01*
X12298295Y-14004771D01*
X12307819Y-13985724D01*
X12317343Y-13976200D01*
X12336390Y-13966676D01*
X12469724Y-13966676D02*
X12593533Y-13966676D01*
X12526866Y-14042867D01*
X12555438Y-14042867D01*
X12574486Y-14052390D01*
X12584009Y-14061914D01*
X12593533Y-14080962D01*
X12593533Y-14128581D01*
X12584009Y-14147628D01*
X12574486Y-14157152D01*
X12555438Y-14166676D01*
X12498295Y-14166676D01*
X12479247Y-14157152D01*
X12469724Y-14147628D01*
X12660200Y-13966676D02*
X12793533Y-13966676D01*
X12707819Y-14166676D01*
X12955438Y-14033343D02*
X12955438Y-14166676D01*
X12907819Y-13957152D02*
X12860200Y-14100009D01*
X12984009Y-14100009D01*
X13050676Y-13966676D02*
X13050676Y-14004771D01*
X13126866Y-13966676D02*
X13126866Y-14004771D01*
X13422105Y-14242867D02*
X13412581Y-14233343D01*
X13393533Y-14204771D01*
X13384009Y-14185724D01*
X13374486Y-14157152D01*
X13364962Y-14109533D01*
X13364962Y-14071438D01*
X13374486Y-14023819D01*
X13384009Y-13995248D01*
X13393533Y-13976200D01*
X13412581Y-13947628D01*
X13422105Y-13938105D01*
X13584009Y-14033343D02*
X13584009Y-14166676D01*
X13536390Y-13957152D02*
X13488771Y-14100009D01*
X13612581Y-14100009D01*
X13841152Y-14166676D02*
X13841152Y-13966676D01*
X13926866Y-14166676D02*
X13926866Y-14061914D01*
X13917343Y-14042867D01*
X13898295Y-14033343D01*
X13869724Y-14033343D01*
X13850676Y-14042867D01*
X13841152Y-14052390D01*
X14050676Y-14166676D02*
X14031628Y-14157152D01*
X14022105Y-14147628D01*
X14012581Y-14128581D01*
X14012581Y-14071438D01*
X14022105Y-14052390D01*
X14031628Y-14042867D01*
X14050676Y-14033343D01*
X14079247Y-14033343D01*
X14098295Y-14042867D01*
X14107819Y-14052390D01*
X14117343Y-14071438D01*
X14117343Y-14128581D01*
X14107819Y-14147628D01*
X14098295Y-14157152D01*
X14079247Y-14166676D01*
X14050676Y-14166676D01*
X14231628Y-14166676D02*
X14212581Y-14157152D01*
X14203057Y-14138105D01*
X14203057Y-13966676D01*
X14384009Y-14157152D02*
X14364962Y-14166676D01*
X14326866Y-14166676D01*
X14307819Y-14157152D01*
X14298295Y-14138105D01*
X14298295Y-14061914D01*
X14307819Y-14042867D01*
X14326866Y-14033343D01*
X14364962Y-14033343D01*
X14384009Y-14042867D01*
X14393533Y-14061914D01*
X14393533Y-14080962D01*
X14298295Y-14100009D01*
X14469724Y-14157152D02*
X14488771Y-14166676D01*
X14526866Y-14166676D01*
X14545914Y-14157152D01*
X14555438Y-14138105D01*
X14555438Y-14128581D01*
X14545914Y-14109533D01*
X14526866Y-14100009D01*
X14498295Y-14100009D01*
X14479247Y-14090486D01*
X14469724Y-14071438D01*
X14469724Y-14061914D01*
X14479247Y-14042867D01*
X14498295Y-14033343D01*
X14526866Y-14033343D01*
X14545914Y-14042867D01*
X14622105Y-14242867D02*
X14631628Y-14233343D01*
X14650676Y-14204771D01*
X14660200Y-14185724D01*
X14669724Y-14157152D01*
X14679247Y-14109533D01*
X14679247Y-14071438D01*
X14669724Y-14023819D01*
X14660200Y-13995248D01*
X14650676Y-13976200D01*
X14631628Y-13947628D01*
X14622105Y-13938105D01*
D10*
X9835556Y-14375556D02*
X9835556Y-14304844D01*
X9764844Y-14304844D01*
X9764844Y-14375556D01*
X9835556Y-14375556D01*
D11*
X10212581Y-14430676D02*
X10098295Y-14430676D01*
X10155438Y-14430676D02*
X10155438Y-14230676D01*
X10136390Y-14259248D01*
X10117343Y-14278295D01*
X10098295Y-14287819D01*
X10298295Y-14411628D02*
X10307819Y-14421152D01*
X10298295Y-14430676D01*
X10288771Y-14421152D01*
X10298295Y-14411628D01*
X10298295Y-14430676D01*
X10431628Y-14230676D02*
X10450676Y-14230676D01*
X10469724Y-14240200D01*
X10479248Y-14249724D01*
X10488771Y-14268771D01*
X10498295Y-14306867D01*
X10498295Y-14354486D01*
X10488771Y-14392581D01*
X10479248Y-14411628D01*
X10469724Y-14421152D01*
X10450676Y-14430676D01*
X10431628Y-14430676D01*
X10412581Y-14421152D01*
X10403057Y-14411628D01*
X10393533Y-14392581D01*
X10384009Y-14354486D01*
X10384009Y-14306867D01*
X10393533Y-14268771D01*
X10403057Y-14249724D01*
X10412581Y-14240200D01*
X10431628Y-14230676D01*
X10622105Y-14230676D02*
X10641152Y-14230676D01*
X10660200Y-14240200D01*
X10669724Y-14249724D01*
X10679248Y-14268771D01*
X10688771Y-14306867D01*
X10688771Y-14354486D01*
X10679248Y-14392581D01*
X10669724Y-14411628D01*
X10660200Y-14421152D01*
X10641152Y-14430676D01*
X10622105Y-14430676D01*
X10603057Y-14421152D01*
X10593533Y-14411628D01*
X10584009Y-14392581D01*
X10574486Y-14354486D01*
X10574486Y-14306867D01*
X10584009Y-14268771D01*
X10593533Y-14249724D01*
X10603057Y-14240200D01*
X10622105Y-14230676D01*
X10812581Y-14230676D02*
X10831628Y-14230676D01*
X10850676Y-14240200D01*
X10860200Y-14249724D01*
X10869724Y-14268771D01*
X10879248Y-14306867D01*
X10879248Y-14354486D01*
X10869724Y-14392581D01*
X10860200Y-14411628D01*
X10850676Y-14421152D01*
X10831628Y-14430676D01*
X10812581Y-14430676D01*
X10793533Y-14421152D01*
X10784009Y-14411628D01*
X10774486Y-14392581D01*
X10764962Y-14354486D01*
X10764962Y-14306867D01*
X10774486Y-14268771D01*
X10784009Y-14249724D01*
X10793533Y-14240200D01*
X10812581Y-14230676D01*
X10964962Y-14430676D02*
X10964962Y-14297343D01*
X10964962Y-14316390D02*
X10974486Y-14306867D01*
X10993533Y-14297343D01*
X11022105Y-14297343D01*
X11041152Y-14306867D01*
X11050676Y-14325914D01*
X11050676Y-14430676D01*
X11050676Y-14325914D02*
X11060200Y-14306867D01*
X11079248Y-14297343D01*
X11107819Y-14297343D01*
X11126867Y-14306867D01*
X11136390Y-14325914D01*
X11136390Y-14430676D01*
X11231628Y-14430676D02*
X11231628Y-14297343D01*
X11231628Y-14316390D02*
X11241152Y-14306867D01*
X11260200Y-14297343D01*
X11288771Y-14297343D01*
X11307819Y-14306867D01*
X11317343Y-14325914D01*
X11317343Y-14430676D01*
X11317343Y-14325914D02*
X11326866Y-14306867D01*
X11345914Y-14297343D01*
X11374486Y-14297343D01*
X11393533Y-14306867D01*
X11403057Y-14325914D01*
X11403057Y-14430676D01*
X11793533Y-14221152D02*
X11622105Y-14478295D01*
X12050676Y-14230676D02*
X12069724Y-14230676D01*
X12088771Y-14240200D01*
X12098295Y-14249724D01*
X12107819Y-14268771D01*
X12117343Y-14306867D01*
X12117343Y-14354486D01*
X12107819Y-14392581D01*
X12098295Y-14411628D01*
X12088771Y-14421152D01*
X12069724Y-14430676D01*
X12050676Y-14430676D01*
X12031628Y-14421152D01*
X12022105Y-14411628D01*
X12012581Y-14392581D01*
X12003057Y-14354486D01*
X12003057Y-14306867D01*
X12012581Y-14268771D01*
X12022105Y-14249724D01*
X12031628Y-14240200D01*
X12050676Y-14230676D01*
X12203057Y-14411628D02*
X12212581Y-14421152D01*
X12203057Y-14430676D01*
X12193533Y-14421152D01*
X12203057Y-14411628D01*
X12203057Y-14430676D01*
X12336390Y-14230676D02*
X12355438Y-14230676D01*
X12374486Y-14240200D01*
X12384009Y-14249724D01*
X12393533Y-14268771D01*
X12403057Y-14306867D01*
X12403057Y-14354486D01*
X12393533Y-14392581D01*
X12384009Y-14411628D01*
X12374486Y-14421152D01*
X12355438Y-14430676D01*
X12336390Y-14430676D01*
X12317343Y-14421152D01*
X12307819Y-14411628D01*
X12298295Y-14392581D01*
X12288771Y-14354486D01*
X12288771Y-14306867D01*
X12298295Y-14268771D01*
X12307819Y-14249724D01*
X12317343Y-14240200D01*
X12336390Y-14230676D01*
X12469724Y-14230676D02*
X12593533Y-14230676D01*
X12526866Y-14306867D01*
X12555438Y-14306867D01*
X12574486Y-14316390D01*
X12584009Y-14325914D01*
X12593533Y-14344962D01*
X12593533Y-14392581D01*
X12584009Y-14411628D01*
X12574486Y-14421152D01*
X12555438Y-14430676D01*
X12498295Y-14430676D01*
X12479247Y-14421152D01*
X12469724Y-14411628D01*
X12688771Y-14430676D02*
X12726866Y-14430676D01*
X12745914Y-14421152D01*
X12755438Y-14411628D01*
X12774486Y-14383057D01*
X12784009Y-14344962D01*
X12784009Y-14268771D01*
X12774486Y-14249724D01*
X12764962Y-14240200D01*
X12745914Y-14230676D01*
X12707819Y-14230676D01*
X12688771Y-14240200D01*
X12679247Y-14249724D01*
X12669724Y-14268771D01*
X12669724Y-14316390D01*
X12679247Y-14335438D01*
X12688771Y-14344962D01*
X12707819Y-14354486D01*
X12745914Y-14354486D01*
X12764962Y-14344962D01*
X12774486Y-14335438D01*
X12784009Y-14316390D01*
X12955438Y-14297343D02*
X12955438Y-14430676D01*
X12907819Y-14221152D02*
X12860200Y-14364009D01*
X12984009Y-14364009D01*
X13050676Y-14230676D02*
X13050676Y-14268771D01*
X13126866Y-14230676D02*
X13126866Y-14268771D01*
X13422105Y-14506867D02*
X13412581Y-14497343D01*
X13393533Y-14468771D01*
X13384009Y-14449724D01*
X13374486Y-14421152D01*
X13364962Y-14373533D01*
X13364962Y-14335438D01*
X13374486Y-14287819D01*
X13384009Y-14259248D01*
X13393533Y-14240200D01*
X13412581Y-14211628D01*
X13422105Y-14202105D01*
X13526866Y-14316390D02*
X13507819Y-14306867D01*
X13498295Y-14297343D01*
X13488771Y-14278295D01*
X13488771Y-14268771D01*
X13498295Y-14249724D01*
X13507819Y-14240200D01*
X13526866Y-14230676D01*
X13564962Y-14230676D01*
X13584009Y-14240200D01*
X13593533Y-14249724D01*
X13603057Y-14268771D01*
X13603057Y-14278295D01*
X13593533Y-14297343D01*
X13584009Y-14306867D01*
X13564962Y-14316390D01*
X13526866Y-14316390D01*
X13507819Y-14325914D01*
X13498295Y-14335438D01*
X13488771Y-14354486D01*
X13488771Y-14392581D01*
X13498295Y-14411628D01*
X13507819Y-14421152D01*
X13526866Y-14430676D01*
X13564962Y-14430676D01*
X13584009Y-14421152D01*
X13593533Y-14411628D01*
X13603057Y-14392581D01*
X13603057Y-14354486D01*
X13593533Y-14335438D01*
X13584009Y-14325914D01*
X13564962Y-14316390D01*
X13841152Y-14430676D02*
X13841152Y-14230676D01*
X13926866Y-14430676D02*
X13926866Y-14325914D01*
X13917343Y-14306867D01*
X13898295Y-14297343D01*
X13869724Y-14297343D01*
X13850676Y-14306867D01*
X13841152Y-14316390D01*
X14050676Y-14430676D02*
X14031628Y-14421152D01*
X14022105Y-14411628D01*
X14012581Y-14392581D01*
X14012581Y-14335438D01*
X14022105Y-14316390D01*
X14031628Y-14306867D01*
X14050676Y-14297343D01*
X14079247Y-14297343D01*
X14098295Y-14306867D01*
X14107819Y-14316390D01*
X14117343Y-14335438D01*
X14117343Y-14392581D01*
X14107819Y-14411628D01*
X14098295Y-14421152D01*
X14079247Y-14430676D01*
X14050676Y-14430676D01*
X14231628Y-14430676D02*
X14212581Y-14421152D01*
X14203057Y-14402105D01*
X14203057Y-14230676D01*
X14384009Y-14421152D02*
X14364962Y-14430676D01*
X14326866Y-14430676D01*
X14307819Y-14421152D01*
X14298295Y-14402105D01*
X14298295Y-14325914D01*
X14307819Y-14306867D01*
X14326866Y-14297343D01*
X14364962Y-14297343D01*
X14384009Y-14306867D01*
X14393533Y-14325914D01*
X14393533Y-14344962D01*
X14298295Y-14364009D01*
X14469724Y-14421152D02*
X14488771Y-14430676D01*
X14526866Y-14430676D01*
X14545914Y-14421152D01*
X14555438Y-14402105D01*
X14555438Y-14392581D01*
X14545914Y-14373533D01*
X14526866Y-14364009D01*
X14498295Y-14364009D01*
X14479247Y-14354486D01*
X14469724Y-14335438D01*
X14469724Y-14325914D01*
X14479247Y-14306867D01*
X14498295Y-14297343D01*
X14526866Y-14297343D01*
X14545914Y-14306867D01*
X14622105Y-14506867D02*
X14631628Y-14497343D01*
X14650676Y-14468771D01*
X14660200Y-14449724D01*
X14669724Y-14421152D01*
X14679247Y-14373533D01*
X14679247Y-14335438D01*
X14669724Y-14287819D01*
X14660200Y-14259248D01*
X14650676Y-14240200D01*
X14631628Y-14211628D01*
X14622105Y-14202105D01*
D15*
X9790200Y-14664200D02*
X9850200Y-14604200D01*
X9790200Y-14544200D01*
X9730200Y-14604200D01*
X9790200Y-14664200D01*
D11*
X10212581Y-14694676D02*
X10098295Y-14694676D01*
X10155438Y-14694676D02*
X10155438Y-14494676D01*
X10136390Y-14523248D01*
X10117343Y-14542295D01*
X10098295Y-14551819D01*
X10298295Y-14675628D02*
X10307819Y-14685152D01*
X10298295Y-14694676D01*
X10288771Y-14685152D01*
X10298295Y-14675628D01*
X10298295Y-14694676D01*
X10384009Y-14513724D02*
X10393533Y-14504200D01*
X10412581Y-14494676D01*
X10460200Y-14494676D01*
X10479248Y-14504200D01*
X10488771Y-14513724D01*
X10498295Y-14532771D01*
X10498295Y-14551819D01*
X10488771Y-14580390D01*
X10374486Y-14694676D01*
X10498295Y-14694676D01*
X10622105Y-14494676D02*
X10641152Y-14494676D01*
X10660200Y-14504200D01*
X10669724Y-14513724D01*
X10679248Y-14532771D01*
X10688771Y-14570867D01*
X10688771Y-14618486D01*
X10679248Y-14656581D01*
X10669724Y-14675628D01*
X10660200Y-14685152D01*
X10641152Y-14694676D01*
X10622105Y-14694676D01*
X10603057Y-14685152D01*
X10593533Y-14675628D01*
X10584009Y-14656581D01*
X10574486Y-14618486D01*
X10574486Y-14570867D01*
X10584009Y-14532771D01*
X10593533Y-14513724D01*
X10603057Y-14504200D01*
X10622105Y-14494676D01*
X10812581Y-14494676D02*
X10831628Y-14494676D01*
X10850676Y-14504200D01*
X10860200Y-14513724D01*
X10869724Y-14532771D01*
X10879248Y-14570867D01*
X10879248Y-14618486D01*
X10869724Y-14656581D01*
X10860200Y-14675628D01*
X10850676Y-14685152D01*
X10831628Y-14694676D01*
X10812581Y-14694676D01*
X10793533Y-14685152D01*
X10784009Y-14675628D01*
X10774486Y-14656581D01*
X10764962Y-14618486D01*
X10764962Y-14570867D01*
X10774486Y-14532771D01*
X10784009Y-14513724D01*
X10793533Y-14504200D01*
X10812581Y-14494676D01*
X10964962Y-14694676D02*
X10964962Y-14561343D01*
X10964962Y-14580390D02*
X10974486Y-14570867D01*
X10993533Y-14561343D01*
X11022105Y-14561343D01*
X11041152Y-14570867D01*
X11050676Y-14589914D01*
X11050676Y-14694676D01*
X11050676Y-14589914D02*
X11060200Y-14570867D01*
X11079248Y-14561343D01*
X11107819Y-14561343D01*
X11126867Y-14570867D01*
X11136390Y-14589914D01*
X11136390Y-14694676D01*
X11231628Y-14694676D02*
X11231628Y-14561343D01*
X11231628Y-14580390D02*
X11241152Y-14570867D01*
X11260200Y-14561343D01*
X11288771Y-14561343D01*
X11307819Y-14570867D01*
X11317343Y-14589914D01*
X11317343Y-14694676D01*
X11317343Y-14589914D02*
X11326866Y-14570867D01*
X11345914Y-14561343D01*
X11374486Y-14561343D01*
X11393533Y-14570867D01*
X11403057Y-14589914D01*
X11403057Y-14694676D01*
X11793533Y-14485152D02*
X11622105Y-14742295D01*
X12050676Y-14494676D02*
X12069724Y-14494676D01*
X12088771Y-14504200D01*
X12098295Y-14513724D01*
X12107819Y-14532771D01*
X12117343Y-14570867D01*
X12117343Y-14618486D01*
X12107819Y-14656581D01*
X12098295Y-14675628D01*
X12088771Y-14685152D01*
X12069724Y-14694676D01*
X12050676Y-14694676D01*
X12031628Y-14685152D01*
X12022105Y-14675628D01*
X12012581Y-14656581D01*
X12003057Y-14618486D01*
X12003057Y-14570867D01*
X12012581Y-14532771D01*
X12022105Y-14513724D01*
X12031628Y-14504200D01*
X12050676Y-14494676D01*
X12203057Y-14675628D02*
X12212581Y-14685152D01*
X12203057Y-14694676D01*
X12193533Y-14685152D01*
X12203057Y-14675628D01*
X12203057Y-14694676D01*
X12336390Y-14494676D02*
X12355438Y-14494676D01*
X12374486Y-14504200D01*
X12384009Y-14513724D01*
X12393533Y-14532771D01*
X12403057Y-14570867D01*
X12403057Y-14618486D01*
X12393533Y-14656581D01*
X12384009Y-14675628D01*
X12374486Y-14685152D01*
X12355438Y-14694676D01*
X12336390Y-14694676D01*
X12317343Y-14685152D01*
X12307819Y-14675628D01*
X12298295Y-14656581D01*
X12288771Y-14618486D01*
X12288771Y-14570867D01*
X12298295Y-14532771D01*
X12307819Y-14513724D01*
X12317343Y-14504200D01*
X12336390Y-14494676D01*
X12574486Y-14561343D02*
X12574486Y-14694676D01*
X12526866Y-14485152D02*
X12479247Y-14628009D01*
X12603057Y-14628009D01*
X12660200Y-14494676D02*
X12793533Y-14494676D01*
X12707819Y-14694676D01*
X12860200Y-14513724D02*
X12869724Y-14504200D01*
X12888771Y-14494676D01*
X12936390Y-14494676D01*
X12955438Y-14504200D01*
X12964962Y-14513724D01*
X12974486Y-14532771D01*
X12974486Y-14551819D01*
X12964962Y-14580390D01*
X12850676Y-14694676D01*
X12974486Y-14694676D01*
X13050676Y-14494676D02*
X13050676Y-14532771D01*
X13126866Y-14494676D02*
X13126866Y-14532771D01*
X13422105Y-14770867D02*
X13412581Y-14761343D01*
X13393533Y-14732771D01*
X13384009Y-14713724D01*
X13374486Y-14685152D01*
X13364962Y-14637533D01*
X13364962Y-14599438D01*
X13374486Y-14551819D01*
X13384009Y-14523248D01*
X13393533Y-14504200D01*
X13412581Y-14475628D01*
X13422105Y-14466105D01*
X13479247Y-14494676D02*
X13603057Y-14494676D01*
X13536390Y-14570867D01*
X13564962Y-14570867D01*
X13584009Y-14580390D01*
X13593533Y-14589914D01*
X13603057Y-14608962D01*
X13603057Y-14656581D01*
X13593533Y-14675628D01*
X13584009Y-14685152D01*
X13564962Y-14694676D01*
X13507819Y-14694676D01*
X13488771Y-14685152D01*
X13479247Y-14675628D01*
X13841152Y-14694676D02*
X13841152Y-14494676D01*
X13926866Y-14694676D02*
X13926866Y-14589914D01*
X13917343Y-14570867D01*
X13898295Y-14561343D01*
X13869724Y-14561343D01*
X13850676Y-14570867D01*
X13841152Y-14580390D01*
X14050676Y-14694676D02*
X14031628Y-14685152D01*
X14022105Y-14675628D01*
X14012581Y-14656581D01*
X14012581Y-14599438D01*
X14022105Y-14580390D01*
X14031628Y-14570867D01*
X14050676Y-14561343D01*
X14079247Y-14561343D01*
X14098295Y-14570867D01*
X14107819Y-14580390D01*
X14117343Y-14599438D01*
X14117343Y-14656581D01*
X14107819Y-14675628D01*
X14098295Y-14685152D01*
X14079247Y-14694676D01*
X14050676Y-14694676D01*
X14231628Y-14694676D02*
X14212581Y-14685152D01*
X14203057Y-14666105D01*
X14203057Y-14494676D01*
X14384009Y-14685152D02*
X14364962Y-14694676D01*
X14326866Y-14694676D01*
X14307819Y-14685152D01*
X14298295Y-14666105D01*
X14298295Y-14589914D01*
X14307819Y-14570867D01*
X14326866Y-14561343D01*
X14364962Y-14561343D01*
X14384009Y-14570867D01*
X14393533Y-14589914D01*
X14393533Y-14608962D01*
X14298295Y-14628009D01*
X14469724Y-14685152D02*
X14488771Y-14694676D01*
X14526866Y-14694676D01*
X14545914Y-14685152D01*
X14555438Y-14666105D01*
X14555438Y-14656581D01*
X14545914Y-14637533D01*
X14526866Y-14628009D01*
X14498295Y-14628009D01*
X14479247Y-14618486D01*
X14469724Y-14599438D01*
X14469724Y-14589914D01*
X14479247Y-14570867D01*
X14498295Y-14561343D01*
X14526866Y-14561343D01*
X14545914Y-14570867D01*
X14622105Y-14770867D02*
X14631628Y-14761343D01*
X14650676Y-14732771D01*
X14660200Y-14713724D01*
X14669724Y-14685152D01*
X14679247Y-14637533D01*
X14679247Y-14599438D01*
X14669724Y-14551819D01*
X14660200Y-14523248D01*
X14650676Y-14504200D01*
X14631628Y-14475628D01*
X14622105Y-14466105D01*
D16*
X9680200Y-14783200D02*
X9850200Y-14953200D01*
X9850200Y-14783200D02*
X9680200Y-14953200D01*
X9850200Y-14868200D02*
G75*
G03*
X9850200Y-14868200I-85000J0D01*
G01*
D11*
X10212581Y-14958676D02*
X10098295Y-14958676D01*
X10155438Y-14958676D02*
X10155438Y-14758676D01*
X10136390Y-14787248D01*
X10117343Y-14806295D01*
X10098295Y-14815819D01*
X10298295Y-14939628D02*
X10307819Y-14949152D01*
X10298295Y-14958676D01*
X10288771Y-14949152D01*
X10298295Y-14939628D01*
X10298295Y-14958676D01*
X10374486Y-14758676D02*
X10507819Y-14758676D01*
X10422105Y-14958676D01*
X10622105Y-14758676D02*
X10641152Y-14758676D01*
X10660200Y-14768200D01*
X10669724Y-14777724D01*
X10679248Y-14796771D01*
X10688771Y-14834867D01*
X10688771Y-14882486D01*
X10679248Y-14920581D01*
X10669724Y-14939628D01*
X10660200Y-14949152D01*
X10641152Y-14958676D01*
X10622105Y-14958676D01*
X10603057Y-14949152D01*
X10593533Y-14939628D01*
X10584009Y-14920581D01*
X10574486Y-14882486D01*
X10574486Y-14834867D01*
X10584009Y-14796771D01*
X10593533Y-14777724D01*
X10603057Y-14768200D01*
X10622105Y-14758676D01*
X10812581Y-14758676D02*
X10831628Y-14758676D01*
X10850676Y-14768200D01*
X10860200Y-14777724D01*
X10869724Y-14796771D01*
X10879248Y-14834867D01*
X10879248Y-14882486D01*
X10869724Y-14920581D01*
X10860200Y-14939628D01*
X10850676Y-14949152D01*
X10831628Y-14958676D01*
X10812581Y-14958676D01*
X10793533Y-14949152D01*
X10784009Y-14939628D01*
X10774486Y-14920581D01*
X10764962Y-14882486D01*
X10764962Y-14834867D01*
X10774486Y-14796771D01*
X10784009Y-14777724D01*
X10793533Y-14768200D01*
X10812581Y-14758676D01*
X10964962Y-14958676D02*
X10964962Y-14825343D01*
X10964962Y-14844390D02*
X10974486Y-14834867D01*
X10993533Y-14825343D01*
X11022105Y-14825343D01*
X11041152Y-14834867D01*
X11050676Y-14853914D01*
X11050676Y-14958676D01*
X11050676Y-14853914D02*
X11060200Y-14834867D01*
X11079248Y-14825343D01*
X11107819Y-14825343D01*
X11126867Y-14834867D01*
X11136390Y-14853914D01*
X11136390Y-14958676D01*
X11231628Y-14958676D02*
X11231628Y-14825343D01*
X11231628Y-14844390D02*
X11241152Y-14834867D01*
X11260200Y-14825343D01*
X11288771Y-14825343D01*
X11307819Y-14834867D01*
X11317343Y-14853914D01*
X11317343Y-14958676D01*
X11317343Y-14853914D02*
X11326866Y-14834867D01*
X11345914Y-14825343D01*
X11374486Y-14825343D01*
X11393533Y-14834867D01*
X11403057Y-14853914D01*
X11403057Y-14958676D01*
X11793533Y-14749152D02*
X11622105Y-15006295D01*
X12050676Y-14758676D02*
X12069724Y-14758676D01*
X12088771Y-14768200D01*
X12098295Y-14777724D01*
X12107819Y-14796771D01*
X12117343Y-14834867D01*
X12117343Y-14882486D01*
X12107819Y-14920581D01*
X12098295Y-14939628D01*
X12088771Y-14949152D01*
X12069724Y-14958676D01*
X12050676Y-14958676D01*
X12031628Y-14949152D01*
X12022105Y-14939628D01*
X12012581Y-14920581D01*
X12003057Y-14882486D01*
X12003057Y-14834867D01*
X12012581Y-14796771D01*
X12022105Y-14777724D01*
X12031628Y-14768200D01*
X12050676Y-14758676D01*
X12203057Y-14939628D02*
X12212581Y-14949152D01*
X12203057Y-14958676D01*
X12193533Y-14949152D01*
X12203057Y-14939628D01*
X12203057Y-14958676D01*
X12336390Y-14758676D02*
X12355438Y-14758676D01*
X12374486Y-14768200D01*
X12384009Y-14777724D01*
X12393533Y-14796771D01*
X12403057Y-14834867D01*
X12403057Y-14882486D01*
X12393533Y-14920581D01*
X12384009Y-14939628D01*
X12374486Y-14949152D01*
X12355438Y-14958676D01*
X12336390Y-14958676D01*
X12317343Y-14949152D01*
X12307819Y-14939628D01*
X12298295Y-14920581D01*
X12288771Y-14882486D01*
X12288771Y-14834867D01*
X12298295Y-14796771D01*
X12307819Y-14777724D01*
X12317343Y-14768200D01*
X12336390Y-14758676D01*
X12574486Y-14758676D02*
X12536390Y-14758676D01*
X12517343Y-14768200D01*
X12507819Y-14777724D01*
X12488771Y-14806295D01*
X12479247Y-14844390D01*
X12479247Y-14920581D01*
X12488771Y-14939628D01*
X12498295Y-14949152D01*
X12517343Y-14958676D01*
X12555438Y-14958676D01*
X12574486Y-14949152D01*
X12584009Y-14939628D01*
X12593533Y-14920581D01*
X12593533Y-14872962D01*
X12584009Y-14853914D01*
X12574486Y-14844390D01*
X12555438Y-14834867D01*
X12517343Y-14834867D01*
X12498295Y-14844390D01*
X12488771Y-14853914D01*
X12479247Y-14872962D01*
X12764962Y-14758676D02*
X12726866Y-14758676D01*
X12707819Y-14768200D01*
X12698295Y-14777724D01*
X12679247Y-14806295D01*
X12669724Y-14844390D01*
X12669724Y-14920581D01*
X12679247Y-14939628D01*
X12688771Y-14949152D01*
X12707819Y-14958676D01*
X12745914Y-14958676D01*
X12764962Y-14949152D01*
X12774486Y-14939628D01*
X12784009Y-14920581D01*
X12784009Y-14872962D01*
X12774486Y-14853914D01*
X12764962Y-14844390D01*
X12745914Y-14834867D01*
X12707819Y-14834867D01*
X12688771Y-14844390D01*
X12679247Y-14853914D01*
X12669724Y-14872962D01*
X12879247Y-14958676D02*
X12917343Y-14958676D01*
X12936390Y-14949152D01*
X12945914Y-14939628D01*
X12964962Y-14911057D01*
X12974486Y-14872962D01*
X12974486Y-14796771D01*
X12964962Y-14777724D01*
X12955438Y-14768200D01*
X12936390Y-14758676D01*
X12898295Y-14758676D01*
X12879247Y-14768200D01*
X12869724Y-14777724D01*
X12860200Y-14796771D01*
X12860200Y-14844390D01*
X12869724Y-14863438D01*
X12879247Y-14872962D01*
X12898295Y-14882486D01*
X12936390Y-14882486D01*
X12955438Y-14872962D01*
X12964962Y-14863438D01*
X12974486Y-14844390D01*
X13050676Y-14758676D02*
X13050676Y-14796771D01*
X13126866Y-14758676D02*
X13126866Y-14796771D01*
X13422105Y-15034867D02*
X13412581Y-15025343D01*
X13393533Y-14996771D01*
X13384009Y-14977724D01*
X13374486Y-14949152D01*
X13364962Y-14901533D01*
X13364962Y-14863438D01*
X13374486Y-14815819D01*
X13384009Y-14787248D01*
X13393533Y-14768200D01*
X13412581Y-14739628D01*
X13422105Y-14730105D01*
X13584009Y-14825343D02*
X13584009Y-14958676D01*
X13536390Y-14749152D02*
X13488771Y-14892009D01*
X13612581Y-14892009D01*
X13841152Y-14958676D02*
X13841152Y-14758676D01*
X13926866Y-14958676D02*
X13926866Y-14853914D01*
X13917343Y-14834867D01*
X13898295Y-14825343D01*
X13869724Y-14825343D01*
X13850676Y-14834867D01*
X13841152Y-14844390D01*
X14050676Y-14958676D02*
X14031628Y-14949152D01*
X14022105Y-14939628D01*
X14012581Y-14920581D01*
X14012581Y-14863438D01*
X14022105Y-14844390D01*
X14031628Y-14834867D01*
X14050676Y-14825343D01*
X14079247Y-14825343D01*
X14098295Y-14834867D01*
X14107819Y-14844390D01*
X14117343Y-14863438D01*
X14117343Y-14920581D01*
X14107819Y-14939628D01*
X14098295Y-14949152D01*
X14079247Y-14958676D01*
X14050676Y-14958676D01*
X14231628Y-14958676D02*
X14212581Y-14949152D01*
X14203057Y-14930105D01*
X14203057Y-14758676D01*
X14384009Y-14949152D02*
X14364962Y-14958676D01*
X14326866Y-14958676D01*
X14307819Y-14949152D01*
X14298295Y-14930105D01*
X14298295Y-14853914D01*
X14307819Y-14834867D01*
X14326866Y-14825343D01*
X14364962Y-14825343D01*
X14384009Y-14834867D01*
X14393533Y-14853914D01*
X14393533Y-14872962D01*
X14298295Y-14892009D01*
X14469724Y-14949152D02*
X14488771Y-14958676D01*
X14526866Y-14958676D01*
X14545914Y-14949152D01*
X14555438Y-14930105D01*
X14555438Y-14920581D01*
X14545914Y-14901533D01*
X14526866Y-14892009D01*
X14498295Y-14892009D01*
X14479247Y-14882486D01*
X14469724Y-14863438D01*
X14469724Y-14853914D01*
X14479247Y-14834867D01*
X14498295Y-14825343D01*
X14526866Y-14825343D01*
X14545914Y-14834867D01*
X14622105Y-15034867D02*
X14631628Y-15025343D01*
X14650676Y-14996771D01*
X14660200Y-14977724D01*
X14669724Y-14949152D01*
X14679247Y-14901533D01*
X14679247Y-14863438D01*
X14669724Y-14815819D01*
X14660200Y-14787248D01*
X14650676Y-14768200D01*
X14631628Y-14739628D01*
X14622105Y-14730105D01*
X9650200Y-15058200D02*
X9850200Y-15258200D01*
X9850200Y-15058200D02*
X9650200Y-15258200D01*
X9750200Y-15058200D02*
X9750200Y-15258200D01*
X9650200Y-15158200D02*
X9850200Y-15158200D01*
X10098295Y-15067724D02*
X10107819Y-15058200D01*
X10126867Y-15048676D01*
X10174486Y-15048676D01*
X10193533Y-15058200D01*
X10203057Y-15067724D01*
X10212581Y-15086771D01*
X10212581Y-15105819D01*
X10203057Y-15134390D01*
X10088771Y-15248676D01*
X10212581Y-15248676D01*
X10298295Y-15229628D02*
X10307819Y-15239152D01*
X10298295Y-15248676D01*
X10288771Y-15239152D01*
X10298295Y-15229628D01*
X10298295Y-15248676D01*
X10384009Y-15067724D02*
X10393533Y-15058200D01*
X10412581Y-15048676D01*
X10460200Y-15048676D01*
X10479248Y-15058200D01*
X10488771Y-15067724D01*
X10498295Y-15086771D01*
X10498295Y-15105819D01*
X10488771Y-15134390D01*
X10374486Y-15248676D01*
X10498295Y-15248676D01*
X10622105Y-15048676D02*
X10641152Y-15048676D01*
X10660200Y-15058200D01*
X10669724Y-15067724D01*
X10679248Y-15086771D01*
X10688771Y-15124867D01*
X10688771Y-15172486D01*
X10679248Y-15210581D01*
X10669724Y-15229628D01*
X10660200Y-15239152D01*
X10641152Y-15248676D01*
X10622105Y-15248676D01*
X10603057Y-15239152D01*
X10593533Y-15229628D01*
X10584009Y-15210581D01*
X10574486Y-15172486D01*
X10574486Y-15124867D01*
X10584009Y-15086771D01*
X10593533Y-15067724D01*
X10603057Y-15058200D01*
X10622105Y-15048676D01*
X10812581Y-15048676D02*
X10831628Y-15048676D01*
X10850676Y-15058200D01*
X10860200Y-15067724D01*
X10869724Y-15086771D01*
X10879248Y-15124867D01*
X10879248Y-15172486D01*
X10869724Y-15210581D01*
X10860200Y-15229628D01*
X10850676Y-15239152D01*
X10831628Y-15248676D01*
X10812581Y-15248676D01*
X10793533Y-15239152D01*
X10784009Y-15229628D01*
X10774486Y-15210581D01*
X10764962Y-15172486D01*
X10764962Y-15124867D01*
X10774486Y-15086771D01*
X10784009Y-15067724D01*
X10793533Y-15058200D01*
X10812581Y-15048676D01*
X10964962Y-15248676D02*
X10964962Y-15115343D01*
X10964962Y-15134390D02*
X10974486Y-15124867D01*
X10993533Y-15115343D01*
X11022105Y-15115343D01*
X11041152Y-15124867D01*
X11050676Y-15143914D01*
X11050676Y-15248676D01*
X11050676Y-15143914D02*
X11060200Y-15124867D01*
X11079248Y-15115343D01*
X11107819Y-15115343D01*
X11126867Y-15124867D01*
X11136390Y-15143914D01*
X11136390Y-15248676D01*
X11231628Y-15248676D02*
X11231628Y-15115343D01*
X11231628Y-15134390D02*
X11241152Y-15124867D01*
X11260200Y-15115343D01*
X11288771Y-15115343D01*
X11307819Y-15124867D01*
X11317343Y-15143914D01*
X11317343Y-15248676D01*
X11317343Y-15143914D02*
X11326866Y-15124867D01*
X11345914Y-15115343D01*
X11374486Y-15115343D01*
X11393533Y-15124867D01*
X11403057Y-15143914D01*
X11403057Y-15248676D01*
X11793533Y-15039152D02*
X11622105Y-15296295D01*
X12050676Y-15048676D02*
X12069724Y-15048676D01*
X12088771Y-15058200D01*
X12098295Y-15067724D01*
X12107819Y-15086771D01*
X12117343Y-15124867D01*
X12117343Y-15172486D01*
X12107819Y-15210581D01*
X12098295Y-15229628D01*
X12088771Y-15239152D01*
X12069724Y-15248676D01*
X12050676Y-15248676D01*
X12031628Y-15239152D01*
X12022105Y-15229628D01*
X12012581Y-15210581D01*
X12003057Y-15172486D01*
X12003057Y-15124867D01*
X12012581Y-15086771D01*
X12022105Y-15067724D01*
X12031628Y-15058200D01*
X12050676Y-15048676D01*
X12203057Y-15229628D02*
X12212581Y-15239152D01*
X12203057Y-15248676D01*
X12193533Y-15239152D01*
X12203057Y-15229628D01*
X12203057Y-15248676D01*
X12336390Y-15048676D02*
X12355438Y-15048676D01*
X12374486Y-15058200D01*
X12384009Y-15067724D01*
X12393533Y-15086771D01*
X12403057Y-15124867D01*
X12403057Y-15172486D01*
X12393533Y-15210581D01*
X12384009Y-15229628D01*
X12374486Y-15239152D01*
X12355438Y-15248676D01*
X12336390Y-15248676D01*
X12317343Y-15239152D01*
X12307819Y-15229628D01*
X12298295Y-15210581D01*
X12288771Y-15172486D01*
X12288771Y-15124867D01*
X12298295Y-15086771D01*
X12307819Y-15067724D01*
X12317343Y-15058200D01*
X12336390Y-15048676D01*
X12517343Y-15134390D02*
X12498295Y-15124867D01*
X12488771Y-15115343D01*
X12479247Y-15096295D01*
X12479247Y-15086771D01*
X12488771Y-15067724D01*
X12498295Y-15058200D01*
X12517343Y-15048676D01*
X12555438Y-15048676D01*
X12574486Y-15058200D01*
X12584009Y-15067724D01*
X12593533Y-15086771D01*
X12593533Y-15096295D01*
X12584009Y-15115343D01*
X12574486Y-15124867D01*
X12555438Y-15134390D01*
X12517343Y-15134390D01*
X12498295Y-15143914D01*
X12488771Y-15153438D01*
X12479247Y-15172486D01*
X12479247Y-15210581D01*
X12488771Y-15229628D01*
X12498295Y-15239152D01*
X12517343Y-15248676D01*
X12555438Y-15248676D01*
X12574486Y-15239152D01*
X12584009Y-15229628D01*
X12593533Y-15210581D01*
X12593533Y-15172486D01*
X12584009Y-15153438D01*
X12574486Y-15143914D01*
X12555438Y-15134390D01*
X12764962Y-15048676D02*
X12726866Y-15048676D01*
X12707819Y-15058200D01*
X12698295Y-15067724D01*
X12679247Y-15096295D01*
X12669724Y-15134390D01*
X12669724Y-15210581D01*
X12679247Y-15229628D01*
X12688771Y-15239152D01*
X12707819Y-15248676D01*
X12745914Y-15248676D01*
X12764962Y-15239152D01*
X12774486Y-15229628D01*
X12784009Y-15210581D01*
X12784009Y-15162962D01*
X12774486Y-15143914D01*
X12764962Y-15134390D01*
X12745914Y-15124867D01*
X12707819Y-15124867D01*
X12688771Y-15134390D01*
X12679247Y-15143914D01*
X12669724Y-15162962D01*
X12955438Y-15048676D02*
X12917343Y-15048676D01*
X12898295Y-15058200D01*
X12888771Y-15067724D01*
X12869724Y-15096295D01*
X12860200Y-15134390D01*
X12860200Y-15210581D01*
X12869724Y-15229628D01*
X12879247Y-15239152D01*
X12898295Y-15248676D01*
X12936390Y-15248676D01*
X12955438Y-15239152D01*
X12964962Y-15229628D01*
X12974486Y-15210581D01*
X12974486Y-15162962D01*
X12964962Y-15143914D01*
X12955438Y-15134390D01*
X12936390Y-15124867D01*
X12898295Y-15124867D01*
X12879247Y-15134390D01*
X12869724Y-15143914D01*
X12860200Y-15162962D01*
X13050676Y-15048676D02*
X13050676Y-15086771D01*
X13126866Y-15048676D02*
X13126866Y-15086771D01*
X13422105Y-15324867D02*
X13412581Y-15315343D01*
X13393533Y-15286771D01*
X13384009Y-15267724D01*
X13374486Y-15239152D01*
X13364962Y-15191533D01*
X13364962Y-15153438D01*
X13374486Y-15105819D01*
X13384009Y-15077248D01*
X13393533Y-15058200D01*
X13412581Y-15029628D01*
X13422105Y-15020105D01*
X13603057Y-15248676D02*
X13488771Y-15248676D01*
X13545914Y-15248676D02*
X13545914Y-15048676D01*
X13526866Y-15077248D01*
X13507819Y-15096295D01*
X13488771Y-15105819D01*
X13841152Y-15248676D02*
X13841152Y-15048676D01*
X13926866Y-15248676D02*
X13926866Y-15143914D01*
X13917343Y-15124867D01*
X13898295Y-15115343D01*
X13869724Y-15115343D01*
X13850676Y-15124867D01*
X13841152Y-15134390D01*
X14050676Y-15248676D02*
X14031628Y-15239152D01*
X14022105Y-15229628D01*
X14012581Y-15210581D01*
X14012581Y-15153438D01*
X14022105Y-15134390D01*
X14031628Y-15124867D01*
X14050676Y-15115343D01*
X14079247Y-15115343D01*
X14098295Y-15124867D01*
X14107819Y-15134390D01*
X14117343Y-15153438D01*
X14117343Y-15210581D01*
X14107819Y-15229628D01*
X14098295Y-15239152D01*
X14079247Y-15248676D01*
X14050676Y-15248676D01*
X14231628Y-15248676D02*
X14212581Y-15239152D01*
X14203057Y-15220105D01*
X14203057Y-15048676D01*
X14384009Y-15239152D02*
X14364962Y-15248676D01*
X14326866Y-15248676D01*
X14307819Y-15239152D01*
X14298295Y-15220105D01*
X14298295Y-15143914D01*
X14307819Y-15124867D01*
X14326866Y-15115343D01*
X14364962Y-15115343D01*
X14384009Y-15124867D01*
X14393533Y-15143914D01*
X14393533Y-15162962D01*
X14298295Y-15182009D01*
X14460200Y-15324867D02*
X14469724Y-15315343D01*
X14488771Y-15286771D01*
X14498295Y-15267724D01*
X14507819Y-15239152D01*
X14517343Y-15191533D01*
X14517343Y-15153438D01*
X14507819Y-15105819D01*
X14498295Y-15077248D01*
X14488771Y-15058200D01*
X14469724Y-15029628D01*
X14460200Y-15020105D01*
X9650200Y-15378200D02*
X9850200Y-15578200D01*
X9850200Y-15378200D02*
X9650200Y-15578200D01*
X9820911Y-15548911D02*
X9820911Y-15407489D01*
X9679489Y-15407489D01*
X9679489Y-15548911D01*
X9820911Y-15548911D01*
X10098295Y-15387724D02*
X10107819Y-15378200D01*
X10126867Y-15368676D01*
X10174486Y-15368676D01*
X10193533Y-15378200D01*
X10203057Y-15387724D01*
X10212581Y-15406771D01*
X10212581Y-15425819D01*
X10203057Y-15454390D01*
X10088771Y-15568676D01*
X10212581Y-15568676D01*
X10298295Y-15549628D02*
X10307819Y-15559152D01*
X10298295Y-15568676D01*
X10288771Y-15559152D01*
X10298295Y-15549628D01*
X10298295Y-15568676D01*
X10403057Y-15568676D02*
X10441152Y-15568676D01*
X10460200Y-15559152D01*
X10469724Y-15549628D01*
X10488771Y-15521057D01*
X10498295Y-15482962D01*
X10498295Y-15406771D01*
X10488771Y-15387724D01*
X10479248Y-15378200D01*
X10460200Y-15368676D01*
X10422105Y-15368676D01*
X10403057Y-15378200D01*
X10393533Y-15387724D01*
X10384009Y-15406771D01*
X10384009Y-15454390D01*
X10393533Y-15473438D01*
X10403057Y-15482962D01*
X10422105Y-15492486D01*
X10460200Y-15492486D01*
X10479248Y-15482962D01*
X10488771Y-15473438D01*
X10498295Y-15454390D01*
X10564962Y-15368676D02*
X10698295Y-15368676D01*
X10612581Y-15568676D01*
X10812581Y-15368676D02*
X10831628Y-15368676D01*
X10850676Y-15378200D01*
X10860200Y-15387724D01*
X10869724Y-15406771D01*
X10879248Y-15444867D01*
X10879248Y-15492486D01*
X10869724Y-15530581D01*
X10860200Y-15549628D01*
X10850676Y-15559152D01*
X10831628Y-15568676D01*
X10812581Y-15568676D01*
X10793533Y-15559152D01*
X10784009Y-15549628D01*
X10774486Y-15530581D01*
X10764962Y-15492486D01*
X10764962Y-15444867D01*
X10774486Y-15406771D01*
X10784009Y-15387724D01*
X10793533Y-15378200D01*
X10812581Y-15368676D01*
X10964962Y-15568676D02*
X10964962Y-15435343D01*
X10964962Y-15454390D02*
X10974486Y-15444867D01*
X10993533Y-15435343D01*
X11022105Y-15435343D01*
X11041152Y-15444867D01*
X11050676Y-15463914D01*
X11050676Y-15568676D01*
X11050676Y-15463914D02*
X11060200Y-15444867D01*
X11079248Y-15435343D01*
X11107819Y-15435343D01*
X11126867Y-15444867D01*
X11136390Y-15463914D01*
X11136390Y-15568676D01*
X11231628Y-15568676D02*
X11231628Y-15435343D01*
X11231628Y-15454390D02*
X11241152Y-15444867D01*
X11260200Y-15435343D01*
X11288771Y-15435343D01*
X11307819Y-15444867D01*
X11317343Y-15463914D01*
X11317343Y-15568676D01*
X11317343Y-15463914D02*
X11326866Y-15444867D01*
X11345914Y-15435343D01*
X11374486Y-15435343D01*
X11393533Y-15444867D01*
X11403057Y-15463914D01*
X11403057Y-15568676D01*
X11793533Y-15359152D02*
X11622105Y-15616295D01*
X12050676Y-15368676D02*
X12069724Y-15368676D01*
X12088771Y-15378200D01*
X12098295Y-15387724D01*
X12107819Y-15406771D01*
X12117343Y-15444867D01*
X12117343Y-15492486D01*
X12107819Y-15530581D01*
X12098295Y-15549628D01*
X12088771Y-15559152D01*
X12069724Y-15568676D01*
X12050676Y-15568676D01*
X12031628Y-15559152D01*
X12022105Y-15549628D01*
X12012581Y-15530581D01*
X12003057Y-15492486D01*
X12003057Y-15444867D01*
X12012581Y-15406771D01*
X12022105Y-15387724D01*
X12031628Y-15378200D01*
X12050676Y-15368676D01*
X12203057Y-15549628D02*
X12212581Y-15559152D01*
X12203057Y-15568676D01*
X12193533Y-15559152D01*
X12203057Y-15549628D01*
X12203057Y-15568676D01*
X12403057Y-15568676D02*
X12288771Y-15568676D01*
X12345914Y-15568676D02*
X12345914Y-15368676D01*
X12326866Y-15397248D01*
X12307819Y-15416295D01*
X12288771Y-15425819D01*
X12593533Y-15568676D02*
X12479247Y-15568676D01*
X12536390Y-15568676D02*
X12536390Y-15368676D01*
X12517343Y-15397248D01*
X12498295Y-15416295D01*
X12479247Y-15425819D01*
X12764962Y-15368676D02*
X12726866Y-15368676D01*
X12707819Y-15378200D01*
X12698295Y-15387724D01*
X12679247Y-15416295D01*
X12669724Y-15454390D01*
X12669724Y-15530581D01*
X12679247Y-15549628D01*
X12688771Y-15559152D01*
X12707819Y-15568676D01*
X12745914Y-15568676D01*
X12764962Y-15559152D01*
X12774486Y-15549628D01*
X12784009Y-15530581D01*
X12784009Y-15482962D01*
X12774486Y-15463914D01*
X12764962Y-15454390D01*
X12745914Y-15444867D01*
X12707819Y-15444867D01*
X12688771Y-15454390D01*
X12679247Y-15463914D01*
X12669724Y-15482962D01*
X12879247Y-15568676D02*
X12917343Y-15568676D01*
X12936390Y-15559152D01*
X12945914Y-15549628D01*
X12964962Y-15521057D01*
X12974486Y-15482962D01*
X12974486Y-15406771D01*
X12964962Y-15387724D01*
X12955438Y-15378200D01*
X12936390Y-15368676D01*
X12898295Y-15368676D01*
X12879247Y-15378200D01*
X12869724Y-15387724D01*
X12860200Y-15406771D01*
X12860200Y-15454390D01*
X12869724Y-15473438D01*
X12879247Y-15482962D01*
X12898295Y-15492486D01*
X12936390Y-15492486D01*
X12955438Y-15482962D01*
X12964962Y-15473438D01*
X12974486Y-15454390D01*
X13050676Y-15368676D02*
X13050676Y-15406771D01*
X13126866Y-15368676D02*
X13126866Y-15406771D01*
X13422105Y-15644867D02*
X13412581Y-15635343D01*
X13393533Y-15606771D01*
X13384009Y-15587724D01*
X13374486Y-15559152D01*
X13364962Y-15511533D01*
X13364962Y-15473438D01*
X13374486Y-15425819D01*
X13384009Y-15397248D01*
X13393533Y-15378200D01*
X13412581Y-15349628D01*
X13422105Y-15340105D01*
X13488771Y-15387724D02*
X13498295Y-15378200D01*
X13517343Y-15368676D01*
X13564962Y-15368676D01*
X13584009Y-15378200D01*
X13593533Y-15387724D01*
X13603057Y-15406771D01*
X13603057Y-15425819D01*
X13593533Y-15454390D01*
X13479247Y-15568676D01*
X13603057Y-15568676D01*
X13841152Y-15568676D02*
X13841152Y-15368676D01*
X13926866Y-15568676D02*
X13926866Y-15463914D01*
X13917343Y-15444867D01*
X13898295Y-15435343D01*
X13869724Y-15435343D01*
X13850676Y-15444867D01*
X13841152Y-15454390D01*
X14050676Y-15568676D02*
X14031628Y-15559152D01*
X14022105Y-15549628D01*
X14012581Y-15530581D01*
X14012581Y-15473438D01*
X14022105Y-15454390D01*
X14031628Y-15444867D01*
X14050676Y-15435343D01*
X14079247Y-15435343D01*
X14098295Y-15444867D01*
X14107819Y-15454390D01*
X14117343Y-15473438D01*
X14117343Y-15530581D01*
X14107819Y-15549628D01*
X14098295Y-15559152D01*
X14079247Y-15568676D01*
X14050676Y-15568676D01*
X14231628Y-15568676D02*
X14212581Y-15559152D01*
X14203057Y-15540105D01*
X14203057Y-15368676D01*
X14384009Y-15559152D02*
X14364962Y-15568676D01*
X14326866Y-15568676D01*
X14307819Y-15559152D01*
X14298295Y-15540105D01*
X14298295Y-15463914D01*
X14307819Y-15444867D01*
X14326866Y-15435343D01*
X14364962Y-15435343D01*
X14384009Y-15444867D01*
X14393533Y-15463914D01*
X14393533Y-15482962D01*
X14298295Y-15502009D01*
X14469724Y-15559152D02*
X14488771Y-15568676D01*
X14526866Y-15568676D01*
X14545914Y-15559152D01*
X14555438Y-15540105D01*
X14555438Y-15530581D01*
X14545914Y-15511533D01*
X14526866Y-15502009D01*
X14498295Y-15502009D01*
X14479247Y-15492486D01*
X14469724Y-15473438D01*
X14469724Y-15463914D01*
X14479247Y-15444867D01*
X14498295Y-15435343D01*
X14526866Y-15435343D01*
X14545914Y-15444867D01*
X14622105Y-15644867D02*
X14631628Y-15635343D01*
X14650676Y-15606771D01*
X14660200Y-15587724D01*
X14669724Y-15559152D01*
X14679247Y-15511533D01*
X14679247Y-15473438D01*
X14669724Y-15425819D01*
X14660200Y-15397248D01*
X14650676Y-15378200D01*
X14631628Y-15349628D01*
X14622105Y-15340105D01*
X9650200Y-15698200D02*
X9850200Y-15898200D01*
X9850200Y-15698200D02*
X9650200Y-15898200D01*
X9750200Y-15898200D02*
X9850200Y-15798200D01*
X9750200Y-15698200D01*
X9650200Y-15798200D01*
X9750200Y-15898200D01*
X10088771Y-15688676D02*
X10212581Y-15688676D01*
X10145914Y-15764867D01*
X10174486Y-15764867D01*
X10193533Y-15774390D01*
X10203057Y-15783914D01*
X10212581Y-15802962D01*
X10212581Y-15850581D01*
X10203057Y-15869628D01*
X10193533Y-15879152D01*
X10174486Y-15888676D01*
X10117343Y-15888676D01*
X10098295Y-15879152D01*
X10088771Y-15869628D01*
X10298295Y-15869628D02*
X10307819Y-15879152D01*
X10298295Y-15888676D01*
X10288771Y-15879152D01*
X10298295Y-15869628D01*
X10298295Y-15888676D01*
X10384009Y-15707724D02*
X10393533Y-15698200D01*
X10412581Y-15688676D01*
X10460200Y-15688676D01*
X10479248Y-15698200D01*
X10488771Y-15707724D01*
X10498295Y-15726771D01*
X10498295Y-15745819D01*
X10488771Y-15774390D01*
X10374486Y-15888676D01*
X10498295Y-15888676D01*
X10622105Y-15688676D02*
X10641152Y-15688676D01*
X10660200Y-15698200D01*
X10669724Y-15707724D01*
X10679248Y-15726771D01*
X10688771Y-15764867D01*
X10688771Y-15812486D01*
X10679248Y-15850581D01*
X10669724Y-15869628D01*
X10660200Y-15879152D01*
X10641152Y-15888676D01*
X10622105Y-15888676D01*
X10603057Y-15879152D01*
X10593533Y-15869628D01*
X10584009Y-15850581D01*
X10574486Y-15812486D01*
X10574486Y-15764867D01*
X10584009Y-15726771D01*
X10593533Y-15707724D01*
X10603057Y-15698200D01*
X10622105Y-15688676D01*
X10812581Y-15688676D02*
X10831628Y-15688676D01*
X10850676Y-15698200D01*
X10860200Y-15707724D01*
X10869724Y-15726771D01*
X10879248Y-15764867D01*
X10879248Y-15812486D01*
X10869724Y-15850581D01*
X10860200Y-15869628D01*
X10850676Y-15879152D01*
X10831628Y-15888676D01*
X10812581Y-15888676D01*
X10793533Y-15879152D01*
X10784009Y-15869628D01*
X10774486Y-15850581D01*
X10764962Y-15812486D01*
X10764962Y-15764867D01*
X10774486Y-15726771D01*
X10784009Y-15707724D01*
X10793533Y-15698200D01*
X10812581Y-15688676D01*
X10964962Y-15888676D02*
X10964962Y-15755343D01*
X10964962Y-15774390D02*
X10974486Y-15764867D01*
X10993533Y-15755343D01*
X11022105Y-15755343D01*
X11041152Y-15764867D01*
X11050676Y-15783914D01*
X11050676Y-15888676D01*
X11050676Y-15783914D02*
X11060200Y-15764867D01*
X11079248Y-15755343D01*
X11107819Y-15755343D01*
X11126867Y-15764867D01*
X11136390Y-15783914D01*
X11136390Y-15888676D01*
X11231628Y-15888676D02*
X11231628Y-15755343D01*
X11231628Y-15774390D02*
X11241152Y-15764867D01*
X11260200Y-15755343D01*
X11288771Y-15755343D01*
X11307819Y-15764867D01*
X11317343Y-15783914D01*
X11317343Y-15888676D01*
X11317343Y-15783914D02*
X11326866Y-15764867D01*
X11345914Y-15755343D01*
X11374486Y-15755343D01*
X11393533Y-15764867D01*
X11403057Y-15783914D01*
X11403057Y-15888676D01*
X11793533Y-15679152D02*
X11622105Y-15936295D01*
X12050676Y-15688676D02*
X12069724Y-15688676D01*
X12088771Y-15698200D01*
X12098295Y-15707724D01*
X12107819Y-15726771D01*
X12117343Y-15764867D01*
X12117343Y-15812486D01*
X12107819Y-15850581D01*
X12098295Y-15869628D01*
X12088771Y-15879152D01*
X12069724Y-15888676D01*
X12050676Y-15888676D01*
X12031628Y-15879152D01*
X12022105Y-15869628D01*
X12012581Y-15850581D01*
X12003057Y-15812486D01*
X12003057Y-15764867D01*
X12012581Y-15726771D01*
X12022105Y-15707724D01*
X12031628Y-15698200D01*
X12050676Y-15688676D01*
X12203057Y-15869628D02*
X12212581Y-15879152D01*
X12203057Y-15888676D01*
X12193533Y-15879152D01*
X12203057Y-15869628D01*
X12203057Y-15888676D01*
X12403057Y-15888676D02*
X12288771Y-15888676D01*
X12345914Y-15888676D02*
X12345914Y-15688676D01*
X12326866Y-15717248D01*
X12307819Y-15736295D01*
X12288771Y-15745819D01*
X12479247Y-15707724D02*
X12488771Y-15698200D01*
X12507819Y-15688676D01*
X12555438Y-15688676D01*
X12574486Y-15698200D01*
X12584009Y-15707724D01*
X12593533Y-15726771D01*
X12593533Y-15745819D01*
X12584009Y-15774390D01*
X12469724Y-15888676D01*
X12593533Y-15888676D01*
X12764962Y-15688676D02*
X12726866Y-15688676D01*
X12707819Y-15698200D01*
X12698295Y-15707724D01*
X12679247Y-15736295D01*
X12669724Y-15774390D01*
X12669724Y-15850581D01*
X12679247Y-15869628D01*
X12688771Y-15879152D01*
X12707819Y-15888676D01*
X12745914Y-15888676D01*
X12764962Y-15879152D01*
X12774486Y-15869628D01*
X12784009Y-15850581D01*
X12784009Y-15802962D01*
X12774486Y-15783914D01*
X12764962Y-15774390D01*
X12745914Y-15764867D01*
X12707819Y-15764867D01*
X12688771Y-15774390D01*
X12679247Y-15783914D01*
X12669724Y-15802962D01*
X12907819Y-15688676D02*
X12926866Y-15688676D01*
X12945914Y-15698200D01*
X12955438Y-15707724D01*
X12964962Y-15726771D01*
X12974486Y-15764867D01*
X12974486Y-15812486D01*
X12964962Y-15850581D01*
X12955438Y-15869628D01*
X12945914Y-15879152D01*
X12926866Y-15888676D01*
X12907819Y-15888676D01*
X12888771Y-15879152D01*
X12879247Y-15869628D01*
X12869724Y-15850581D01*
X12860200Y-15812486D01*
X12860200Y-15764867D01*
X12869724Y-15726771D01*
X12879247Y-15707724D01*
X12888771Y-15698200D01*
X12907819Y-15688676D01*
X13050676Y-15688676D02*
X13050676Y-15726771D01*
X13126866Y-15688676D02*
X13126866Y-15726771D01*
X13422105Y-15964867D02*
X13412581Y-15955343D01*
X13393533Y-15926771D01*
X13384009Y-15907724D01*
X13374486Y-15879152D01*
X13364962Y-15831533D01*
X13364962Y-15793438D01*
X13374486Y-15745819D01*
X13384009Y-15717248D01*
X13393533Y-15698200D01*
X13412581Y-15669628D01*
X13422105Y-15660105D01*
X13603057Y-15888676D02*
X13488771Y-15888676D01*
X13545914Y-15888676D02*
X13545914Y-15688676D01*
X13526866Y-15717248D01*
X13507819Y-15736295D01*
X13488771Y-15745819D01*
X13841152Y-15888676D02*
X13841152Y-15688676D01*
X13926866Y-15888676D02*
X13926866Y-15783914D01*
X13917343Y-15764867D01*
X13898295Y-15755343D01*
X13869724Y-15755343D01*
X13850676Y-15764867D01*
X13841152Y-15774390D01*
X14050676Y-15888676D02*
X14031628Y-15879152D01*
X14022105Y-15869628D01*
X14012581Y-15850581D01*
X14012581Y-15793438D01*
X14022105Y-15774390D01*
X14031628Y-15764867D01*
X14050676Y-15755343D01*
X14079247Y-15755343D01*
X14098295Y-15764867D01*
X14107819Y-15774390D01*
X14117343Y-15793438D01*
X14117343Y-15850581D01*
X14107819Y-15869628D01*
X14098295Y-15879152D01*
X14079247Y-15888676D01*
X14050676Y-15888676D01*
X14231628Y-15888676D02*
X14212581Y-15879152D01*
X14203057Y-15860105D01*
X14203057Y-15688676D01*
X14384009Y-15879152D02*
X14364962Y-15888676D01*
X14326866Y-15888676D01*
X14307819Y-15879152D01*
X14298295Y-15860105D01*
X14298295Y-15783914D01*
X14307819Y-15764867D01*
X14326866Y-15755343D01*
X14364962Y-15755343D01*
X14384009Y-15764867D01*
X14393533Y-15783914D01*
X14393533Y-15802962D01*
X14298295Y-15822009D01*
X14460200Y-15964867D02*
X14469724Y-15955343D01*
X14488771Y-15926771D01*
X14498295Y-15907724D01*
X14507819Y-15879152D01*
X14517343Y-15831533D01*
X14517343Y-15793438D01*
X14507819Y-15745819D01*
X14498295Y-15717248D01*
X14488771Y-15698200D01*
X14469724Y-15669628D01*
X14460200Y-15660105D01*
M02*
