G04 #@! TF.GenerationSoftware,KiCad,Pcbnew,(6.0.9)*
G04 #@! TF.CreationDate,2023-01-08T15:26:06-05:00*
G04 #@! TF.ProjectId,v1-USMX,76312d55-534d-4582-9e6b-696361645f70,rev?*
G04 #@! TF.SameCoordinates,Original*
G04 #@! TF.FileFunction,Legend,Top*
G04 #@! TF.FilePolarity,Positive*
%FSLAX46Y46*%
G04 Gerber Fmt 4.6, Leading zero omitted, Abs format (unit mm)*
G04 Created by KiCad (PCBNEW (6.0.9)) date 2023-01-08 15:26:06*
%MOMM*%
%LPD*%
G01*
G04 APERTURE LIST*
G04 Aperture macros list*
%AMRoundRect*
0 Rectangle with rounded corners*
0 $1 Rounding radius*
0 $2 $3 $4 $5 $6 $7 $8 $9 X,Y pos of 4 corners*
0 Add a 4 corners polygon primitive as box body*
4,1,4,$2,$3,$4,$5,$6,$7,$8,$9,$2,$3,0*
0 Add four circle primitives for the rounded corners*
1,1,$1+$1,$2,$3*
1,1,$1+$1,$4,$5*
1,1,$1+$1,$6,$7*
1,1,$1+$1,$8,$9*
0 Add four rect primitives between the rounded corners*
20,1,$1+$1,$2,$3,$4,$5,0*
20,1,$1+$1,$4,$5,$6,$7,0*
20,1,$1+$1,$6,$7,$8,$9,0*
20,1,$1+$1,$8,$9,$2,$3,0*%
G04 Aperture macros list end*
%ADD10C,0.150000*%
%ADD11C,0.095250*%
%ADD12C,0.254000*%
%ADD13C,0.120000*%
%ADD14C,0.200000*%
%ADD15C,0.100000*%
%ADD16C,0.250000*%
%ADD17RoundRect,0.250000X0.250000X0.475000X-0.250000X0.475000X-0.250000X-0.475000X0.250000X-0.475000X0*%
%ADD18RoundRect,0.250000X-0.625000X0.312500X-0.625000X-0.312500X0.625000X-0.312500X0.625000X0.312500X0*%
%ADD19R,0.400000X1.350000*%
%ADD20R,2.100000X1.600000*%
%ADD21R,1.800000X1.900000*%
%ADD22R,1.900000X1.900000*%
%ADD23R,0.850000X0.300000*%
%ADD24R,0.300000X0.850000*%
%ADD25R,1.250000X1.250000*%
%ADD26R,1.500000X0.900000*%
%ADD27R,0.900000X1.500000*%
%ADD28R,0.900000X0.900000*%
%ADD29RoundRect,0.250000X0.475000X-0.250000X0.475000X0.250000X-0.475000X0.250000X-0.475000X-0.250000X0*%
%ADD30C,1.800000*%
%ADD31C,2.550000*%
%ADD32RoundRect,0.635000X0.635000X-1.905000X0.635000X1.905000X-0.635000X1.905000X-0.635000X-1.905000X0*%
%ADD33RoundRect,0.250000X-0.250000X-0.475000X0.250000X-0.475000X0.250000X0.475000X-0.250000X0.475000X0*%
%ADD34R,0.700000X1.000000*%
%ADD35C,4.400000*%
%ADD36RoundRect,0.250000X0.312500X0.625000X-0.312500X0.625000X-0.312500X-0.625000X0.312500X-0.625000X0*%
%ADD37R,0.950000X0.800000*%
%ADD38R,1.500000X1.500000*%
%ADD39C,1.500000*%
%ADD40C,4.455000*%
%ADD41RoundRect,0.250000X-0.312500X-0.625000X0.312500X-0.625000X0.312500X0.625000X-0.312500X0.625000X0*%
%ADD42RoundRect,0.250000X-0.475000X0.250000X-0.475000X-0.250000X0.475000X-0.250000X0.475000X0.250000X0*%
%ADD43R,1.200000X2.200000*%
%ADD44R,5.800000X6.400000*%
%ADD45R,1.700000X1.700000*%
%ADD46O,1.700000X1.700000*%
%ADD47RoundRect,0.250000X0.600000X0.725000X-0.600000X0.725000X-0.600000X-0.725000X0.600000X-0.725000X0*%
%ADD48O,1.700000X1.950000*%
%ADD49C,6.400000*%
%ADD50R,0.800000X1.000000*%
G04 APERTURE END LIST*
D10*
X182880000Y-121920000D02*
X182880000Y-122428000D01*
X182372000Y-121920000D02*
X182880000Y-121920000D01*
X133731000Y-102743000D02*
X133731000Y-102997000D01*
X124333000Y-102997000D02*
X124079000Y-102997000D01*
X133731000Y-102997000D02*
X133477000Y-102997000D01*
X124333000Y-102743000D02*
X124333000Y-102997000D01*
D11*
X143274142Y-82831214D02*
X143564428Y-82831214D01*
X143419285Y-82976357D02*
X143419285Y-82686071D01*
X143927285Y-82595357D02*
X143745857Y-82595357D01*
X143727714Y-82776785D01*
X143745857Y-82758642D01*
X143782142Y-82740500D01*
X143872857Y-82740500D01*
X143909142Y-82758642D01*
X143927285Y-82776785D01*
X143945428Y-82813071D01*
X143945428Y-82903785D01*
X143927285Y-82940071D01*
X143909142Y-82958214D01*
X143872857Y-82976357D01*
X143782142Y-82976357D01*
X143745857Y-82958214D01*
X143727714Y-82940071D01*
X144054285Y-82595357D02*
X144181285Y-82976357D01*
X144308285Y-82595357D01*
X151102785Y-90877571D02*
X151102785Y-90750571D01*
X151302357Y-90696142D02*
X151302357Y-90877571D01*
X150921357Y-90877571D01*
X150921357Y-90696142D01*
X151284214Y-90551000D02*
X151302357Y-90496571D01*
X151302357Y-90405857D01*
X151284214Y-90369571D01*
X151266071Y-90351428D01*
X151229785Y-90333285D01*
X151193500Y-90333285D01*
X151157214Y-90351428D01*
X151139071Y-90369571D01*
X151120928Y-90405857D01*
X151102785Y-90478428D01*
X151084642Y-90514714D01*
X151066500Y-90532857D01*
X151030214Y-90551000D01*
X150993928Y-90551000D01*
X150957642Y-90532857D01*
X150939500Y-90514714D01*
X150921357Y-90478428D01*
X150921357Y-90387714D01*
X150939500Y-90333285D01*
X151302357Y-90170000D02*
X150921357Y-90170000D01*
X150921357Y-90079285D01*
X150939500Y-90024857D01*
X150975785Y-89988571D01*
X151012071Y-89970428D01*
X151084642Y-89952285D01*
X151139071Y-89952285D01*
X151211642Y-89970428D01*
X151247928Y-89988571D01*
X151284214Y-90024857D01*
X151302357Y-90079285D01*
X151302357Y-90170000D01*
X118917357Y-110390214D02*
X118917357Y-110607928D01*
X118917357Y-110499071D02*
X118536357Y-110499071D01*
X118590785Y-110535357D01*
X118627071Y-110571642D01*
X118645214Y-110607928D01*
X118536357Y-110154357D02*
X118536357Y-110118071D01*
X118554500Y-110081785D01*
X118572642Y-110063642D01*
X118608928Y-110045500D01*
X118681500Y-110027357D01*
X118772214Y-110027357D01*
X118844785Y-110045500D01*
X118881071Y-110063642D01*
X118899214Y-110081785D01*
X118917357Y-110118071D01*
X118917357Y-110154357D01*
X118899214Y-110190642D01*
X118881071Y-110208785D01*
X118844785Y-110226928D01*
X118772214Y-110245071D01*
X118681500Y-110245071D01*
X118608928Y-110226928D01*
X118572642Y-110208785D01*
X118554500Y-110190642D01*
X118536357Y-110154357D01*
X118663357Y-109700785D02*
X118917357Y-109700785D01*
X118663357Y-109864071D02*
X118862928Y-109864071D01*
X118899214Y-109845928D01*
X118917357Y-109809642D01*
X118917357Y-109755214D01*
X118899214Y-109718928D01*
X118881071Y-109700785D01*
X118717785Y-109392357D02*
X118717785Y-109519357D01*
X118917357Y-109519357D02*
X118536357Y-109519357D01*
X118536357Y-109337928D01*
X144725571Y-120985642D02*
X144743714Y-120967500D01*
X144780000Y-120949357D01*
X144870714Y-120949357D01*
X144907000Y-120967500D01*
X144925142Y-120985642D01*
X144943285Y-121021928D01*
X144943285Y-121058214D01*
X144925142Y-121112642D01*
X144707428Y-121330357D01*
X144943285Y-121330357D01*
X145070285Y-120949357D02*
X145324285Y-120949357D01*
X145161000Y-121330357D01*
X145542000Y-120949357D02*
X145578285Y-120949357D01*
X145614571Y-120967500D01*
X145632714Y-120985642D01*
X145650857Y-121021928D01*
X145669000Y-121094500D01*
X145669000Y-121185214D01*
X145650857Y-121257785D01*
X145632714Y-121294071D01*
X145614571Y-121312214D01*
X145578285Y-121330357D01*
X145542000Y-121330357D01*
X145505714Y-121312214D01*
X145487571Y-121294071D01*
X145469428Y-121257785D01*
X145451285Y-121185214D01*
X145451285Y-121094500D01*
X145469428Y-121021928D01*
X145487571Y-120985642D01*
X145505714Y-120967500D01*
X145542000Y-120949357D01*
X145886714Y-121330357D02*
X145850428Y-121312214D01*
X145832285Y-121294071D01*
X145814142Y-121257785D01*
X145814142Y-121148928D01*
X145832285Y-121112642D01*
X145850428Y-121094500D01*
X145886714Y-121076357D01*
X145941142Y-121076357D01*
X145977428Y-121094500D01*
X145995571Y-121112642D01*
X146013714Y-121148928D01*
X146013714Y-121257785D01*
X145995571Y-121294071D01*
X145977428Y-121312214D01*
X145941142Y-121330357D01*
X145886714Y-121330357D01*
X146177000Y-121330357D02*
X146177000Y-120949357D01*
X146340285Y-121330357D02*
X146340285Y-121130785D01*
X146322142Y-121094500D01*
X146285857Y-121076357D01*
X146231428Y-121076357D01*
X146195142Y-121094500D01*
X146177000Y-121112642D01*
X146521714Y-121330357D02*
X146521714Y-121076357D01*
X146521714Y-121112642D02*
X146539857Y-121094500D01*
X146576142Y-121076357D01*
X146630571Y-121076357D01*
X146666857Y-121094500D01*
X146685000Y-121130785D01*
X146685000Y-121330357D01*
X146685000Y-121130785D02*
X146703142Y-121094500D01*
X146739428Y-121076357D01*
X146793857Y-121076357D01*
X146830142Y-121094500D01*
X146848285Y-121130785D01*
X146848285Y-121330357D01*
X130692071Y-87929357D02*
X130510642Y-87929357D01*
X130510642Y-87548357D01*
X130819071Y-87784214D02*
X131109357Y-87784214D01*
X124795642Y-97236642D02*
X124777500Y-97218500D01*
X124759357Y-97182214D01*
X124759357Y-97091500D01*
X124777500Y-97055214D01*
X124795642Y-97037071D01*
X124831928Y-97018928D01*
X124868214Y-97018928D01*
X124922642Y-97037071D01*
X125140357Y-97254785D01*
X125140357Y-97018928D01*
X124795642Y-96873785D02*
X124777500Y-96855642D01*
X124759357Y-96819357D01*
X124759357Y-96728642D01*
X124777500Y-96692357D01*
X124795642Y-96674214D01*
X124831928Y-96656071D01*
X124868214Y-96656071D01*
X124922642Y-96674214D01*
X125140357Y-96891928D01*
X125140357Y-96656071D01*
X124759357Y-96420214D02*
X124759357Y-96383928D01*
X124777500Y-96347642D01*
X124795642Y-96329500D01*
X124831928Y-96311357D01*
X124904500Y-96293214D01*
X124995214Y-96293214D01*
X125067785Y-96311357D01*
X125104071Y-96329500D01*
X125122214Y-96347642D01*
X125140357Y-96383928D01*
X125140357Y-96420214D01*
X125122214Y-96456500D01*
X125104071Y-96474642D01*
X125067785Y-96492785D01*
X124995214Y-96510928D01*
X124904500Y-96510928D01*
X124831928Y-96492785D01*
X124795642Y-96474642D01*
X124777500Y-96456500D01*
X124759357Y-96420214D01*
X125140357Y-96129928D02*
X124759357Y-96129928D01*
X124995214Y-96093642D02*
X125140357Y-95984785D01*
X124886357Y-95984785D02*
X125031500Y-96129928D01*
X125140357Y-95767071D02*
X125122214Y-95803357D01*
X125104071Y-95821500D01*
X125067785Y-95839642D01*
X124958928Y-95839642D01*
X124922642Y-95821500D01*
X124904500Y-95803357D01*
X124886357Y-95767071D01*
X124886357Y-95712642D01*
X124904500Y-95676357D01*
X124922642Y-95658214D01*
X124958928Y-95640071D01*
X125067785Y-95640071D01*
X125104071Y-95658214D01*
X125122214Y-95676357D01*
X125140357Y-95712642D01*
X125140357Y-95767071D01*
X125140357Y-95476785D02*
X124759357Y-95476785D01*
X125140357Y-95313500D02*
X124940785Y-95313500D01*
X124904500Y-95331642D01*
X124886357Y-95367928D01*
X124886357Y-95422357D01*
X124904500Y-95458642D01*
X124922642Y-95476785D01*
X125140357Y-95132071D02*
X124886357Y-95132071D01*
X124922642Y-95132071D02*
X124904500Y-95113928D01*
X124886357Y-95077642D01*
X124886357Y-95023214D01*
X124904500Y-94986928D01*
X124940785Y-94968785D01*
X125140357Y-94968785D01*
X124940785Y-94968785D02*
X124904500Y-94950642D01*
X124886357Y-94914357D01*
X124886357Y-94859928D01*
X124904500Y-94823642D01*
X124940785Y-94805500D01*
X125140357Y-94805500D01*
X128152071Y-87929357D02*
X127970642Y-87929357D01*
X127970642Y-87548357D01*
X128279071Y-87784214D02*
X128569357Y-87784214D01*
X128424214Y-87929357D02*
X128424214Y-87639071D01*
X121384785Y-96057357D02*
X121167071Y-96057357D01*
X121275928Y-96057357D02*
X121275928Y-95676357D01*
X121239642Y-95730785D01*
X121203357Y-95767071D01*
X121167071Y-95785214D01*
X121620642Y-95676357D02*
X121656928Y-95676357D01*
X121693214Y-95694500D01*
X121711357Y-95712642D01*
X121729500Y-95748928D01*
X121747642Y-95821500D01*
X121747642Y-95912214D01*
X121729500Y-95984785D01*
X121711357Y-96021071D01*
X121693214Y-96039214D01*
X121656928Y-96057357D01*
X121620642Y-96057357D01*
X121584357Y-96039214D01*
X121566214Y-96021071D01*
X121548071Y-95984785D01*
X121529928Y-95912214D01*
X121529928Y-95821500D01*
X121548071Y-95748928D01*
X121566214Y-95712642D01*
X121584357Y-95694500D01*
X121620642Y-95676357D01*
X122074214Y-95803357D02*
X122074214Y-96057357D01*
X121910928Y-95803357D02*
X121910928Y-96002928D01*
X121929071Y-96039214D01*
X121965357Y-96057357D01*
X122019785Y-96057357D01*
X122056071Y-96039214D01*
X122074214Y-96021071D01*
X122382642Y-95857785D02*
X122255642Y-95857785D01*
X122255642Y-96057357D02*
X122255642Y-95676357D01*
X122437071Y-95676357D01*
X146603357Y-126265214D02*
X146603357Y-126482928D01*
X146603357Y-126374071D02*
X146222357Y-126374071D01*
X146276785Y-126410357D01*
X146313071Y-126446642D01*
X146331214Y-126482928D01*
X146222357Y-126029357D02*
X146222357Y-125993071D01*
X146240500Y-125956785D01*
X146258642Y-125938642D01*
X146294928Y-125920500D01*
X146367500Y-125902357D01*
X146458214Y-125902357D01*
X146530785Y-125920500D01*
X146567071Y-125938642D01*
X146585214Y-125956785D01*
X146603357Y-125993071D01*
X146603357Y-126029357D01*
X146585214Y-126065642D01*
X146567071Y-126083785D01*
X146530785Y-126101928D01*
X146458214Y-126120071D01*
X146367500Y-126120071D01*
X146294928Y-126101928D01*
X146258642Y-126083785D01*
X146240500Y-126065642D01*
X146222357Y-126029357D01*
X146349357Y-125575785D02*
X146603357Y-125575785D01*
X146349357Y-125739071D02*
X146548928Y-125739071D01*
X146585214Y-125720928D01*
X146603357Y-125684642D01*
X146603357Y-125630214D01*
X146585214Y-125593928D01*
X146567071Y-125575785D01*
X146403785Y-125267357D02*
X146403785Y-125394357D01*
X146603357Y-125394357D02*
X146222357Y-125394357D01*
X146222357Y-125212928D01*
X154531785Y-111170357D02*
X154314071Y-111170357D01*
X154422928Y-111170357D02*
X154422928Y-110789357D01*
X154386642Y-110843785D01*
X154350357Y-110880071D01*
X154314071Y-110898214D01*
X154767642Y-110789357D02*
X154803928Y-110789357D01*
X154840214Y-110807500D01*
X154858357Y-110825642D01*
X154876500Y-110861928D01*
X154894642Y-110934500D01*
X154894642Y-111025214D01*
X154876500Y-111097785D01*
X154858357Y-111134071D01*
X154840214Y-111152214D01*
X154803928Y-111170357D01*
X154767642Y-111170357D01*
X154731357Y-111152214D01*
X154713214Y-111134071D01*
X154695071Y-111097785D01*
X154676928Y-111025214D01*
X154676928Y-110934500D01*
X154695071Y-110861928D01*
X154713214Y-110825642D01*
X154731357Y-110807500D01*
X154767642Y-110789357D01*
X155221214Y-110916357D02*
X155221214Y-111170357D01*
X155057928Y-110916357D02*
X155057928Y-111115928D01*
X155076071Y-111152214D01*
X155112357Y-111170357D01*
X155166785Y-111170357D01*
X155203071Y-111152214D01*
X155221214Y-111134071D01*
X155529642Y-110970785D02*
X155402642Y-110970785D01*
X155402642Y-111170357D02*
X155402642Y-110789357D01*
X155584071Y-110789357D01*
X148308785Y-90877571D02*
X148308785Y-90750571D01*
X148508357Y-90696142D02*
X148508357Y-90877571D01*
X148127357Y-90877571D01*
X148127357Y-90696142D01*
X148490214Y-90551000D02*
X148508357Y-90496571D01*
X148508357Y-90405857D01*
X148490214Y-90369571D01*
X148472071Y-90351428D01*
X148435785Y-90333285D01*
X148399500Y-90333285D01*
X148363214Y-90351428D01*
X148345071Y-90369571D01*
X148326928Y-90405857D01*
X148308785Y-90478428D01*
X148290642Y-90514714D01*
X148272500Y-90532857D01*
X148236214Y-90551000D01*
X148199928Y-90551000D01*
X148163642Y-90532857D01*
X148145500Y-90514714D01*
X148127357Y-90478428D01*
X148127357Y-90387714D01*
X148145500Y-90333285D01*
X148508357Y-90170000D02*
X148127357Y-90170000D01*
X148127357Y-90079285D01*
X148145500Y-90024857D01*
X148181785Y-89988571D01*
X148218071Y-89970428D01*
X148290642Y-89952285D01*
X148345071Y-89952285D01*
X148417642Y-89970428D01*
X148453928Y-89988571D01*
X148490214Y-90024857D01*
X148508357Y-90079285D01*
X148508357Y-90170000D01*
X137223500Y-82976357D02*
X137096500Y-82794928D01*
X137005785Y-82976357D02*
X137005785Y-82595357D01*
X137150928Y-82595357D01*
X137187214Y-82613500D01*
X137205357Y-82631642D01*
X137223500Y-82667928D01*
X137223500Y-82722357D01*
X137205357Y-82758642D01*
X137187214Y-82776785D01*
X137150928Y-82794928D01*
X137005785Y-82794928D01*
X137350500Y-82595357D02*
X137604500Y-82976357D01*
X137604500Y-82595357D02*
X137350500Y-82976357D01*
X131290785Y-96057357D02*
X131073071Y-96057357D01*
X131181928Y-96057357D02*
X131181928Y-95676357D01*
X131145642Y-95730785D01*
X131109357Y-95767071D01*
X131073071Y-95785214D01*
X131526642Y-95676357D02*
X131562928Y-95676357D01*
X131599214Y-95694500D01*
X131617357Y-95712642D01*
X131635500Y-95748928D01*
X131653642Y-95821500D01*
X131653642Y-95912214D01*
X131635500Y-95984785D01*
X131617357Y-96021071D01*
X131599214Y-96039214D01*
X131562928Y-96057357D01*
X131526642Y-96057357D01*
X131490357Y-96039214D01*
X131472214Y-96021071D01*
X131454071Y-95984785D01*
X131435928Y-95912214D01*
X131435928Y-95821500D01*
X131454071Y-95748928D01*
X131472214Y-95712642D01*
X131490357Y-95694500D01*
X131526642Y-95676357D01*
X131980214Y-95803357D02*
X131980214Y-96057357D01*
X131816928Y-95803357D02*
X131816928Y-96002928D01*
X131835071Y-96039214D01*
X131871357Y-96057357D01*
X131925785Y-96057357D01*
X131962071Y-96039214D01*
X131980214Y-96021071D01*
X132288642Y-95857785D02*
X132161642Y-95857785D01*
X132161642Y-96057357D02*
X132161642Y-95676357D01*
X132343071Y-95676357D01*
X123199071Y-87929357D02*
X123072071Y-87747928D01*
X122981357Y-87929357D02*
X122981357Y-87548357D01*
X123126500Y-87548357D01*
X123162785Y-87566500D01*
X123180928Y-87584642D01*
X123199071Y-87620928D01*
X123199071Y-87675357D01*
X123180928Y-87711642D01*
X123162785Y-87729785D01*
X123126500Y-87747928D01*
X122981357Y-87747928D01*
X123362357Y-87784214D02*
X123652642Y-87784214D01*
X123507500Y-87929357D02*
X123507500Y-87639071D01*
X130438071Y-98216357D02*
X130474357Y-98216357D01*
X130510642Y-98234500D01*
X130528785Y-98252642D01*
X130546928Y-98288928D01*
X130565071Y-98361500D01*
X130565071Y-98452214D01*
X130546928Y-98524785D01*
X130528785Y-98561071D01*
X130510642Y-98579214D01*
X130474357Y-98597357D01*
X130438071Y-98597357D01*
X130401785Y-98579214D01*
X130383642Y-98561071D01*
X130365500Y-98524785D01*
X130347357Y-98452214D01*
X130347357Y-98361500D01*
X130365500Y-98288928D01*
X130383642Y-98252642D01*
X130401785Y-98234500D01*
X130438071Y-98216357D01*
X130728357Y-98561071D02*
X130746500Y-98579214D01*
X130728357Y-98597357D01*
X130710214Y-98579214D01*
X130728357Y-98561071D01*
X130728357Y-98597357D01*
X131109357Y-98597357D02*
X130891642Y-98597357D01*
X131000500Y-98597357D02*
X131000500Y-98216357D01*
X130964214Y-98270785D01*
X130927928Y-98307071D01*
X130891642Y-98325214D01*
X131435928Y-98343357D02*
X131435928Y-98597357D01*
X131272642Y-98343357D02*
X131272642Y-98542928D01*
X131290785Y-98579214D01*
X131327071Y-98597357D01*
X131381500Y-98597357D01*
X131417785Y-98579214D01*
X131435928Y-98561071D01*
X131744357Y-98397785D02*
X131617357Y-98397785D01*
X131617357Y-98597357D02*
X131617357Y-98216357D01*
X131798785Y-98216357D01*
X144725571Y-115905642D02*
X144743714Y-115887500D01*
X144780000Y-115869357D01*
X144870714Y-115869357D01*
X144907000Y-115887500D01*
X144925142Y-115905642D01*
X144943285Y-115941928D01*
X144943285Y-115978214D01*
X144925142Y-116032642D01*
X144707428Y-116250357D01*
X144943285Y-116250357D01*
X145070285Y-115869357D02*
X145324285Y-115869357D01*
X145161000Y-116250357D01*
X145542000Y-115869357D02*
X145578285Y-115869357D01*
X145614571Y-115887500D01*
X145632714Y-115905642D01*
X145650857Y-115941928D01*
X145669000Y-116014500D01*
X145669000Y-116105214D01*
X145650857Y-116177785D01*
X145632714Y-116214071D01*
X145614571Y-116232214D01*
X145578285Y-116250357D01*
X145542000Y-116250357D01*
X145505714Y-116232214D01*
X145487571Y-116214071D01*
X145469428Y-116177785D01*
X145451285Y-116105214D01*
X145451285Y-116014500D01*
X145469428Y-115941928D01*
X145487571Y-115905642D01*
X145505714Y-115887500D01*
X145542000Y-115869357D01*
X145886714Y-116250357D02*
X145850428Y-116232214D01*
X145832285Y-116214071D01*
X145814142Y-116177785D01*
X145814142Y-116068928D01*
X145832285Y-116032642D01*
X145850428Y-116014500D01*
X145886714Y-115996357D01*
X145941142Y-115996357D01*
X145977428Y-116014500D01*
X145995571Y-116032642D01*
X146013714Y-116068928D01*
X146013714Y-116177785D01*
X145995571Y-116214071D01*
X145977428Y-116232214D01*
X145941142Y-116250357D01*
X145886714Y-116250357D01*
X146177000Y-116250357D02*
X146177000Y-115869357D01*
X146340285Y-116250357D02*
X146340285Y-116050785D01*
X146322142Y-116014500D01*
X146285857Y-115996357D01*
X146231428Y-115996357D01*
X146195142Y-116014500D01*
X146177000Y-116032642D01*
X146521714Y-116250357D02*
X146521714Y-115996357D01*
X146521714Y-116032642D02*
X146539857Y-116014500D01*
X146576142Y-115996357D01*
X146630571Y-115996357D01*
X146666857Y-116014500D01*
X146685000Y-116050785D01*
X146685000Y-116250357D01*
X146685000Y-116050785D02*
X146703142Y-116014500D01*
X146739428Y-115996357D01*
X146793857Y-115996357D01*
X146830142Y-116014500D01*
X146848285Y-116050785D01*
X146848285Y-116250357D01*
X153896785Y-90877571D02*
X153896785Y-90750571D01*
X154096357Y-90696142D02*
X154096357Y-90877571D01*
X153715357Y-90877571D01*
X153715357Y-90696142D01*
X154078214Y-90551000D02*
X154096357Y-90496571D01*
X154096357Y-90405857D01*
X154078214Y-90369571D01*
X154060071Y-90351428D01*
X154023785Y-90333285D01*
X153987500Y-90333285D01*
X153951214Y-90351428D01*
X153933071Y-90369571D01*
X153914928Y-90405857D01*
X153896785Y-90478428D01*
X153878642Y-90514714D01*
X153860500Y-90532857D01*
X153824214Y-90551000D01*
X153787928Y-90551000D01*
X153751642Y-90532857D01*
X153733500Y-90514714D01*
X153715357Y-90478428D01*
X153715357Y-90387714D01*
X153733500Y-90333285D01*
X154096357Y-90170000D02*
X153715357Y-90170000D01*
X153715357Y-90079285D01*
X153733500Y-90024857D01*
X153769785Y-89988571D01*
X153806071Y-89970428D01*
X153878642Y-89952285D01*
X153933071Y-89952285D01*
X154005642Y-89970428D01*
X154041928Y-89988571D01*
X154078214Y-90024857D01*
X154096357Y-90079285D01*
X154096357Y-90170000D01*
X144662071Y-113202357D02*
X144698357Y-113202357D01*
X144734642Y-113220500D01*
X144752785Y-113238642D01*
X144770928Y-113274928D01*
X144789071Y-113347500D01*
X144789071Y-113438214D01*
X144770928Y-113510785D01*
X144752785Y-113547071D01*
X144734642Y-113565214D01*
X144698357Y-113583357D01*
X144662071Y-113583357D01*
X144625785Y-113565214D01*
X144607642Y-113547071D01*
X144589500Y-113510785D01*
X144571357Y-113438214D01*
X144571357Y-113347500D01*
X144589500Y-113274928D01*
X144607642Y-113238642D01*
X144625785Y-113220500D01*
X144662071Y-113202357D01*
X144952357Y-113547071D02*
X144970500Y-113565214D01*
X144952357Y-113583357D01*
X144934214Y-113565214D01*
X144952357Y-113547071D01*
X144952357Y-113583357D01*
X145333357Y-113583357D02*
X145115642Y-113583357D01*
X145224500Y-113583357D02*
X145224500Y-113202357D01*
X145188214Y-113256785D01*
X145151928Y-113293071D01*
X145115642Y-113311214D01*
X145659928Y-113329357D02*
X145659928Y-113583357D01*
X145496642Y-113329357D02*
X145496642Y-113528928D01*
X145514785Y-113565214D01*
X145551071Y-113583357D01*
X145605500Y-113583357D01*
X145641785Y-113565214D01*
X145659928Y-113547071D01*
X145968357Y-113383785D02*
X145841357Y-113383785D01*
X145841357Y-113583357D02*
X145841357Y-113202357D01*
X146022785Y-113202357D01*
X116849071Y-125521357D02*
X116885357Y-125521357D01*
X116921642Y-125539500D01*
X116939785Y-125557642D01*
X116957928Y-125593928D01*
X116976071Y-125666500D01*
X116976071Y-125757214D01*
X116957928Y-125829785D01*
X116939785Y-125866071D01*
X116921642Y-125884214D01*
X116885357Y-125902357D01*
X116849071Y-125902357D01*
X116812785Y-125884214D01*
X116794642Y-125866071D01*
X116776500Y-125829785D01*
X116758357Y-125757214D01*
X116758357Y-125666500D01*
X116776500Y-125593928D01*
X116794642Y-125557642D01*
X116812785Y-125539500D01*
X116849071Y-125521357D01*
X117139357Y-125866071D02*
X117157500Y-125884214D01*
X117139357Y-125902357D01*
X117121214Y-125884214D01*
X117139357Y-125866071D01*
X117139357Y-125902357D01*
X117520357Y-125902357D02*
X117302642Y-125902357D01*
X117411500Y-125902357D02*
X117411500Y-125521357D01*
X117375214Y-125575785D01*
X117338928Y-125612071D01*
X117302642Y-125630214D01*
X117846928Y-125648357D02*
X117846928Y-125902357D01*
X117683642Y-125648357D02*
X117683642Y-125847928D01*
X117701785Y-125884214D01*
X117738071Y-125902357D01*
X117792500Y-125902357D01*
X117828785Y-125884214D01*
X117846928Y-125866071D01*
X118155357Y-125702785D02*
X118028357Y-125702785D01*
X118028357Y-125902357D02*
X118028357Y-125521357D01*
X118209785Y-125521357D01*
X144970500Y-123870357D02*
X144752785Y-123870357D01*
X144861642Y-123870357D02*
X144861642Y-123489357D01*
X144825357Y-123543785D01*
X144789071Y-123580071D01*
X144752785Y-123598214D01*
X145206357Y-123489357D02*
X145242642Y-123489357D01*
X145278928Y-123507500D01*
X145297071Y-123525642D01*
X145315214Y-123561928D01*
X145333357Y-123634500D01*
X145333357Y-123725214D01*
X145315214Y-123797785D01*
X145297071Y-123834071D01*
X145278928Y-123852214D01*
X145242642Y-123870357D01*
X145206357Y-123870357D01*
X145170071Y-123852214D01*
X145151928Y-123834071D01*
X145133785Y-123797785D01*
X145115642Y-123725214D01*
X145115642Y-123634500D01*
X145133785Y-123561928D01*
X145151928Y-123525642D01*
X145170071Y-123507500D01*
X145206357Y-123489357D01*
X145496642Y-123870357D02*
X145496642Y-123489357D01*
X145532928Y-123725214D02*
X145641785Y-123870357D01*
X145641785Y-123616357D02*
X145496642Y-123761500D01*
X145859500Y-123870357D02*
X145823214Y-123852214D01*
X145805071Y-123834071D01*
X145786928Y-123797785D01*
X145786928Y-123688928D01*
X145805071Y-123652642D01*
X145823214Y-123634500D01*
X145859500Y-123616357D01*
X145913928Y-123616357D01*
X145950214Y-123634500D01*
X145968357Y-123652642D01*
X145986500Y-123688928D01*
X145986500Y-123797785D01*
X145968357Y-123834071D01*
X145950214Y-123852214D01*
X145913928Y-123870357D01*
X145859500Y-123870357D01*
X146149785Y-123870357D02*
X146149785Y-123489357D01*
X146313071Y-123870357D02*
X146313071Y-123670785D01*
X146294928Y-123634500D01*
X146258642Y-123616357D01*
X146204214Y-123616357D01*
X146167928Y-123634500D01*
X146149785Y-123652642D01*
X146494500Y-123870357D02*
X146494500Y-123616357D01*
X146494500Y-123652642D02*
X146512642Y-123634500D01*
X146548928Y-123616357D01*
X146603357Y-123616357D01*
X146639642Y-123634500D01*
X146657785Y-123670785D01*
X146657785Y-123870357D01*
X146657785Y-123670785D02*
X146675928Y-123634500D01*
X146712214Y-123616357D01*
X146766642Y-123616357D01*
X146802928Y-123634500D01*
X146821071Y-123670785D01*
X146821071Y-123870357D01*
X121167071Y-98216357D02*
X121203357Y-98216357D01*
X121239642Y-98234500D01*
X121257785Y-98252642D01*
X121275928Y-98288928D01*
X121294071Y-98361500D01*
X121294071Y-98452214D01*
X121275928Y-98524785D01*
X121257785Y-98561071D01*
X121239642Y-98579214D01*
X121203357Y-98597357D01*
X121167071Y-98597357D01*
X121130785Y-98579214D01*
X121112642Y-98561071D01*
X121094500Y-98524785D01*
X121076357Y-98452214D01*
X121076357Y-98361500D01*
X121094500Y-98288928D01*
X121112642Y-98252642D01*
X121130785Y-98234500D01*
X121167071Y-98216357D01*
X121457357Y-98561071D02*
X121475500Y-98579214D01*
X121457357Y-98597357D01*
X121439214Y-98579214D01*
X121457357Y-98561071D01*
X121457357Y-98597357D01*
X121838357Y-98597357D02*
X121620642Y-98597357D01*
X121729500Y-98597357D02*
X121729500Y-98216357D01*
X121693214Y-98270785D01*
X121656928Y-98307071D01*
X121620642Y-98325214D01*
X122164928Y-98343357D02*
X122164928Y-98597357D01*
X122001642Y-98343357D02*
X122001642Y-98542928D01*
X122019785Y-98579214D01*
X122056071Y-98597357D01*
X122110500Y-98597357D01*
X122146785Y-98579214D01*
X122164928Y-98561071D01*
X122473357Y-98397785D02*
X122346357Y-98397785D01*
X122346357Y-98597357D02*
X122346357Y-98216357D01*
X122527785Y-98216357D01*
X154314071Y-101899357D02*
X154350357Y-101899357D01*
X154386642Y-101917500D01*
X154404785Y-101935642D01*
X154422928Y-101971928D01*
X154441071Y-102044500D01*
X154441071Y-102135214D01*
X154422928Y-102207785D01*
X154404785Y-102244071D01*
X154386642Y-102262214D01*
X154350357Y-102280357D01*
X154314071Y-102280357D01*
X154277785Y-102262214D01*
X154259642Y-102244071D01*
X154241500Y-102207785D01*
X154223357Y-102135214D01*
X154223357Y-102044500D01*
X154241500Y-101971928D01*
X154259642Y-101935642D01*
X154277785Y-101917500D01*
X154314071Y-101899357D01*
X154604357Y-102244071D02*
X154622500Y-102262214D01*
X154604357Y-102280357D01*
X154586214Y-102262214D01*
X154604357Y-102244071D01*
X154604357Y-102280357D01*
X154985357Y-102280357D02*
X154767642Y-102280357D01*
X154876500Y-102280357D02*
X154876500Y-101899357D01*
X154840214Y-101953785D01*
X154803928Y-101990071D01*
X154767642Y-102008214D01*
X155311928Y-102026357D02*
X155311928Y-102280357D01*
X155148642Y-102026357D02*
X155148642Y-102225928D01*
X155166785Y-102262214D01*
X155203071Y-102280357D01*
X155257500Y-102280357D01*
X155293785Y-102262214D01*
X155311928Y-102244071D01*
X155620357Y-102080785D02*
X155493357Y-102080785D01*
X155493357Y-102280357D02*
X155493357Y-101899357D01*
X155674785Y-101899357D01*
X143682357Y-126609928D02*
X143682357Y-126573642D01*
X143700500Y-126537357D01*
X143718642Y-126519214D01*
X143754928Y-126501071D01*
X143827500Y-126482928D01*
X143918214Y-126482928D01*
X143990785Y-126501071D01*
X144027071Y-126519214D01*
X144045214Y-126537357D01*
X144063357Y-126573642D01*
X144063357Y-126609928D01*
X144045214Y-126646214D01*
X144027071Y-126664357D01*
X143990785Y-126682500D01*
X143918214Y-126700642D01*
X143827500Y-126700642D01*
X143754928Y-126682500D01*
X143718642Y-126664357D01*
X143700500Y-126646214D01*
X143682357Y-126609928D01*
X144027071Y-126319642D02*
X144045214Y-126301500D01*
X144063357Y-126319642D01*
X144045214Y-126337785D01*
X144027071Y-126319642D01*
X144063357Y-126319642D01*
X144063357Y-125938642D02*
X144063357Y-126156357D01*
X144063357Y-126047500D02*
X143682357Y-126047500D01*
X143736785Y-126083785D01*
X143773071Y-126120071D01*
X143791214Y-126156357D01*
X143809357Y-125612071D02*
X144063357Y-125612071D01*
X143809357Y-125775357D02*
X144008928Y-125775357D01*
X144045214Y-125757214D01*
X144063357Y-125720928D01*
X144063357Y-125666500D01*
X144045214Y-125630214D01*
X144027071Y-125612071D01*
X143863785Y-125303642D02*
X143863785Y-125430642D01*
X144063357Y-125430642D02*
X143682357Y-125430642D01*
X143682357Y-125249214D01*
X136996714Y-85135357D02*
X137214428Y-85135357D01*
X137105571Y-85516357D02*
X137105571Y-85135357D01*
X137305142Y-85135357D02*
X137559142Y-85516357D01*
X137559142Y-85135357D02*
X137305142Y-85516357D01*
X154314071Y-108249357D02*
X154350357Y-108249357D01*
X154386642Y-108267500D01*
X154404785Y-108285642D01*
X154422928Y-108321928D01*
X154441071Y-108394500D01*
X154441071Y-108485214D01*
X154422928Y-108557785D01*
X154404785Y-108594071D01*
X154386642Y-108612214D01*
X154350357Y-108630357D01*
X154314071Y-108630357D01*
X154277785Y-108612214D01*
X154259642Y-108594071D01*
X154241500Y-108557785D01*
X154223357Y-108485214D01*
X154223357Y-108394500D01*
X154241500Y-108321928D01*
X154259642Y-108285642D01*
X154277785Y-108267500D01*
X154314071Y-108249357D01*
X154604357Y-108594071D02*
X154622500Y-108612214D01*
X154604357Y-108630357D01*
X154586214Y-108612214D01*
X154604357Y-108594071D01*
X154604357Y-108630357D01*
X154985357Y-108630357D02*
X154767642Y-108630357D01*
X154876500Y-108630357D02*
X154876500Y-108249357D01*
X154840214Y-108303785D01*
X154803928Y-108340071D01*
X154767642Y-108358214D01*
X155311928Y-108376357D02*
X155311928Y-108630357D01*
X155148642Y-108376357D02*
X155148642Y-108575928D01*
X155166785Y-108612214D01*
X155203071Y-108630357D01*
X155257500Y-108630357D01*
X155293785Y-108612214D01*
X155311928Y-108594071D01*
X155620357Y-108430785D02*
X155493357Y-108430785D01*
X155493357Y-108630357D02*
X155493357Y-108249357D01*
X155674785Y-108249357D01*
D10*
X174641666Y-127674714D02*
X174879761Y-128341380D01*
X175117857Y-127674714D01*
X176022619Y-128341380D02*
X175451190Y-128341380D01*
X175736904Y-128341380D02*
X175736904Y-127341380D01*
X175641666Y-127484238D01*
X175546428Y-127579476D01*
X175451190Y-127627095D01*
X176451190Y-127960428D02*
X177213095Y-127960428D01*
X177689285Y-127341380D02*
X177689285Y-128150904D01*
X177736904Y-128246142D01*
X177784523Y-128293761D01*
X177879761Y-128341380D01*
X178070238Y-128341380D01*
X178165476Y-128293761D01*
X178213095Y-128246142D01*
X178260714Y-128150904D01*
X178260714Y-127341380D01*
X178689285Y-128293761D02*
X178832142Y-128341380D01*
X179070238Y-128341380D01*
X179165476Y-128293761D01*
X179213095Y-128246142D01*
X179260714Y-128150904D01*
X179260714Y-128055666D01*
X179213095Y-127960428D01*
X179165476Y-127912809D01*
X179070238Y-127865190D01*
X178879761Y-127817571D01*
X178784523Y-127769952D01*
X178736904Y-127722333D01*
X178689285Y-127627095D01*
X178689285Y-127531857D01*
X178736904Y-127436619D01*
X178784523Y-127389000D01*
X178879761Y-127341380D01*
X179117857Y-127341380D01*
X179260714Y-127389000D01*
X179689285Y-128341380D02*
X179689285Y-127341380D01*
X180022619Y-128055666D01*
X180355952Y-127341380D01*
X180355952Y-128341380D01*
X180736904Y-127341380D02*
X181403571Y-128341380D01*
X181403571Y-127341380D02*
X180736904Y-128341380D01*
X181784523Y-128246142D02*
X181832142Y-128293761D01*
X181784523Y-128341380D01*
X181736904Y-128293761D01*
X181784523Y-128246142D01*
X181784523Y-128341380D01*
X182260714Y-128341380D02*
X182260714Y-127341380D01*
X182260714Y-127722333D02*
X182355952Y-127674714D01*
X182546428Y-127674714D01*
X182641666Y-127722333D01*
X182689285Y-127769952D01*
X182736904Y-127865190D01*
X182736904Y-128150904D01*
X182689285Y-128246142D01*
X182641666Y-128293761D01*
X182546428Y-128341380D01*
X182355952Y-128341380D01*
X182260714Y-128293761D01*
X183546428Y-128293761D02*
X183451190Y-128341380D01*
X183260714Y-128341380D01*
X183165476Y-128293761D01*
X183117857Y-128198523D01*
X183117857Y-127817571D01*
X183165476Y-127722333D01*
X183260714Y-127674714D01*
X183451190Y-127674714D01*
X183546428Y-127722333D01*
X183594047Y-127817571D01*
X183594047Y-127912809D01*
X183117857Y-128008047D01*
X183879761Y-127674714D02*
X184260714Y-127674714D01*
X184022619Y-127341380D02*
X184022619Y-128198523D01*
X184070238Y-128293761D01*
X184165476Y-128341380D01*
X184260714Y-128341380D01*
X185022619Y-128341380D02*
X185022619Y-127817571D01*
X184975000Y-127722333D01*
X184879761Y-127674714D01*
X184689285Y-127674714D01*
X184594047Y-127722333D01*
X185022619Y-128293761D02*
X184927380Y-128341380D01*
X184689285Y-128341380D01*
X184594047Y-128293761D01*
X184546428Y-128198523D01*
X184546428Y-128103285D01*
X184594047Y-128008047D01*
X184689285Y-127960428D01*
X184927380Y-127960428D01*
X185022619Y-127912809D01*
X185498809Y-127960428D02*
X186260714Y-127960428D01*
X187260714Y-128341380D02*
X186689285Y-128341380D01*
X186975000Y-128341380D02*
X186975000Y-127341380D01*
X186879761Y-127484238D01*
X186784523Y-127579476D01*
X186689285Y-127627095D01*
D11*
X143473714Y-85153500D02*
X143437428Y-85135357D01*
X143383000Y-85135357D01*
X143328571Y-85153500D01*
X143292285Y-85189785D01*
X143274142Y-85226071D01*
X143256000Y-85298642D01*
X143256000Y-85353071D01*
X143274142Y-85425642D01*
X143292285Y-85461928D01*
X143328571Y-85498214D01*
X143383000Y-85516357D01*
X143419285Y-85516357D01*
X143473714Y-85498214D01*
X143491857Y-85480071D01*
X143491857Y-85353071D01*
X143419285Y-85353071D01*
X143655142Y-85516357D02*
X143655142Y-85135357D01*
X143872857Y-85516357D01*
X143872857Y-85135357D01*
X144054285Y-85516357D02*
X144054285Y-85135357D01*
X144145000Y-85135357D01*
X144199428Y-85153500D01*
X144235714Y-85189785D01*
X144253857Y-85226071D01*
X144272000Y-85298642D01*
X144272000Y-85353071D01*
X144253857Y-85425642D01*
X144235714Y-85461928D01*
X144199428Y-85498214D01*
X144145000Y-85516357D01*
X144054285Y-85516357D01*
X154531785Y-99867357D02*
X154314071Y-99867357D01*
X154422928Y-99867357D02*
X154422928Y-99486357D01*
X154386642Y-99540785D01*
X154350357Y-99577071D01*
X154314071Y-99595214D01*
X154767642Y-99486357D02*
X154803928Y-99486357D01*
X154840214Y-99504500D01*
X154858357Y-99522642D01*
X154876500Y-99558928D01*
X154894642Y-99631500D01*
X154894642Y-99722214D01*
X154876500Y-99794785D01*
X154858357Y-99831071D01*
X154840214Y-99849214D01*
X154803928Y-99867357D01*
X154767642Y-99867357D01*
X154731357Y-99849214D01*
X154713214Y-99831071D01*
X154695071Y-99794785D01*
X154676928Y-99722214D01*
X154676928Y-99631500D01*
X154695071Y-99558928D01*
X154713214Y-99522642D01*
X154731357Y-99504500D01*
X154767642Y-99486357D01*
X155221214Y-99613357D02*
X155221214Y-99867357D01*
X155057928Y-99613357D02*
X155057928Y-99812928D01*
X155076071Y-99849214D01*
X155112357Y-99867357D01*
X155166785Y-99867357D01*
X155203071Y-99849214D01*
X155221214Y-99831071D01*
X155529642Y-99667785D02*
X155402642Y-99667785D01*
X155402642Y-99867357D02*
X155402642Y-99486357D01*
X155584071Y-99486357D01*
X144703571Y-118445642D02*
X144721714Y-118427500D01*
X144758000Y-118409357D01*
X144848714Y-118409357D01*
X144885000Y-118427500D01*
X144903142Y-118445642D01*
X144921285Y-118481928D01*
X144921285Y-118518214D01*
X144903142Y-118572642D01*
X144685428Y-118790357D01*
X144921285Y-118790357D01*
X145048285Y-118409357D02*
X145302285Y-118409357D01*
X145139000Y-118790357D01*
X145520000Y-118409357D02*
X145556285Y-118409357D01*
X145592571Y-118427500D01*
X145610714Y-118445642D01*
X145628857Y-118481928D01*
X145647000Y-118554500D01*
X145647000Y-118645214D01*
X145628857Y-118717785D01*
X145610714Y-118754071D01*
X145592571Y-118772214D01*
X145556285Y-118790357D01*
X145520000Y-118790357D01*
X145483714Y-118772214D01*
X145465571Y-118754071D01*
X145447428Y-118717785D01*
X145429285Y-118645214D01*
X145429285Y-118554500D01*
X145447428Y-118481928D01*
X145465571Y-118445642D01*
X145483714Y-118427500D01*
X145520000Y-118409357D01*
X145864714Y-118790357D02*
X145828428Y-118772214D01*
X145810285Y-118754071D01*
X145792142Y-118717785D01*
X145792142Y-118608928D01*
X145810285Y-118572642D01*
X145828428Y-118554500D01*
X145864714Y-118536357D01*
X145919142Y-118536357D01*
X145955428Y-118554500D01*
X145973571Y-118572642D01*
X145991714Y-118608928D01*
X145991714Y-118717785D01*
X145973571Y-118754071D01*
X145955428Y-118772214D01*
X145919142Y-118790357D01*
X145864714Y-118790357D01*
X146155000Y-118790357D02*
X146155000Y-118409357D01*
X146318285Y-118790357D02*
X146318285Y-118590785D01*
X146300142Y-118554500D01*
X146263857Y-118536357D01*
X146209428Y-118536357D01*
X146173142Y-118554500D01*
X146155000Y-118572642D01*
X146499714Y-118790357D02*
X146499714Y-118536357D01*
X146499714Y-118572642D02*
X146517857Y-118554500D01*
X146554142Y-118536357D01*
X146608571Y-118536357D01*
X146644857Y-118554500D01*
X146663000Y-118590785D01*
X146663000Y-118790357D01*
X146663000Y-118590785D02*
X146681142Y-118554500D01*
X146717428Y-118536357D01*
X146771857Y-118536357D01*
X146808142Y-118554500D01*
X146826285Y-118590785D01*
X146826285Y-118790357D01*
X125612071Y-87929357D02*
X125485071Y-87747928D01*
X125394357Y-87929357D02*
X125394357Y-87548357D01*
X125539500Y-87548357D01*
X125575785Y-87566500D01*
X125593928Y-87584642D01*
X125612071Y-87620928D01*
X125612071Y-87675357D01*
X125593928Y-87711642D01*
X125575785Y-87729785D01*
X125539500Y-87747928D01*
X125394357Y-87747928D01*
X125775357Y-87784214D02*
X126065642Y-87784214D01*
D10*
X150233142Y-101322142D02*
X150185523Y-101369761D01*
X150042666Y-101417380D01*
X149947428Y-101417380D01*
X149804571Y-101369761D01*
X149709333Y-101274523D01*
X149661714Y-101179285D01*
X149614095Y-100988809D01*
X149614095Y-100845952D01*
X149661714Y-100655476D01*
X149709333Y-100560238D01*
X149804571Y-100465000D01*
X149947428Y-100417380D01*
X150042666Y-100417380D01*
X150185523Y-100465000D01*
X150233142Y-100512619D01*
X151185523Y-101417380D02*
X150614095Y-101417380D01*
X150899809Y-101417380D02*
X150899809Y-100417380D01*
X150804571Y-100560238D01*
X150709333Y-100655476D01*
X150614095Y-100703095D01*
X152137904Y-101417380D02*
X151566476Y-101417380D01*
X151852190Y-101417380D02*
X151852190Y-100417380D01*
X151756952Y-100560238D01*
X151661714Y-100655476D01*
X151566476Y-100703095D01*
X126690380Y-99480666D02*
X126214190Y-99814000D01*
X126690380Y-100052095D02*
X125690380Y-100052095D01*
X125690380Y-99671142D01*
X125738000Y-99575904D01*
X125785619Y-99528285D01*
X125880857Y-99480666D01*
X126023714Y-99480666D01*
X126118952Y-99528285D01*
X126166571Y-99575904D01*
X126214190Y-99671142D01*
X126214190Y-100052095D01*
X125690380Y-99147333D02*
X125690380Y-98480666D01*
X126690380Y-98909238D01*
D12*
X149680666Y-86782123D02*
X149680666Y-87689266D01*
X149620190Y-87870695D01*
X149499238Y-87991647D01*
X149317809Y-88052123D01*
X149196857Y-88052123D01*
X150164476Y-86782123D02*
X150950666Y-86782123D01*
X150527333Y-87265933D01*
X150708761Y-87265933D01*
X150829714Y-87326409D01*
X150890190Y-87386885D01*
X150950666Y-87507838D01*
X150950666Y-87810219D01*
X150890190Y-87931171D01*
X150829714Y-87991647D01*
X150708761Y-88052123D01*
X150345904Y-88052123D01*
X150224952Y-87991647D01*
X150164476Y-87931171D01*
X130310238Y-104440523D02*
X130310238Y-103170523D01*
X131640714Y-104319571D02*
X131580238Y-104380047D01*
X131398809Y-104440523D01*
X131277857Y-104440523D01*
X131096428Y-104380047D01*
X130975476Y-104259095D01*
X130915000Y-104138142D01*
X130854523Y-103896238D01*
X130854523Y-103714809D01*
X130915000Y-103472904D01*
X130975476Y-103351952D01*
X131096428Y-103231000D01*
X131277857Y-103170523D01*
X131398809Y-103170523D01*
X131580238Y-103231000D01*
X131640714Y-103291476D01*
X132850238Y-104440523D02*
X132124523Y-104440523D01*
X132487380Y-104440523D02*
X132487380Y-103170523D01*
X132366428Y-103351952D01*
X132245476Y-103472904D01*
X132124523Y-103533380D01*
D10*
X129658095Y-127618380D02*
X129658095Y-128427904D01*
X129705714Y-128523142D01*
X129753333Y-128570761D01*
X129848571Y-128618380D01*
X130039047Y-128618380D01*
X130134285Y-128570761D01*
X130181904Y-128523142D01*
X130229523Y-128427904D01*
X130229523Y-127618380D01*
X131229523Y-128618380D02*
X130658095Y-128618380D01*
X130943809Y-128618380D02*
X130943809Y-127618380D01*
X130848571Y-127761238D01*
X130753333Y-127856476D01*
X130658095Y-127904095D01*
X117959142Y-112942666D02*
X118006761Y-112990285D01*
X118054380Y-113133142D01*
X118054380Y-113228380D01*
X118006761Y-113371238D01*
X117911523Y-113466476D01*
X117816285Y-113514095D01*
X117625809Y-113561714D01*
X117482952Y-113561714D01*
X117292476Y-113514095D01*
X117197238Y-113466476D01*
X117102000Y-113371238D01*
X117054380Y-113228380D01*
X117054380Y-113133142D01*
X117102000Y-112990285D01*
X117149619Y-112942666D01*
X117054380Y-112037904D02*
X117054380Y-112514095D01*
X117530571Y-112561714D01*
X117482952Y-112514095D01*
X117435333Y-112418857D01*
X117435333Y-112180761D01*
X117482952Y-112085523D01*
X117530571Y-112037904D01*
X117625809Y-111990285D01*
X117863904Y-111990285D01*
X117959142Y-112037904D01*
X118006761Y-112085523D01*
X118054380Y-112180761D01*
X118054380Y-112418857D01*
X118006761Y-112514095D01*
X117959142Y-112561714D01*
X150299142Y-110212142D02*
X150251523Y-110259761D01*
X150108666Y-110307380D01*
X150013428Y-110307380D01*
X149870571Y-110259761D01*
X149775333Y-110164523D01*
X149727714Y-110069285D01*
X149680095Y-109878809D01*
X149680095Y-109735952D01*
X149727714Y-109545476D01*
X149775333Y-109450238D01*
X149870571Y-109355000D01*
X150013428Y-109307380D01*
X150108666Y-109307380D01*
X150251523Y-109355000D01*
X150299142Y-109402619D01*
X151251523Y-110307380D02*
X150680095Y-110307380D01*
X150965809Y-110307380D02*
X150965809Y-109307380D01*
X150870571Y-109450238D01*
X150775333Y-109545476D01*
X150680095Y-109593095D01*
X151584857Y-109307380D02*
X152203904Y-109307380D01*
X151870571Y-109688333D01*
X152013428Y-109688333D01*
X152108666Y-109735952D01*
X152156285Y-109783571D01*
X152203904Y-109878809D01*
X152203904Y-110116904D01*
X152156285Y-110212142D01*
X152108666Y-110259761D01*
X152013428Y-110307380D01*
X151727714Y-110307380D01*
X151632476Y-110259761D01*
X151584857Y-110212142D01*
X136574380Y-104032666D02*
X136098190Y-104366000D01*
X136574380Y-104604095D02*
X135574380Y-104604095D01*
X135574380Y-104223142D01*
X135622000Y-104127904D01*
X135669619Y-104080285D01*
X135764857Y-104032666D01*
X135907714Y-104032666D01*
X136002952Y-104080285D01*
X136050571Y-104127904D01*
X136098190Y-104223142D01*
X136098190Y-104604095D01*
X135574380Y-103699333D02*
X135574380Y-103080285D01*
X135955333Y-103413619D01*
X135955333Y-103270761D01*
X136002952Y-103175523D01*
X136050571Y-103127904D01*
X136145809Y-103080285D01*
X136383904Y-103080285D01*
X136479142Y-103127904D01*
X136526761Y-103175523D01*
X136574380Y-103270761D01*
X136574380Y-103556476D01*
X136526761Y-103651714D01*
X136479142Y-103699333D01*
D12*
X103543704Y-123002523D02*
X103967038Y-124272523D01*
X104390371Y-123002523D01*
X105539419Y-124272523D02*
X105116085Y-123667761D01*
X104813704Y-124272523D02*
X104813704Y-123002523D01*
X105297514Y-123002523D01*
X105418466Y-123063000D01*
X105478942Y-123123476D01*
X105539419Y-123244428D01*
X105539419Y-123425857D01*
X105478942Y-123546809D01*
X105418466Y-123607285D01*
X105297514Y-123667761D01*
X104813704Y-123667761D01*
X106748942Y-124272523D02*
X106023228Y-124272523D01*
X106386085Y-124272523D02*
X106386085Y-123002523D01*
X106265133Y-123183952D01*
X106144180Y-123304904D01*
X106023228Y-123365380D01*
D10*
X160702666Y-93686380D02*
X160702666Y-94400666D01*
X160655047Y-94543523D01*
X160559809Y-94638761D01*
X160416952Y-94686380D01*
X160321714Y-94686380D01*
X161702666Y-94686380D02*
X161131238Y-94686380D01*
X161416952Y-94686380D02*
X161416952Y-93686380D01*
X161321714Y-93829238D01*
X161226476Y-93924476D01*
X161131238Y-93972095D01*
X162179095Y-91702000D02*
X162083857Y-91654380D01*
X161941000Y-91654380D01*
X161798142Y-91702000D01*
X161702904Y-91797238D01*
X161655285Y-91892476D01*
X161607666Y-92082952D01*
X161607666Y-92225809D01*
X161655285Y-92416285D01*
X161702904Y-92511523D01*
X161798142Y-92606761D01*
X161941000Y-92654380D01*
X162036238Y-92654380D01*
X162179095Y-92606761D01*
X162226714Y-92559142D01*
X162226714Y-92225809D01*
X162036238Y-92225809D01*
X162655285Y-92654380D02*
X162655285Y-91654380D01*
X163226714Y-92654380D01*
X163226714Y-91654380D01*
X163702904Y-92654380D02*
X163702904Y-91654380D01*
X163941000Y-91654380D01*
X164083857Y-91702000D01*
X164179095Y-91797238D01*
X164226714Y-91892476D01*
X164274333Y-92082952D01*
X164274333Y-92225809D01*
X164226714Y-92416285D01*
X164179095Y-92511523D01*
X164083857Y-92606761D01*
X163941000Y-92654380D01*
X163702904Y-92654380D01*
X158940523Y-91654380D02*
X158464333Y-91654380D01*
X158416714Y-92130571D01*
X158464333Y-92082952D01*
X158559571Y-92035333D01*
X158797666Y-92035333D01*
X158892904Y-92082952D01*
X158940523Y-92130571D01*
X158988142Y-92225809D01*
X158988142Y-92463904D01*
X158940523Y-92559142D01*
X158892904Y-92606761D01*
X158797666Y-92654380D01*
X158559571Y-92654380D01*
X158464333Y-92606761D01*
X158416714Y-92559142D01*
X159273857Y-91654380D02*
X159607190Y-92654380D01*
X159940523Y-91654380D01*
X150299142Y-107672142D02*
X150251523Y-107719761D01*
X150108666Y-107767380D01*
X150013428Y-107767380D01*
X149870571Y-107719761D01*
X149775333Y-107624523D01*
X149727714Y-107529285D01*
X149680095Y-107338809D01*
X149680095Y-107195952D01*
X149727714Y-107005476D01*
X149775333Y-106910238D01*
X149870571Y-106815000D01*
X150013428Y-106767380D01*
X150108666Y-106767380D01*
X150251523Y-106815000D01*
X150299142Y-106862619D01*
X151251523Y-107767380D02*
X150680095Y-107767380D01*
X150965809Y-107767380D02*
X150965809Y-106767380D01*
X150870571Y-106910238D01*
X150775333Y-107005476D01*
X150680095Y-107053095D01*
X151632476Y-106862619D02*
X151680095Y-106815000D01*
X151775333Y-106767380D01*
X152013428Y-106767380D01*
X152108666Y-106815000D01*
X152156285Y-106862619D01*
X152203904Y-106957857D01*
X152203904Y-107053095D01*
X152156285Y-107195952D01*
X151584857Y-107767380D01*
X152203904Y-107767380D01*
X139622380Y-104032666D02*
X139146190Y-104366000D01*
X139622380Y-104604095D02*
X138622380Y-104604095D01*
X138622380Y-104223142D01*
X138670000Y-104127904D01*
X138717619Y-104080285D01*
X138812857Y-104032666D01*
X138955714Y-104032666D01*
X139050952Y-104080285D01*
X139098571Y-104127904D01*
X139146190Y-104223142D01*
X139146190Y-104604095D01*
X138717619Y-103651714D02*
X138670000Y-103604095D01*
X138622380Y-103508857D01*
X138622380Y-103270761D01*
X138670000Y-103175523D01*
X138717619Y-103127904D01*
X138812857Y-103080285D01*
X138908095Y-103080285D01*
X139050952Y-103127904D01*
X139622380Y-103699333D01*
X139622380Y-103080285D01*
X128103333Y-97639142D02*
X128055714Y-97686761D01*
X127912857Y-97734380D01*
X127817619Y-97734380D01*
X127674761Y-97686761D01*
X127579523Y-97591523D01*
X127531904Y-97496285D01*
X127484285Y-97305809D01*
X127484285Y-97162952D01*
X127531904Y-96972476D01*
X127579523Y-96877238D01*
X127674761Y-96782000D01*
X127817619Y-96734380D01*
X127912857Y-96734380D01*
X128055714Y-96782000D01*
X128103333Y-96829619D01*
X128484285Y-96829619D02*
X128531904Y-96782000D01*
X128627142Y-96734380D01*
X128865238Y-96734380D01*
X128960476Y-96782000D01*
X129008095Y-96829619D01*
X129055714Y-96924857D01*
X129055714Y-97020095D01*
X129008095Y-97162952D01*
X128436666Y-97734380D01*
X129055714Y-97734380D01*
D12*
X114348380Y-87324047D02*
X114529809Y-87384523D01*
X114832190Y-87384523D01*
X114953142Y-87324047D01*
X115013619Y-87263571D01*
X115074095Y-87142619D01*
X115074095Y-87021666D01*
X115013619Y-86900714D01*
X114953142Y-86840238D01*
X114832190Y-86779761D01*
X114590285Y-86719285D01*
X114469333Y-86658809D01*
X114408857Y-86598333D01*
X114348380Y-86477380D01*
X114348380Y-86356428D01*
X114408857Y-86235476D01*
X114469333Y-86175000D01*
X114590285Y-86114523D01*
X114892666Y-86114523D01*
X115074095Y-86175000D01*
X115557904Y-86235476D02*
X115618380Y-86175000D01*
X115739333Y-86114523D01*
X116041714Y-86114523D01*
X116162666Y-86175000D01*
X116223142Y-86235476D01*
X116283619Y-86356428D01*
X116283619Y-86477380D01*
X116223142Y-86658809D01*
X115497428Y-87384523D01*
X116283619Y-87384523D01*
D10*
X113625333Y-124817142D02*
X113577714Y-124864761D01*
X113434857Y-124912380D01*
X113339619Y-124912380D01*
X113196761Y-124864761D01*
X113101523Y-124769523D01*
X113053904Y-124674285D01*
X113006285Y-124483809D01*
X113006285Y-124340952D01*
X113053904Y-124150476D01*
X113101523Y-124055238D01*
X113196761Y-123960000D01*
X113339619Y-123912380D01*
X113434857Y-123912380D01*
X113577714Y-123960000D01*
X113625333Y-124007619D01*
X114196761Y-124340952D02*
X114101523Y-124293333D01*
X114053904Y-124245714D01*
X114006285Y-124150476D01*
X114006285Y-124102857D01*
X114053904Y-124007619D01*
X114101523Y-123960000D01*
X114196761Y-123912380D01*
X114387238Y-123912380D01*
X114482476Y-123960000D01*
X114530095Y-124007619D01*
X114577714Y-124102857D01*
X114577714Y-124150476D01*
X114530095Y-124245714D01*
X114482476Y-124293333D01*
X114387238Y-124340952D01*
X114196761Y-124340952D01*
X114101523Y-124388571D01*
X114053904Y-124436190D01*
X114006285Y-124531428D01*
X114006285Y-124721904D01*
X114053904Y-124817142D01*
X114101523Y-124864761D01*
X114196761Y-124912380D01*
X114387238Y-124912380D01*
X114482476Y-124864761D01*
X114530095Y-124817142D01*
X114577714Y-124721904D01*
X114577714Y-124531428D01*
X114530095Y-124436190D01*
X114482476Y-124388571D01*
X114387238Y-124340952D01*
X118150333Y-95079142D02*
X118102714Y-95126761D01*
X117959857Y-95174380D01*
X117864619Y-95174380D01*
X117721761Y-95126761D01*
X117626523Y-95031523D01*
X117578904Y-94936285D01*
X117531285Y-94745809D01*
X117531285Y-94602952D01*
X117578904Y-94412476D01*
X117626523Y-94317238D01*
X117721761Y-94222000D01*
X117864619Y-94174380D01*
X117959857Y-94174380D01*
X118102714Y-94222000D01*
X118150333Y-94269619D01*
X119007476Y-94174380D02*
X118817000Y-94174380D01*
X118721761Y-94222000D01*
X118674142Y-94269619D01*
X118578904Y-94412476D01*
X118531285Y-94602952D01*
X118531285Y-94983904D01*
X118578904Y-95079142D01*
X118626523Y-95126761D01*
X118721761Y-95174380D01*
X118912238Y-95174380D01*
X119007476Y-95126761D01*
X119055095Y-95079142D01*
X119102714Y-94983904D01*
X119102714Y-94745809D01*
X119055095Y-94650571D01*
X119007476Y-94602952D01*
X118912238Y-94555333D01*
X118721761Y-94555333D01*
X118626523Y-94602952D01*
X118578904Y-94650571D01*
X118531285Y-94745809D01*
D12*
X179707380Y-87339047D02*
X179888809Y-87399523D01*
X180191190Y-87399523D01*
X180312142Y-87339047D01*
X180372619Y-87278571D01*
X180433095Y-87157619D01*
X180433095Y-87036666D01*
X180372619Y-86915714D01*
X180312142Y-86855238D01*
X180191190Y-86794761D01*
X179949285Y-86734285D01*
X179828333Y-86673809D01*
X179767857Y-86613333D01*
X179707380Y-86492380D01*
X179707380Y-86371428D01*
X179767857Y-86250476D01*
X179828333Y-86190000D01*
X179949285Y-86129523D01*
X180251666Y-86129523D01*
X180433095Y-86190000D01*
X181642619Y-87399523D02*
X180916904Y-87399523D01*
X181279761Y-87399523D02*
X181279761Y-86129523D01*
X181158809Y-86310952D01*
X181037857Y-86431904D01*
X180916904Y-86492380D01*
X120916238Y-104440523D02*
X120916238Y-103170523D01*
X122246714Y-104319571D02*
X122186238Y-104380047D01*
X122004809Y-104440523D01*
X121883857Y-104440523D01*
X121702428Y-104380047D01*
X121581476Y-104259095D01*
X121521000Y-104138142D01*
X121460523Y-103896238D01*
X121460523Y-103714809D01*
X121521000Y-103472904D01*
X121581476Y-103351952D01*
X121702428Y-103231000D01*
X121883857Y-103170523D01*
X122004809Y-103170523D01*
X122186238Y-103231000D01*
X122246714Y-103291476D01*
X122730523Y-103291476D02*
X122791000Y-103231000D01*
X122911952Y-103170523D01*
X123214333Y-103170523D01*
X123335285Y-103231000D01*
X123395761Y-103291476D01*
X123456238Y-103412428D01*
X123456238Y-103533380D01*
X123395761Y-103714809D01*
X122670047Y-104440523D01*
X123456238Y-104440523D01*
D10*
X142051333Y-122880380D02*
X141718000Y-122404190D01*
X141479904Y-122880380D02*
X141479904Y-121880380D01*
X141860857Y-121880380D01*
X141956095Y-121928000D01*
X142003714Y-121975619D01*
X142051333Y-122070857D01*
X142051333Y-122213714D01*
X142003714Y-122308952D01*
X141956095Y-122356571D01*
X141860857Y-122404190D01*
X141479904Y-122404190D01*
X142908476Y-121880380D02*
X142718000Y-121880380D01*
X142622761Y-121928000D01*
X142575142Y-121975619D01*
X142479904Y-122118476D01*
X142432285Y-122308952D01*
X142432285Y-122689904D01*
X142479904Y-122785142D01*
X142527523Y-122832761D01*
X142622761Y-122880380D01*
X142813238Y-122880380D01*
X142908476Y-122832761D01*
X142956095Y-122785142D01*
X143003714Y-122689904D01*
X143003714Y-122451809D01*
X142956095Y-122356571D01*
X142908476Y-122308952D01*
X142813238Y-122261333D01*
X142622761Y-122261333D01*
X142527523Y-122308952D01*
X142479904Y-122356571D01*
X142432285Y-122451809D01*
D12*
X147894523Y-95025380D02*
X146624523Y-95025380D01*
X146624523Y-94723000D01*
X146685000Y-94541571D01*
X146805952Y-94420619D01*
X146926904Y-94360142D01*
X147168809Y-94299666D01*
X147350238Y-94299666D01*
X147592142Y-94360142D01*
X147713095Y-94420619D01*
X147834047Y-94541571D01*
X147894523Y-94723000D01*
X147894523Y-95025380D01*
X146624523Y-93876333D02*
X146624523Y-93090142D01*
X147108333Y-93513476D01*
X147108333Y-93332047D01*
X147168809Y-93211095D01*
X147229285Y-93150619D01*
X147350238Y-93090142D01*
X147652619Y-93090142D01*
X147773571Y-93150619D01*
X147834047Y-93211095D01*
X147894523Y-93332047D01*
X147894523Y-93694904D01*
X147834047Y-93815857D01*
X147773571Y-93876333D01*
D10*
X118150333Y-97619142D02*
X118102714Y-97666761D01*
X117959857Y-97714380D01*
X117864619Y-97714380D01*
X117721761Y-97666761D01*
X117626523Y-97571523D01*
X117578904Y-97476285D01*
X117531285Y-97285809D01*
X117531285Y-97142952D01*
X117578904Y-96952476D01*
X117626523Y-96857238D01*
X117721761Y-96762000D01*
X117864619Y-96714380D01*
X117959857Y-96714380D01*
X118102714Y-96762000D01*
X118150333Y-96809619D01*
X118483666Y-96714380D02*
X119150333Y-96714380D01*
X118721761Y-97714380D01*
D12*
X179184904Y-106492523D02*
X179608238Y-107762523D01*
X180031571Y-106492523D01*
X181180619Y-107762523D02*
X180757285Y-107157761D01*
X180454904Y-107762523D02*
X180454904Y-106492523D01*
X180938714Y-106492523D01*
X181059666Y-106553000D01*
X181120142Y-106613476D01*
X181180619Y-106734428D01*
X181180619Y-106915857D01*
X181120142Y-107036809D01*
X181059666Y-107097285D01*
X180938714Y-107157761D01*
X180454904Y-107157761D01*
X181664428Y-106613476D02*
X181724904Y-106553000D01*
X181845857Y-106492523D01*
X182148238Y-106492523D01*
X182269190Y-106553000D01*
X182329666Y-106613476D01*
X182390142Y-106734428D01*
X182390142Y-106855380D01*
X182329666Y-107036809D01*
X181603952Y-107762523D01*
X182390142Y-107762523D01*
D10*
X142051333Y-117800380D02*
X141718000Y-117324190D01*
X141479904Y-117800380D02*
X141479904Y-116800380D01*
X141860857Y-116800380D01*
X141956095Y-116848000D01*
X142003714Y-116895619D01*
X142051333Y-116990857D01*
X142051333Y-117133714D01*
X142003714Y-117228952D01*
X141956095Y-117276571D01*
X141860857Y-117324190D01*
X141479904Y-117324190D01*
X142908476Y-117133714D02*
X142908476Y-117800380D01*
X142670380Y-116752761D02*
X142432285Y-117467047D01*
X143051333Y-117467047D01*
X149179142Y-126592666D02*
X149226761Y-126640285D01*
X149274380Y-126783142D01*
X149274380Y-126878380D01*
X149226761Y-127021238D01*
X149131523Y-127116476D01*
X149036285Y-127164095D01*
X148845809Y-127211714D01*
X148702952Y-127211714D01*
X148512476Y-127164095D01*
X148417238Y-127116476D01*
X148322000Y-127021238D01*
X148274380Y-126878380D01*
X148274380Y-126783142D01*
X148322000Y-126640285D01*
X148369619Y-126592666D01*
X148607714Y-125735523D02*
X149274380Y-125735523D01*
X148226761Y-125973619D02*
X148941047Y-126211714D01*
X148941047Y-125592666D01*
X160274095Y-110958380D02*
X160274095Y-111767904D01*
X160321714Y-111863142D01*
X160369333Y-111910761D01*
X160464571Y-111958380D01*
X160655047Y-111958380D01*
X160750285Y-111910761D01*
X160797904Y-111863142D01*
X160845523Y-111767904D01*
X160845523Y-110958380D01*
X161274095Y-111053619D02*
X161321714Y-111006000D01*
X161416952Y-110958380D01*
X161655047Y-110958380D01*
X161750285Y-111006000D01*
X161797904Y-111053619D01*
X161845523Y-111148857D01*
X161845523Y-111244095D01*
X161797904Y-111386952D01*
X161226476Y-111958380D01*
X161845523Y-111958380D01*
X140128666Y-87336380D02*
X140128666Y-88050666D01*
X140081047Y-88193523D01*
X139985809Y-88288761D01*
X139842952Y-88336380D01*
X139747714Y-88336380D01*
X141033428Y-87669714D02*
X141033428Y-88336380D01*
X140795333Y-87288761D02*
X140557238Y-88003047D01*
X141176285Y-88003047D01*
D12*
X153482523Y-95025380D02*
X152212523Y-95025380D01*
X152212523Y-94723000D01*
X152273000Y-94541571D01*
X152393952Y-94420619D01*
X152514904Y-94360142D01*
X152756809Y-94299666D01*
X152938238Y-94299666D01*
X153180142Y-94360142D01*
X153301095Y-94420619D01*
X153422047Y-94541571D01*
X153482523Y-94723000D01*
X153482523Y-95025380D01*
X153482523Y-93090142D02*
X153482523Y-93815857D01*
X153482523Y-93453000D02*
X152212523Y-93453000D01*
X152393952Y-93573952D01*
X152514904Y-93694904D01*
X152575380Y-93815857D01*
D10*
X128103333Y-95099142D02*
X128055714Y-95146761D01*
X127912857Y-95194380D01*
X127817619Y-95194380D01*
X127674761Y-95146761D01*
X127579523Y-95051523D01*
X127531904Y-94956285D01*
X127484285Y-94765809D01*
X127484285Y-94622952D01*
X127531904Y-94432476D01*
X127579523Y-94337238D01*
X127674761Y-94242000D01*
X127817619Y-94194380D01*
X127912857Y-94194380D01*
X128055714Y-94242000D01*
X128103333Y-94289619D01*
X129055714Y-95194380D02*
X128484285Y-95194380D01*
X128770000Y-95194380D02*
X128770000Y-94194380D01*
X128674761Y-94337238D01*
X128579523Y-94432476D01*
X128484285Y-94480095D01*
X141565333Y-112117142D02*
X141517714Y-112164761D01*
X141374857Y-112212380D01*
X141279619Y-112212380D01*
X141136761Y-112164761D01*
X141041523Y-112069523D01*
X140993904Y-111974285D01*
X140946285Y-111783809D01*
X140946285Y-111640952D01*
X140993904Y-111450476D01*
X141041523Y-111355238D01*
X141136761Y-111260000D01*
X141279619Y-111212380D01*
X141374857Y-111212380D01*
X141517714Y-111260000D01*
X141565333Y-111307619D01*
X142041523Y-112212380D02*
X142232000Y-112212380D01*
X142327238Y-112164761D01*
X142374857Y-112117142D01*
X142470095Y-111974285D01*
X142517714Y-111783809D01*
X142517714Y-111402857D01*
X142470095Y-111307619D01*
X142422476Y-111260000D01*
X142327238Y-111212380D01*
X142136761Y-111212380D01*
X142041523Y-111260000D01*
X141993904Y-111307619D01*
X141946285Y-111402857D01*
X141946285Y-111640952D01*
X141993904Y-111736190D01*
X142041523Y-111783809D01*
X142136761Y-111831428D01*
X142327238Y-111831428D01*
X142422476Y-111783809D01*
X142470095Y-111736190D01*
X142517714Y-111640952D01*
X126666666Y-87844380D02*
X126666666Y-88558666D01*
X126619047Y-88701523D01*
X126523809Y-88796761D01*
X126380952Y-88844380D01*
X126285714Y-88844380D01*
X127095238Y-87939619D02*
X127142857Y-87892000D01*
X127238095Y-87844380D01*
X127476190Y-87844380D01*
X127571428Y-87892000D01*
X127619047Y-87939619D01*
X127666666Y-88034857D01*
X127666666Y-88130095D01*
X127619047Y-88272952D01*
X127047619Y-88844380D01*
X127666666Y-88844380D01*
X113391386Y-100900380D02*
X113058053Y-100424190D01*
X112819958Y-100900380D02*
X112819958Y-99900380D01*
X113200910Y-99900380D01*
X113296148Y-99948000D01*
X113343767Y-99995619D01*
X113391386Y-100090857D01*
X113391386Y-100233714D01*
X113343767Y-100328952D01*
X113296148Y-100376571D01*
X113200910Y-100424190D01*
X112819958Y-100424190D01*
X113819958Y-100376571D02*
X114153291Y-100376571D01*
X114296148Y-100900380D02*
X113819958Y-100900380D01*
X113819958Y-99900380D01*
X114296148Y-99900380D01*
X115058053Y-100376571D02*
X114724720Y-100376571D01*
X114724720Y-100900380D02*
X114724720Y-99900380D01*
X115200910Y-99900380D01*
X115724720Y-99900380D02*
X115724720Y-100138476D01*
X115486624Y-100043238D02*
X115724720Y-100138476D01*
X115962815Y-100043238D01*
X115581862Y-100328952D02*
X115724720Y-100138476D01*
X115867577Y-100328952D01*
X116486624Y-99900380D02*
X116486624Y-100138476D01*
X116248529Y-100043238D02*
X116486624Y-100138476D01*
X116724720Y-100043238D01*
X116343767Y-100328952D02*
X116486624Y-100138476D01*
X116629481Y-100328952D01*
X147655142Y-126658666D02*
X147702761Y-126706285D01*
X147750380Y-126849142D01*
X147750380Y-126944380D01*
X147702761Y-127087238D01*
X147607523Y-127182476D01*
X147512285Y-127230095D01*
X147321809Y-127277714D01*
X147178952Y-127277714D01*
X146988476Y-127230095D01*
X146893238Y-127182476D01*
X146798000Y-127087238D01*
X146750380Y-126944380D01*
X146750380Y-126849142D01*
X146798000Y-126706285D01*
X146845619Y-126658666D01*
X146750380Y-126325333D02*
X146750380Y-125706285D01*
X147131333Y-126039619D01*
X147131333Y-125896761D01*
X147178952Y-125801523D01*
X147226571Y-125753904D01*
X147321809Y-125706285D01*
X147559904Y-125706285D01*
X147655142Y-125753904D01*
X147702761Y-125801523D01*
X147750380Y-125896761D01*
X147750380Y-126182476D01*
X147702761Y-126277714D01*
X147655142Y-126325333D01*
X142051333Y-115260380D02*
X141718000Y-114784190D01*
X141479904Y-115260380D02*
X141479904Y-114260380D01*
X141860857Y-114260380D01*
X141956095Y-114308000D01*
X142003714Y-114355619D01*
X142051333Y-114450857D01*
X142051333Y-114593714D01*
X142003714Y-114688952D01*
X141956095Y-114736571D01*
X141860857Y-114784190D01*
X141479904Y-114784190D01*
X143003714Y-115260380D02*
X142432285Y-115260380D01*
X142718000Y-115260380D02*
X142718000Y-114260380D01*
X142622761Y-114403238D01*
X142527523Y-114498476D01*
X142432285Y-114546095D01*
X150299142Y-98909142D02*
X150251523Y-98956761D01*
X150108666Y-99004380D01*
X150013428Y-99004380D01*
X149870571Y-98956761D01*
X149775333Y-98861523D01*
X149727714Y-98766285D01*
X149680095Y-98575809D01*
X149680095Y-98432952D01*
X149727714Y-98242476D01*
X149775333Y-98147238D01*
X149870571Y-98052000D01*
X150013428Y-98004380D01*
X150108666Y-98004380D01*
X150251523Y-98052000D01*
X150299142Y-98099619D01*
X151251523Y-99004380D02*
X150680095Y-99004380D01*
X150965809Y-99004380D02*
X150965809Y-98004380D01*
X150870571Y-98147238D01*
X150775333Y-98242476D01*
X150680095Y-98290095D01*
X151870571Y-98004380D02*
X151965809Y-98004380D01*
X152061047Y-98052000D01*
X152108666Y-98099619D01*
X152156285Y-98194857D01*
X152203904Y-98385333D01*
X152203904Y-98623428D01*
X152156285Y-98813904D01*
X152108666Y-98909142D01*
X152061047Y-98956761D01*
X151965809Y-99004380D01*
X151870571Y-99004380D01*
X151775333Y-98956761D01*
X151727714Y-98909142D01*
X151680095Y-98813904D01*
X151632476Y-98623428D01*
X151632476Y-98385333D01*
X151680095Y-98194857D01*
X151727714Y-98099619D01*
X151775333Y-98052000D01*
X151870571Y-98004380D01*
D12*
X150678523Y-95025380D02*
X149408523Y-95025380D01*
X149408523Y-94723000D01*
X149469000Y-94541571D01*
X149589952Y-94420619D01*
X149710904Y-94360142D01*
X149952809Y-94299666D01*
X150134238Y-94299666D01*
X150376142Y-94360142D01*
X150497095Y-94420619D01*
X150618047Y-94541571D01*
X150678523Y-94723000D01*
X150678523Y-95025380D01*
X149529476Y-93815857D02*
X149469000Y-93755380D01*
X149408523Y-93634428D01*
X149408523Y-93332047D01*
X149469000Y-93211095D01*
X149529476Y-93150619D01*
X149650428Y-93090142D01*
X149771380Y-93090142D01*
X149952809Y-93150619D01*
X150678523Y-93876333D01*
X150678523Y-93090142D01*
D10*
X142051333Y-120340380D02*
X141718000Y-119864190D01*
X141479904Y-120340380D02*
X141479904Y-119340380D01*
X141860857Y-119340380D01*
X141956095Y-119388000D01*
X142003714Y-119435619D01*
X142051333Y-119530857D01*
X142051333Y-119673714D01*
X142003714Y-119768952D01*
X141956095Y-119816571D01*
X141860857Y-119864190D01*
X141479904Y-119864190D01*
X142956095Y-119340380D02*
X142479904Y-119340380D01*
X142432285Y-119816571D01*
X142479904Y-119768952D01*
X142575142Y-119721333D01*
X142813238Y-119721333D01*
X142908476Y-119768952D01*
X142956095Y-119816571D01*
X143003714Y-119911809D01*
X143003714Y-120149904D01*
X142956095Y-120245142D01*
X142908476Y-120292761D01*
X142813238Y-120340380D01*
X142575142Y-120340380D01*
X142479904Y-120292761D01*
X142432285Y-120245142D01*
D12*
X179426809Y-121224523D02*
X178822047Y-121224523D01*
X178822047Y-119954523D01*
X179850142Y-120559285D02*
X180273476Y-120559285D01*
X180454904Y-121224523D02*
X179850142Y-121224523D01*
X179850142Y-119954523D01*
X180454904Y-119954523D01*
X180999190Y-121224523D02*
X180999190Y-119954523D01*
X181301571Y-119954523D01*
X181483000Y-120015000D01*
X181603952Y-120135952D01*
X181664428Y-120256904D01*
X181724904Y-120498809D01*
X181724904Y-120680238D01*
X181664428Y-120922142D01*
X181603952Y-121043095D01*
X181483000Y-121164047D01*
X181301571Y-121224523D01*
X180999190Y-121224523D01*
X182934428Y-121224523D02*
X182208714Y-121224523D01*
X182571571Y-121224523D02*
X182571571Y-119954523D01*
X182450619Y-120135952D01*
X182329666Y-120256904D01*
X182208714Y-120317380D01*
D13*
X155201252Y-101700000D02*
X154678748Y-101700000D01*
X155201252Y-100230000D02*
X154678748Y-100230000D01*
X125328000Y-95284936D02*
X125328000Y-96739064D01*
X127148000Y-95284936D02*
X127148000Y-96739064D01*
D14*
X146174000Y-80380600D02*
X146174000Y-81345600D01*
D15*
X151404000Y-86345600D02*
X151404000Y-86345600D01*
D14*
X154034000Y-80380600D02*
X146174000Y-80380600D01*
X154034000Y-81345600D02*
X154034000Y-80380600D01*
D15*
X151404000Y-86245600D02*
X151404000Y-86245600D01*
X151404000Y-86245600D02*
G75*
G03*
X151404000Y-86345600I0J-50000D01*
G01*
X151404000Y-86345600D02*
G75*
G03*
X151404000Y-86245600I0J50000D01*
G01*
D16*
X133550000Y-102384000D02*
G75*
G03*
X133550000Y-102384000I-125000J0D01*
G01*
D13*
X121420000Y-126666000D02*
X121420000Y-126166000D01*
X139420000Y-126666000D02*
X139420000Y-126166000D01*
X139570000Y-107316000D02*
X139570000Y-108316000D01*
X121270000Y-107316000D02*
X122270000Y-107316000D01*
X139420000Y-108316000D02*
X139420000Y-107466000D01*
X121420000Y-126666000D02*
X139420000Y-126666000D01*
X121270000Y-126166000D02*
X121270000Y-126816000D01*
X121420000Y-107466000D02*
X122770000Y-107466000D01*
X121270000Y-126816000D02*
X122270000Y-126816000D01*
X139620000Y-126816000D02*
X138520000Y-126816000D01*
X139570000Y-107316000D02*
X138570000Y-107316000D01*
X139420000Y-107466000D02*
X138120000Y-107466000D01*
X121420000Y-108216000D02*
X121420000Y-107466000D01*
X121270000Y-108216000D02*
X121270000Y-107316000D01*
X116867000Y-110243252D02*
X116867000Y-109720748D01*
X118337000Y-110243252D02*
X118337000Y-109720748D01*
X155201252Y-110590000D02*
X154678748Y-110590000D01*
X155201252Y-109120000D02*
X154678748Y-109120000D01*
X135212000Y-99582936D02*
X135212000Y-101037064D01*
X137032000Y-99582936D02*
X137032000Y-101037064D01*
D14*
X103356000Y-127473000D02*
X103356000Y-127473000D01*
D15*
X100656000Y-81873000D02*
X101656000Y-81873000D01*
X109656000Y-119373000D02*
X109656000Y-88873000D01*
X108156000Y-126873000D02*
X109656000Y-126873000D01*
X100656000Y-122873000D02*
X100656000Y-126873000D01*
X109656000Y-81873000D02*
X104656000Y-81873000D01*
D14*
X103556000Y-127473000D02*
X103556000Y-127473000D01*
D15*
X100656000Y-85873000D02*
X100656000Y-81873000D01*
X100656000Y-118373000D02*
X100656000Y-90373000D01*
X109656000Y-126873000D02*
X109656000Y-123873000D01*
X109656000Y-84873000D02*
X109656000Y-81873000D01*
X100656000Y-126873000D02*
X102156000Y-126873000D01*
D14*
X103356000Y-127473000D02*
G75*
G03*
X103556000Y-127473000I100000J0D01*
G01*
X103556000Y-127473000D02*
G75*
G03*
X103356000Y-127473000I-100000J0D01*
G01*
D13*
X156591000Y-84582000D02*
X165481000Y-84582000D01*
X165481000Y-84582000D02*
X165481000Y-93472000D01*
X165481000Y-93472000D02*
X156591000Y-93472000D01*
X156591000Y-93472000D02*
X156591000Y-84582000D01*
X155201252Y-108050000D02*
X154678748Y-108050000D01*
X155201252Y-106580000D02*
X154678748Y-106580000D01*
X138260000Y-99582936D02*
X138260000Y-101037064D01*
X140080000Y-99582936D02*
X140080000Y-101037064D01*
X130780748Y-96527000D02*
X131303252Y-96527000D01*
X130780748Y-97997000D02*
X131303252Y-97997000D01*
D15*
X114116000Y-83960000D02*
X116316000Y-83960000D01*
X117716000Y-88760000D02*
X117716000Y-83960000D01*
D14*
X113516000Y-90760000D02*
X113516000Y-90760000D01*
D15*
X112916000Y-88760000D02*
X112916000Y-83960000D01*
X114116000Y-88760000D02*
X116316000Y-88760000D01*
D14*
X113516000Y-90560000D02*
X113516000Y-90560000D01*
X113516000Y-90560000D02*
G75*
G03*
X113516000Y-90760000I0J-100000D01*
G01*
X113516000Y-90760000D02*
G75*
G03*
X113516000Y-90560000I0J100000D01*
G01*
D13*
X117653252Y-123725000D02*
X117130748Y-123725000D01*
X117653252Y-125195000D02*
X117130748Y-125195000D01*
X122068252Y-93987000D02*
X121545748Y-93987000D01*
X122068252Y-95457000D02*
X121545748Y-95457000D01*
D15*
X179475000Y-88775000D02*
X181675000Y-88775000D01*
X183075000Y-88775000D02*
X183075000Y-83975000D01*
X179475000Y-83975000D02*
X181675000Y-83975000D01*
X178275000Y-88775000D02*
X178275000Y-83975000D01*
D14*
X178875000Y-90575000D02*
X178875000Y-90575000D01*
X178875000Y-90775000D02*
X178875000Y-90775000D01*
X178875000Y-90575000D02*
G75*
G03*
X178875000Y-90775000I0J-100000D01*
G01*
X178875000Y-90775000D02*
G75*
G03*
X178875000Y-90575000I0J100000D01*
G01*
D16*
X124156000Y-102384000D02*
G75*
G03*
X124156000Y-102384000I-125000J0D01*
G01*
D13*
X146501064Y-121518000D02*
X145046936Y-121518000D01*
X146501064Y-123338000D02*
X145046936Y-123338000D01*
D14*
X147620000Y-90424000D02*
X147020000Y-90424000D01*
D13*
X122068252Y-97997000D02*
X121545748Y-97997000D01*
X122068252Y-96527000D02*
X121545748Y-96527000D01*
D14*
X174848000Y-107563000D02*
X174848000Y-113963000D01*
X174848000Y-98063000D02*
X186848000Y-98063000D01*
X186848000Y-98063000D02*
X186848000Y-101563000D01*
X174848000Y-113963000D02*
X186848000Y-113963000D01*
D15*
X177098000Y-116763000D02*
X177098000Y-116763000D01*
D14*
X174848000Y-101563000D02*
X174848000Y-98063000D01*
X186848000Y-113963000D02*
X186848000Y-107563000D01*
D15*
X177098000Y-116863000D02*
X177098000Y-116863000D01*
X177098000Y-116863000D02*
G75*
G03*
X177098000Y-116763000I0J50000D01*
G01*
X177098000Y-116763000D02*
G75*
G03*
X177098000Y-116863000I0J-50000D01*
G01*
D13*
X145046936Y-116438000D02*
X146501064Y-116438000D01*
X145046936Y-118258000D02*
X146501064Y-118258000D01*
X144531000Y-125656748D02*
X144531000Y-126179252D01*
X146001000Y-125656748D02*
X146001000Y-126179252D01*
X164486000Y-102686000D02*
X164216000Y-102686000D01*
X164486000Y-104186000D02*
X164486000Y-102686000D01*
X157586000Y-104186000D02*
X157586000Y-102686000D01*
X164216000Y-102686000D02*
X164216000Y-99856000D01*
X157586000Y-102686000D02*
X157856000Y-102686000D01*
X157856000Y-102686000D02*
X157856000Y-101586000D01*
X140462000Y-84074000D02*
X143062000Y-84074000D01*
X137862000Y-81474000D02*
X137862000Y-86674000D01*
X140462000Y-81474000D02*
X137862000Y-81474000D01*
X143062000Y-86674000D02*
X137862000Y-86674000D01*
X141732000Y-81474000D02*
X143062000Y-81474000D01*
X143062000Y-84074000D02*
X143062000Y-86674000D01*
X140462000Y-81474000D02*
X140462000Y-84074000D01*
X143062000Y-81474000D02*
X143062000Y-82804000D01*
D14*
X153208000Y-90424000D02*
X152608000Y-90424000D01*
D13*
X130780748Y-93987000D02*
X131303252Y-93987000D01*
X130780748Y-95457000D02*
X131303252Y-95457000D01*
X145549252Y-112495000D02*
X145026748Y-112495000D01*
X145549252Y-111025000D02*
X145026748Y-111025000D01*
X133300000Y-87303000D02*
X133300000Y-86553000D01*
X131500000Y-87303000D02*
X133300000Y-87303000D01*
X122500000Y-86553000D02*
X120700000Y-86553000D01*
X133310000Y-87313000D02*
X133310000Y-81343000D01*
X122500000Y-87303000D02*
X122500000Y-86553000D01*
X120700000Y-85053000D02*
X121450000Y-85053000D01*
X124000000Y-86553000D02*
X124000000Y-87303000D01*
X131500000Y-86553000D02*
X131500000Y-87303000D01*
X133300000Y-85053000D02*
X132550000Y-85053000D01*
X121450000Y-85053000D02*
X121450000Y-82103000D01*
X120690000Y-87313000D02*
X133310000Y-87313000D01*
X132350000Y-87603000D02*
X133600000Y-87603000D01*
X133600000Y-87603000D02*
X133600000Y-86353000D01*
X133310000Y-81343000D02*
X120690000Y-81343000D01*
X120690000Y-81343000D02*
X120690000Y-87313000D01*
X130000000Y-87303000D02*
X130000000Y-86553000D01*
X124000000Y-87303000D02*
X130000000Y-87303000D01*
X132550000Y-82103000D02*
X127000000Y-82103000D01*
X121450000Y-82103000D02*
X127000000Y-82103000D01*
X120700000Y-87303000D02*
X122500000Y-87303000D01*
X132550000Y-85053000D02*
X132550000Y-82103000D01*
X130000000Y-86553000D02*
X124000000Y-86553000D01*
X120700000Y-86553000D02*
X120700000Y-87303000D01*
X133300000Y-86553000D02*
X131500000Y-86553000D01*
X141991000Y-125656748D02*
X141991000Y-126179252D01*
X143461000Y-125656748D02*
X143461000Y-126179252D01*
X145046936Y-113898000D02*
X146501064Y-113898000D01*
X145046936Y-115718000D02*
X146501064Y-115718000D01*
X155201252Y-97817000D02*
X154678748Y-97817000D01*
X155201252Y-99287000D02*
X154678748Y-99287000D01*
D14*
X150404000Y-90424000D02*
X149804000Y-90424000D01*
D13*
X145046936Y-118978000D02*
X146501064Y-118978000D01*
X145046936Y-120798000D02*
X146501064Y-120798000D01*
D15*
X181348000Y-122606000D02*
X181348000Y-122606000D01*
X181448000Y-122606000D02*
X181448000Y-122606000D01*
X181348000Y-122606000D02*
G75*
G03*
X181448000Y-122606000I50000J0D01*
G01*
X181448000Y-122606000D02*
G75*
G03*
X181348000Y-122606000I-50000J0D01*
G01*
%LPC*%
D17*
X155890000Y-100965000D03*
X153990000Y-100965000D03*
D18*
X126238000Y-94549500D03*
X126238000Y-97474500D03*
D19*
X151404000Y-85205600D03*
X150754000Y-85205600D03*
X150104000Y-85205600D03*
X149454000Y-85205600D03*
X148804000Y-85205600D03*
D20*
X153204000Y-85080600D03*
X147004000Y-85080600D03*
D21*
X153904000Y-82530600D03*
X146304000Y-82530600D03*
D22*
X151304000Y-82530600D03*
X148904000Y-82530600D03*
D23*
X133000000Y-101634000D03*
X133000000Y-101134000D03*
X133000000Y-100634000D03*
X133000000Y-100134000D03*
D24*
X132300000Y-99434000D03*
X131800000Y-99434000D03*
X131300000Y-99434000D03*
X130800000Y-99434000D03*
D23*
X130100000Y-100134000D03*
X130100000Y-100634000D03*
X130100000Y-101134000D03*
X130100000Y-101634000D03*
D24*
X130800000Y-102334000D03*
X131300000Y-102334000D03*
X131800000Y-102334000D03*
X132300000Y-102334000D03*
D25*
X131550000Y-100884000D03*
D26*
X139170000Y-125476000D03*
X139170000Y-124206000D03*
X139170000Y-122936000D03*
X139170000Y-121666000D03*
X139170000Y-120396000D03*
X139170000Y-119126000D03*
X139170000Y-117856000D03*
X139170000Y-116586000D03*
X139170000Y-115316000D03*
X139170000Y-114046000D03*
X139170000Y-112776000D03*
X139170000Y-111506000D03*
X139170000Y-110236000D03*
X139170000Y-108966000D03*
D27*
X137405000Y-107716000D03*
X136135000Y-107716000D03*
X134865000Y-107716000D03*
X133595000Y-107716000D03*
X132325000Y-107716000D03*
X131055000Y-107716000D03*
X129785000Y-107716000D03*
X128515000Y-107716000D03*
X127245000Y-107716000D03*
X125975000Y-107716000D03*
X124705000Y-107716000D03*
X123435000Y-107716000D03*
D26*
X121670000Y-108966000D03*
X121670000Y-110236000D03*
X121670000Y-111506000D03*
X121670000Y-112776000D03*
X121670000Y-114046000D03*
X121670000Y-115316000D03*
X121670000Y-116586000D03*
X121670000Y-117856000D03*
X121670000Y-119126000D03*
X121670000Y-120396000D03*
X121670000Y-121666000D03*
X121670000Y-122936000D03*
X121670000Y-124206000D03*
X121670000Y-125476000D03*
D28*
X131920000Y-117756000D03*
X133320000Y-116356000D03*
X130520000Y-119156000D03*
X130520000Y-116356000D03*
X130520000Y-117756000D03*
X133320000Y-119156000D03*
X131920000Y-116356000D03*
X131920000Y-119156000D03*
X133320000Y-117756000D03*
D29*
X117602000Y-110932000D03*
X117602000Y-109032000D03*
D17*
X155890000Y-109855000D03*
X153990000Y-109855000D03*
D18*
X136122000Y-98847500D03*
X136122000Y-101772500D03*
D30*
X103406000Y-126123000D03*
X106906000Y-126123000D03*
X103406000Y-82623000D03*
D31*
X100956000Y-120773000D03*
X100956000Y-87973000D03*
X109356000Y-121973000D03*
X109356000Y-86773000D03*
D32*
X159131000Y-88392000D03*
X162941000Y-88392000D03*
D17*
X155890000Y-107315000D03*
X153990000Y-107315000D03*
D18*
X139170000Y-98847500D03*
X139170000Y-101772500D03*
D33*
X130092000Y-97262000D03*
X131992000Y-97262000D03*
D34*
X113466000Y-89360000D03*
X113466000Y-83360000D03*
X117166000Y-89360000D03*
X117166000Y-83360000D03*
D17*
X118342000Y-124460000D03*
X116442000Y-124460000D03*
X122757000Y-94722000D03*
X120857000Y-94722000D03*
D35*
X170180000Y-83413600D03*
D34*
X178825000Y-89375000D03*
X178825000Y-83375000D03*
X182525000Y-89375000D03*
X182525000Y-83375000D03*
D23*
X123606000Y-101634000D03*
X123606000Y-101134000D03*
X123606000Y-100634000D03*
X123606000Y-100134000D03*
D24*
X122906000Y-99434000D03*
X122406000Y-99434000D03*
X121906000Y-99434000D03*
X121406000Y-99434000D03*
D23*
X120706000Y-100134000D03*
X120706000Y-100634000D03*
X120706000Y-101134000D03*
X120706000Y-101634000D03*
D24*
X121406000Y-102334000D03*
X121906000Y-102334000D03*
X122406000Y-102334000D03*
X122906000Y-102334000D03*
D25*
X122156000Y-100884000D03*
D36*
X147236500Y-122428000D03*
X144311500Y-122428000D03*
D37*
X147320000Y-89624000D03*
X147320000Y-91224000D03*
D17*
X122757000Y-97262000D03*
X120857000Y-97262000D03*
D38*
X177098000Y-115563000D03*
D39*
X179598000Y-115563000D03*
X182098000Y-115563000D03*
X184598000Y-115563000D03*
D40*
X175048000Y-104563000D03*
X186648000Y-104563000D03*
D41*
X144311500Y-117348000D03*
X147236500Y-117348000D03*
D42*
X145266000Y-124968000D03*
X145266000Y-126868000D03*
D43*
X163316000Y-100956000D03*
D44*
X161036000Y-107256000D03*
D43*
X158756000Y-100956000D03*
D45*
X141732000Y-82804000D03*
D46*
X141732000Y-85344000D03*
X139192000Y-82804000D03*
X139192000Y-85344000D03*
D37*
X152908000Y-89624000D03*
X152908000Y-91224000D03*
D33*
X130092000Y-94722000D03*
X131992000Y-94722000D03*
D17*
X146238000Y-111760000D03*
X144338000Y-111760000D03*
D47*
X130750000Y-84853000D03*
D48*
X128250000Y-84853000D03*
X125750000Y-84853000D03*
X123250000Y-84853000D03*
D49*
X114724720Y-104648000D03*
D42*
X142726000Y-124968000D03*
X142726000Y-126868000D03*
D41*
X144311500Y-114808000D03*
X147236500Y-114808000D03*
D17*
X155890000Y-98552000D03*
X153990000Y-98552000D03*
D37*
X150104000Y-89624000D03*
X150104000Y-91224000D03*
D41*
X144311500Y-119888000D03*
X147236500Y-119888000D03*
D50*
X181398000Y-123456000D03*
X181398000Y-124956000D03*
X180298000Y-124956000D03*
X180298000Y-123456000D03*
M02*
