G04 #@! TF.GenerationSoftware,KiCad,Pcbnew,(6.0.9)*
G04 #@! TF.CreationDate,2023-01-08T15:26:06-05:00*
G04 #@! TF.ProjectId,v1-USMX,76312d55-534d-4582-9e6b-696361645f70,rev?*
G04 #@! TF.SameCoordinates,Original*
G04 #@! TF.FileFunction,Soldermask,Top*
G04 #@! TF.FilePolarity,Negative*
%FSLAX46Y46*%
G04 Gerber Fmt 4.6, Leading zero omitted, Abs format (unit mm)*
G04 Created by KiCad (PCBNEW (6.0.9)) date 2023-01-08 15:26:06*
%MOMM*%
%LPD*%
G01*
G04 APERTURE LIST*
G04 Aperture macros list*
%AMRoundRect*
0 Rectangle with rounded corners*
0 $1 Rounding radius*
0 $2 $3 $4 $5 $6 $7 $8 $9 X,Y pos of 4 corners*
0 Add a 4 corners polygon primitive as box body*
4,1,4,$2,$3,$4,$5,$6,$7,$8,$9,$2,$3,0*
0 Add four circle primitives for the rounded corners*
1,1,$1+$1,$2,$3*
1,1,$1+$1,$4,$5*
1,1,$1+$1,$6,$7*
1,1,$1+$1,$8,$9*
0 Add four rect primitives between the rounded corners*
20,1,$1+$1,$2,$3,$4,$5,0*
20,1,$1+$1,$4,$5,$6,$7,0*
20,1,$1+$1,$6,$7,$8,$9,0*
20,1,$1+$1,$8,$9,$2,$3,0*%
G04 Aperture macros list end*
%ADD10RoundRect,0.250000X0.250000X0.475000X-0.250000X0.475000X-0.250000X-0.475000X0.250000X-0.475000X0*%
%ADD11RoundRect,0.250000X-0.625000X0.312500X-0.625000X-0.312500X0.625000X-0.312500X0.625000X0.312500X0*%
%ADD12R,0.400000X1.350000*%
%ADD13R,2.100000X1.600000*%
%ADD14R,1.800000X1.900000*%
%ADD15R,1.900000X1.900000*%
%ADD16R,0.850000X0.300000*%
%ADD17R,0.300000X0.850000*%
%ADD18R,1.250000X1.250000*%
%ADD19R,1.500000X0.900000*%
%ADD20R,0.900000X1.500000*%
%ADD21R,0.900000X0.900000*%
%ADD22RoundRect,0.250000X0.475000X-0.250000X0.475000X0.250000X-0.475000X0.250000X-0.475000X-0.250000X0*%
%ADD23C,1.800000*%
%ADD24C,2.550000*%
%ADD25RoundRect,0.635000X0.635000X-1.905000X0.635000X1.905000X-0.635000X1.905000X-0.635000X-1.905000X0*%
%ADD26RoundRect,0.250000X-0.250000X-0.475000X0.250000X-0.475000X0.250000X0.475000X-0.250000X0.475000X0*%
%ADD27R,0.700000X1.000000*%
%ADD28C,4.400000*%
%ADD29RoundRect,0.250000X0.312500X0.625000X-0.312500X0.625000X-0.312500X-0.625000X0.312500X-0.625000X0*%
%ADD30R,0.950000X0.800000*%
%ADD31R,1.500000X1.500000*%
%ADD32C,1.500000*%
%ADD33C,4.455000*%
%ADD34RoundRect,0.250000X-0.312500X-0.625000X0.312500X-0.625000X0.312500X0.625000X-0.312500X0.625000X0*%
%ADD35RoundRect,0.250000X-0.475000X0.250000X-0.475000X-0.250000X0.475000X-0.250000X0.475000X0.250000X0*%
%ADD36R,1.200000X2.200000*%
%ADD37R,5.800000X6.400000*%
%ADD38R,1.700000X1.700000*%
%ADD39O,1.700000X1.700000*%
%ADD40RoundRect,0.250000X0.600000X0.725000X-0.600000X0.725000X-0.600000X-0.725000X0.600000X-0.725000X0*%
%ADD41O,1.700000X1.950000*%
%ADD42C,6.400000*%
%ADD43R,0.800000X1.000000*%
G04 APERTURE END LIST*
D10*
X155890000Y-100965000D03*
X153990000Y-100965000D03*
D11*
X126238000Y-94549500D03*
X126238000Y-97474500D03*
D12*
X151404000Y-85205600D03*
X150754000Y-85205600D03*
X150104000Y-85205600D03*
X149454000Y-85205600D03*
X148804000Y-85205600D03*
D13*
X153204000Y-85080600D03*
X147004000Y-85080600D03*
D14*
X153904000Y-82530600D03*
X146304000Y-82530600D03*
D15*
X151304000Y-82530600D03*
X148904000Y-82530600D03*
D16*
X133000000Y-101634000D03*
X133000000Y-101134000D03*
X133000000Y-100634000D03*
X133000000Y-100134000D03*
D17*
X132300000Y-99434000D03*
X131800000Y-99434000D03*
X131300000Y-99434000D03*
X130800000Y-99434000D03*
D16*
X130100000Y-100134000D03*
X130100000Y-100634000D03*
X130100000Y-101134000D03*
X130100000Y-101634000D03*
D17*
X130800000Y-102334000D03*
X131300000Y-102334000D03*
X131800000Y-102334000D03*
X132300000Y-102334000D03*
D18*
X131550000Y-100884000D03*
D19*
X139170000Y-125476000D03*
X139170000Y-124206000D03*
X139170000Y-122936000D03*
X139170000Y-121666000D03*
X139170000Y-120396000D03*
X139170000Y-119126000D03*
X139170000Y-117856000D03*
X139170000Y-116586000D03*
X139170000Y-115316000D03*
X139170000Y-114046000D03*
X139170000Y-112776000D03*
X139170000Y-111506000D03*
X139170000Y-110236000D03*
X139170000Y-108966000D03*
D20*
X137405000Y-107716000D03*
X136135000Y-107716000D03*
X134865000Y-107716000D03*
X133595000Y-107716000D03*
X132325000Y-107716000D03*
X131055000Y-107716000D03*
X129785000Y-107716000D03*
X128515000Y-107716000D03*
X127245000Y-107716000D03*
X125975000Y-107716000D03*
X124705000Y-107716000D03*
X123435000Y-107716000D03*
D19*
X121670000Y-108966000D03*
X121670000Y-110236000D03*
X121670000Y-111506000D03*
X121670000Y-112776000D03*
X121670000Y-114046000D03*
X121670000Y-115316000D03*
X121670000Y-116586000D03*
X121670000Y-117856000D03*
X121670000Y-119126000D03*
X121670000Y-120396000D03*
X121670000Y-121666000D03*
X121670000Y-122936000D03*
X121670000Y-124206000D03*
X121670000Y-125476000D03*
D21*
X131920000Y-117756000D03*
X133320000Y-116356000D03*
X130520000Y-119156000D03*
X130520000Y-116356000D03*
X130520000Y-117756000D03*
X133320000Y-119156000D03*
X131920000Y-116356000D03*
X131920000Y-119156000D03*
X133320000Y-117756000D03*
D22*
X117602000Y-110932000D03*
X117602000Y-109032000D03*
D10*
X155890000Y-109855000D03*
X153990000Y-109855000D03*
D11*
X136122000Y-98847500D03*
X136122000Y-101772500D03*
D23*
X103406000Y-126123000D03*
X106906000Y-126123000D03*
X103406000Y-82623000D03*
D24*
X100956000Y-120773000D03*
X100956000Y-87973000D03*
X109356000Y-121973000D03*
X109356000Y-86773000D03*
D25*
X159131000Y-88392000D03*
X162941000Y-88392000D03*
D10*
X155890000Y-107315000D03*
X153990000Y-107315000D03*
D11*
X139170000Y-98847500D03*
X139170000Y-101772500D03*
D26*
X130092000Y-97262000D03*
X131992000Y-97262000D03*
D27*
X113466000Y-89360000D03*
X113466000Y-83360000D03*
X117166000Y-89360000D03*
X117166000Y-83360000D03*
D10*
X118342000Y-124460000D03*
X116442000Y-124460000D03*
X122757000Y-94722000D03*
X120857000Y-94722000D03*
D28*
X170180000Y-83413600D03*
D27*
X178825000Y-89375000D03*
X178825000Y-83375000D03*
X182525000Y-89375000D03*
X182525000Y-83375000D03*
D16*
X123606000Y-101634000D03*
X123606000Y-101134000D03*
X123606000Y-100634000D03*
X123606000Y-100134000D03*
D17*
X122906000Y-99434000D03*
X122406000Y-99434000D03*
X121906000Y-99434000D03*
X121406000Y-99434000D03*
D16*
X120706000Y-100134000D03*
X120706000Y-100634000D03*
X120706000Y-101134000D03*
X120706000Y-101634000D03*
D17*
X121406000Y-102334000D03*
X121906000Y-102334000D03*
X122406000Y-102334000D03*
X122906000Y-102334000D03*
D18*
X122156000Y-100884000D03*
D29*
X147236500Y-122428000D03*
X144311500Y-122428000D03*
D30*
X147320000Y-89624000D03*
X147320000Y-91224000D03*
D10*
X122757000Y-97262000D03*
X120857000Y-97262000D03*
D31*
X177098000Y-115563000D03*
D32*
X179598000Y-115563000D03*
X182098000Y-115563000D03*
X184598000Y-115563000D03*
D33*
X175048000Y-104563000D03*
X186648000Y-104563000D03*
D34*
X144311500Y-117348000D03*
X147236500Y-117348000D03*
D35*
X145266000Y-124968000D03*
X145266000Y-126868000D03*
D36*
X163316000Y-100956000D03*
D37*
X161036000Y-107256000D03*
D36*
X158756000Y-100956000D03*
D38*
X141732000Y-82804000D03*
D39*
X141732000Y-85344000D03*
X139192000Y-82804000D03*
X139192000Y-85344000D03*
D30*
X152908000Y-89624000D03*
X152908000Y-91224000D03*
D26*
X130092000Y-94722000D03*
X131992000Y-94722000D03*
D10*
X146238000Y-111760000D03*
X144338000Y-111760000D03*
D40*
X130750000Y-84853000D03*
D41*
X128250000Y-84853000D03*
X125750000Y-84853000D03*
X123250000Y-84853000D03*
D42*
X114724720Y-104648000D03*
D35*
X142726000Y-124968000D03*
X142726000Y-126868000D03*
D34*
X144311500Y-114808000D03*
X147236500Y-114808000D03*
D10*
X155890000Y-98552000D03*
X153990000Y-98552000D03*
D30*
X150104000Y-89624000D03*
X150104000Y-91224000D03*
D34*
X144311500Y-119888000D03*
X147236500Y-119888000D03*
D43*
X181398000Y-123456000D03*
X181398000Y-124956000D03*
X180298000Y-124956000D03*
X180298000Y-123456000D03*
M02*
