G04 #@! TF.GenerationSoftware,KiCad,Pcbnew,(6.0.9)*
G04 #@! TF.CreationDate,2023-01-08T15:26:06-05:00*
G04 #@! TF.ProjectId,v1-USMX,76312d55-534d-4582-9e6b-696361645f70,rev?*
G04 #@! TF.SameCoordinates,Original*
G04 #@! TF.FileFunction,Copper,L2,Bot*
G04 #@! TF.FilePolarity,Positive*
%FSLAX46Y46*%
G04 Gerber Fmt 4.6, Leading zero omitted, Abs format (unit mm)*
G04 Created by KiCad (PCBNEW (6.0.9)) date 2023-01-08 15:26:06*
%MOMM*%
%LPD*%
G01*
G04 APERTURE LIST*
G04 Aperture macros list*
%AMRoundRect*
0 Rectangle with rounded corners*
0 $1 Rounding radius*
0 $2 $3 $4 $5 $6 $7 $8 $9 X,Y pos of 4 corners*
0 Add a 4 corners polygon primitive as box body*
4,1,4,$2,$3,$4,$5,$6,$7,$8,$9,$2,$3,0*
0 Add four circle primitives for the rounded corners*
1,1,$1+$1,$2,$3*
1,1,$1+$1,$4,$5*
1,1,$1+$1,$6,$7*
1,1,$1+$1,$8,$9*
0 Add four rect primitives between the rounded corners*
20,1,$1+$1,$2,$3,$4,$5,0*
20,1,$1+$1,$4,$5,$6,$7,0*
20,1,$1+$1,$6,$7,$8,$9,0*
20,1,$1+$1,$8,$9,$2,$3,0*%
G04 Aperture macros list end*
G04 #@! TA.AperFunction,ComponentPad*
%ADD10C,1.800000*%
G04 #@! TD*
G04 #@! TA.AperFunction,ComponentPad*
%ADD11C,2.550000*%
G04 #@! TD*
G04 #@! TA.AperFunction,ComponentPad*
%ADD12C,4.400000*%
G04 #@! TD*
G04 #@! TA.AperFunction,ComponentPad*
%ADD13R,1.500000X1.500000*%
G04 #@! TD*
G04 #@! TA.AperFunction,ComponentPad*
%ADD14C,1.500000*%
G04 #@! TD*
G04 #@! TA.AperFunction,ComponentPad*
%ADD15C,4.455000*%
G04 #@! TD*
G04 #@! TA.AperFunction,ComponentPad*
%ADD16R,1.700000X1.700000*%
G04 #@! TD*
G04 #@! TA.AperFunction,ComponentPad*
%ADD17O,1.700000X1.700000*%
G04 #@! TD*
G04 #@! TA.AperFunction,ComponentPad*
%ADD18RoundRect,0.250000X0.600000X0.725000X-0.600000X0.725000X-0.600000X-0.725000X0.600000X-0.725000X0*%
G04 #@! TD*
G04 #@! TA.AperFunction,ComponentPad*
%ADD19O,1.700000X1.950000*%
G04 #@! TD*
G04 #@! TA.AperFunction,ComponentPad*
%ADD20C,6.400000*%
G04 #@! TD*
G04 #@! TA.AperFunction,ViaPad*
%ADD21C,0.800000*%
G04 #@! TD*
G04 #@! TA.AperFunction,ViaPad*
%ADD22C,0.400000*%
G04 #@! TD*
G04 #@! TA.AperFunction,Conductor*
%ADD23C,0.800000*%
G04 #@! TD*
G04 #@! TA.AperFunction,Conductor*
%ADD24C,0.200000*%
G04 #@! TD*
G04 #@! TA.AperFunction,Conductor*
%ADD25C,0.300000*%
G04 #@! TD*
G04 APERTURE END LIST*
D10*
X103406000Y-126123000D03*
X106906000Y-126123000D03*
X103406000Y-82623000D03*
D11*
X100956000Y-120773000D03*
X100956000Y-87973000D03*
X109356000Y-121973000D03*
X109356000Y-86773000D03*
D12*
X170180000Y-83413600D03*
D13*
X177098000Y-115563000D03*
D14*
X179598000Y-115563000D03*
X182098000Y-115563000D03*
X184598000Y-115563000D03*
D15*
X175048000Y-104563000D03*
X186648000Y-104563000D03*
D16*
X141732000Y-82804000D03*
D17*
X141732000Y-85344000D03*
X139192000Y-82804000D03*
X139192000Y-85344000D03*
D18*
X130750000Y-84853000D03*
D19*
X128250000Y-84853000D03*
X125750000Y-84853000D03*
X123250000Y-84853000D03*
D20*
X114724720Y-104648000D03*
D21*
X144526000Y-81788000D03*
X127011000Y-92699000D03*
X155702000Y-83566000D03*
X130186000Y-92699000D03*
X150104000Y-92456000D03*
D22*
X131219800Y-117068600D03*
D21*
X142726000Y-127950000D03*
X119866000Y-125476000D03*
D22*
X131550000Y-100884000D03*
D21*
X143256000Y-112268000D03*
X114554000Y-83312000D03*
X119841000Y-97262000D03*
X147320000Y-92456000D03*
X119841000Y-94722000D03*
D22*
X132616800Y-117068600D03*
X122428000Y-103174800D03*
X122156000Y-100884000D03*
D21*
X140694000Y-125476000D03*
X152781000Y-98679000D03*
D22*
X124460000Y-100634800D03*
D21*
X162184000Y-100584000D03*
X164719000Y-87884000D03*
D22*
X133302600Y-117068600D03*
X130508600Y-118440200D03*
X131752200Y-103304200D03*
X131931000Y-118440200D03*
D21*
X133074000Y-94722000D03*
X136144000Y-97536000D03*
X152908000Y-92456000D03*
D22*
X131219800Y-119151400D03*
D21*
X133074000Y-97262000D03*
X164719000Y-88900000D03*
D22*
X132616800Y-116357400D03*
X132616800Y-118440200D03*
X131219800Y-118440200D03*
D21*
X152781000Y-100965000D03*
D22*
X119684800Y-101244400D03*
X133908800Y-100634800D03*
X129222700Y-101282700D03*
D21*
X115316000Y-124460000D03*
X148844000Y-86360000D03*
D22*
X131905600Y-117068600D03*
X133328000Y-118440200D03*
X132616800Y-117754400D03*
X131219800Y-116357400D03*
D21*
X145266000Y-127950000D03*
D22*
X130508600Y-117068600D03*
D21*
X179832000Y-83312000D03*
D22*
X131219800Y-117754400D03*
D21*
X154940000Y-84836000D03*
X152908000Y-109855000D03*
D22*
X132616800Y-119151400D03*
D21*
X152908000Y-107315000D03*
D22*
X120142000Y-112014000D03*
X147044000Y-123952000D03*
X145414918Y-123688418D03*
X122936000Y-112014000D03*
X131064000Y-104418002D03*
X131945505Y-105288808D03*
X127720500Y-96012000D03*
X130902750Y-96173250D03*
X128524000Y-103886000D03*
X128515000Y-106053008D03*
X129785000Y-103918502D03*
X129785000Y-105544508D03*
X116069500Y-120396000D03*
X115070500Y-120396000D03*
D21*
X165232470Y-125343530D03*
X167132000Y-123444000D03*
D22*
X150058906Y-112450094D03*
X151187132Y-113583903D03*
D23*
X153924000Y-81788000D02*
X155702000Y-83566000D01*
X130186000Y-92699000D02*
X127011000Y-92699000D01*
X144526000Y-81788000D02*
X153924000Y-81788000D01*
D24*
X122936000Y-112014000D02*
X120142000Y-112014000D01*
X146780418Y-123688418D02*
X147044000Y-123952000D01*
X145414918Y-123688418D02*
X146780418Y-123688418D01*
X131064000Y-104418002D02*
X131074699Y-104418002D01*
X131074699Y-104418002D02*
X131945505Y-105288808D01*
X130741500Y-96012000D02*
X130902750Y-96173250D01*
X127720500Y-96012000D02*
X130741500Y-96012000D01*
X128524000Y-103886000D02*
X128524000Y-105624004D01*
X128524000Y-105624004D02*
X128515000Y-105633004D01*
X128515000Y-105633004D02*
X128515000Y-106053008D01*
X129785000Y-103918502D02*
X129785000Y-105544508D01*
X115070500Y-120396000D02*
X116069500Y-120396000D01*
D25*
X167132000Y-123444000D02*
X165232470Y-125343530D01*
D24*
X151187132Y-113583903D02*
X150058906Y-112455677D01*
X150058906Y-112455677D02*
X150058906Y-112450094D01*
G04 #@! TA.AperFunction,Conductor*
G36*
X144058415Y-80792502D02*
G01*
X144104908Y-80846158D01*
X144115012Y-80916432D01*
X144085518Y-80981012D01*
X144064357Y-81000435D01*
X144035852Y-81021146D01*
X144024798Y-81028325D01*
X143989056Y-81048960D01*
X143984147Y-81053380D01*
X143984143Y-81053383D01*
X143958386Y-81076575D01*
X143948143Y-81084871D01*
X143914747Y-81109134D01*
X143910333Y-81114036D01*
X143910331Y-81114038D01*
X143887129Y-81139806D01*
X143877806Y-81149129D01*
X143852038Y-81172331D01*
X143847134Y-81176747D01*
X143822871Y-81210143D01*
X143814575Y-81220386D01*
X143791383Y-81246143D01*
X143791380Y-81246147D01*
X143786960Y-81251056D01*
X143766325Y-81286798D01*
X143759146Y-81297851D01*
X143738764Y-81325904D01*
X143738761Y-81325909D01*
X143734882Y-81331248D01*
X143732199Y-81337275D01*
X143732198Y-81337276D01*
X143718092Y-81368959D01*
X143712105Y-81380708D01*
X143691473Y-81416444D01*
X143689432Y-81422727D01*
X143689431Y-81422728D01*
X143678719Y-81455696D01*
X143673999Y-81467994D01*
X143657206Y-81505712D01*
X143655834Y-81512165D01*
X143655833Y-81512169D01*
X143648625Y-81546080D01*
X143645212Y-81558817D01*
X143634498Y-81591791D01*
X143634497Y-81591798D01*
X143632458Y-81598072D01*
X143631768Y-81604633D01*
X143631768Y-81604635D01*
X143628144Y-81639122D01*
X143626082Y-81652136D01*
X143617500Y-81692513D01*
X143617500Y-81733784D01*
X143616810Y-81746955D01*
X143612496Y-81788000D01*
X143613186Y-81794565D01*
X143616810Y-81829045D01*
X143617500Y-81842216D01*
X143617500Y-81883487D01*
X143626082Y-81923864D01*
X143628143Y-81936872D01*
X143632458Y-81977928D01*
X143634497Y-81984202D01*
X143634498Y-81984209D01*
X143645212Y-82017183D01*
X143648625Y-82029920D01*
X143657206Y-82070288D01*
X143673999Y-82108006D01*
X143678718Y-82120302D01*
X143691473Y-82159556D01*
X143694776Y-82165277D01*
X143712104Y-82195290D01*
X143718091Y-82207039D01*
X143734882Y-82244752D01*
X143738761Y-82250091D01*
X143738764Y-82250096D01*
X143759146Y-82278149D01*
X143766325Y-82289202D01*
X143786960Y-82324944D01*
X143791380Y-82329853D01*
X143791383Y-82329857D01*
X143814575Y-82355614D01*
X143822871Y-82365857D01*
X143847134Y-82399253D01*
X143852036Y-82403667D01*
X143852038Y-82403669D01*
X143877806Y-82426871D01*
X143887129Y-82436194D01*
X143903579Y-82454463D01*
X143914747Y-82466866D01*
X143948143Y-82491129D01*
X143958386Y-82499425D01*
X143984143Y-82522617D01*
X143984147Y-82522620D01*
X143989056Y-82527040D01*
X144024798Y-82547675D01*
X144035851Y-82554854D01*
X144063904Y-82575236D01*
X144063909Y-82575239D01*
X144069248Y-82579118D01*
X144075275Y-82581801D01*
X144075276Y-82581802D01*
X144106959Y-82595908D01*
X144118708Y-82601895D01*
X144154444Y-82622527D01*
X144160727Y-82624568D01*
X144160728Y-82624569D01*
X144193696Y-82635281D01*
X144205994Y-82640001D01*
X144243712Y-82656794D01*
X144250165Y-82658166D01*
X144250169Y-82658167D01*
X144284080Y-82665375D01*
X144296817Y-82668788D01*
X144329791Y-82679502D01*
X144329798Y-82679503D01*
X144336072Y-82681542D01*
X144342633Y-82682232D01*
X144342635Y-82682232D01*
X144356690Y-82683709D01*
X144377128Y-82685857D01*
X144390136Y-82687918D01*
X144430513Y-82696500D01*
X153495497Y-82696500D01*
X153563618Y-82716502D01*
X153584592Y-82733405D01*
X155040443Y-84189256D01*
X155044984Y-84194041D01*
X155090747Y-84244866D01*
X155096089Y-84248747D01*
X155096091Y-84248749D01*
X155146076Y-84285065D01*
X155151309Y-84289081D01*
X155199331Y-84327969D01*
X155199340Y-84327975D01*
X155204470Y-84332129D01*
X155210357Y-84335129D01*
X155210358Y-84335129D01*
X155217009Y-84338518D01*
X155233865Y-84348848D01*
X155245248Y-84357118D01*
X155307770Y-84384955D01*
X155313652Y-84387760D01*
X155374630Y-84418830D01*
X155388227Y-84422473D01*
X155406860Y-84429072D01*
X155410914Y-84430877D01*
X155419712Y-84434794D01*
X155426170Y-84436167D01*
X155426171Y-84436167D01*
X155486613Y-84449014D01*
X155493027Y-84450554D01*
X155552722Y-84466549D01*
X155552724Y-84466549D01*
X155559097Y-84468257D01*
X155573143Y-84468993D01*
X155592747Y-84471574D01*
X155606513Y-84474500D01*
X155674926Y-84474500D01*
X155681520Y-84474673D01*
X155743218Y-84477907D01*
X155743223Y-84477907D01*
X155749810Y-84478252D01*
X155756326Y-84477220D01*
X155756327Y-84477220D01*
X155763707Y-84476051D01*
X155783417Y-84474500D01*
X155797487Y-84474500D01*
X155864400Y-84460277D01*
X155870854Y-84459081D01*
X155931913Y-84449411D01*
X155931917Y-84449410D01*
X155938433Y-84448378D01*
X155951574Y-84443334D01*
X155970523Y-84437720D01*
X155984288Y-84434794D01*
X156046772Y-84406974D01*
X156052863Y-84404452D01*
X156110555Y-84382306D01*
X156110557Y-84382305D01*
X156116723Y-84379938D01*
X156128531Y-84372270D01*
X156145894Y-84362843D01*
X156158752Y-84357118D01*
X156214087Y-84316915D01*
X156219522Y-84313180D01*
X156271347Y-84279524D01*
X156271349Y-84279523D01*
X156276887Y-84275926D01*
X156286832Y-84265981D01*
X156301865Y-84253140D01*
X156307913Y-84248746D01*
X156307914Y-84248745D01*
X156313253Y-84244866D01*
X156359016Y-84194041D01*
X156363557Y-84189256D01*
X156408503Y-84144310D01*
X156470815Y-84110284D01*
X156541630Y-84115349D01*
X156592328Y-84150326D01*
X156674722Y-84244278D01*
X156875038Y-84419950D01*
X157096570Y-84567973D01*
X157335527Y-84685814D01*
X157376846Y-84699840D01*
X157583912Y-84770130D01*
X157583916Y-84770131D01*
X157587822Y-84771457D01*
X157591866Y-84772261D01*
X157591872Y-84772263D01*
X157845093Y-84822631D01*
X157845096Y-84822631D01*
X157849136Y-84823435D01*
X157853247Y-84823704D01*
X157853251Y-84823705D01*
X157955490Y-84830406D01*
X158081110Y-84838640D01*
X158093767Y-84840116D01*
X158102448Y-84841576D01*
X158108724Y-84841653D01*
X158110140Y-84841670D01*
X158110143Y-84841670D01*
X158115000Y-84841729D01*
X158142624Y-84837773D01*
X158160486Y-84836500D01*
X164157750Y-84836500D01*
X164178655Y-84838246D01*
X164193656Y-84840770D01*
X164193659Y-84840770D01*
X164198448Y-84841576D01*
X164204398Y-84841649D01*
X164206130Y-84841670D01*
X164206135Y-84841670D01*
X164211000Y-84841729D01*
X164215817Y-84841039D01*
X164215832Y-84841038D01*
X164217394Y-84840814D01*
X164227016Y-84839811D01*
X164472749Y-84823705D01*
X164472753Y-84823704D01*
X164476864Y-84823435D01*
X164480904Y-84822631D01*
X164480907Y-84822631D01*
X164734128Y-84772263D01*
X164734134Y-84772261D01*
X164738178Y-84771457D01*
X164742084Y-84770131D01*
X164742088Y-84770130D01*
X164986573Y-84687138D01*
X164986575Y-84687137D01*
X164990473Y-84685814D01*
X164994168Y-84683992D01*
X165225727Y-84569800D01*
X165225732Y-84569797D01*
X165229431Y-84567973D01*
X165450962Y-84419950D01*
X165651278Y-84244278D01*
X165826950Y-84043962D01*
X165974973Y-83822431D01*
X165977283Y-83817748D01*
X166090992Y-83587168D01*
X166090993Y-83587166D01*
X166092814Y-83583473D01*
X166096562Y-83572432D01*
X166177130Y-83335088D01*
X166177131Y-83335084D01*
X166178457Y-83331178D01*
X166182322Y-83311750D01*
X166229631Y-83073907D01*
X166229631Y-83073904D01*
X166230435Y-83069864D01*
X166230872Y-83063205D01*
X166245639Y-82837897D01*
X166247116Y-82825229D01*
X166247769Y-82821346D01*
X166248576Y-82816552D01*
X166248729Y-82804000D01*
X166244773Y-82776376D01*
X166243500Y-82758514D01*
X166243500Y-80898500D01*
X166263502Y-80830379D01*
X166317158Y-80783886D01*
X166369500Y-80772500D01*
X168863651Y-80772500D01*
X168931772Y-80792502D01*
X168978265Y-80846158D01*
X168988369Y-80916432D01*
X168958875Y-80981012D01*
X168928074Y-81006785D01*
X168658074Y-81167417D01*
X168658068Y-81167421D01*
X168654814Y-81169357D01*
X168651812Y-81171673D01*
X168405026Y-81362068D01*
X168396244Y-81368843D01*
X168163513Y-81597947D01*
X168161149Y-81600914D01*
X168161146Y-81600917D01*
X167978777Y-81829776D01*
X167959991Y-81853351D01*
X167788626Y-82131357D01*
X167787037Y-82134804D01*
X167718494Y-82283487D01*
X167651902Y-82427936D01*
X167650741Y-82431540D01*
X167650741Y-82431541D01*
X167642196Y-82458077D01*
X167551797Y-82738792D01*
X167551079Y-82742503D01*
X167551078Y-82742507D01*
X167490482Y-83055705D01*
X167490481Y-83055714D01*
X167489763Y-83059424D01*
X167489496Y-83063200D01*
X167489495Y-83063205D01*
X167466966Y-83381396D01*
X167466698Y-83385185D01*
X167468582Y-83423020D01*
X167482554Y-83703682D01*
X167482936Y-83711359D01*
X167483577Y-83715090D01*
X167483578Y-83715098D01*
X167537014Y-84026076D01*
X167538241Y-84033219D01*
X167539329Y-84036858D01*
X167539330Y-84036861D01*
X167628532Y-84335129D01*
X167631814Y-84346104D01*
X167633327Y-84349575D01*
X167633329Y-84349581D01*
X167722868Y-84555016D01*
X167762297Y-84645481D01*
X167764220Y-84648752D01*
X167764222Y-84648756D01*
X167806584Y-84720815D01*
X167927802Y-84927014D01*
X167930103Y-84930029D01*
X168123631Y-85183612D01*
X168123636Y-85183617D01*
X168125931Y-85186625D01*
X168187931Y-85250270D01*
X168241795Y-85305562D01*
X168353814Y-85420553D01*
X168426635Y-85479207D01*
X168605196Y-85623031D01*
X168605201Y-85623035D01*
X168608149Y-85625409D01*
X168885253Y-85798227D01*
X169181112Y-85936503D01*
X169268478Y-85965143D01*
X169397992Y-86007600D01*
X169491440Y-86038234D01*
X169811742Y-86101946D01*
X169815514Y-86102233D01*
X169815522Y-86102234D01*
X170133602Y-86126429D01*
X170133607Y-86126429D01*
X170137379Y-86126716D01*
X170463633Y-86112186D01*
X170523425Y-86102234D01*
X170782037Y-86059190D01*
X170782042Y-86059189D01*
X170785778Y-86058567D01*
X171099149Y-85966634D01*
X171102616Y-85965144D01*
X171102620Y-85965143D01*
X171395721Y-85839216D01*
X171395723Y-85839215D01*
X171399205Y-85837719D01*
X171681601Y-85673691D01*
X171942245Y-85476924D01*
X172090915Y-85333606D01*
X172174632Y-85252903D01*
X172174635Y-85252900D01*
X172177363Y-85250270D01*
X172298574Y-85101386D01*
X172381155Y-84999951D01*
X172381158Y-84999947D01*
X172383549Y-84997010D01*
X172441791Y-84904702D01*
X172555788Y-84724028D01*
X172555790Y-84724025D01*
X172557815Y-84720815D01*
X172575261Y-84683992D01*
X172666825Y-84490722D01*
X172697638Y-84425684D01*
X172700925Y-84415831D01*
X172799790Y-84119497D01*
X172799792Y-84119491D01*
X172800992Y-84115893D01*
X172866381Y-83795929D01*
X172866745Y-83791461D01*
X172892674Y-83472661D01*
X172892856Y-83470426D01*
X172893342Y-83424052D01*
X172893428Y-83415821D01*
X172893428Y-83415814D01*
X172893451Y-83413600D01*
X172893161Y-83408781D01*
X172874026Y-83091393D01*
X172874026Y-83091389D01*
X172873798Y-83087615D01*
X172871295Y-83073907D01*
X172815805Y-82770073D01*
X172815804Y-82770069D01*
X172815125Y-82766351D01*
X172813848Y-82762236D01*
X172749098Y-82553707D01*
X172718282Y-82454463D01*
X172584670Y-82156469D01*
X172416226Y-81876684D01*
X172413899Y-81873700D01*
X172413894Y-81873693D01*
X172217726Y-81622158D01*
X172217724Y-81622156D01*
X172215390Y-81619163D01*
X171985070Y-81387634D01*
X171728603Y-81185452D01*
X171449705Y-81015545D01*
X171446257Y-81013977D01*
X171446247Y-81013972D01*
X171444547Y-81013199D01*
X171444167Y-81012871D01*
X171442900Y-81012200D01*
X171443054Y-81011909D01*
X171390815Y-80966794D01*
X171370701Y-80898707D01*
X171390591Y-80830553D01*
X171444171Y-80783972D01*
X171496701Y-80772500D01*
X187402633Y-80772500D01*
X187422018Y-80774000D01*
X187436851Y-80776310D01*
X187436855Y-80776310D01*
X187445724Y-80777691D01*
X187454626Y-80776527D01*
X187454629Y-80776527D01*
X187462012Y-80775561D01*
X187486591Y-80774767D01*
X187513427Y-80776526D01*
X187708922Y-80789340D01*
X187725262Y-80791491D01*
X187847478Y-80815801D01*
X187969696Y-80840112D01*
X187985606Y-80844375D01*
X188221597Y-80924483D01*
X188221600Y-80924484D01*
X188236826Y-80930791D01*
X188460342Y-81041016D01*
X188474616Y-81049257D01*
X188681829Y-81187713D01*
X188694905Y-81197746D01*
X188882278Y-81362068D01*
X188893932Y-81373722D01*
X189058254Y-81561095D01*
X189068287Y-81574171D01*
X189206743Y-81781384D01*
X189214984Y-81795658D01*
X189325209Y-82019174D01*
X189331515Y-82034398D01*
X189411623Y-82270387D01*
X189415888Y-82286304D01*
X189425237Y-82333305D01*
X189464509Y-82530738D01*
X189466660Y-82547078D01*
X189480763Y-82762236D01*
X189479733Y-82785350D01*
X189479690Y-82788854D01*
X189478309Y-82797724D01*
X189479473Y-82806626D01*
X189479473Y-82806628D01*
X189482436Y-82829283D01*
X189483500Y-82845621D01*
X189483500Y-103639329D01*
X189463498Y-103707450D01*
X189409842Y-103753943D01*
X189339568Y-103764047D01*
X189274988Y-103734553D01*
X189237167Y-103676693D01*
X189212706Y-103597917D01*
X189210034Y-103590844D01*
X189078196Y-103296806D01*
X189074679Y-103290079D01*
X188908476Y-103014017D01*
X188904186Y-103007773D01*
X188765584Y-102830053D01*
X188753792Y-102821584D01*
X188742079Y-102828131D01*
X187020022Y-104550188D01*
X187012408Y-104564132D01*
X187012539Y-104565965D01*
X187016790Y-104572580D01*
X188740832Y-106296622D01*
X188753955Y-106303788D01*
X188764257Y-106296398D01*
X188871124Y-106165132D01*
X188875537Y-106158991D01*
X189047495Y-105886453D01*
X189051142Y-105879818D01*
X189189110Y-105588603D01*
X189191935Y-105581576D01*
X189237976Y-105443575D01*
X189278509Y-105385286D01*
X189344121Y-105358163D01*
X189413980Y-105370819D01*
X189465908Y-105419235D01*
X189483500Y-105483451D01*
X189483500Y-126442633D01*
X189482000Y-126462018D01*
X189479690Y-126476851D01*
X189479690Y-126476855D01*
X189478309Y-126485724D01*
X189479473Y-126494626D01*
X189479473Y-126494629D01*
X189480439Y-126502012D01*
X189481233Y-126526591D01*
X189466660Y-126748922D01*
X189464509Y-126765262D01*
X189427103Y-126953318D01*
X189415889Y-127009693D01*
X189411625Y-127025606D01*
X189352817Y-127198850D01*
X189331516Y-127261600D01*
X189325209Y-127276826D01*
X189214984Y-127500342D01*
X189206743Y-127514616D01*
X189068287Y-127721829D01*
X189058254Y-127734905D01*
X188893932Y-127922278D01*
X188882278Y-127933932D01*
X188694905Y-128098254D01*
X188681829Y-128108287D01*
X188474616Y-128246743D01*
X188460342Y-128254984D01*
X188236826Y-128365209D01*
X188221602Y-128371515D01*
X187985606Y-128451625D01*
X187969696Y-128455888D01*
X187847478Y-128480199D01*
X187725262Y-128504509D01*
X187708922Y-128506660D01*
X187560134Y-128516413D01*
X187493763Y-128520763D01*
X187470650Y-128519733D01*
X187467146Y-128519690D01*
X187458276Y-128518309D01*
X187449374Y-128519473D01*
X187449371Y-128519473D01*
X187426723Y-128522435D01*
X187410386Y-128523499D01*
X148011974Y-128523499D01*
X101141366Y-128523500D01*
X101121981Y-128522000D01*
X101107148Y-128519690D01*
X101107144Y-128519690D01*
X101098275Y-128518309D01*
X101089373Y-128519473D01*
X101089370Y-128519473D01*
X101081987Y-128520439D01*
X101057408Y-128521233D01*
X101012798Y-128518309D01*
X100835077Y-128506660D01*
X100818737Y-128504509D01*
X100696521Y-128480199D01*
X100574303Y-128455888D01*
X100558393Y-128451625D01*
X100322401Y-128371516D01*
X100307175Y-128365210D01*
X100083654Y-128254981D01*
X100069381Y-128246740D01*
X99862170Y-128108287D01*
X99849094Y-128098254D01*
X99661721Y-127933932D01*
X99650067Y-127922278D01*
X99485745Y-127734905D01*
X99475712Y-127721829D01*
X99350353Y-127534216D01*
X99337255Y-127514613D01*
X99329016Y-127500343D01*
X99318178Y-127478364D01*
X99218791Y-127276826D01*
X99212484Y-127261600D01*
X99191183Y-127198850D01*
X99132375Y-127025606D01*
X99128111Y-127009693D01*
X99116898Y-126953318D01*
X99079491Y-126765262D01*
X99077340Y-126748922D01*
X99063237Y-126533764D01*
X99064267Y-126510650D01*
X99064310Y-126507146D01*
X99065691Y-126498276D01*
X99061564Y-126466714D01*
X99060500Y-126450379D01*
X99060500Y-126088469D01*
X101993095Y-126088469D01*
X101993392Y-126093622D01*
X101993392Y-126093625D01*
X101999067Y-126192041D01*
X102006427Y-126319697D01*
X102007564Y-126324743D01*
X102007565Y-126324749D01*
X102036330Y-126452386D01*
X102057346Y-126545642D01*
X102059288Y-126550424D01*
X102059289Y-126550428D01*
X102139889Y-126748922D01*
X102144484Y-126760237D01*
X102265501Y-126957719D01*
X102417147Y-127132784D01*
X102595349Y-127280730D01*
X102795322Y-127397584D01*
X103011694Y-127480209D01*
X103016760Y-127481240D01*
X103016761Y-127481240D01*
X103069846Y-127492040D01*
X103238656Y-127526385D01*
X103369324Y-127531176D01*
X103464949Y-127534683D01*
X103464953Y-127534683D01*
X103470113Y-127534872D01*
X103475233Y-127534216D01*
X103475235Y-127534216D01*
X103548270Y-127524860D01*
X103699847Y-127505442D01*
X103704795Y-127503957D01*
X103704802Y-127503956D01*
X103916747Y-127440369D01*
X103921690Y-127438886D01*
X104002236Y-127399427D01*
X104125049Y-127339262D01*
X104125052Y-127339260D01*
X104129684Y-127336991D01*
X104318243Y-127202494D01*
X104482303Y-127039005D01*
X104491926Y-127025614D01*
X104543875Y-126953318D01*
X104617458Y-126850917D01*
X104663794Y-126757164D01*
X104717784Y-126647922D01*
X104717785Y-126647920D01*
X104720078Y-126643280D01*
X104787408Y-126421671D01*
X104817640Y-126192041D01*
X104818977Y-126137333D01*
X104819245Y-126126365D01*
X104819245Y-126126361D01*
X104819327Y-126123000D01*
X104816488Y-126088469D01*
X105493095Y-126088469D01*
X105493392Y-126093622D01*
X105493392Y-126093625D01*
X105499067Y-126192041D01*
X105506427Y-126319697D01*
X105507564Y-126324743D01*
X105507565Y-126324749D01*
X105536330Y-126452386D01*
X105557346Y-126545642D01*
X105559288Y-126550424D01*
X105559289Y-126550428D01*
X105639889Y-126748922D01*
X105644484Y-126760237D01*
X105765501Y-126957719D01*
X105917147Y-127132784D01*
X106095349Y-127280730D01*
X106295322Y-127397584D01*
X106511694Y-127480209D01*
X106516760Y-127481240D01*
X106516761Y-127481240D01*
X106569846Y-127492040D01*
X106738656Y-127526385D01*
X106869324Y-127531176D01*
X106964949Y-127534683D01*
X106964953Y-127534683D01*
X106970113Y-127534872D01*
X106975233Y-127534216D01*
X106975235Y-127534216D01*
X107048270Y-127524860D01*
X107199847Y-127505442D01*
X107204795Y-127503957D01*
X107204802Y-127503956D01*
X107416747Y-127440369D01*
X107421690Y-127438886D01*
X107502236Y-127399427D01*
X107625049Y-127339262D01*
X107625052Y-127339260D01*
X107629684Y-127336991D01*
X107818243Y-127202494D01*
X107982303Y-127039005D01*
X107991926Y-127025614D01*
X108043875Y-126953318D01*
X108117458Y-126850917D01*
X108163794Y-126757164D01*
X108217784Y-126647922D01*
X108217785Y-126647920D01*
X108220078Y-126643280D01*
X108287408Y-126421671D01*
X108317640Y-126192041D01*
X108318977Y-126137333D01*
X108319245Y-126126365D01*
X108319245Y-126126361D01*
X108319327Y-126123000D01*
X108310652Y-126017485D01*
X108300773Y-125897318D01*
X108300772Y-125897312D01*
X108300349Y-125892167D01*
X108257307Y-125720809D01*
X108245184Y-125672544D01*
X108245183Y-125672540D01*
X108243925Y-125667533D01*
X108241866Y-125662797D01*
X108153630Y-125459868D01*
X108153628Y-125459865D01*
X108151570Y-125455131D01*
X108079372Y-125343530D01*
X164318966Y-125343530D01*
X164319656Y-125350095D01*
X164330696Y-125455131D01*
X164338928Y-125533458D01*
X164397943Y-125715086D01*
X164493430Y-125880474D01*
X164621217Y-126022396D01*
X164705093Y-126083336D01*
X164755070Y-126119646D01*
X164775718Y-126134648D01*
X164781746Y-126137332D01*
X164781748Y-126137333D01*
X164944151Y-126209639D01*
X164950182Y-126212324D01*
X165043583Y-126232177D01*
X165130526Y-126250658D01*
X165130531Y-126250658D01*
X165136983Y-126252030D01*
X165327957Y-126252030D01*
X165334409Y-126250658D01*
X165334414Y-126250658D01*
X165421357Y-126232177D01*
X165514758Y-126212324D01*
X165520789Y-126209639D01*
X165683192Y-126137333D01*
X165683194Y-126137332D01*
X165689222Y-126134648D01*
X165709871Y-126119646D01*
X165759847Y-126083336D01*
X165843723Y-126022396D01*
X165971510Y-125880474D01*
X166066997Y-125715086D01*
X166126012Y-125533458D01*
X166139225Y-125407743D01*
X166166238Y-125342088D01*
X166175440Y-125331820D01*
X167117855Y-124389405D01*
X167180167Y-124355379D01*
X167206950Y-124352500D01*
X167227487Y-124352500D01*
X167233939Y-124351128D01*
X167233944Y-124351128D01*
X167320887Y-124332647D01*
X167414288Y-124312794D01*
X167420319Y-124310109D01*
X167582722Y-124237803D01*
X167582724Y-124237802D01*
X167588752Y-124235118D01*
X167743253Y-124122866D01*
X167842687Y-124012433D01*
X167866621Y-123985852D01*
X167866622Y-123985851D01*
X167871040Y-123980944D01*
X167941718Y-123858526D01*
X167963223Y-123821279D01*
X167963224Y-123821278D01*
X167966527Y-123815556D01*
X168025542Y-123633928D01*
X168027523Y-123615086D01*
X168044814Y-123450565D01*
X168045504Y-123444000D01*
X168025542Y-123254072D01*
X167966527Y-123072444D01*
X167871040Y-122907056D01*
X167743253Y-122765134D01*
X167588752Y-122652882D01*
X167582724Y-122650198D01*
X167582722Y-122650197D01*
X167420319Y-122577891D01*
X167420318Y-122577891D01*
X167414288Y-122575206D01*
X167294241Y-122549689D01*
X167233944Y-122536872D01*
X167233939Y-122536872D01*
X167227487Y-122535500D01*
X167036513Y-122535500D01*
X167030061Y-122536872D01*
X167030056Y-122536872D01*
X166969759Y-122549689D01*
X166849712Y-122575206D01*
X166843682Y-122577891D01*
X166843681Y-122577891D01*
X166681278Y-122650197D01*
X166681276Y-122650198D01*
X166675248Y-122652882D01*
X166520747Y-122765134D01*
X166392960Y-122907056D01*
X166297473Y-123072444D01*
X166295431Y-123078729D01*
X166252500Y-123210857D01*
X166238458Y-123254072D01*
X166227074Y-123362388D01*
X166225245Y-123379786D01*
X166198232Y-123445442D01*
X166189030Y-123455710D01*
X165246615Y-124398125D01*
X165184303Y-124432151D01*
X165157520Y-124435030D01*
X165136983Y-124435030D01*
X165130531Y-124436402D01*
X165130526Y-124436402D01*
X165043582Y-124454883D01*
X164950182Y-124474736D01*
X164944152Y-124477421D01*
X164944151Y-124477421D01*
X164781748Y-124549727D01*
X164781746Y-124549728D01*
X164775718Y-124552412D01*
X164621217Y-124664664D01*
X164493430Y-124806586D01*
X164397943Y-124971974D01*
X164338928Y-125153602D01*
X164338238Y-125160163D01*
X164338238Y-125160165D01*
X164327675Y-125260665D01*
X164318966Y-125343530D01*
X108079372Y-125343530D01*
X108025764Y-125260665D01*
X107869887Y-125089358D01*
X107865836Y-125086159D01*
X107865832Y-125086155D01*
X107692177Y-124949011D01*
X107692172Y-124949008D01*
X107688123Y-124945810D01*
X107683607Y-124943317D01*
X107683604Y-124943315D01*
X107489879Y-124836373D01*
X107489875Y-124836371D01*
X107485355Y-124833876D01*
X107480486Y-124832152D01*
X107480482Y-124832150D01*
X107271903Y-124758288D01*
X107271899Y-124758287D01*
X107267028Y-124756562D01*
X107261935Y-124755655D01*
X107261932Y-124755654D01*
X107044095Y-124716851D01*
X107044089Y-124716850D01*
X107039006Y-124715945D01*
X106966096Y-124715054D01*
X106812581Y-124713179D01*
X106812579Y-124713179D01*
X106807411Y-124713116D01*
X106578464Y-124748150D01*
X106358314Y-124820106D01*
X106353726Y-124822494D01*
X106353722Y-124822496D01*
X106327065Y-124836373D01*
X106152872Y-124927052D01*
X106148739Y-124930155D01*
X106148736Y-124930157D01*
X105971790Y-125063012D01*
X105967655Y-125066117D01*
X105807639Y-125233564D01*
X105804725Y-125237836D01*
X105804724Y-125237837D01*
X105789152Y-125260665D01*
X105677119Y-125424899D01*
X105579602Y-125634981D01*
X105517707Y-125858169D01*
X105493095Y-126088469D01*
X104816488Y-126088469D01*
X104810652Y-126017485D01*
X104800773Y-125897318D01*
X104800772Y-125897312D01*
X104800349Y-125892167D01*
X104757307Y-125720809D01*
X104745184Y-125672544D01*
X104745183Y-125672540D01*
X104743925Y-125667533D01*
X104741866Y-125662797D01*
X104653630Y-125459868D01*
X104653628Y-125459865D01*
X104651570Y-125455131D01*
X104525764Y-125260665D01*
X104369887Y-125089358D01*
X104365836Y-125086159D01*
X104365832Y-125086155D01*
X104192177Y-124949011D01*
X104192172Y-124949008D01*
X104188123Y-124945810D01*
X104183607Y-124943317D01*
X104183604Y-124943315D01*
X103989879Y-124836373D01*
X103989875Y-124836371D01*
X103985355Y-124833876D01*
X103980486Y-124832152D01*
X103980482Y-124832150D01*
X103771903Y-124758288D01*
X103771899Y-124758287D01*
X103767028Y-124756562D01*
X103761935Y-124755655D01*
X103761932Y-124755654D01*
X103544095Y-124716851D01*
X103544089Y-124716850D01*
X103539006Y-124715945D01*
X103466096Y-124715054D01*
X103312581Y-124713179D01*
X103312579Y-124713179D01*
X103307411Y-124713116D01*
X103078464Y-124748150D01*
X102858314Y-124820106D01*
X102853726Y-124822494D01*
X102853722Y-124822496D01*
X102827065Y-124836373D01*
X102652872Y-124927052D01*
X102648739Y-124930155D01*
X102648736Y-124930157D01*
X102471790Y-125063012D01*
X102467655Y-125066117D01*
X102307639Y-125233564D01*
X102304725Y-125237836D01*
X102304724Y-125237837D01*
X102289152Y-125260665D01*
X102177119Y-125424899D01*
X102079602Y-125634981D01*
X102017707Y-125858169D01*
X101993095Y-126088469D01*
X99060500Y-126088469D01*
X99060500Y-123400020D01*
X108293725Y-123400020D01*
X108302438Y-123411540D01*
X108404737Y-123486548D01*
X108412636Y-123491484D01*
X108638902Y-123610528D01*
X108647451Y-123614245D01*
X108888816Y-123698533D01*
X108897825Y-123700947D01*
X109149004Y-123748635D01*
X109158261Y-123749689D01*
X109413732Y-123759728D01*
X109423046Y-123759402D01*
X109677184Y-123731570D01*
X109686361Y-123729869D01*
X109872190Y-123680944D01*
X144701253Y-123680944D01*
X144706842Y-123731570D01*
X144716115Y-123815556D01*
X144720071Y-123851393D01*
X144779003Y-124012433D01*
X144874648Y-124154767D01*
X144880264Y-124159877D01*
X144962953Y-124235118D01*
X145001483Y-124270178D01*
X145152186Y-124352003D01*
X145318057Y-124395519D01*
X145405504Y-124396892D01*
X145481921Y-124398093D01*
X145481924Y-124398093D01*
X145489520Y-124398212D01*
X145496924Y-124396516D01*
X145496926Y-124396516D01*
X145559764Y-124382124D01*
X145656677Y-124359928D01*
X145755247Y-124310353D01*
X145811860Y-124296918D01*
X146354995Y-124296918D01*
X146423116Y-124316920D01*
X146459575Y-124352640D01*
X146503730Y-124418349D01*
X146630565Y-124533760D01*
X146781268Y-124615585D01*
X146947139Y-124659101D01*
X147034586Y-124660474D01*
X147111003Y-124661675D01*
X147111006Y-124661675D01*
X147118602Y-124661794D01*
X147126006Y-124660098D01*
X147126008Y-124660098D01*
X147188846Y-124645706D01*
X147285759Y-124623510D01*
X147438958Y-124546459D01*
X147444729Y-124541530D01*
X147444732Y-124541528D01*
X147563578Y-124440023D01*
X147569355Y-124435089D01*
X147658988Y-124310353D01*
X147664992Y-124301998D01*
X147664993Y-124301997D01*
X147669424Y-124295830D01*
X147733385Y-124136720D01*
X147750176Y-124018742D01*
X147756966Y-123971031D01*
X147756966Y-123971027D01*
X147757547Y-123966947D01*
X147757704Y-123952000D01*
X147745529Y-123851393D01*
X147738015Y-123789299D01*
X147738014Y-123789296D01*
X147737102Y-123781758D01*
X147728655Y-123759402D01*
X147679171Y-123628447D01*
X147676487Y-123621344D01*
X147631930Y-123556513D01*
X147583659Y-123486278D01*
X147583658Y-123486276D01*
X147579357Y-123480019D01*
X147573686Y-123474966D01*
X147456993Y-123370996D01*
X147456990Y-123370994D01*
X147451321Y-123365943D01*
X147299769Y-123285700D01*
X147292407Y-123283851D01*
X147292405Y-123283850D01*
X147258748Y-123275396D01*
X147212744Y-123253156D01*
X147182493Y-123229944D01*
X147182490Y-123229941D01*
X147182483Y-123229935D01*
X147182478Y-123229931D01*
X147093847Y-123161922D01*
X147093845Y-123161921D01*
X147087294Y-123156894D01*
X146939269Y-123095580D01*
X146931082Y-123094502D01*
X146931081Y-123094502D01*
X146919876Y-123093027D01*
X146888680Y-123088920D01*
X146820303Y-123079918D01*
X146820300Y-123079918D01*
X146820292Y-123079917D01*
X146788607Y-123075746D01*
X146780418Y-123074668D01*
X146748725Y-123078840D01*
X146732282Y-123079918D01*
X145811150Y-123079918D01*
X145752194Y-123065274D01*
X145670687Y-123022118D01*
X145653114Y-123017704D01*
X145511740Y-122982193D01*
X145511736Y-122982193D01*
X145504369Y-122980342D01*
X145496770Y-122980302D01*
X145496768Y-122980302D01*
X145425312Y-122979928D01*
X145332887Y-122979444D01*
X145325507Y-122981216D01*
X145325505Y-122981216D01*
X145173520Y-123017704D01*
X145173516Y-123017705D01*
X145166141Y-123019476D01*
X145013757Y-123098127D01*
X144884533Y-123210857D01*
X144785928Y-123351157D01*
X144762386Y-123411540D01*
X144731217Y-123491484D01*
X144723636Y-123510927D01*
X144722644Y-123518460D01*
X144722644Y-123518461D01*
X144707443Y-123633928D01*
X144701253Y-123680944D01*
X109872190Y-123680944D01*
X109933593Y-123664778D01*
X109942413Y-123661741D01*
X110177313Y-123560820D01*
X110185585Y-123556513D01*
X110402982Y-123421984D01*
X110410529Y-123416500D01*
X110412820Y-123414561D01*
X110421257Y-123401758D01*
X110415193Y-123391403D01*
X109368812Y-122345022D01*
X109354868Y-122337408D01*
X109353035Y-122337539D01*
X109346420Y-122341790D01*
X108300383Y-123387827D01*
X108293725Y-123400020D01*
X99060500Y-123400020D01*
X99060500Y-122200020D01*
X99893725Y-122200020D01*
X99902438Y-122211540D01*
X100004737Y-122286548D01*
X100012636Y-122291484D01*
X100238902Y-122410528D01*
X100247451Y-122414245D01*
X100488816Y-122498533D01*
X100497825Y-122500947D01*
X100749004Y-122548635D01*
X100758261Y-122549689D01*
X101013732Y-122559728D01*
X101023046Y-122559402D01*
X101277184Y-122531570D01*
X101286361Y-122529869D01*
X101533593Y-122464778D01*
X101542413Y-122461741D01*
X101777313Y-122360820D01*
X101785585Y-122356513D01*
X102002982Y-122221984D01*
X102010529Y-122216500D01*
X102012820Y-122214561D01*
X102021257Y-122201758D01*
X102015193Y-122191403D01*
X101754658Y-121930868D01*
X107568837Y-121930868D01*
X107581103Y-122186232D01*
X107582239Y-122195487D01*
X107632117Y-122446237D01*
X107634609Y-122455223D01*
X107721000Y-122695841D01*
X107724797Y-122704369D01*
X107845802Y-122929572D01*
X107850813Y-122937438D01*
X107917583Y-123026853D01*
X107928841Y-123035302D01*
X107941260Y-123028530D01*
X108983978Y-121985812D01*
X108990356Y-121974132D01*
X109720408Y-121974132D01*
X109720539Y-121975965D01*
X109724790Y-121982580D01*
X110774004Y-123031794D01*
X110786384Y-123038554D01*
X110794725Y-123032310D01*
X110924800Y-122830086D01*
X110929243Y-122821902D01*
X111034249Y-122588796D01*
X111037439Y-122580031D01*
X111106835Y-122333974D01*
X111108695Y-122324832D01*
X111141152Y-122069707D01*
X111141633Y-122063420D01*
X111143917Y-121976160D01*
X111143766Y-121969851D01*
X111124706Y-121713369D01*
X111123329Y-121704163D01*
X111066904Y-121454796D01*
X111064180Y-121445885D01*
X110971515Y-121207600D01*
X110967504Y-121199190D01*
X110840638Y-120977221D01*
X110835427Y-120969495D01*
X110795194Y-120918460D01*
X110783268Y-120909988D01*
X110771736Y-120916474D01*
X109728022Y-121960188D01*
X109720408Y-121974132D01*
X108990356Y-121974132D01*
X108991592Y-121971868D01*
X108991461Y-121970035D01*
X108987210Y-121963420D01*
X107939568Y-120915778D01*
X107926259Y-120908511D01*
X107916224Y-120915630D01*
X107903347Y-120931113D01*
X107897936Y-120938699D01*
X107765308Y-121157264D01*
X107761070Y-121165581D01*
X107662206Y-121401344D01*
X107659245Y-121410194D01*
X107596317Y-121657978D01*
X107594695Y-121667175D01*
X107569082Y-121921542D01*
X107568837Y-121930868D01*
X101754658Y-121930868D01*
X100968812Y-121145022D01*
X100954868Y-121137408D01*
X100953035Y-121137539D01*
X100946420Y-121141790D01*
X99900383Y-122187827D01*
X99893725Y-122200020D01*
X99060500Y-122200020D01*
X99060500Y-121494101D01*
X99080502Y-121425980D01*
X99134158Y-121379487D01*
X99204432Y-121369383D01*
X99269012Y-121398877D01*
X99305088Y-121451523D01*
X99321000Y-121495841D01*
X99324797Y-121504369D01*
X99445802Y-121729572D01*
X99450813Y-121737438D01*
X99517583Y-121826853D01*
X99528841Y-121835302D01*
X99541260Y-121828530D01*
X100583978Y-120785812D01*
X100590356Y-120774132D01*
X101320408Y-120774132D01*
X101320539Y-120775965D01*
X101324790Y-120782580D01*
X102374004Y-121831794D01*
X102386384Y-121838554D01*
X102394725Y-121832310D01*
X102524800Y-121630086D01*
X102529243Y-121621902D01*
X102634249Y-121388796D01*
X102637439Y-121380031D01*
X102706835Y-121133974D01*
X102708695Y-121124832D01*
X102741152Y-120869707D01*
X102741633Y-120863420D01*
X102743917Y-120776160D01*
X102743766Y-120769851D01*
X102726963Y-120543746D01*
X108291159Y-120543746D01*
X108295732Y-120553522D01*
X109343188Y-121600978D01*
X109357132Y-121608592D01*
X109358965Y-121608461D01*
X109365580Y-121604210D01*
X110412384Y-120557406D01*
X110418768Y-120545716D01*
X110409357Y-120533606D01*
X110267315Y-120435068D01*
X110259288Y-120430340D01*
X110174498Y-120388526D01*
X114356835Y-120388526D01*
X114366244Y-120473751D01*
X114373972Y-120543746D01*
X114375653Y-120558975D01*
X114378262Y-120566106D01*
X114378263Y-120566108D01*
X114386188Y-120587764D01*
X114434585Y-120720015D01*
X114438822Y-120726321D01*
X114438824Y-120726324D01*
X114468197Y-120770035D01*
X114530230Y-120862349D01*
X114580961Y-120908511D01*
X114614138Y-120938699D01*
X114657065Y-120977760D01*
X114807768Y-121059585D01*
X114973639Y-121103101D01*
X115061086Y-121104474D01*
X115137503Y-121105675D01*
X115137506Y-121105675D01*
X115145102Y-121105794D01*
X115152506Y-121104098D01*
X115152508Y-121104098D01*
X115215346Y-121089706D01*
X115312259Y-121067510D01*
X115410829Y-121017935D01*
X115467442Y-121004500D01*
X115673314Y-121004500D01*
X115733436Y-121019769D01*
X115806768Y-121059585D01*
X115972639Y-121103101D01*
X116060086Y-121104474D01*
X116136503Y-121105675D01*
X116136506Y-121105675D01*
X116144102Y-121105794D01*
X116151506Y-121104098D01*
X116151508Y-121104098D01*
X116214346Y-121089706D01*
X116311259Y-121067510D01*
X116464458Y-120990459D01*
X116470229Y-120985530D01*
X116470232Y-120985528D01*
X116589078Y-120884023D01*
X116594855Y-120879089D01*
X116673219Y-120770035D01*
X116690492Y-120745998D01*
X116690493Y-120745997D01*
X116694924Y-120739830D01*
X116758885Y-120580720D01*
X116783047Y-120410947D01*
X116783204Y-120396000D01*
X116763821Y-120235828D01*
X116763515Y-120233299D01*
X116763514Y-120233296D01*
X116762602Y-120225758D01*
X116739319Y-120164139D01*
X116704671Y-120072447D01*
X116701987Y-120065344D01*
X116604857Y-119924019D01*
X116599186Y-119918966D01*
X116482493Y-119814996D01*
X116482490Y-119814994D01*
X116476821Y-119809943D01*
X116468825Y-119805709D01*
X116331981Y-119733254D01*
X116331982Y-119733254D01*
X116325269Y-119729700D01*
X116307696Y-119725286D01*
X116166322Y-119689775D01*
X116166318Y-119689775D01*
X116158951Y-119687924D01*
X116151352Y-119687884D01*
X116151350Y-119687884D01*
X116079894Y-119687510D01*
X115987469Y-119687026D01*
X115980089Y-119688798D01*
X115980087Y-119688798D01*
X115828102Y-119725286D01*
X115828098Y-119725287D01*
X115820723Y-119727058D01*
X115731993Y-119772855D01*
X115730809Y-119773466D01*
X115673019Y-119787500D01*
X115466732Y-119787500D01*
X115407776Y-119772856D01*
X115326269Y-119729700D01*
X115308696Y-119725286D01*
X115167322Y-119689775D01*
X115167318Y-119689775D01*
X115159951Y-119687924D01*
X115152352Y-119687884D01*
X115152350Y-119687884D01*
X115080894Y-119687510D01*
X114988469Y-119687026D01*
X114981089Y-119688798D01*
X114981087Y-119688798D01*
X114829102Y-119725286D01*
X114829098Y-119725287D01*
X114821723Y-119727058D01*
X114669339Y-119805709D01*
X114540115Y-119918439D01*
X114441510Y-120058739D01*
X114420757Y-120111967D01*
X114389654Y-120191743D01*
X114379218Y-120218509D01*
X114356835Y-120388526D01*
X110174498Y-120388526D01*
X110029985Y-120317260D01*
X110021352Y-120313772D01*
X109777851Y-120235828D01*
X109768790Y-120233652D01*
X109516445Y-120192555D01*
X109507158Y-120191743D01*
X109251522Y-120188396D01*
X109242211Y-120188966D01*
X108988885Y-120223442D01*
X108979766Y-120225380D01*
X108734328Y-120296919D01*
X108725575Y-120300191D01*
X108493406Y-120407223D01*
X108485251Y-120411743D01*
X108300297Y-120533004D01*
X108291159Y-120543746D01*
X102726963Y-120543746D01*
X102724706Y-120513369D01*
X102723329Y-120504163D01*
X102666904Y-120254796D01*
X102664180Y-120245885D01*
X102571515Y-120007600D01*
X102567504Y-119999190D01*
X102440638Y-119777221D01*
X102435427Y-119769495D01*
X102395194Y-119718460D01*
X102383268Y-119709988D01*
X102371736Y-119716474D01*
X101328022Y-120760188D01*
X101320408Y-120774132D01*
X100590356Y-120774132D01*
X100591592Y-120771868D01*
X100591461Y-120770035D01*
X100587210Y-120763420D01*
X99539568Y-119715778D01*
X99526259Y-119708511D01*
X99516224Y-119715630D01*
X99503347Y-119731113D01*
X99497936Y-119738699D01*
X99365308Y-119957264D01*
X99361070Y-119965581D01*
X99302697Y-120104785D01*
X99257908Y-120159871D01*
X99190448Y-120181997D01*
X99121734Y-120164139D01*
X99073583Y-120111967D01*
X99060500Y-120056059D01*
X99060500Y-119343746D01*
X99891159Y-119343746D01*
X99895732Y-119353522D01*
X100943188Y-120400978D01*
X100957132Y-120408592D01*
X100958965Y-120408461D01*
X100965580Y-120404210D01*
X102012384Y-119357406D01*
X102018768Y-119345716D01*
X102009357Y-119333606D01*
X101867315Y-119235068D01*
X101859288Y-119230340D01*
X101629985Y-119117260D01*
X101621352Y-119113772D01*
X101377851Y-119035828D01*
X101368790Y-119033652D01*
X101116445Y-118992555D01*
X101107158Y-118991743D01*
X100851522Y-118988396D01*
X100842211Y-118988966D01*
X100588885Y-119023442D01*
X100579766Y-119025380D01*
X100334328Y-119096919D01*
X100325575Y-119100191D01*
X100093406Y-119207223D01*
X100085251Y-119211743D01*
X99900297Y-119333004D01*
X99891159Y-119343746D01*
X99060500Y-119343746D01*
X99060500Y-116357669D01*
X175840001Y-116357669D01*
X175840371Y-116364490D01*
X175845895Y-116415352D01*
X175849521Y-116430604D01*
X175894676Y-116551054D01*
X175903214Y-116566649D01*
X175979715Y-116668724D01*
X175992276Y-116681285D01*
X176094351Y-116757786D01*
X176109946Y-116766324D01*
X176230394Y-116811478D01*
X176245649Y-116815105D01*
X176296514Y-116820631D01*
X176303328Y-116821000D01*
X176825885Y-116821000D01*
X176841124Y-116816525D01*
X176842329Y-116815135D01*
X176844000Y-116807452D01*
X176844000Y-116802884D01*
X177352000Y-116802884D01*
X177356475Y-116818123D01*
X177357865Y-116819328D01*
X177365548Y-116820999D01*
X177892669Y-116820999D01*
X177899490Y-116820629D01*
X177950352Y-116815105D01*
X177965604Y-116811479D01*
X178086054Y-116766324D01*
X178101649Y-116757786D01*
X178203724Y-116681285D01*
X178216285Y-116668724D01*
X178292786Y-116566649D01*
X178301324Y-116551054D01*
X178346478Y-116430606D01*
X178350106Y-116415351D01*
X178355319Y-116367356D01*
X178382560Y-116301794D01*
X178440923Y-116261367D01*
X178511877Y-116258911D01*
X178572895Y-116295206D01*
X178583795Y-116308692D01*
X178630251Y-116375038D01*
X178785962Y-116530749D01*
X178966346Y-116657056D01*
X179165924Y-116750120D01*
X179378629Y-116807115D01*
X179598000Y-116826307D01*
X179817371Y-116807115D01*
X180030076Y-116750120D01*
X180229654Y-116657056D01*
X180410038Y-116530749D01*
X180565749Y-116375038D01*
X180645343Y-116261367D01*
X180688899Y-116199162D01*
X180688900Y-116199160D01*
X180692056Y-116194653D01*
X180694379Y-116189671D01*
X180694382Y-116189666D01*
X180733805Y-116105122D01*
X180780722Y-116051837D01*
X180849000Y-116032376D01*
X180916960Y-116052918D01*
X180962195Y-116105122D01*
X181001618Y-116189666D01*
X181001621Y-116189671D01*
X181003944Y-116194653D01*
X181007100Y-116199160D01*
X181007101Y-116199162D01*
X181050658Y-116261367D01*
X181130251Y-116375038D01*
X181285962Y-116530749D01*
X181466346Y-116657056D01*
X181665924Y-116750120D01*
X181878629Y-116807115D01*
X182098000Y-116826307D01*
X182317371Y-116807115D01*
X182530076Y-116750120D01*
X182729654Y-116657056D01*
X182792342Y-116613161D01*
X183912393Y-116613161D01*
X183921687Y-116625175D01*
X183962088Y-116653464D01*
X183971584Y-116658947D01*
X184161113Y-116747326D01*
X184171405Y-116751072D01*
X184373401Y-116805196D01*
X184384196Y-116807099D01*
X184592525Y-116825326D01*
X184603475Y-116825326D01*
X184811804Y-116807099D01*
X184822599Y-116805196D01*
X185024595Y-116751072D01*
X185034887Y-116747326D01*
X185224416Y-116658947D01*
X185233912Y-116653464D01*
X185275148Y-116624590D01*
X185283523Y-116614112D01*
X185276457Y-116600668D01*
X184610811Y-115935021D01*
X184596868Y-115927408D01*
X184595034Y-115927539D01*
X184588420Y-115931790D01*
X183918820Y-116601391D01*
X183912393Y-116613161D01*
X182792342Y-116613161D01*
X182910038Y-116530749D01*
X183065749Y-116375038D01*
X183145343Y-116261367D01*
X183188899Y-116199162D01*
X183188900Y-116199160D01*
X183192056Y-116194653D01*
X183194379Y-116189671D01*
X183194382Y-116189666D01*
X183234081Y-116104530D01*
X183280998Y-116051245D01*
X183349276Y-116031784D01*
X183417235Y-116052326D01*
X183462471Y-116104530D01*
X183502054Y-116189417D01*
X183507534Y-116198907D01*
X183536411Y-116240149D01*
X183546887Y-116248523D01*
X183560334Y-116241455D01*
X184225979Y-115575811D01*
X184232356Y-115564132D01*
X184962408Y-115564132D01*
X184962539Y-115565966D01*
X184966790Y-115572580D01*
X185636391Y-116242180D01*
X185648161Y-116248607D01*
X185660176Y-116239311D01*
X185688466Y-116198907D01*
X185693946Y-116189417D01*
X185782326Y-115999887D01*
X185786072Y-115989595D01*
X185840196Y-115787599D01*
X185842099Y-115776804D01*
X185860326Y-115568475D01*
X185860326Y-115557525D01*
X185842099Y-115349196D01*
X185840196Y-115338401D01*
X185786072Y-115136405D01*
X185782326Y-115126113D01*
X185693946Y-114936583D01*
X185688466Y-114927093D01*
X185659589Y-114885851D01*
X185649113Y-114877477D01*
X185635666Y-114884545D01*
X184970021Y-115550189D01*
X184962408Y-115564132D01*
X184232356Y-115564132D01*
X184233592Y-115561868D01*
X184233461Y-115560034D01*
X184229210Y-115553420D01*
X183559609Y-114883820D01*
X183547839Y-114877393D01*
X183535824Y-114886689D01*
X183507534Y-114927093D01*
X183502054Y-114936583D01*
X183462471Y-115021470D01*
X183415554Y-115074755D01*
X183347276Y-115094216D01*
X183279316Y-115073674D01*
X183234081Y-115021470D01*
X183194382Y-114936334D01*
X183194379Y-114936329D01*
X183192056Y-114931347D01*
X183160786Y-114886689D01*
X183068908Y-114755473D01*
X183068906Y-114755470D01*
X183065749Y-114750962D01*
X182910038Y-114595251D01*
X182790983Y-114511887D01*
X183912477Y-114511887D01*
X183919545Y-114525334D01*
X184585189Y-115190979D01*
X184599132Y-115198592D01*
X184600966Y-115198461D01*
X184607580Y-115194210D01*
X185277180Y-114524609D01*
X185283607Y-114512839D01*
X185274313Y-114500825D01*
X185233912Y-114472536D01*
X185224416Y-114467053D01*
X185034887Y-114378674D01*
X185024595Y-114374928D01*
X184822599Y-114320804D01*
X184811804Y-114318901D01*
X184603475Y-114300674D01*
X184592525Y-114300674D01*
X184384196Y-114318901D01*
X184373401Y-114320804D01*
X184171405Y-114374928D01*
X184161113Y-114378674D01*
X183971583Y-114467054D01*
X183962093Y-114472534D01*
X183920851Y-114501411D01*
X183912477Y-114511887D01*
X182790983Y-114511887D01*
X182729654Y-114468944D01*
X182530076Y-114375880D01*
X182317371Y-114318885D01*
X182098000Y-114299693D01*
X181878629Y-114318885D01*
X181665924Y-114375880D01*
X181572562Y-114419415D01*
X181471334Y-114466618D01*
X181471329Y-114466621D01*
X181466347Y-114468944D01*
X181461840Y-114472100D01*
X181461838Y-114472101D01*
X181290473Y-114592092D01*
X181290470Y-114592094D01*
X181285962Y-114595251D01*
X181130251Y-114750962D01*
X181127094Y-114755470D01*
X181127092Y-114755473D01*
X181035214Y-114886689D01*
X181003944Y-114931347D01*
X181001621Y-114936329D01*
X181001618Y-114936334D01*
X180962195Y-115020878D01*
X180915278Y-115074163D01*
X180847000Y-115093624D01*
X180779040Y-115073082D01*
X180733805Y-115020878D01*
X180694382Y-114936334D01*
X180694379Y-114936329D01*
X180692056Y-114931347D01*
X180660786Y-114886689D01*
X180568908Y-114755473D01*
X180568906Y-114755470D01*
X180565749Y-114750962D01*
X180410038Y-114595251D01*
X180229654Y-114468944D01*
X180030076Y-114375880D01*
X179817371Y-114318885D01*
X179598000Y-114299693D01*
X179378629Y-114318885D01*
X179165924Y-114375880D01*
X179072562Y-114419415D01*
X178971334Y-114466618D01*
X178971329Y-114466621D01*
X178966347Y-114468944D01*
X178961840Y-114472100D01*
X178961838Y-114472101D01*
X178790473Y-114592092D01*
X178790470Y-114592094D01*
X178785962Y-114595251D01*
X178630251Y-114750962D01*
X178627094Y-114755470D01*
X178627092Y-114755473D01*
X178583794Y-114817309D01*
X178528337Y-114861637D01*
X178457717Y-114868946D01*
X178394357Y-114836915D01*
X178358372Y-114775714D01*
X178355318Y-114758643D01*
X178350105Y-114710648D01*
X178346479Y-114695396D01*
X178301324Y-114574946D01*
X178292786Y-114559351D01*
X178216285Y-114457276D01*
X178203724Y-114444715D01*
X178101649Y-114368214D01*
X178086054Y-114359676D01*
X177965606Y-114314522D01*
X177950351Y-114310895D01*
X177899486Y-114305369D01*
X177892672Y-114305000D01*
X177370115Y-114305000D01*
X177354876Y-114309475D01*
X177353671Y-114310865D01*
X177352000Y-114318548D01*
X177352000Y-116802884D01*
X176844000Y-116802884D01*
X176844000Y-115835115D01*
X176839525Y-115819876D01*
X176838135Y-115818671D01*
X176830452Y-115817000D01*
X175858116Y-115817000D01*
X175842877Y-115821475D01*
X175841672Y-115822865D01*
X175840001Y-115830548D01*
X175840001Y-116357669D01*
X99060500Y-116357669D01*
X99060500Y-115290885D01*
X175840000Y-115290885D01*
X175844475Y-115306124D01*
X175845865Y-115307329D01*
X175853548Y-115309000D01*
X176825885Y-115309000D01*
X176841124Y-115304525D01*
X176842329Y-115303135D01*
X176844000Y-115295452D01*
X176844000Y-114323116D01*
X176839525Y-114307877D01*
X176838135Y-114306672D01*
X176830452Y-114305001D01*
X176303331Y-114305001D01*
X176296510Y-114305371D01*
X176245648Y-114310895D01*
X176230396Y-114314521D01*
X176109946Y-114359676D01*
X176094351Y-114368214D01*
X175992276Y-114444715D01*
X175979715Y-114457276D01*
X175903214Y-114559351D01*
X175894676Y-114574946D01*
X175849522Y-114695394D01*
X175845895Y-114710649D01*
X175840369Y-114761514D01*
X175840000Y-114768328D01*
X175840000Y-115290885D01*
X99060500Y-115290885D01*
X99060500Y-112006526D01*
X119428335Y-112006526D01*
X119437744Y-112091751D01*
X119440072Y-112112833D01*
X119447153Y-112176975D01*
X119449762Y-112184106D01*
X119449763Y-112184108D01*
X119457688Y-112205764D01*
X119506085Y-112338015D01*
X119601730Y-112480349D01*
X119728565Y-112595760D01*
X119879268Y-112677585D01*
X120045139Y-112721101D01*
X120132586Y-112722474D01*
X120209003Y-112723675D01*
X120209006Y-112723675D01*
X120216602Y-112723794D01*
X120224006Y-112722098D01*
X120224008Y-112722098D01*
X120286846Y-112707706D01*
X120383759Y-112685510D01*
X120482329Y-112635935D01*
X120538942Y-112622500D01*
X122539814Y-112622500D01*
X122599936Y-112637769D01*
X122673268Y-112677585D01*
X122839139Y-112721101D01*
X122926586Y-112722474D01*
X123003003Y-112723675D01*
X123003006Y-112723675D01*
X123010602Y-112723794D01*
X123018006Y-112722098D01*
X123018008Y-112722098D01*
X123080846Y-112707706D01*
X123177759Y-112685510D01*
X123330958Y-112608459D01*
X123336729Y-112603530D01*
X123336732Y-112603528D01*
X123455578Y-112502023D01*
X123461355Y-112497089D01*
X123500495Y-112442620D01*
X149345241Y-112442620D01*
X149351255Y-112497089D01*
X149363006Y-112603528D01*
X149364059Y-112613069D01*
X149422991Y-112774109D01*
X149518636Y-112916443D01*
X149645471Y-113031854D01*
X149796174Y-113113679D01*
X149803516Y-113115605D01*
X149803518Y-113115606D01*
X149844766Y-113126427D01*
X149901888Y-113159208D01*
X150474187Y-113731507D01*
X150503418Y-113777301D01*
X150551217Y-113907918D01*
X150646862Y-114050252D01*
X150773697Y-114165663D01*
X150924400Y-114247488D01*
X151090271Y-114291004D01*
X151177718Y-114292377D01*
X151254135Y-114293578D01*
X151254138Y-114293578D01*
X151261734Y-114293697D01*
X151269138Y-114292001D01*
X151269140Y-114292001D01*
X151331978Y-114277609D01*
X151428891Y-114255413D01*
X151582090Y-114178362D01*
X151587861Y-114173433D01*
X151587864Y-114173431D01*
X151706710Y-114071926D01*
X151712487Y-114066992D01*
X151812556Y-113927733D01*
X151876517Y-113768623D01*
X151900679Y-113598850D01*
X151900836Y-113583903D01*
X151880234Y-113413661D01*
X151819619Y-113253247D01*
X151722489Y-113111922D01*
X151716818Y-113106869D01*
X151600125Y-113002899D01*
X151600122Y-113002897D01*
X151594453Y-112997846D01*
X151442901Y-112917603D01*
X151394521Y-112905451D01*
X151336120Y-112872342D01*
X150776280Y-112312502D01*
X150747509Y-112267945D01*
X150694077Y-112126541D01*
X150691393Y-112119438D01*
X150618980Y-112014076D01*
X150598565Y-111984372D01*
X150598564Y-111984370D01*
X150594263Y-111978113D01*
X150588592Y-111973060D01*
X150471899Y-111869090D01*
X150471896Y-111869088D01*
X150466227Y-111864037D01*
X150458231Y-111859803D01*
X150321387Y-111787348D01*
X150321388Y-111787348D01*
X150314675Y-111783794D01*
X150297102Y-111779380D01*
X150155728Y-111743869D01*
X150155724Y-111743869D01*
X150148357Y-111742018D01*
X150140758Y-111741978D01*
X150140756Y-111741978D01*
X150069300Y-111741604D01*
X149976875Y-111741120D01*
X149969495Y-111742892D01*
X149969493Y-111742892D01*
X149817508Y-111779380D01*
X149817504Y-111779381D01*
X149810129Y-111781152D01*
X149657745Y-111859803D01*
X149528521Y-111972533D01*
X149429916Y-112112833D01*
X149407852Y-112169425D01*
X149393684Y-112205764D01*
X149367624Y-112272603D01*
X149366632Y-112280136D01*
X149366632Y-112280137D01*
X149355592Y-112363998D01*
X149345241Y-112442620D01*
X123500495Y-112442620D01*
X123561424Y-112357830D01*
X123625385Y-112198720D01*
X123629554Y-112169425D01*
X123648966Y-112033031D01*
X123648966Y-112033027D01*
X123649547Y-112028947D01*
X123649704Y-112014000D01*
X123632168Y-111869090D01*
X123630015Y-111851299D01*
X123630014Y-111851296D01*
X123629102Y-111843758D01*
X123605446Y-111781152D01*
X123571171Y-111690447D01*
X123568487Y-111683344D01*
X123471357Y-111542019D01*
X123465686Y-111536966D01*
X123348993Y-111432996D01*
X123348990Y-111432994D01*
X123343321Y-111427943D01*
X123335325Y-111423709D01*
X123198481Y-111351254D01*
X123198482Y-111351254D01*
X123191769Y-111347700D01*
X123174196Y-111343286D01*
X123032822Y-111307775D01*
X123032818Y-111307775D01*
X123025451Y-111305924D01*
X123017852Y-111305884D01*
X123017850Y-111305884D01*
X122946394Y-111305510D01*
X122853969Y-111305026D01*
X122846589Y-111306798D01*
X122846587Y-111306798D01*
X122694602Y-111343286D01*
X122694598Y-111343287D01*
X122687223Y-111345058D01*
X122598493Y-111390855D01*
X122597309Y-111391466D01*
X122539519Y-111405500D01*
X120538232Y-111405500D01*
X120479276Y-111390856D01*
X120397769Y-111347700D01*
X120380196Y-111343286D01*
X120238822Y-111307775D01*
X120238818Y-111307775D01*
X120231451Y-111305924D01*
X120223852Y-111305884D01*
X120223850Y-111305884D01*
X120152394Y-111305510D01*
X120059969Y-111305026D01*
X120052589Y-111306798D01*
X120052587Y-111306798D01*
X119900602Y-111343286D01*
X119900598Y-111343287D01*
X119893223Y-111345058D01*
X119740839Y-111423709D01*
X119611615Y-111536439D01*
X119513010Y-111676739D01*
X119450718Y-111836509D01*
X119449726Y-111844042D01*
X119449726Y-111844043D01*
X119431252Y-111984372D01*
X119428335Y-112006526D01*
X99060500Y-112006526D01*
X99060500Y-104648000D01*
X111011131Y-104648000D01*
X111031474Y-105036176D01*
X111031987Y-105039416D01*
X111031988Y-105039424D01*
X111055054Y-105185051D01*
X111092282Y-105420099D01*
X111192887Y-105795562D01*
X111194072Y-105798650D01*
X111194073Y-105798652D01*
X111219718Y-105865458D01*
X111332188Y-106158453D01*
X111333686Y-106161393D01*
X111453652Y-106396838D01*
X111508658Y-106504794D01*
X111510454Y-106507560D01*
X111510456Y-106507563D01*
X111674538Y-106760228D01*
X111720363Y-106830793D01*
X111964986Y-107132876D01*
X112239844Y-107407734D01*
X112541927Y-107652357D01*
X112867925Y-107864062D01*
X112870859Y-107865557D01*
X112870866Y-107865561D01*
X113211327Y-108039034D01*
X113214267Y-108040532D01*
X113577158Y-108179833D01*
X113952621Y-108280438D01*
X114156513Y-108312732D01*
X114333296Y-108340732D01*
X114333304Y-108340733D01*
X114336544Y-108341246D01*
X114724720Y-108361589D01*
X115112896Y-108341246D01*
X115116136Y-108340733D01*
X115116144Y-108340732D01*
X115292927Y-108312732D01*
X115496819Y-108280438D01*
X115872282Y-108179833D01*
X116235173Y-108040532D01*
X116238113Y-108039034D01*
X116578574Y-107865561D01*
X116578581Y-107865557D01*
X116581515Y-107864062D01*
X116907513Y-107652357D01*
X117209596Y-107407734D01*
X117484454Y-107132876D01*
X117729077Y-106830793D01*
X117774902Y-106760228D01*
X117938984Y-106507563D01*
X117938986Y-106507560D01*
X117940782Y-106504794D01*
X117995789Y-106396838D01*
X118115754Y-106161393D01*
X118117252Y-106158453D01*
X118160597Y-106045534D01*
X127801335Y-106045534D01*
X127806049Y-106088230D01*
X127819282Y-106208093D01*
X127820153Y-106215983D01*
X127822762Y-106223114D01*
X127822763Y-106223116D01*
X127833190Y-106251609D01*
X127879085Y-106377023D01*
X127974730Y-106519357D01*
X128101565Y-106634768D01*
X128252268Y-106716593D01*
X128418139Y-106760109D01*
X128505586Y-106761482D01*
X128582003Y-106762683D01*
X128582006Y-106762683D01*
X128589602Y-106762802D01*
X128597006Y-106761106D01*
X128597008Y-106761106D01*
X128659846Y-106746714D01*
X128756759Y-106724518D01*
X128867184Y-106668980D01*
X173307144Y-106668980D01*
X173314669Y-106679413D01*
X173457521Y-106794474D01*
X173463706Y-106798870D01*
X173737118Y-106969385D01*
X173743792Y-106973008D01*
X174035704Y-107109439D01*
X174042769Y-107112237D01*
X174348979Y-107212618D01*
X174356291Y-107214536D01*
X174672353Y-107277404D01*
X174679851Y-107278432D01*
X175001177Y-107302875D01*
X175008740Y-107302993D01*
X175330663Y-107288656D01*
X175338209Y-107287863D01*
X175656072Y-107234956D01*
X175663456Y-107233265D01*
X175972679Y-107142549D01*
X175979787Y-107139990D01*
X176275875Y-107012781D01*
X176282642Y-107009377D01*
X176561288Y-106847527D01*
X176567595Y-106843337D01*
X176781940Y-106681523D01*
X176790396Y-106670131D01*
X176789764Y-106668980D01*
X184907144Y-106668980D01*
X184914669Y-106679413D01*
X185057521Y-106794474D01*
X185063706Y-106798870D01*
X185337118Y-106969385D01*
X185343792Y-106973008D01*
X185635704Y-107109439D01*
X185642769Y-107112237D01*
X185948979Y-107212618D01*
X185956291Y-107214536D01*
X186272353Y-107277404D01*
X186279851Y-107278432D01*
X186601177Y-107302875D01*
X186608740Y-107302993D01*
X186930663Y-107288656D01*
X186938209Y-107287863D01*
X187256072Y-107234956D01*
X187263456Y-107233265D01*
X187572679Y-107142549D01*
X187579787Y-107139990D01*
X187875875Y-107012781D01*
X187882642Y-107009377D01*
X188161288Y-106847527D01*
X188167595Y-106843337D01*
X188381940Y-106681523D01*
X188390396Y-106670131D01*
X188383678Y-106657888D01*
X186660812Y-104935022D01*
X186646868Y-104927408D01*
X186645035Y-104927539D01*
X186638420Y-104931790D01*
X184914259Y-106655951D01*
X184907144Y-106668980D01*
X176789764Y-106668980D01*
X176783678Y-106657888D01*
X175060812Y-104935022D01*
X175046868Y-104927408D01*
X175045035Y-104927539D01*
X175038420Y-104931790D01*
X173314259Y-106655951D01*
X173307144Y-106668980D01*
X128867184Y-106668980D01*
X128909958Y-106647467D01*
X128915729Y-106642538D01*
X128915732Y-106642536D01*
X129034578Y-106541031D01*
X129040355Y-106536097D01*
X129140424Y-106396838D01*
X129204385Y-106237728D01*
X129205558Y-106229487D01*
X129205779Y-106229002D01*
X129207421Y-106222872D01*
X129208443Y-106223146D01*
X129234957Y-106164863D01*
X129294628Y-106126393D01*
X129365624Y-106126291D01*
X129390423Y-106136507D01*
X129522268Y-106208093D01*
X129688139Y-106251609D01*
X129775586Y-106252982D01*
X129852003Y-106254183D01*
X129852006Y-106254183D01*
X129859602Y-106254302D01*
X129867006Y-106252606D01*
X129867008Y-106252606D01*
X129931968Y-106237728D01*
X130026759Y-106216018D01*
X130179958Y-106138967D01*
X130185729Y-106134038D01*
X130185732Y-106134036D01*
X130304578Y-106032531D01*
X130310355Y-106027597D01*
X130410424Y-105888338D01*
X130474385Y-105729228D01*
X130498547Y-105559455D01*
X130498704Y-105544508D01*
X130491315Y-105483451D01*
X130479015Y-105381807D01*
X130479014Y-105381804D01*
X130478102Y-105374266D01*
X130472018Y-105358163D01*
X130444259Y-105284702D01*
X130417487Y-105213852D01*
X130413187Y-105207595D01*
X130409665Y-105200858D01*
X130412063Y-105199604D01*
X130393500Y-105139826D01*
X130393500Y-105050858D01*
X130413502Y-104982737D01*
X130467158Y-104936244D01*
X130537432Y-104926140D01*
X130604300Y-104957665D01*
X130644944Y-104994648D01*
X130644948Y-104994651D01*
X130650565Y-104999762D01*
X130801268Y-105081587D01*
X130871935Y-105100126D01*
X130929055Y-105132907D01*
X131232560Y-105436412D01*
X131261791Y-105482206D01*
X131309590Y-105612823D01*
X131313827Y-105619129D01*
X131313829Y-105619132D01*
X131358126Y-105685052D01*
X131405235Y-105755157D01*
X131532070Y-105870568D01*
X131682773Y-105952393D01*
X131848644Y-105995909D01*
X131936091Y-105997282D01*
X132012508Y-105998483D01*
X132012511Y-105998483D01*
X132020107Y-105998602D01*
X132027511Y-105996906D01*
X132027513Y-105996906D01*
X132134026Y-105972511D01*
X132187264Y-105960318D01*
X132340463Y-105883267D01*
X132346234Y-105878338D01*
X132346237Y-105878336D01*
X132465083Y-105776831D01*
X132470860Y-105771897D01*
X132570929Y-105632638D01*
X132634890Y-105473528D01*
X132649017Y-105374266D01*
X132658471Y-105307839D01*
X132658471Y-105307835D01*
X132659052Y-105303755D01*
X132659209Y-105288808D01*
X132641180Y-105139826D01*
X132639520Y-105126107D01*
X132639519Y-105126104D01*
X132638607Y-105118566D01*
X132634911Y-105108783D01*
X132580676Y-104965255D01*
X132577992Y-104958152D01*
X132573691Y-104951894D01*
X132485164Y-104823086D01*
X132485163Y-104823084D01*
X132480862Y-104816827D01*
X132475191Y-104811774D01*
X132358498Y-104707804D01*
X132358495Y-104707802D01*
X132352826Y-104702751D01*
X132201274Y-104622508D01*
X132152894Y-104610356D01*
X132094493Y-104577247D01*
X132055340Y-104538094D01*
X172307839Y-104538094D01*
X172323861Y-104859937D01*
X172324692Y-104867466D01*
X172379263Y-105185051D01*
X172380996Y-105192438D01*
X172473324Y-105501162D01*
X172475927Y-105508275D01*
X172604680Y-105803680D01*
X172608122Y-105810436D01*
X172771429Y-106088230D01*
X172775652Y-106094515D01*
X172929843Y-106296555D01*
X172941369Y-106305017D01*
X172953434Y-106298356D01*
X174675978Y-104575812D01*
X174682356Y-104564132D01*
X175412408Y-104564132D01*
X175412539Y-104565965D01*
X175416790Y-104572580D01*
X177140832Y-106296622D01*
X177153955Y-106303788D01*
X177164257Y-106296398D01*
X177271124Y-106165132D01*
X177275537Y-106158991D01*
X177447495Y-105886453D01*
X177451142Y-105879818D01*
X177589110Y-105588603D01*
X177591935Y-105581576D01*
X177693923Y-105275881D01*
X177695877Y-105268590D01*
X177760400Y-104952857D01*
X177761468Y-104945353D01*
X177787717Y-104622628D01*
X177787922Y-104618153D01*
X177788477Y-104565220D01*
X177788367Y-104560790D01*
X177786999Y-104538094D01*
X183907839Y-104538094D01*
X183923861Y-104859937D01*
X183924692Y-104867466D01*
X183979263Y-105185051D01*
X183980996Y-105192438D01*
X184073324Y-105501162D01*
X184075927Y-105508275D01*
X184204680Y-105803680D01*
X184208122Y-105810436D01*
X184371429Y-106088230D01*
X184375652Y-106094515D01*
X184529843Y-106296555D01*
X184541369Y-106305017D01*
X184553434Y-106298356D01*
X186275978Y-104575812D01*
X186283592Y-104561868D01*
X186283461Y-104560035D01*
X186279210Y-104553420D01*
X184554876Y-102829086D01*
X184541941Y-102822023D01*
X184531379Y-102829683D01*
X184408226Y-102984230D01*
X184403870Y-102990428D01*
X184234779Y-103264746D01*
X184231199Y-103271422D01*
X184096287Y-103564066D01*
X184093538Y-103571117D01*
X183994760Y-103877856D01*
X183992877Y-103885189D01*
X183931664Y-104201575D01*
X183930677Y-104209074D01*
X183907918Y-104530513D01*
X183907839Y-104538094D01*
X177786999Y-104538094D01*
X177768879Y-104237543D01*
X177767971Y-104230039D01*
X177710073Y-103913021D01*
X177708272Y-103905688D01*
X177612706Y-103597917D01*
X177610034Y-103590844D01*
X177478196Y-103296806D01*
X177474679Y-103290079D01*
X177308476Y-103014017D01*
X177304186Y-103007773D01*
X177165584Y-102830053D01*
X177153792Y-102821584D01*
X177142079Y-102828131D01*
X175420022Y-104550188D01*
X175412408Y-104564132D01*
X174682356Y-104564132D01*
X174683592Y-104561868D01*
X174683461Y-104560035D01*
X174679210Y-104553420D01*
X172954876Y-102829086D01*
X172941941Y-102822023D01*
X172931379Y-102829683D01*
X172808226Y-102984230D01*
X172803870Y-102990428D01*
X172634779Y-103264746D01*
X172631199Y-103271422D01*
X172496287Y-103564066D01*
X172493538Y-103571117D01*
X172394760Y-103877856D01*
X172392877Y-103885189D01*
X172331664Y-104201575D01*
X172330677Y-104209074D01*
X172307918Y-104530513D01*
X172307839Y-104538094D01*
X132055340Y-104538094D01*
X131771483Y-104254237D01*
X131742712Y-104209679D01*
X131742484Y-104209074D01*
X131696487Y-104087346D01*
X131599357Y-103946021D01*
X131593686Y-103940968D01*
X131476993Y-103836998D01*
X131476990Y-103836996D01*
X131471321Y-103831945D01*
X131463325Y-103827711D01*
X131410723Y-103799860D01*
X131319769Y-103751702D01*
X131302196Y-103747288D01*
X131160822Y-103711777D01*
X131160818Y-103711777D01*
X131153451Y-103709926D01*
X131145852Y-103709886D01*
X131145850Y-103709886D01*
X131074394Y-103709512D01*
X130981969Y-103709028D01*
X130974589Y-103710800D01*
X130974587Y-103710800D01*
X130822602Y-103747288D01*
X130822598Y-103747289D01*
X130815223Y-103749060D01*
X130662839Y-103827711D01*
X130662094Y-103826268D01*
X130603043Y-103845272D01*
X130534430Y-103827031D01*
X130486571Y-103774591D01*
X130478638Y-103752690D01*
X130478102Y-103748260D01*
X130463082Y-103708509D01*
X130420171Y-103594949D01*
X130417487Y-103587846D01*
X130406421Y-103571745D01*
X130324659Y-103452780D01*
X130324658Y-103452778D01*
X130320357Y-103446521D01*
X130314686Y-103441468D01*
X130197993Y-103337498D01*
X130197990Y-103337496D01*
X130192321Y-103332445D01*
X130184325Y-103328211D01*
X130047481Y-103255756D01*
X130047482Y-103255756D01*
X130040769Y-103252202D01*
X130023196Y-103247788D01*
X129881822Y-103212277D01*
X129881818Y-103212277D01*
X129874451Y-103210426D01*
X129866852Y-103210386D01*
X129866850Y-103210386D01*
X129795394Y-103210012D01*
X129702969Y-103209528D01*
X129695589Y-103211300D01*
X129695587Y-103211300D01*
X129543602Y-103247788D01*
X129543598Y-103247789D01*
X129536223Y-103249560D01*
X129383839Y-103328211D01*
X129378120Y-103333200D01*
X129291268Y-103408966D01*
X129254615Y-103440941D01*
X129253359Y-103439501D01*
X129201394Y-103471508D01*
X129130411Y-103470150D01*
X129071430Y-103430630D01*
X129064375Y-103421320D01*
X129063660Y-103420279D01*
X129063657Y-103420276D01*
X129059357Y-103414019D01*
X129053686Y-103408966D01*
X128936993Y-103304996D01*
X128936990Y-103304994D01*
X128931321Y-103299943D01*
X128923325Y-103295709D01*
X128786481Y-103223254D01*
X128786482Y-103223254D01*
X128779769Y-103219700D01*
X128750217Y-103212277D01*
X128620822Y-103179775D01*
X128620818Y-103179775D01*
X128613451Y-103177924D01*
X128605852Y-103177884D01*
X128605850Y-103177884D01*
X128534394Y-103177510D01*
X128441969Y-103177026D01*
X128434589Y-103178798D01*
X128434587Y-103178798D01*
X128282602Y-103215286D01*
X128282598Y-103215287D01*
X128275223Y-103217058D01*
X128122839Y-103295709D01*
X127993615Y-103408439D01*
X127895010Y-103548739D01*
X127875836Y-103597917D01*
X127845123Y-103676693D01*
X127832718Y-103708509D01*
X127831726Y-103716042D01*
X127831726Y-103716043D01*
X127817025Y-103827711D01*
X127810335Y-103878526D01*
X127829153Y-104048975D01*
X127831762Y-104056106D01*
X127831763Y-104056108D01*
X127883905Y-104198592D01*
X127888085Y-104210015D01*
X127892320Y-104216318D01*
X127892325Y-104216327D01*
X127894083Y-104218943D01*
X127894716Y-104221018D01*
X127895771Y-104223090D01*
X127895404Y-104223277D01*
X127915500Y-104289216D01*
X127915500Y-105516499D01*
X127914422Y-105532945D01*
X127906500Y-105593119D01*
X127906500Y-105593124D01*
X127901250Y-105633004D01*
X127902328Y-105641193D01*
X127902328Y-105649449D01*
X127899797Y-105649449D01*
X127888277Y-105712521D01*
X127886010Y-105715747D01*
X127883251Y-105722824D01*
X127827640Y-105865458D01*
X127823718Y-105875517D01*
X127822726Y-105883050D01*
X127822726Y-105883051D01*
X127803047Y-106032531D01*
X127801335Y-106045534D01*
X118160597Y-106045534D01*
X118229722Y-105865458D01*
X118255367Y-105798652D01*
X118255368Y-105798650D01*
X118256553Y-105795562D01*
X118357158Y-105420099D01*
X118394386Y-105185051D01*
X118417452Y-105039424D01*
X118417453Y-105039416D01*
X118417966Y-105036176D01*
X118438309Y-104648000D01*
X118417966Y-104259824D01*
X118417082Y-104254237D01*
X118368264Y-103946021D01*
X118357158Y-103875901D01*
X118256553Y-103500438D01*
X118233162Y-103439501D01*
X118177965Y-103295709D01*
X118117252Y-103137547D01*
X117960083Y-102829086D01*
X117942281Y-102794147D01*
X117942277Y-102794140D01*
X117940782Y-102791206D01*
X117729077Y-102465207D01*
X117722283Y-102456817D01*
X173306310Y-102456817D01*
X173312913Y-102468703D01*
X175035188Y-104190978D01*
X175049132Y-104198592D01*
X175050965Y-104198461D01*
X175057580Y-104194210D01*
X176782141Y-102469649D01*
X176789148Y-102456817D01*
X184906310Y-102456817D01*
X184912913Y-102468703D01*
X186635188Y-104190978D01*
X186649132Y-104198592D01*
X186650965Y-104198461D01*
X186657580Y-104194210D01*
X188382141Y-102469649D01*
X188389153Y-102456808D01*
X188381358Y-102446119D01*
X188215010Y-102314982D01*
X188208816Y-102310676D01*
X187933594Y-102143009D01*
X187926914Y-102139472D01*
X187633559Y-102006093D01*
X187626489Y-102003379D01*
X187319249Y-101906212D01*
X187311898Y-101904365D01*
X186995200Y-101844810D01*
X186987690Y-101843862D01*
X186666133Y-101822786D01*
X186658568Y-101822746D01*
X186336798Y-101840454D01*
X186329284Y-101841323D01*
X186011973Y-101897559D01*
X186004613Y-101899326D01*
X185696374Y-101993271D01*
X185689267Y-101995913D01*
X185394537Y-102126212D01*
X185387811Y-102129683D01*
X185110870Y-102294447D01*
X185104606Y-102298704D01*
X184914779Y-102445155D01*
X184906310Y-102456817D01*
X176789148Y-102456817D01*
X176789153Y-102456808D01*
X176781358Y-102446119D01*
X176615010Y-102314982D01*
X176608816Y-102310676D01*
X176333594Y-102143009D01*
X176326914Y-102139472D01*
X176033559Y-102006093D01*
X176026489Y-102003379D01*
X175719249Y-101906212D01*
X175711898Y-101904365D01*
X175395200Y-101844810D01*
X175387690Y-101843862D01*
X175066133Y-101822786D01*
X175058568Y-101822746D01*
X174736798Y-101840454D01*
X174729284Y-101841323D01*
X174411973Y-101897559D01*
X174404613Y-101899326D01*
X174096374Y-101993271D01*
X174089267Y-101995913D01*
X173794537Y-102126212D01*
X173787811Y-102129683D01*
X173510870Y-102294447D01*
X173504606Y-102298704D01*
X173314779Y-102445155D01*
X173306310Y-102456817D01*
X117722283Y-102456817D01*
X117484454Y-102163124D01*
X117209596Y-101888266D01*
X117151627Y-101841323D01*
X116910075Y-101645718D01*
X116907513Y-101643643D01*
X116581515Y-101431938D01*
X116578581Y-101430443D01*
X116578574Y-101430439D01*
X116238113Y-101256966D01*
X116235173Y-101255468D01*
X115872282Y-101116167D01*
X115496819Y-101015562D01*
X115292927Y-100983268D01*
X115116144Y-100955268D01*
X115116136Y-100955267D01*
X115112896Y-100954754D01*
X114724720Y-100934411D01*
X114336544Y-100954754D01*
X114333304Y-100955267D01*
X114333296Y-100955268D01*
X114156513Y-100983268D01*
X113952621Y-101015562D01*
X113577158Y-101116167D01*
X113214267Y-101255468D01*
X113211327Y-101256966D01*
X112870867Y-101430439D01*
X112870860Y-101430443D01*
X112867926Y-101431938D01*
X112541927Y-101643643D01*
X112539365Y-101645718D01*
X112297814Y-101841323D01*
X112239844Y-101888266D01*
X111964986Y-102163124D01*
X111720363Y-102465207D01*
X111508658Y-102791206D01*
X111507163Y-102794140D01*
X111507159Y-102794147D01*
X111489357Y-102829086D01*
X111332188Y-103137547D01*
X111271475Y-103295709D01*
X111216279Y-103439501D01*
X111192887Y-103500438D01*
X111092282Y-103875901D01*
X111081176Y-103946021D01*
X111032359Y-104254237D01*
X111031474Y-104259824D01*
X111011131Y-104648000D01*
X99060500Y-104648000D01*
X99060499Y-96004526D01*
X127006835Y-96004526D01*
X127025653Y-96174975D01*
X127028262Y-96182106D01*
X127028263Y-96182108D01*
X127031986Y-96192281D01*
X127084585Y-96336015D01*
X127088822Y-96342321D01*
X127088824Y-96342324D01*
X127133121Y-96408244D01*
X127180230Y-96478349D01*
X127307065Y-96593760D01*
X127457768Y-96675585D01*
X127623639Y-96719101D01*
X127711086Y-96720474D01*
X127787503Y-96721675D01*
X127787506Y-96721675D01*
X127795102Y-96721794D01*
X127802506Y-96720098D01*
X127802508Y-96720098D01*
X127865346Y-96705706D01*
X127962259Y-96683510D01*
X128060829Y-96633935D01*
X128117442Y-96620500D01*
X130292744Y-96620500D01*
X130360865Y-96640502D01*
X130377544Y-96653307D01*
X130483694Y-96749896D01*
X130483698Y-96749899D01*
X130489315Y-96755010D01*
X130640018Y-96836835D01*
X130805889Y-96880351D01*
X130893336Y-96881724D01*
X130969753Y-96882925D01*
X130969756Y-96882925D01*
X130977352Y-96883044D01*
X130984756Y-96881348D01*
X130984758Y-96881348D01*
X131047596Y-96866956D01*
X131144509Y-96844760D01*
X131297708Y-96767709D01*
X131303479Y-96762780D01*
X131303482Y-96762778D01*
X131422328Y-96661273D01*
X131428105Y-96656339D01*
X131528174Y-96517080D01*
X131592135Y-96357970D01*
X131616297Y-96188197D01*
X131616454Y-96173250D01*
X131612008Y-96136512D01*
X131596765Y-96010549D01*
X131596764Y-96010546D01*
X131595852Y-96003008D01*
X131535237Y-95842594D01*
X131438107Y-95701269D01*
X131416277Y-95681819D01*
X131315743Y-95592246D01*
X131315740Y-95592244D01*
X131310071Y-95587193D01*
X131158519Y-95506950D01*
X131151154Y-95505100D01*
X131050040Y-95479702D01*
X131032517Y-95473907D01*
X130918544Y-95426698D01*
X130900351Y-95419162D01*
X130892164Y-95418084D01*
X130892163Y-95418084D01*
X130880958Y-95416609D01*
X130849762Y-95412502D01*
X130781385Y-95403500D01*
X130781382Y-95403500D01*
X130781374Y-95403499D01*
X130749689Y-95399328D01*
X130741500Y-95398250D01*
X130709807Y-95402422D01*
X130693364Y-95403500D01*
X128116732Y-95403500D01*
X128057776Y-95388856D01*
X127976269Y-95345700D01*
X127958696Y-95341286D01*
X127817322Y-95305775D01*
X127817318Y-95305775D01*
X127809951Y-95303924D01*
X127802352Y-95303884D01*
X127802350Y-95303884D01*
X127730894Y-95303510D01*
X127638469Y-95303026D01*
X127631089Y-95304798D01*
X127631087Y-95304798D01*
X127479102Y-95341286D01*
X127479098Y-95341287D01*
X127471723Y-95343058D01*
X127319339Y-95421709D01*
X127190115Y-95534439D01*
X127091510Y-95674739D01*
X127029218Y-95834509D01*
X127028226Y-95842042D01*
X127028226Y-95842043D01*
X127028154Y-95842594D01*
X127006835Y-96004526D01*
X99060499Y-96004526D01*
X99060499Y-92699000D01*
X126097496Y-92699000D01*
X126098186Y-92705565D01*
X126101810Y-92740045D01*
X126102500Y-92753216D01*
X126102500Y-92794487D01*
X126111082Y-92834864D01*
X126113143Y-92847872D01*
X126117458Y-92888928D01*
X126119497Y-92895202D01*
X126119498Y-92895209D01*
X126130212Y-92928183D01*
X126133625Y-92940920D01*
X126142206Y-92981288D01*
X126158999Y-93019006D01*
X126163718Y-93031302D01*
X126176473Y-93070556D01*
X126179776Y-93076277D01*
X126197104Y-93106290D01*
X126203091Y-93118039D01*
X126219882Y-93155752D01*
X126223761Y-93161091D01*
X126223764Y-93161096D01*
X126244146Y-93189149D01*
X126251325Y-93200202D01*
X126271960Y-93235944D01*
X126276380Y-93240853D01*
X126276383Y-93240857D01*
X126299575Y-93266614D01*
X126307871Y-93276857D01*
X126332134Y-93310253D01*
X126337036Y-93314667D01*
X126337038Y-93314669D01*
X126362806Y-93337871D01*
X126372129Y-93347194D01*
X126399747Y-93377866D01*
X126433143Y-93402129D01*
X126443386Y-93410425D01*
X126469143Y-93433617D01*
X126469147Y-93433620D01*
X126474056Y-93438040D01*
X126509798Y-93458675D01*
X126520851Y-93465854D01*
X126548904Y-93486236D01*
X126548909Y-93486239D01*
X126554248Y-93490118D01*
X126560275Y-93492801D01*
X126560276Y-93492802D01*
X126591959Y-93506908D01*
X126603708Y-93512895D01*
X126639444Y-93533527D01*
X126645727Y-93535568D01*
X126645728Y-93535569D01*
X126678696Y-93546281D01*
X126690994Y-93551001D01*
X126728712Y-93567794D01*
X126735165Y-93569166D01*
X126735169Y-93569167D01*
X126769080Y-93576375D01*
X126781817Y-93579788D01*
X126814791Y-93590502D01*
X126814798Y-93590503D01*
X126821072Y-93592542D01*
X126827633Y-93593232D01*
X126827635Y-93593232D01*
X126841690Y-93594709D01*
X126862128Y-93596857D01*
X126875136Y-93598918D01*
X126915513Y-93607500D01*
X130281487Y-93607500D01*
X130321864Y-93598918D01*
X130334872Y-93596857D01*
X130355310Y-93594709D01*
X130369365Y-93593232D01*
X130369367Y-93593232D01*
X130375928Y-93592542D01*
X130382202Y-93590503D01*
X130382209Y-93590502D01*
X130415183Y-93579788D01*
X130427920Y-93576375D01*
X130461831Y-93569167D01*
X130461835Y-93569166D01*
X130468288Y-93567794D01*
X130506006Y-93551001D01*
X130518304Y-93546281D01*
X130551272Y-93535569D01*
X130551273Y-93535568D01*
X130557556Y-93533527D01*
X130593292Y-93512895D01*
X130605041Y-93506908D01*
X130636724Y-93492802D01*
X130636725Y-93492801D01*
X130642752Y-93490118D01*
X130648091Y-93486239D01*
X130648096Y-93486236D01*
X130676149Y-93465854D01*
X130687202Y-93458675D01*
X130722944Y-93438040D01*
X130727853Y-93433620D01*
X130727857Y-93433617D01*
X130753614Y-93410425D01*
X130763857Y-93402129D01*
X130797253Y-93377866D01*
X130824871Y-93347194D01*
X130834194Y-93337871D01*
X130859962Y-93314669D01*
X130859964Y-93314667D01*
X130864866Y-93310253D01*
X130889129Y-93276857D01*
X130897425Y-93266614D01*
X130920617Y-93240857D01*
X130920620Y-93240853D01*
X130925040Y-93235944D01*
X130945675Y-93200202D01*
X130952854Y-93189149D01*
X130973236Y-93161096D01*
X130973239Y-93161091D01*
X130977118Y-93155752D01*
X130993909Y-93118039D01*
X130999896Y-93106290D01*
X131017224Y-93076277D01*
X131020527Y-93070556D01*
X131033282Y-93031302D01*
X131038001Y-93019006D01*
X131054794Y-92981288D01*
X131063375Y-92940920D01*
X131066788Y-92928183D01*
X131077502Y-92895209D01*
X131077503Y-92895202D01*
X131079542Y-92888928D01*
X131083857Y-92847872D01*
X131085918Y-92834864D01*
X131094500Y-92794487D01*
X131094500Y-92753216D01*
X131095190Y-92740045D01*
X131098814Y-92705565D01*
X131099504Y-92699000D01*
X131095190Y-92657955D01*
X131094500Y-92644784D01*
X131094500Y-92603513D01*
X131085918Y-92563136D01*
X131083856Y-92550122D01*
X131080232Y-92515635D01*
X131080232Y-92515633D01*
X131079542Y-92509072D01*
X131077503Y-92502798D01*
X131077502Y-92502791D01*
X131066788Y-92469817D01*
X131063375Y-92457080D01*
X131056167Y-92423169D01*
X131056166Y-92423165D01*
X131054794Y-92416712D01*
X131038001Y-92378994D01*
X131033281Y-92366696D01*
X131022569Y-92333728D01*
X131022568Y-92333727D01*
X131020527Y-92327444D01*
X130999895Y-92291708D01*
X130993908Y-92279959D01*
X130979802Y-92248276D01*
X130979801Y-92248275D01*
X130977118Y-92242248D01*
X130973239Y-92236909D01*
X130973236Y-92236904D01*
X130952854Y-92208851D01*
X130945675Y-92197798D01*
X130925040Y-92162056D01*
X130920620Y-92157147D01*
X130920617Y-92157143D01*
X130897425Y-92131386D01*
X130889129Y-92121143D01*
X130864866Y-92087747D01*
X130834194Y-92060129D01*
X130824871Y-92050806D01*
X130801669Y-92025038D01*
X130801667Y-92025036D01*
X130797253Y-92020134D01*
X130763857Y-91995871D01*
X130753614Y-91987575D01*
X130727857Y-91964383D01*
X130727853Y-91964380D01*
X130722944Y-91959960D01*
X130687202Y-91939325D01*
X130676149Y-91932146D01*
X130648096Y-91911764D01*
X130648091Y-91911761D01*
X130642752Y-91907882D01*
X130605039Y-91891091D01*
X130593290Y-91885104D01*
X130563277Y-91867776D01*
X130557556Y-91864473D01*
X130518302Y-91851718D01*
X130506006Y-91846999D01*
X130468288Y-91830206D01*
X130461835Y-91828834D01*
X130461831Y-91828833D01*
X130427920Y-91821625D01*
X130415183Y-91818212D01*
X130382209Y-91807498D01*
X130382202Y-91807497D01*
X130375928Y-91805458D01*
X130369367Y-91804768D01*
X130369365Y-91804768D01*
X130355310Y-91803291D01*
X130334872Y-91801143D01*
X130321864Y-91799082D01*
X130281487Y-91790500D01*
X126915513Y-91790500D01*
X126875136Y-91799082D01*
X126862128Y-91801143D01*
X126841690Y-91803291D01*
X126827635Y-91804768D01*
X126827633Y-91804768D01*
X126821072Y-91805458D01*
X126814798Y-91807497D01*
X126814791Y-91807498D01*
X126781817Y-91818212D01*
X126769080Y-91821625D01*
X126735169Y-91828833D01*
X126735165Y-91828834D01*
X126728712Y-91830206D01*
X126690994Y-91846999D01*
X126678698Y-91851718D01*
X126639444Y-91864473D01*
X126633723Y-91867776D01*
X126603710Y-91885104D01*
X126591961Y-91891091D01*
X126554248Y-91907882D01*
X126548909Y-91911761D01*
X126548904Y-91911764D01*
X126520851Y-91932146D01*
X126509798Y-91939325D01*
X126474056Y-91959960D01*
X126469147Y-91964380D01*
X126469143Y-91964383D01*
X126443386Y-91987575D01*
X126433143Y-91995871D01*
X126399747Y-92020134D01*
X126395333Y-92025036D01*
X126395331Y-92025038D01*
X126372129Y-92050806D01*
X126362806Y-92060129D01*
X126332134Y-92087747D01*
X126307871Y-92121143D01*
X126299575Y-92131386D01*
X126276383Y-92157143D01*
X126276380Y-92157147D01*
X126271960Y-92162056D01*
X126251325Y-92197798D01*
X126244146Y-92208851D01*
X126223764Y-92236904D01*
X126223761Y-92236909D01*
X126219882Y-92242248D01*
X126217199Y-92248275D01*
X126217198Y-92248276D01*
X126203092Y-92279959D01*
X126197105Y-92291708D01*
X126176473Y-92327444D01*
X126174432Y-92333727D01*
X126174431Y-92333728D01*
X126163719Y-92366696D01*
X126158999Y-92378994D01*
X126142206Y-92416712D01*
X126140834Y-92423165D01*
X126140833Y-92423169D01*
X126133625Y-92457080D01*
X126130212Y-92469817D01*
X126119498Y-92502791D01*
X126119497Y-92502798D01*
X126117458Y-92509072D01*
X126116768Y-92515633D01*
X126116768Y-92515635D01*
X126113144Y-92550122D01*
X126111082Y-92563136D01*
X126102500Y-92603513D01*
X126102500Y-92644784D01*
X126101810Y-92657955D01*
X126097496Y-92699000D01*
X99060499Y-92699000D01*
X99060499Y-89400020D01*
X99893725Y-89400020D01*
X99902438Y-89411540D01*
X100004737Y-89486548D01*
X100012636Y-89491484D01*
X100238902Y-89610528D01*
X100247451Y-89614245D01*
X100488816Y-89698533D01*
X100497825Y-89700947D01*
X100749004Y-89748635D01*
X100758261Y-89749689D01*
X101013732Y-89759728D01*
X101023046Y-89759402D01*
X101277184Y-89731570D01*
X101286361Y-89729869D01*
X101533593Y-89664778D01*
X101542413Y-89661741D01*
X101777313Y-89560820D01*
X101785585Y-89556513D01*
X102002982Y-89421984D01*
X102010529Y-89416500D01*
X102012820Y-89414561D01*
X102021257Y-89401758D01*
X102015193Y-89391403D01*
X100968812Y-88345022D01*
X100954868Y-88337408D01*
X100953035Y-88337539D01*
X100946420Y-88341790D01*
X99900383Y-89387827D01*
X99893725Y-89400020D01*
X99060499Y-89400020D01*
X99060499Y-88694099D01*
X99080501Y-88625978D01*
X99134157Y-88579485D01*
X99204431Y-88569381D01*
X99269011Y-88598875D01*
X99305087Y-88651521D01*
X99321000Y-88695841D01*
X99324797Y-88704369D01*
X99445802Y-88929572D01*
X99450813Y-88937438D01*
X99517583Y-89026853D01*
X99528841Y-89035302D01*
X99541260Y-89028530D01*
X100583978Y-87985812D01*
X100590356Y-87974132D01*
X101320408Y-87974132D01*
X101320539Y-87975965D01*
X101324790Y-87982580D01*
X102374004Y-89031794D01*
X102386384Y-89038554D01*
X102394725Y-89032310D01*
X102524800Y-88830086D01*
X102529243Y-88821902D01*
X102634249Y-88588796D01*
X102637439Y-88580031D01*
X102706835Y-88333974D01*
X102708695Y-88324832D01*
X102724574Y-88200020D01*
X108293725Y-88200020D01*
X108302438Y-88211540D01*
X108404737Y-88286548D01*
X108412636Y-88291484D01*
X108638902Y-88410528D01*
X108647451Y-88414245D01*
X108888816Y-88498533D01*
X108897825Y-88500947D01*
X109149004Y-88548635D01*
X109158261Y-88549689D01*
X109413732Y-88559728D01*
X109423046Y-88559402D01*
X109677184Y-88531570D01*
X109686361Y-88529869D01*
X109933593Y-88464778D01*
X109942413Y-88461741D01*
X110177313Y-88360820D01*
X110185585Y-88356513D01*
X110402982Y-88221984D01*
X110410529Y-88216500D01*
X110412820Y-88214561D01*
X110421257Y-88201758D01*
X110415193Y-88191403D01*
X109368812Y-87145022D01*
X109354868Y-87137408D01*
X109353035Y-87137539D01*
X109346420Y-87141790D01*
X108300383Y-88187827D01*
X108293725Y-88200020D01*
X102724574Y-88200020D01*
X102741152Y-88069707D01*
X102741633Y-88063420D01*
X102743917Y-87976160D01*
X102743766Y-87969851D01*
X102724706Y-87713369D01*
X102723329Y-87704163D01*
X102666904Y-87454796D01*
X102664180Y-87445885D01*
X102571515Y-87207600D01*
X102567504Y-87199190D01*
X102440638Y-86977221D01*
X102435427Y-86969495D01*
X102395194Y-86918460D01*
X102383268Y-86909988D01*
X102371736Y-86916474D01*
X101328022Y-87960188D01*
X101320408Y-87974132D01*
X100590356Y-87974132D01*
X100591592Y-87971868D01*
X100591461Y-87970035D01*
X100587210Y-87963420D01*
X99539568Y-86915778D01*
X99526259Y-86908511D01*
X99516224Y-86915630D01*
X99503347Y-86931113D01*
X99497936Y-86938699D01*
X99365308Y-87157264D01*
X99361070Y-87165581D01*
X99302696Y-87304787D01*
X99257907Y-87359873D01*
X99190447Y-87381999D01*
X99121733Y-87364141D01*
X99073582Y-87311968D01*
X99060499Y-87256061D01*
X99060499Y-86543746D01*
X99891159Y-86543746D01*
X99895732Y-86553522D01*
X100943188Y-87600978D01*
X100957132Y-87608592D01*
X100958965Y-87608461D01*
X100965580Y-87604210D01*
X101838922Y-86730868D01*
X107568837Y-86730868D01*
X107581103Y-86986232D01*
X107582239Y-86995487D01*
X107632117Y-87246237D01*
X107634609Y-87255223D01*
X107721000Y-87495841D01*
X107724797Y-87504369D01*
X107845802Y-87729572D01*
X107850813Y-87737438D01*
X107917583Y-87826853D01*
X107928841Y-87835302D01*
X107941260Y-87828530D01*
X108983978Y-86785812D01*
X108990356Y-86774132D01*
X109720408Y-86774132D01*
X109720539Y-86775965D01*
X109724790Y-86782580D01*
X110774004Y-87831794D01*
X110786384Y-87838554D01*
X110794725Y-87832310D01*
X110924800Y-87630086D01*
X110929243Y-87621902D01*
X111034249Y-87388796D01*
X111037439Y-87380031D01*
X111106835Y-87133974D01*
X111108695Y-87124832D01*
X111141152Y-86869707D01*
X111141633Y-86863420D01*
X111143917Y-86776160D01*
X111143766Y-86769851D01*
X111124706Y-86513369D01*
X111123329Y-86504163D01*
X111066904Y-86254796D01*
X111064180Y-86245885D01*
X110971515Y-86007600D01*
X110967504Y-85999190D01*
X110840638Y-85777221D01*
X110835427Y-85769495D01*
X110795194Y-85718460D01*
X110783268Y-85709988D01*
X110771736Y-85716474D01*
X109728022Y-86760188D01*
X109720408Y-86774132D01*
X108990356Y-86774132D01*
X108991592Y-86771868D01*
X108991461Y-86770035D01*
X108987210Y-86763420D01*
X107939568Y-85715778D01*
X107926259Y-85708511D01*
X107916224Y-85715630D01*
X107903347Y-85731113D01*
X107897936Y-85738699D01*
X107765308Y-85957264D01*
X107761070Y-85965581D01*
X107662206Y-86201344D01*
X107659245Y-86210194D01*
X107596317Y-86457978D01*
X107594695Y-86467175D01*
X107569082Y-86721542D01*
X107568837Y-86730868D01*
X101838922Y-86730868D01*
X102012384Y-86557406D01*
X102018768Y-86545716D01*
X102009357Y-86533606D01*
X101867315Y-86435068D01*
X101859288Y-86430340D01*
X101629985Y-86317260D01*
X101621352Y-86313772D01*
X101377851Y-86235828D01*
X101368790Y-86233652D01*
X101116445Y-86192555D01*
X101107158Y-86191743D01*
X100851522Y-86188396D01*
X100842211Y-86188966D01*
X100588885Y-86223442D01*
X100579766Y-86225380D01*
X100334328Y-86296919D01*
X100325575Y-86300191D01*
X100093407Y-86407222D01*
X100085251Y-86411743D01*
X99900297Y-86533004D01*
X99891159Y-86543746D01*
X99060499Y-86543746D01*
X99060499Y-85343746D01*
X108291159Y-85343746D01*
X108295732Y-85353522D01*
X109343188Y-86400978D01*
X109357132Y-86408592D01*
X109358965Y-86408461D01*
X109365580Y-86404210D01*
X110412384Y-85357406D01*
X110418768Y-85345716D01*
X110409357Y-85333606D01*
X110267315Y-85235068D01*
X110259288Y-85230340D01*
X110029985Y-85117260D01*
X110021352Y-85113772D01*
X109778045Y-85035890D01*
X121891500Y-85035890D01*
X121906080Y-85207720D01*
X121907418Y-85212875D01*
X121907419Y-85212881D01*
X121961939Y-85422935D01*
X121963999Y-85430872D01*
X121966191Y-85435738D01*
X121966192Y-85435741D01*
X121984744Y-85476924D01*
X122058688Y-85641075D01*
X122187441Y-85832319D01*
X122191120Y-85836176D01*
X122191122Y-85836178D01*
X122252710Y-85900738D01*
X122346576Y-85999135D01*
X122531542Y-86136754D01*
X122536293Y-86139170D01*
X122536297Y-86139172D01*
X122599481Y-86171296D01*
X122737051Y-86241240D01*
X122742145Y-86242822D01*
X122742148Y-86242823D01*
X122916365Y-86296919D01*
X122957227Y-86309607D01*
X122962516Y-86310308D01*
X123180489Y-86339198D01*
X123180494Y-86339198D01*
X123185774Y-86339898D01*
X123191103Y-86339698D01*
X123191105Y-86339698D01*
X123300966Y-86335573D01*
X123416158Y-86331249D01*
X123438802Y-86326498D01*
X123564181Y-86300191D01*
X123641791Y-86283907D01*
X123646750Y-86281949D01*
X123646752Y-86281948D01*
X123851256Y-86201185D01*
X123851258Y-86201184D01*
X123856221Y-86199224D01*
X123867212Y-86192555D01*
X124048757Y-86082390D01*
X124048756Y-86082390D01*
X124053317Y-86079623D01*
X124078787Y-86057521D01*
X124223412Y-85932023D01*
X124223414Y-85932021D01*
X124227445Y-85928523D01*
X124295265Y-85845811D01*
X124370240Y-85754373D01*
X124370244Y-85754367D01*
X124373624Y-85750245D01*
X124391552Y-85718750D01*
X124442632Y-85669445D01*
X124512262Y-85655583D01*
X124578333Y-85681566D01*
X124605573Y-85710716D01*
X124687441Y-85832319D01*
X124691120Y-85836176D01*
X124691122Y-85836178D01*
X124752710Y-85900738D01*
X124846576Y-85999135D01*
X125031542Y-86136754D01*
X125036293Y-86139170D01*
X125036297Y-86139172D01*
X125099481Y-86171296D01*
X125237051Y-86241240D01*
X125242145Y-86242822D01*
X125242148Y-86242823D01*
X125416365Y-86296919D01*
X125457227Y-86309607D01*
X125462516Y-86310308D01*
X125680489Y-86339198D01*
X125680494Y-86339198D01*
X125685774Y-86339898D01*
X125691103Y-86339698D01*
X125691105Y-86339698D01*
X125800966Y-86335573D01*
X125916158Y-86331249D01*
X125938802Y-86326498D01*
X126064181Y-86300191D01*
X126141791Y-86283907D01*
X126146750Y-86281949D01*
X126146752Y-86281948D01*
X126351256Y-86201185D01*
X126351258Y-86201184D01*
X126356221Y-86199224D01*
X126367212Y-86192555D01*
X126548757Y-86082390D01*
X126548756Y-86082390D01*
X126553317Y-86079623D01*
X126578787Y-86057521D01*
X126723412Y-85932023D01*
X126723414Y-85932021D01*
X126727445Y-85928523D01*
X126795265Y-85845811D01*
X126870240Y-85754373D01*
X126870244Y-85754367D01*
X126873624Y-85750245D01*
X126891552Y-85718750D01*
X126942632Y-85669445D01*
X127012262Y-85655583D01*
X127078333Y-85681566D01*
X127105573Y-85710716D01*
X127187441Y-85832319D01*
X127191120Y-85836176D01*
X127191122Y-85836178D01*
X127252710Y-85900738D01*
X127346576Y-85999135D01*
X127531542Y-86136754D01*
X127536293Y-86139170D01*
X127536297Y-86139172D01*
X127599481Y-86171296D01*
X127737051Y-86241240D01*
X127742145Y-86242822D01*
X127742148Y-86242823D01*
X127916365Y-86296919D01*
X127957227Y-86309607D01*
X127962516Y-86310308D01*
X128180489Y-86339198D01*
X128180494Y-86339198D01*
X128185774Y-86339898D01*
X128191103Y-86339698D01*
X128191105Y-86339698D01*
X128300966Y-86335573D01*
X128416158Y-86331249D01*
X128438802Y-86326498D01*
X128564181Y-86300191D01*
X128641791Y-86283907D01*
X128646750Y-86281949D01*
X128646752Y-86281948D01*
X128851256Y-86201185D01*
X128851258Y-86201184D01*
X128856221Y-86199224D01*
X128867212Y-86192555D01*
X129048757Y-86082390D01*
X129048756Y-86082390D01*
X129053317Y-86079623D01*
X129078787Y-86057521D01*
X129223412Y-85932023D01*
X129223414Y-85932021D01*
X129227445Y-85928523D01*
X129256670Y-85892880D01*
X129315329Y-85852886D01*
X129386299Y-85850954D01*
X129447048Y-85887698D01*
X129461248Y-85906468D01*
X129497829Y-85965581D01*
X129551522Y-86052348D01*
X129676697Y-86177305D01*
X129682927Y-86181145D01*
X129682928Y-86181146D01*
X129820090Y-86265694D01*
X129827262Y-86270115D01*
X129862938Y-86281948D01*
X129988611Y-86323632D01*
X129988613Y-86323632D01*
X129995139Y-86325797D01*
X130001975Y-86326497D01*
X130001978Y-86326498D01*
X130037663Y-86330154D01*
X130099600Y-86336500D01*
X131400400Y-86336500D01*
X131403646Y-86336163D01*
X131403650Y-86336163D01*
X131499308Y-86326238D01*
X131499312Y-86326237D01*
X131506166Y-86325526D01*
X131512702Y-86323345D01*
X131512704Y-86323345D01*
X131644806Y-86279272D01*
X131673946Y-86269550D01*
X131824348Y-86176478D01*
X131949305Y-86051303D01*
X131958088Y-86037055D01*
X132038275Y-85906968D01*
X132038276Y-85906966D01*
X132042115Y-85900738D01*
X132092031Y-85750245D01*
X132095632Y-85739389D01*
X132095632Y-85739387D01*
X132097797Y-85732861D01*
X132099548Y-85715778D01*
X132103664Y-85675597D01*
X132108500Y-85628400D01*
X132108500Y-85310695D01*
X137829251Y-85310695D01*
X137829548Y-85315848D01*
X137829548Y-85315851D01*
X137841812Y-85528547D01*
X137842110Y-85533715D01*
X137843247Y-85538761D01*
X137843248Y-85538767D01*
X137862774Y-85625409D01*
X137891222Y-85751639D01*
X137951764Y-85900738D01*
X137963047Y-85928523D01*
X137975266Y-85958616D01*
X138000096Y-85999135D01*
X138084429Y-86136754D01*
X138091987Y-86149088D01*
X138238250Y-86317938D01*
X138410126Y-86460632D01*
X138603000Y-86573338D01*
X138811692Y-86653030D01*
X138816760Y-86654061D01*
X138816763Y-86654062D01*
X138911862Y-86673410D01*
X139030597Y-86697567D01*
X139035772Y-86697757D01*
X139035774Y-86697757D01*
X139248673Y-86705564D01*
X139248677Y-86705564D01*
X139253837Y-86705753D01*
X139258957Y-86705097D01*
X139258959Y-86705097D01*
X139470288Y-86678025D01*
X139470289Y-86678025D01*
X139475416Y-86677368D01*
X139480366Y-86675883D01*
X139684429Y-86614661D01*
X139684434Y-86614659D01*
X139689384Y-86613174D01*
X139889994Y-86514896D01*
X140071860Y-86385173D01*
X140117294Y-86339898D01*
X140202693Y-86254796D01*
X140230096Y-86227489D01*
X140255199Y-86192555D01*
X140360453Y-86046077D01*
X140361640Y-86046930D01*
X140408960Y-86003362D01*
X140478897Y-85991145D01*
X140544338Y-86018678D01*
X140572166Y-86050511D01*
X140629694Y-86144388D01*
X140635777Y-86152699D01*
X140775213Y-86313667D01*
X140782580Y-86320883D01*
X140946434Y-86456916D01*
X140954881Y-86462831D01*
X141138756Y-86570279D01*
X141148042Y-86574729D01*
X141347001Y-86650703D01*
X141356899Y-86653579D01*
X141460250Y-86674606D01*
X141474299Y-86673410D01*
X141478000Y-86663065D01*
X141478000Y-86662517D01*
X141986000Y-86662517D01*
X141990064Y-86676359D01*
X142003478Y-86678393D01*
X142010184Y-86677534D01*
X142020262Y-86675392D01*
X142224255Y-86614191D01*
X142233842Y-86610433D01*
X142425095Y-86516739D01*
X142433945Y-86511464D01*
X142607328Y-86387792D01*
X142615200Y-86381139D01*
X142766052Y-86230812D01*
X142772730Y-86222965D01*
X142897003Y-86050020D01*
X142902313Y-86041183D01*
X142996670Y-85850267D01*
X143000469Y-85840672D01*
X143062377Y-85636910D01*
X143064555Y-85626837D01*
X143065986Y-85615962D01*
X143063775Y-85601778D01*
X143050617Y-85598000D01*
X142004115Y-85598000D01*
X141988876Y-85602475D01*
X141987671Y-85603865D01*
X141986000Y-85611548D01*
X141986000Y-86662517D01*
X141478000Y-86662517D01*
X141478000Y-85216000D01*
X141498002Y-85147879D01*
X141551658Y-85101386D01*
X141604000Y-85090000D01*
X143050344Y-85090000D01*
X143063875Y-85086027D01*
X143065180Y-85076947D01*
X143023214Y-84909875D01*
X143019894Y-84900124D01*
X142934972Y-84704814D01*
X142930105Y-84695739D01*
X142814426Y-84516926D01*
X142808136Y-84508757D01*
X142664293Y-84350677D01*
X142633241Y-84286831D01*
X142641635Y-84216333D01*
X142686812Y-84161564D01*
X142713256Y-84147895D01*
X142820297Y-84107767D01*
X142828705Y-84104615D01*
X142945261Y-84017261D01*
X143032615Y-83900705D01*
X143083745Y-83764316D01*
X143090500Y-83702134D01*
X143090500Y-81905866D01*
X143083745Y-81843684D01*
X143032615Y-81707295D01*
X142945261Y-81590739D01*
X142828705Y-81503385D01*
X142692316Y-81452255D01*
X142630134Y-81445500D01*
X140833866Y-81445500D01*
X140771684Y-81452255D01*
X140635295Y-81503385D01*
X140518739Y-81590739D01*
X140431385Y-81707295D01*
X140428233Y-81715703D01*
X140386919Y-81825907D01*
X140344277Y-81882671D01*
X140277716Y-81907371D01*
X140208367Y-81892163D01*
X140175743Y-81866476D01*
X140125151Y-81810875D01*
X140125142Y-81810866D01*
X140121670Y-81807051D01*
X140117619Y-81803852D01*
X140117615Y-81803848D01*
X139950414Y-81671800D01*
X139950410Y-81671798D01*
X139946359Y-81668598D01*
X139750789Y-81560638D01*
X139745920Y-81558914D01*
X139745916Y-81558912D01*
X139545087Y-81487795D01*
X139545083Y-81487794D01*
X139540212Y-81486069D01*
X139535119Y-81485162D01*
X139535116Y-81485161D01*
X139325373Y-81447800D01*
X139325367Y-81447799D01*
X139320284Y-81446894D01*
X139246452Y-81445992D01*
X139102081Y-81444228D01*
X139102079Y-81444228D01*
X139096911Y-81444165D01*
X138876091Y-81477955D01*
X138663756Y-81547357D01*
X138465607Y-81650507D01*
X138461474Y-81653610D01*
X138461471Y-81653612D01*
X138291227Y-81781435D01*
X138286965Y-81784635D01*
X138244526Y-81829045D01*
X138193280Y-81882671D01*
X138132629Y-81946138D01*
X138129715Y-81950410D01*
X138129714Y-81950411D01*
X138077756Y-82026579D01*
X138006743Y-82130680D01*
X137976752Y-82195290D01*
X137919223Y-82319227D01*
X137912688Y-82333305D01*
X137852989Y-82548570D01*
X137829251Y-82770695D01*
X137829548Y-82775848D01*
X137829548Y-82775851D01*
X137837654Y-82916436D01*
X137842110Y-82993715D01*
X137843247Y-82998761D01*
X137843248Y-82998767D01*
X137864123Y-83091393D01*
X137891222Y-83211639D01*
X137941349Y-83335088D01*
X137965958Y-83395692D01*
X137975266Y-83418616D01*
X138007015Y-83470426D01*
X138046405Y-83534704D01*
X138091987Y-83609088D01*
X138238250Y-83777938D01*
X138410126Y-83920632D01*
X138436672Y-83936144D01*
X138483445Y-83963476D01*
X138532169Y-84015114D01*
X138545240Y-84084897D01*
X138518509Y-84150669D01*
X138478055Y-84184027D01*
X138465607Y-84190507D01*
X138461474Y-84193610D01*
X138461471Y-84193612D01*
X138299828Y-84314977D01*
X138286965Y-84324635D01*
X138253360Y-84359801D01*
X138143751Y-84474500D01*
X138132629Y-84486138D01*
X138006743Y-84670680D01*
X137990899Y-84704814D01*
X137927389Y-84841635D01*
X137912688Y-84873305D01*
X137852989Y-85088570D01*
X137829251Y-85310695D01*
X132108500Y-85310695D01*
X132108500Y-84077600D01*
X132105010Y-84043962D01*
X132098238Y-83978692D01*
X132098237Y-83978688D01*
X132097526Y-83971834D01*
X132093710Y-83960394D01*
X132043868Y-83811002D01*
X132041550Y-83804054D01*
X131948478Y-83653652D01*
X131823303Y-83528695D01*
X131817072Y-83524854D01*
X131678968Y-83439725D01*
X131678966Y-83439724D01*
X131672738Y-83435885D01*
X131592995Y-83409436D01*
X131511389Y-83382368D01*
X131511387Y-83382368D01*
X131504861Y-83380203D01*
X131498025Y-83379503D01*
X131498022Y-83379502D01*
X131454969Y-83375091D01*
X131400400Y-83369500D01*
X130099600Y-83369500D01*
X130096354Y-83369837D01*
X130096350Y-83369837D01*
X130000692Y-83379762D01*
X130000688Y-83379763D01*
X129993834Y-83380474D01*
X129987298Y-83382655D01*
X129987296Y-83382655D01*
X129880630Y-83418242D01*
X129826054Y-83436450D01*
X129675652Y-83529522D01*
X129550695Y-83654697D01*
X129461339Y-83799660D01*
X129460920Y-83800339D01*
X129408148Y-83847832D01*
X129338076Y-83859256D01*
X129272952Y-83830982D01*
X129262490Y-83821195D01*
X129195754Y-83751238D01*
X129153424Y-83706865D01*
X128968458Y-83569246D01*
X128963707Y-83566830D01*
X128963703Y-83566828D01*
X128845588Y-83506776D01*
X128762949Y-83464760D01*
X128757855Y-83463178D01*
X128757852Y-83463177D01*
X128547871Y-83397976D01*
X128542773Y-83396393D01*
X128537484Y-83395692D01*
X128319511Y-83366802D01*
X128319506Y-83366802D01*
X128314226Y-83366102D01*
X128308897Y-83366302D01*
X128308895Y-83366302D01*
X128199034Y-83370427D01*
X128083842Y-83374751D01*
X128078623Y-83375846D01*
X127984037Y-83395692D01*
X127858209Y-83422093D01*
X127853250Y-83424051D01*
X127853248Y-83424052D01*
X127648744Y-83504815D01*
X127648742Y-83504816D01*
X127643779Y-83506776D01*
X127639220Y-83509543D01*
X127639217Y-83509544D01*
X127540832Y-83569246D01*
X127446683Y-83626377D01*
X127442653Y-83629874D01*
X127287722Y-83764316D01*
X127272555Y-83777477D01*
X127249773Y-83805262D01*
X127129760Y-83951627D01*
X127129756Y-83951633D01*
X127126376Y-83955755D01*
X127108448Y-83987250D01*
X127057368Y-84036555D01*
X126987738Y-84050417D01*
X126921667Y-84024434D01*
X126894427Y-83995284D01*
X126874238Y-83965296D01*
X126812559Y-83873681D01*
X126781888Y-83841529D01*
X126708230Y-83764316D01*
X126653424Y-83706865D01*
X126468458Y-83569246D01*
X126463707Y-83566830D01*
X126463703Y-83566828D01*
X126345588Y-83506776D01*
X126262949Y-83464760D01*
X126257855Y-83463178D01*
X126257852Y-83463177D01*
X126047871Y-83397976D01*
X126042773Y-83396393D01*
X126037484Y-83395692D01*
X125819511Y-83366802D01*
X125819506Y-83366802D01*
X125814226Y-83366102D01*
X125808897Y-83366302D01*
X125808895Y-83366302D01*
X125699034Y-83370427D01*
X125583842Y-83374751D01*
X125578623Y-83375846D01*
X125484037Y-83395692D01*
X125358209Y-83422093D01*
X125353250Y-83424051D01*
X125353248Y-83424052D01*
X125148744Y-83504815D01*
X125148742Y-83504816D01*
X125143779Y-83506776D01*
X125139220Y-83509543D01*
X125139217Y-83509544D01*
X125040832Y-83569246D01*
X124946683Y-83626377D01*
X124942653Y-83629874D01*
X124787722Y-83764316D01*
X124772555Y-83777477D01*
X124749773Y-83805262D01*
X124629760Y-83951627D01*
X124629756Y-83951633D01*
X124626376Y-83955755D01*
X124608448Y-83987250D01*
X124557368Y-84036555D01*
X124487738Y-84050417D01*
X124421667Y-84024434D01*
X124394427Y-83995284D01*
X124374238Y-83965296D01*
X124312559Y-83873681D01*
X124281888Y-83841529D01*
X124208230Y-83764316D01*
X124153424Y-83706865D01*
X123968458Y-83569246D01*
X123963707Y-83566830D01*
X123963703Y-83566828D01*
X123845588Y-83506776D01*
X123762949Y-83464760D01*
X123757855Y-83463178D01*
X123757852Y-83463177D01*
X123547871Y-83397976D01*
X123542773Y-83396393D01*
X123537484Y-83395692D01*
X123319511Y-83366802D01*
X123319506Y-83366802D01*
X123314226Y-83366102D01*
X123308897Y-83366302D01*
X123308895Y-83366302D01*
X123199034Y-83370427D01*
X123083842Y-83374751D01*
X123078623Y-83375846D01*
X122984037Y-83395692D01*
X122858209Y-83422093D01*
X122853250Y-83424051D01*
X122853248Y-83424052D01*
X122648744Y-83504815D01*
X122648742Y-83504816D01*
X122643779Y-83506776D01*
X122639220Y-83509543D01*
X122639217Y-83509544D01*
X122540832Y-83569246D01*
X122446683Y-83626377D01*
X122442653Y-83629874D01*
X122287722Y-83764316D01*
X122272555Y-83777477D01*
X122249773Y-83805262D01*
X122129760Y-83951627D01*
X122129756Y-83951633D01*
X122126376Y-83955755D01*
X122123738Y-83960390D01*
X122123735Y-83960394D01*
X122072491Y-84050417D01*
X122012325Y-84156114D01*
X121933663Y-84372825D01*
X121932714Y-84378074D01*
X121932713Y-84378077D01*
X121893377Y-84595608D01*
X121893376Y-84595615D01*
X121892639Y-84599692D01*
X121891500Y-84623844D01*
X121891500Y-85035890D01*
X109778045Y-85035890D01*
X109777851Y-85035828D01*
X109768790Y-85033652D01*
X109516445Y-84992555D01*
X109507158Y-84991743D01*
X109251522Y-84988396D01*
X109242211Y-84988966D01*
X108988885Y-85023442D01*
X108979766Y-85025380D01*
X108734328Y-85096919D01*
X108725575Y-85100191D01*
X108493406Y-85207223D01*
X108485251Y-85211743D01*
X108300297Y-85333004D01*
X108291159Y-85343746D01*
X99060499Y-85343746D01*
X99060499Y-83784406D01*
X102609423Y-83784406D01*
X102614704Y-83791461D01*
X102791080Y-83894527D01*
X102800363Y-83898974D01*
X103007003Y-83977883D01*
X103016901Y-83980759D01*
X103233653Y-84024857D01*
X103243883Y-84026076D01*
X103464914Y-84034182D01*
X103475223Y-84033714D01*
X103694623Y-84005608D01*
X103704688Y-84003468D01*
X103916557Y-83939905D01*
X103926152Y-83936144D01*
X104124778Y-83838838D01*
X104133636Y-83833559D01*
X104191097Y-83792572D01*
X104199497Y-83781874D01*
X104192510Y-83768721D01*
X103418811Y-82995021D01*
X103404868Y-82987408D01*
X103403034Y-82987539D01*
X103396420Y-82991790D01*
X102616180Y-83772031D01*
X102609423Y-83784406D01*
X99060499Y-83784406D01*
X99060499Y-82857250D01*
X99062245Y-82836345D01*
X99064769Y-82821344D01*
X99064769Y-82821341D01*
X99065575Y-82816552D01*
X99065728Y-82804000D01*
X99064002Y-82791947D01*
X99063000Y-82765845D01*
X99074287Y-82593638D01*
X101993893Y-82593638D01*
X102006627Y-82814468D01*
X102008061Y-82824670D01*
X102056685Y-83040439D01*
X102059773Y-83050292D01*
X102142986Y-83255220D01*
X102147634Y-83264421D01*
X102236097Y-83408781D01*
X102246553Y-83418242D01*
X102255331Y-83414458D01*
X103033979Y-82635811D01*
X103040356Y-82624132D01*
X103770408Y-82624132D01*
X103770539Y-82625966D01*
X103774790Y-82632580D01*
X104552307Y-83410096D01*
X104564313Y-83416652D01*
X104576052Y-83407684D01*
X104614010Y-83354859D01*
X104619321Y-83346020D01*
X104717318Y-83147737D01*
X104721117Y-83138142D01*
X104785415Y-82926517D01*
X104787594Y-82916436D01*
X104816702Y-82695338D01*
X104817221Y-82688663D01*
X104818744Y-82626364D01*
X104818550Y-82619646D01*
X104800279Y-82397400D01*
X104798596Y-82387238D01*
X104744710Y-82172708D01*
X104741389Y-82162953D01*
X104653193Y-81960118D01*
X104648315Y-81951020D01*
X104575224Y-81838038D01*
X104564538Y-81828835D01*
X104554973Y-81833238D01*
X103778021Y-82610189D01*
X103770408Y-82624132D01*
X103040356Y-82624132D01*
X103041592Y-82621868D01*
X103041461Y-82620034D01*
X103037210Y-82613420D01*
X102259862Y-81836073D01*
X102248330Y-81829776D01*
X102236048Y-81839399D01*
X102180467Y-81920877D01*
X102175379Y-81929833D01*
X102082252Y-82130459D01*
X102078689Y-82140146D01*
X102019581Y-82353280D01*
X102017650Y-82363400D01*
X101994145Y-82583349D01*
X101993893Y-82593638D01*
X99074287Y-82593638D01*
X99077339Y-82547078D01*
X99079490Y-82530738D01*
X99118762Y-82333305D01*
X99128111Y-82286304D01*
X99132376Y-82270387D01*
X99132377Y-82270386D01*
X99176587Y-82140146D01*
X99212483Y-82034400D01*
X99218790Y-82019173D01*
X99329015Y-81795658D01*
X99337256Y-81781384D01*
X99475712Y-81574171D01*
X99485745Y-81561096D01*
X99571149Y-81463711D01*
X102611508Y-81463711D01*
X102618251Y-81476040D01*
X103393189Y-82250979D01*
X103407132Y-82258592D01*
X103408966Y-82258461D01*
X103415580Y-82254210D01*
X104194994Y-81474795D01*
X104202011Y-81461944D01*
X104194237Y-81451274D01*
X104191902Y-81449430D01*
X104183320Y-81443729D01*
X103989678Y-81336833D01*
X103980272Y-81332606D01*
X103771772Y-81258772D01*
X103761809Y-81256140D01*
X103544047Y-81217350D01*
X103533796Y-81216381D01*
X103312616Y-81213679D01*
X103302332Y-81214399D01*
X103083693Y-81247855D01*
X103073666Y-81250244D01*
X102863426Y-81318961D01*
X102853916Y-81322958D01*
X102657725Y-81425089D01*
X102649007Y-81430578D01*
X102619961Y-81452386D01*
X102611508Y-81463711D01*
X99571149Y-81463711D01*
X99650067Y-81373722D01*
X99661721Y-81362067D01*
X99849094Y-81197745D01*
X99862170Y-81187712D01*
X100069383Y-81049257D01*
X100083657Y-81041016D01*
X100307173Y-80930790D01*
X100322399Y-80924483D01*
X100558393Y-80844374D01*
X100574303Y-80840111D01*
X100696522Y-80815800D01*
X100818737Y-80791490D01*
X100835077Y-80789339D01*
X100983865Y-80779586D01*
X101050236Y-80775236D01*
X101073349Y-80776266D01*
X101076853Y-80776309D01*
X101085723Y-80777690D01*
X101094625Y-80776526D01*
X101094628Y-80776526D01*
X101117276Y-80773564D01*
X101133613Y-80772500D01*
X143990294Y-80772500D01*
X144058415Y-80792502D01*
G37*
G04 #@! TD.AperFunction*
M02*
