%TF.GenerationSoftware,KiCad,Pcbnew,(6.0.9)*%
%TF.CreationDate,2024-01-21T16:39:31-05:00*%
%TF.ProjectId,v1-USMX,76312d55-534d-4582-9e6b-696361645f70,rev?*%
%TF.SameCoordinates,Original*%
%TF.FileFunction,Drillmap*%
%TF.FilePolarity,Positive*%
%FSLAX45Y45*%
G04 Gerber Fmt 4.5, Leading zero omitted, Abs format (unit mm)*
G04 Created by KiCad (PCBNEW (6.0.9)) date 2024-01-21 16:39:31*
%MOMM*%
%LPD*%
G01*
G04 APERTURE LIST*
%ADD10C,0.100000*%
%ADD11C,0.200000*%
%ADD12C,0.020000*%
%ADD13C,0.040000*%
%ADD14C,0.095000*%
%ADD15C,0.120000*%
%ADD16C,0.170000*%
%ADD17C,0.297000*%
G04 APERTURE END LIST*
D10*
X15659100Y-8280400D02*
X15659100Y-8026400D01*
X16421100Y-8432800D02*
X15811500Y-8432800D01*
X18999200Y-8280400D02*
X18999200Y-12649200D01*
X15659100Y-8026400D02*
X10109200Y-8026400D01*
X10109200Y-8026400D02*
G75*
G03*
X9855200Y-8280400I0J-254000D01*
G01*
X18999200Y-8280400D02*
G75*
G03*
X18745200Y-8026400I-254000J0D01*
G01*
X9855200Y-12649200D02*
G75*
G03*
X10109200Y-12903200I254000J0D01*
G01*
X18745200Y-12903200D02*
G75*
G03*
X18999200Y-12649200I0J254000D01*
G01*
X15659100Y-8280400D02*
G75*
G03*
X15811500Y-8432800I152400J0D01*
G01*
X10109200Y-12903200D02*
X18745200Y-12903200D01*
X16573500Y-8280400D02*
X16573500Y-8026400D01*
X9855200Y-8280400D02*
X9855200Y-12649200D01*
X16421100Y-8432800D02*
G75*
G03*
X16573500Y-8280400I0J152400D01*
G01*
X18745200Y-8026400D02*
X16573500Y-8026400D01*
D11*
D12*
X10086500Y-12766200D02*
X10106500Y-12786200D01*
X10106500Y-12766200D02*
X10086500Y-12786200D01*
X10848500Y-12664600D02*
X10868500Y-12684600D01*
X10868500Y-12664600D02*
X10848500Y-12684600D01*
X11851800Y-9286400D02*
X11871800Y-9306400D01*
X11871800Y-9286400D02*
X11851800Y-9306400D01*
X11958480Y-10114440D02*
X11978480Y-10134440D01*
X11978480Y-10114440D02*
X11958480Y-10134440D01*
X11978800Y-10797700D02*
X11998800Y-10817700D01*
X11998800Y-10797700D02*
X11978800Y-10817700D01*
X11978800Y-11000900D02*
X11998800Y-11020900D01*
X11998800Y-11000900D02*
X11978800Y-11020900D01*
X12004200Y-11191400D02*
X12024200Y-11211400D01*
X12024200Y-11191400D02*
X12004200Y-11211400D01*
X12055000Y-10238900D02*
X12075000Y-10258900D01*
X12075000Y-10238900D02*
X12055000Y-10258900D01*
X12156600Y-8613300D02*
X12176600Y-8633300D01*
X12176600Y-8613300D02*
X12156600Y-8633300D01*
X12205600Y-10078400D02*
X12225600Y-10098400D01*
X12225600Y-10078400D02*
X12205600Y-10098400D01*
X12232800Y-10307480D02*
X12252800Y-10327480D01*
X12252800Y-10307480D02*
X12232800Y-10327480D01*
X12283600Y-10924700D02*
X12303600Y-10944700D01*
X12303600Y-10924700D02*
X12283600Y-10944700D01*
X12283600Y-11191400D02*
X12303600Y-11211400D01*
X12303600Y-11191400D02*
X12283600Y-11211400D01*
X12283600Y-11343800D02*
X12303600Y-11363800D01*
X12303600Y-11343800D02*
X12283600Y-11363800D01*
X12334400Y-12079550D02*
X12354400Y-12099550D01*
X12354400Y-12079550D02*
X12334400Y-12099550D01*
X12347100Y-10632600D02*
X12367100Y-10652600D01*
X12367100Y-10632600D02*
X12347100Y-10652600D01*
X12359800Y-9896000D02*
X12379800Y-9916000D01*
X12379800Y-9896000D02*
X12359800Y-9916000D01*
X12436000Y-8613300D02*
X12456000Y-8633300D01*
X12456000Y-8613300D02*
X12436000Y-8633300D01*
X12436000Y-10053480D02*
X12456000Y-10073480D01*
X12456000Y-10053480D02*
X12436000Y-10073480D01*
X12495930Y-11868070D02*
X12515930Y-11888070D01*
X12515930Y-11868070D02*
X12495930Y-11888070D01*
X12524900Y-10365900D02*
X12544900Y-10385900D01*
X12544900Y-10365900D02*
X12524900Y-10385900D01*
X12559430Y-11931570D02*
X12579430Y-11951570D01*
X12579430Y-11931570D02*
X12559430Y-11951570D01*
X12566570Y-11797430D02*
X12586570Y-11817430D01*
X12586570Y-11797430D02*
X12566570Y-11817430D01*
X12613800Y-9578500D02*
X12633800Y-9598500D01*
X12633800Y-9578500D02*
X12613800Y-9598500D01*
X12630070Y-11860930D02*
X12650070Y-11880930D01*
X12650070Y-11860930D02*
X12630070Y-11880930D01*
X12642770Y-11791870D02*
X12662770Y-11811870D01*
X12662770Y-11791870D02*
X12642770Y-11811870D01*
X12726650Y-9629300D02*
X12746650Y-9649300D01*
X12746650Y-9629300D02*
X12726650Y-9649300D01*
X12841500Y-10595301D02*
X12861500Y-10615301D01*
X12861500Y-10595301D02*
X12841500Y-10615301D01*
X12842400Y-10378600D02*
X12862400Y-10398600D01*
X12862400Y-10378600D02*
X12842400Y-10398600D01*
X12912270Y-10118270D02*
X12932270Y-10138270D01*
X12932270Y-10118270D02*
X12912270Y-10138270D01*
X12918600Y-8626000D02*
X12938600Y-8646000D01*
X12938600Y-8626000D02*
X12918600Y-8646000D01*
X12968500Y-10381850D02*
X12988500Y-10401850D01*
X12988500Y-10381850D02*
X12968500Y-10401850D01*
X12968500Y-10544451D02*
X12988500Y-10564451D01*
X12988500Y-10544451D02*
X12968500Y-10564451D01*
X13040860Y-11696860D02*
X13060860Y-11716860D01*
X13060860Y-11696860D02*
X13040860Y-11716860D01*
X13040860Y-11834020D02*
X13060860Y-11854020D01*
X13060860Y-11834020D02*
X13040860Y-11854020D01*
X13080275Y-9607325D02*
X13100275Y-9627325D01*
X13100275Y-9607325D02*
X13080275Y-9627325D01*
X13096400Y-10431800D02*
X13116400Y-10451800D01*
X13116400Y-10431800D02*
X13096400Y-10451800D01*
X13111980Y-11625740D02*
X13131980Y-11645740D01*
X13131980Y-11625740D02*
X13111980Y-11645740D01*
X13111980Y-11696860D02*
X13131980Y-11716860D01*
X13131980Y-11696860D02*
X13111980Y-11716860D01*
X13111980Y-11765440D02*
X13131980Y-11785440D01*
X13131980Y-11765440D02*
X13111980Y-11785440D01*
X13111980Y-11834020D02*
X13131980Y-11854020D01*
X13131980Y-11834020D02*
X13111980Y-11854020D01*
X13111980Y-11905140D02*
X13131980Y-11925140D01*
X13131980Y-11905140D02*
X13111980Y-11925140D01*
X13145000Y-10078400D02*
X13165000Y-10098400D01*
X13165000Y-10078400D02*
X13145000Y-10098400D01*
X13165220Y-10320420D02*
X13185220Y-10340420D01*
X13185220Y-10320420D02*
X13165220Y-10340420D01*
X13180560Y-11696860D02*
X13200560Y-11716860D01*
X13200560Y-11696860D02*
X13180560Y-11716860D01*
X13183100Y-11834020D02*
X13203100Y-11854020D01*
X13203100Y-11834020D02*
X13183100Y-11854020D01*
X13184550Y-10518881D02*
X13204550Y-10538881D01*
X13204550Y-10518881D02*
X13184550Y-10538881D01*
X13210700Y-8613300D02*
X13230700Y-8633300D01*
X13230700Y-8613300D02*
X13210700Y-8633300D01*
X13251680Y-11625740D02*
X13271680Y-11645740D01*
X13271680Y-11625740D02*
X13251680Y-11645740D01*
X13251680Y-11696860D02*
X13271680Y-11716860D01*
X13271680Y-11696860D02*
X13251680Y-11716860D01*
X13251680Y-11765440D02*
X13271680Y-11785440D01*
X13271680Y-11765440D02*
X13251680Y-11785440D01*
X13251680Y-11834020D02*
X13271680Y-11854020D01*
X13271680Y-11834020D02*
X13251680Y-11854020D01*
X13251680Y-11905140D02*
X13271680Y-11925140D01*
X13271680Y-11905140D02*
X13251680Y-11925140D01*
X13320260Y-11696860D02*
X13340260Y-11716860D01*
X13340260Y-11696860D02*
X13320260Y-11716860D01*
X13322800Y-11834020D02*
X13342800Y-11854020D01*
X13342800Y-11834020D02*
X13322800Y-11854020D01*
X13380880Y-10053480D02*
X13400880Y-10073480D01*
X13400880Y-10053480D02*
X13380880Y-10073480D01*
X13452000Y-10416700D02*
X13472000Y-10436700D01*
X13472000Y-10416700D02*
X13452000Y-10436700D01*
X13452000Y-10619900D02*
X13472000Y-10639900D01*
X13472000Y-10619900D02*
X13452000Y-10639900D01*
X13718700Y-10924700D02*
X13738700Y-10944700D01*
X13738700Y-10924700D02*
X13718700Y-10944700D01*
X13718700Y-11127900D02*
X13738700Y-11147900D01*
X13738700Y-11127900D02*
X13718700Y-11147900D01*
X13718700Y-12182000D02*
X13738700Y-12202000D01*
X13738700Y-12182000D02*
X13718700Y-12202000D01*
X13718700Y-12372500D02*
X13738700Y-12392500D01*
X13738700Y-12372500D02*
X13718700Y-12392500D01*
X13792050Y-11178700D02*
X13812050Y-11198700D01*
X13812050Y-11178700D02*
X13792050Y-11198700D01*
X13792529Y-11077100D02*
X13812529Y-11097100D01*
X13812529Y-11077100D02*
X13792529Y-11097100D01*
X14018316Y-11075248D02*
X14038316Y-11095248D01*
X14038316Y-11075248D02*
X14018316Y-11095248D01*
X14058820Y-11168780D02*
X14078820Y-11188780D01*
X14078820Y-11168780D02*
X14058820Y-11188780D01*
X14061600Y-10873900D02*
X14081600Y-10893900D01*
X14081600Y-10873900D02*
X14061600Y-10893900D01*
X14087000Y-12220100D02*
X14107000Y-12240100D01*
X14107000Y-12220100D02*
X14087000Y-12240100D01*
X14137800Y-11432700D02*
X14157800Y-11452700D01*
X14157800Y-11432700D02*
X14137800Y-11452700D01*
X14188600Y-11826400D02*
X14208600Y-11846400D01*
X14208600Y-11826400D02*
X14188600Y-11846400D01*
X14201300Y-12080400D02*
X14221300Y-12100400D01*
X14221300Y-12080400D02*
X14201300Y-12100400D01*
X14226700Y-11559700D02*
X14246700Y-11579700D01*
X14246700Y-11559700D02*
X14226700Y-11579700D01*
X14290200Y-12359800D02*
X14310200Y-12379800D01*
X14310200Y-12359800D02*
X14290200Y-12379800D01*
X14328300Y-8676800D02*
X14348300Y-8696800D01*
X14348300Y-8676800D02*
X14328300Y-8696800D01*
X14429900Y-10785000D02*
X14449900Y-10805000D01*
X14449900Y-10785000D02*
X14429900Y-10805000D01*
X14518800Y-10925550D02*
X14538800Y-10945550D01*
X14538800Y-10925550D02*
X14518800Y-10945550D01*
X14531492Y-12358842D02*
X14551492Y-12378842D01*
X14551492Y-12358842D02*
X14531492Y-12378842D01*
X14582300Y-11039000D02*
X14602300Y-11059000D01*
X14602300Y-11039000D02*
X14582300Y-11059000D01*
X14694400Y-12385200D02*
X14714400Y-12405200D01*
X14714400Y-12385200D02*
X14694400Y-12405200D01*
X14734700Y-11216800D02*
X14754700Y-11236800D01*
X14754700Y-11216800D02*
X14734700Y-11236800D01*
X14823600Y-11394959D02*
X14843600Y-11414959D01*
X14843600Y-11394959D02*
X14823600Y-11414959D01*
X14849000Y-12245500D02*
X14869000Y-12265500D01*
X14869000Y-12245500D02*
X14849000Y-12265500D01*
X14861700Y-10061100D02*
X14881700Y-10081100D01*
X14881700Y-10061100D02*
X14861700Y-10081100D01*
X14861700Y-11788300D02*
X14881700Y-11808300D01*
X14881700Y-11788300D02*
X14861700Y-11808300D01*
X15013450Y-11217521D02*
X15033450Y-11237521D01*
X15033450Y-11217521D02*
X15013450Y-11237521D01*
X15096685Y-11134285D02*
X15116685Y-11154285D01*
X15116685Y-11134285D02*
X15096685Y-11154285D01*
X15126516Y-11330587D02*
X15146516Y-11350587D01*
X15146516Y-11330587D02*
X15126516Y-11350587D01*
X15209752Y-11247352D02*
X15229752Y-11267352D01*
X15229752Y-11247352D02*
X15209752Y-11267352D01*
X15623700Y-12296350D02*
X15643700Y-12316350D01*
X15643700Y-12296350D02*
X15623700Y-12316350D01*
X15623700Y-12406450D02*
X15643700Y-12426450D01*
X15643700Y-12406450D02*
X15623700Y-12426450D01*
X15687200Y-11737500D02*
X15707200Y-11757500D01*
X15707200Y-11737500D02*
X15687200Y-11757500D01*
X15712600Y-10835800D02*
X15732600Y-10855800D01*
X15732600Y-10835800D02*
X15712600Y-10855800D01*
X16385700Y-12563000D02*
X16405700Y-12583000D01*
X16405700Y-12563000D02*
X16385700Y-12583000D01*
X17401700Y-12397900D02*
X17421700Y-12417900D01*
X17421700Y-12397900D02*
X17401700Y-12417900D01*
X18074800Y-11674000D02*
X18094800Y-11694000D01*
X18094800Y-11674000D02*
X18074800Y-11694000D01*
X18341500Y-12359800D02*
X18361500Y-12379800D01*
X18361500Y-12359800D02*
X18341500Y-12379800D01*
X18811400Y-12778900D02*
X18831400Y-12798900D01*
X18831400Y-12778900D02*
X18811400Y-12798900D01*
D13*
X11475400Y-8331200D02*
G75*
G03*
X11475400Y-8331200I-20000J0D01*
G01*
X11551600Y-12446000D02*
G75*
G03*
X11551600Y-12446000I-20000J0D01*
G01*
X12004100Y-9472200D02*
G75*
G03*
X12004100Y-9472200I-20000J0D01*
G01*
X12004100Y-9726200D02*
G75*
G03*
X12004100Y-9726200I-20000J0D01*
G01*
X12006600Y-12547600D02*
G75*
G03*
X12006600Y-12547600I-20000J0D01*
G01*
X12721100Y-9269900D02*
G75*
G03*
X12721100Y-9269900I-20000J0D01*
G01*
X13038600Y-9269900D02*
G75*
G03*
X13038600Y-9269900I-20000J0D01*
G01*
X13327400Y-9472200D02*
G75*
G03*
X13327400Y-9472200I-20000J0D01*
G01*
X13327400Y-9726200D02*
G75*
G03*
X13327400Y-9726200I-20000J0D01*
G01*
X13634400Y-9753600D02*
G75*
G03*
X13634400Y-9753600I-20000J0D01*
G01*
X14089400Y-12547600D02*
G75*
G03*
X14089400Y-12547600I-20000J0D01*
G01*
X14292600Y-12795000D02*
G75*
G03*
X14292600Y-12795000I-20000J0D01*
G01*
X14345600Y-11226800D02*
G75*
G03*
X14345600Y-11226800I-20000J0D01*
G01*
X14472600Y-8178800D02*
G75*
G03*
X14472600Y-8178800I-20000J0D01*
G01*
X14546600Y-12795000D02*
G75*
G03*
X14546600Y-12795000I-20000J0D01*
G01*
X14752000Y-9245600D02*
G75*
G03*
X14752000Y-9245600I-20000J0D01*
G01*
X14904400Y-8636000D02*
G75*
G03*
X14904400Y-8636000I-20000J0D01*
G01*
X15030400Y-9245600D02*
G75*
G03*
X15030400Y-9245600I-20000J0D01*
G01*
X15298100Y-9867900D02*
G75*
G03*
X15298100Y-9867900I-20000J0D01*
G01*
X15298100Y-10096500D02*
G75*
G03*
X15298100Y-10096500I-20000J0D01*
G01*
X15310800Y-9245600D02*
G75*
G03*
X15310800Y-9245600I-20000J0D01*
G01*
X15310800Y-10731500D02*
G75*
G03*
X15310800Y-10731500I-20000J0D01*
G01*
X15310800Y-10985500D02*
G75*
G03*
X15310800Y-10985500I-20000J0D01*
G01*
X15514000Y-8483600D02*
G75*
G03*
X15514000Y-8483600I-20000J0D01*
G01*
X15590200Y-8356600D02*
G75*
G03*
X15590200Y-8356600I-20000J0D01*
G01*
X16238400Y-10058400D02*
G75*
G03*
X16238400Y-10058400I-20000J0D01*
G01*
X16543247Y-12534353D02*
G75*
G03*
X16543247Y-12534353I-20000J0D01*
G01*
X16568100Y-8788400D02*
G75*
G03*
X16568100Y-8788400I-20000J0D01*
G01*
X16568100Y-8890000D02*
G75*
G03*
X16568100Y-8890000I-20000J0D01*
G01*
X16733200Y-12344400D02*
G75*
G03*
X16733200Y-12344400I-20000J0D01*
G01*
X16758600Y-10625650D02*
G75*
G03*
X16758600Y-10625650I-20000J0D01*
G01*
X16758600Y-10825550D02*
G75*
G03*
X16758600Y-10825550I-20000J0D01*
G01*
X18003200Y-8331200D02*
G75*
G03*
X18003200Y-8331200I-20000J0D01*
G01*
D14*
X12325000Y-8437800D02*
X12325000Y-8532800D01*
X12277500Y-8485300D02*
X12372500Y-8485300D01*
X12575000Y-8437800D02*
X12575000Y-8532800D01*
X12527500Y-8485300D02*
X12622500Y-8485300D01*
X12825000Y-8437800D02*
X12825000Y-8532800D01*
X12777500Y-8485300D02*
X12872500Y-8485300D01*
X13075000Y-8437800D02*
X13075000Y-8532800D01*
X13027500Y-8485300D02*
X13122500Y-8485300D01*
D10*
X15999256Y-11681256D02*
X15999256Y-11610544D01*
X15928544Y-11610544D01*
X15928544Y-11681256D01*
X15999256Y-11681256D01*
X15999256Y-11935256D02*
X15999256Y-11864544D01*
X15928544Y-11864544D01*
X15928544Y-11935256D01*
X15999256Y-11935256D01*
X16253256Y-11681256D02*
X16253256Y-11610544D01*
X16182544Y-11610544D01*
X16182544Y-11681256D01*
X16253256Y-11681256D01*
X16253256Y-11935256D02*
X16253256Y-11864544D01*
X16182544Y-11864544D01*
X16182544Y-11935256D01*
X16253256Y-11935256D01*
X17745156Y-11591656D02*
X17745156Y-11520944D01*
X17674444Y-11520944D01*
X17674444Y-11591656D01*
X17745156Y-11591656D01*
X17995156Y-11591656D02*
X17995156Y-11520944D01*
X17924444Y-11520944D01*
X17924444Y-11591656D01*
X17995156Y-11591656D01*
X18245156Y-11591656D02*
X18245156Y-11520944D01*
X18174444Y-11520944D01*
X18174444Y-11591656D01*
X18245156Y-11591656D01*
X18495156Y-11591656D02*
X18495156Y-11520944D01*
X18424444Y-11520944D01*
X18424444Y-11591656D01*
X18495156Y-11591656D01*
D15*
X10340600Y-8322300D02*
X10400600Y-8262300D01*
X10340600Y-8202300D01*
X10280600Y-8262300D01*
X10340600Y-8322300D01*
X10340600Y-12672300D02*
X10400600Y-12612300D01*
X10340600Y-12552300D01*
X10280600Y-12612300D01*
X10340600Y-12672300D01*
X10690600Y-12672300D02*
X10750600Y-12612300D01*
X10690600Y-12552300D01*
X10630600Y-12612300D01*
X10690600Y-12672300D01*
D16*
X10010600Y-8712300D02*
X10180600Y-8882300D01*
X10180600Y-8712300D02*
X10010600Y-8882300D01*
X10180600Y-8797300D02*
G75*
G03*
X10180600Y-8797300I-85000J0D01*
G01*
X10010600Y-11992300D02*
X10180600Y-12162300D01*
X10180600Y-11992300D02*
X10010600Y-12162300D01*
X10180600Y-12077300D02*
G75*
G03*
X10180600Y-12077300I-85000J0D01*
G01*
X10850600Y-8592300D02*
X11020600Y-8762300D01*
X11020600Y-8592300D02*
X10850600Y-8762300D01*
X11020600Y-8677300D02*
G75*
G03*
X11020600Y-8677300I-85000J0D01*
G01*
X10850600Y-12112300D02*
X11020600Y-12282300D01*
X11020600Y-12112300D02*
X10850600Y-12282300D01*
X11020600Y-12197300D02*
G75*
G03*
X11020600Y-12197300I-85000J0D01*
G01*
D17*
X17356300Y-10307800D02*
X17653300Y-10604800D01*
X17653300Y-10307800D02*
X17356300Y-10604800D01*
X17504800Y-10307800D02*
X17504800Y-10604800D01*
X17356300Y-10456300D02*
X17653300Y-10456300D01*
X18516300Y-10307800D02*
X18813300Y-10604800D01*
X18813300Y-10307800D02*
X18516300Y-10604800D01*
X18664800Y-10307800D02*
X18664800Y-10604800D01*
X18516300Y-10456300D02*
X18813300Y-10456300D01*
D11*
X10107819Y-13218676D02*
X10107819Y-13018676D01*
X10155438Y-13018676D01*
X10184009Y-13028200D01*
X10203057Y-13047248D01*
X10212581Y-13066295D01*
X10222105Y-13104390D01*
X10222105Y-13132962D01*
X10212581Y-13171057D01*
X10203057Y-13190105D01*
X10184009Y-13209152D01*
X10155438Y-13218676D01*
X10107819Y-13218676D01*
X10307819Y-13218676D02*
X10307819Y-13085343D01*
X10307819Y-13123438D02*
X10317343Y-13104390D01*
X10326867Y-13094867D01*
X10345914Y-13085343D01*
X10364962Y-13085343D01*
X10431628Y-13218676D02*
X10431628Y-13085343D01*
X10431628Y-13018676D02*
X10422105Y-13028200D01*
X10431628Y-13037724D01*
X10441152Y-13028200D01*
X10431628Y-13018676D01*
X10431628Y-13037724D01*
X10555438Y-13218676D02*
X10536390Y-13209152D01*
X10526867Y-13190105D01*
X10526867Y-13018676D01*
X10660200Y-13218676D02*
X10641152Y-13209152D01*
X10631628Y-13190105D01*
X10631628Y-13018676D01*
X10888771Y-13218676D02*
X10888771Y-13018676D01*
X10955438Y-13161533D01*
X11022105Y-13018676D01*
X11022105Y-13218676D01*
X11203057Y-13218676D02*
X11203057Y-13113914D01*
X11193533Y-13094867D01*
X11174486Y-13085343D01*
X11136390Y-13085343D01*
X11117343Y-13094867D01*
X11203057Y-13209152D02*
X11184009Y-13218676D01*
X11136390Y-13218676D01*
X11117343Y-13209152D01*
X11107819Y-13190105D01*
X11107819Y-13171057D01*
X11117343Y-13152009D01*
X11136390Y-13142486D01*
X11184009Y-13142486D01*
X11203057Y-13132962D01*
X11298295Y-13085343D02*
X11298295Y-13285343D01*
X11298295Y-13094867D02*
X11317343Y-13085343D01*
X11355438Y-13085343D01*
X11374486Y-13094867D01*
X11384009Y-13104390D01*
X11393533Y-13123438D01*
X11393533Y-13180581D01*
X11384009Y-13199628D01*
X11374486Y-13209152D01*
X11355438Y-13218676D01*
X11317343Y-13218676D01*
X11298295Y-13209152D01*
X11479247Y-13199628D02*
X11488771Y-13209152D01*
X11479247Y-13218676D01*
X11469724Y-13209152D01*
X11479247Y-13199628D01*
X11479247Y-13218676D01*
X11479247Y-13094867D02*
X11488771Y-13104390D01*
X11479247Y-13113914D01*
X11469724Y-13104390D01*
X11479247Y-13094867D01*
X11479247Y-13113914D01*
D12*
X9830200Y-13538200D02*
X9850200Y-13558200D01*
X9850200Y-13538200D02*
X9830200Y-13558200D01*
D11*
X10145914Y-13438676D02*
X10164962Y-13438676D01*
X10184009Y-13448200D01*
X10193533Y-13457724D01*
X10203057Y-13476771D01*
X10212581Y-13514867D01*
X10212581Y-13562486D01*
X10203057Y-13600581D01*
X10193533Y-13619628D01*
X10184009Y-13629152D01*
X10164962Y-13638676D01*
X10145914Y-13638676D01*
X10126867Y-13629152D01*
X10117343Y-13619628D01*
X10107819Y-13600581D01*
X10098295Y-13562486D01*
X10098295Y-13514867D01*
X10107819Y-13476771D01*
X10117343Y-13457724D01*
X10126867Y-13448200D01*
X10145914Y-13438676D01*
X10298295Y-13619628D02*
X10307819Y-13629152D01*
X10298295Y-13638676D01*
X10288771Y-13629152D01*
X10298295Y-13619628D01*
X10298295Y-13638676D01*
X10384009Y-13457724D02*
X10393533Y-13448200D01*
X10412581Y-13438676D01*
X10460200Y-13438676D01*
X10479248Y-13448200D01*
X10488771Y-13457724D01*
X10498295Y-13476771D01*
X10498295Y-13495819D01*
X10488771Y-13524390D01*
X10374486Y-13638676D01*
X10498295Y-13638676D01*
X10622105Y-13438676D02*
X10641152Y-13438676D01*
X10660200Y-13448200D01*
X10669724Y-13457724D01*
X10679248Y-13476771D01*
X10688771Y-13514867D01*
X10688771Y-13562486D01*
X10679248Y-13600581D01*
X10669724Y-13619628D01*
X10660200Y-13629152D01*
X10641152Y-13638676D01*
X10622105Y-13638676D01*
X10603057Y-13629152D01*
X10593533Y-13619628D01*
X10584009Y-13600581D01*
X10574486Y-13562486D01*
X10574486Y-13514867D01*
X10584009Y-13476771D01*
X10593533Y-13457724D01*
X10603057Y-13448200D01*
X10622105Y-13438676D01*
X10812581Y-13438676D02*
X10831628Y-13438676D01*
X10850676Y-13448200D01*
X10860200Y-13457724D01*
X10869724Y-13476771D01*
X10879248Y-13514867D01*
X10879248Y-13562486D01*
X10869724Y-13600581D01*
X10860200Y-13619628D01*
X10850676Y-13629152D01*
X10831628Y-13638676D01*
X10812581Y-13638676D01*
X10793533Y-13629152D01*
X10784009Y-13619628D01*
X10774486Y-13600581D01*
X10764962Y-13562486D01*
X10764962Y-13514867D01*
X10774486Y-13476771D01*
X10784009Y-13457724D01*
X10793533Y-13448200D01*
X10812581Y-13438676D01*
X10964962Y-13638676D02*
X10964962Y-13505343D01*
X10964962Y-13524390D02*
X10974486Y-13514867D01*
X10993533Y-13505343D01*
X11022105Y-13505343D01*
X11041152Y-13514867D01*
X11050676Y-13533914D01*
X11050676Y-13638676D01*
X11050676Y-13533914D02*
X11060200Y-13514867D01*
X11079248Y-13505343D01*
X11107819Y-13505343D01*
X11126867Y-13514867D01*
X11136390Y-13533914D01*
X11136390Y-13638676D01*
X11231628Y-13638676D02*
X11231628Y-13505343D01*
X11231628Y-13524390D02*
X11241152Y-13514867D01*
X11260200Y-13505343D01*
X11288771Y-13505343D01*
X11307819Y-13514867D01*
X11317343Y-13533914D01*
X11317343Y-13638676D01*
X11317343Y-13533914D02*
X11326866Y-13514867D01*
X11345914Y-13505343D01*
X11374486Y-13505343D01*
X11393533Y-13514867D01*
X11403057Y-13533914D01*
X11403057Y-13638676D01*
X11793533Y-13429152D02*
X11622105Y-13686295D01*
X12050676Y-13438676D02*
X12069724Y-13438676D01*
X12088771Y-13448200D01*
X12098295Y-13457724D01*
X12107819Y-13476771D01*
X12117343Y-13514867D01*
X12117343Y-13562486D01*
X12107819Y-13600581D01*
X12098295Y-13619628D01*
X12088771Y-13629152D01*
X12069724Y-13638676D01*
X12050676Y-13638676D01*
X12031628Y-13629152D01*
X12022105Y-13619628D01*
X12012581Y-13600581D01*
X12003057Y-13562486D01*
X12003057Y-13514867D01*
X12012581Y-13476771D01*
X12022105Y-13457724D01*
X12031628Y-13448200D01*
X12050676Y-13438676D01*
X12203057Y-13619628D02*
X12212581Y-13629152D01*
X12203057Y-13638676D01*
X12193533Y-13629152D01*
X12203057Y-13619628D01*
X12203057Y-13638676D01*
X12336390Y-13438676D02*
X12355438Y-13438676D01*
X12374486Y-13448200D01*
X12384009Y-13457724D01*
X12393533Y-13476771D01*
X12403057Y-13514867D01*
X12403057Y-13562486D01*
X12393533Y-13600581D01*
X12384009Y-13619628D01*
X12374486Y-13629152D01*
X12355438Y-13638676D01*
X12336390Y-13638676D01*
X12317343Y-13629152D01*
X12307819Y-13619628D01*
X12298295Y-13600581D01*
X12288771Y-13562486D01*
X12288771Y-13514867D01*
X12298295Y-13476771D01*
X12307819Y-13457724D01*
X12317343Y-13448200D01*
X12336390Y-13438676D01*
X12526866Y-13438676D02*
X12545914Y-13438676D01*
X12564962Y-13448200D01*
X12574486Y-13457724D01*
X12584009Y-13476771D01*
X12593533Y-13514867D01*
X12593533Y-13562486D01*
X12584009Y-13600581D01*
X12574486Y-13619628D01*
X12564962Y-13629152D01*
X12545914Y-13638676D01*
X12526866Y-13638676D01*
X12507819Y-13629152D01*
X12498295Y-13619628D01*
X12488771Y-13600581D01*
X12479247Y-13562486D01*
X12479247Y-13514867D01*
X12488771Y-13476771D01*
X12498295Y-13457724D01*
X12507819Y-13448200D01*
X12526866Y-13438676D01*
X12660200Y-13438676D02*
X12793533Y-13438676D01*
X12707819Y-13638676D01*
X12879247Y-13638676D02*
X12917343Y-13638676D01*
X12936390Y-13629152D01*
X12945914Y-13619628D01*
X12964962Y-13591057D01*
X12974486Y-13552962D01*
X12974486Y-13476771D01*
X12964962Y-13457724D01*
X12955438Y-13448200D01*
X12936390Y-13438676D01*
X12898295Y-13438676D01*
X12879247Y-13448200D01*
X12869724Y-13457724D01*
X12860200Y-13476771D01*
X12860200Y-13524390D01*
X12869724Y-13543438D01*
X12879247Y-13552962D01*
X12898295Y-13562486D01*
X12936390Y-13562486D01*
X12955438Y-13552962D01*
X12964962Y-13543438D01*
X12974486Y-13524390D01*
X13050676Y-13438676D02*
X13050676Y-13476771D01*
X13126866Y-13438676D02*
X13126866Y-13476771D01*
X13422105Y-13714867D02*
X13412581Y-13705343D01*
X13393533Y-13676771D01*
X13384009Y-13657724D01*
X13374486Y-13629152D01*
X13364962Y-13581533D01*
X13364962Y-13543438D01*
X13374486Y-13495819D01*
X13384009Y-13467248D01*
X13393533Y-13448200D01*
X13412581Y-13419628D01*
X13422105Y-13410105D01*
X13507819Y-13638676D02*
X13545914Y-13638676D01*
X13564962Y-13629152D01*
X13574486Y-13619628D01*
X13593533Y-13591057D01*
X13603057Y-13552962D01*
X13603057Y-13476771D01*
X13593533Y-13457724D01*
X13584009Y-13448200D01*
X13564962Y-13438676D01*
X13526866Y-13438676D01*
X13507819Y-13448200D01*
X13498295Y-13457724D01*
X13488771Y-13476771D01*
X13488771Y-13524390D01*
X13498295Y-13543438D01*
X13507819Y-13552962D01*
X13526866Y-13562486D01*
X13564962Y-13562486D01*
X13584009Y-13552962D01*
X13593533Y-13543438D01*
X13603057Y-13524390D01*
X13669724Y-13438676D02*
X13803057Y-13438676D01*
X13717343Y-13638676D01*
X14031628Y-13638676D02*
X14031628Y-13438676D01*
X14117343Y-13638676D02*
X14117343Y-13533914D01*
X14107819Y-13514867D01*
X14088771Y-13505343D01*
X14060200Y-13505343D01*
X14041152Y-13514867D01*
X14031628Y-13524390D01*
X14241152Y-13638676D02*
X14222105Y-13629152D01*
X14212581Y-13619628D01*
X14203057Y-13600581D01*
X14203057Y-13543438D01*
X14212581Y-13524390D01*
X14222105Y-13514867D01*
X14241152Y-13505343D01*
X14269724Y-13505343D01*
X14288771Y-13514867D01*
X14298295Y-13524390D01*
X14307819Y-13543438D01*
X14307819Y-13600581D01*
X14298295Y-13619628D01*
X14288771Y-13629152D01*
X14269724Y-13638676D01*
X14241152Y-13638676D01*
X14422105Y-13638676D02*
X14403057Y-13629152D01*
X14393533Y-13610105D01*
X14393533Y-13438676D01*
X14574486Y-13629152D02*
X14555438Y-13638676D01*
X14517343Y-13638676D01*
X14498295Y-13629152D01*
X14488771Y-13610105D01*
X14488771Y-13533914D01*
X14498295Y-13514867D01*
X14517343Y-13505343D01*
X14555438Y-13505343D01*
X14574486Y-13514867D01*
X14584009Y-13533914D01*
X14584009Y-13552962D01*
X14488771Y-13572009D01*
X14660200Y-13629152D02*
X14679247Y-13638676D01*
X14717343Y-13638676D01*
X14736390Y-13629152D01*
X14745914Y-13610105D01*
X14745914Y-13600581D01*
X14736390Y-13581533D01*
X14717343Y-13572009D01*
X14688771Y-13572009D01*
X14669724Y-13562486D01*
X14660200Y-13543438D01*
X14660200Y-13533914D01*
X14669724Y-13514867D01*
X14688771Y-13505343D01*
X14717343Y-13505343D01*
X14736390Y-13514867D01*
X14812581Y-13714867D02*
X14822105Y-13705343D01*
X14841152Y-13676771D01*
X14850676Y-13657724D01*
X14860200Y-13629152D01*
X14869724Y-13581533D01*
X14869724Y-13543438D01*
X14860200Y-13495819D01*
X14850676Y-13467248D01*
X14841152Y-13448200D01*
X14822105Y-13419628D01*
X14812581Y-13410105D01*
D13*
X9850200Y-13812200D02*
G75*
G03*
X9850200Y-13812200I-20000J0D01*
G01*
D11*
X10145914Y-13702676D02*
X10164962Y-13702676D01*
X10184009Y-13712200D01*
X10193533Y-13721724D01*
X10203057Y-13740771D01*
X10212581Y-13778867D01*
X10212581Y-13826486D01*
X10203057Y-13864581D01*
X10193533Y-13883628D01*
X10184009Y-13893152D01*
X10164962Y-13902676D01*
X10145914Y-13902676D01*
X10126867Y-13893152D01*
X10117343Y-13883628D01*
X10107819Y-13864581D01*
X10098295Y-13826486D01*
X10098295Y-13778867D01*
X10107819Y-13740771D01*
X10117343Y-13721724D01*
X10126867Y-13712200D01*
X10145914Y-13702676D01*
X10298295Y-13883628D02*
X10307819Y-13893152D01*
X10298295Y-13902676D01*
X10288771Y-13893152D01*
X10298295Y-13883628D01*
X10298295Y-13902676D01*
X10479248Y-13769343D02*
X10479248Y-13902676D01*
X10431628Y-13693152D02*
X10384009Y-13836009D01*
X10507819Y-13836009D01*
X10622105Y-13702676D02*
X10641152Y-13702676D01*
X10660200Y-13712200D01*
X10669724Y-13721724D01*
X10679248Y-13740771D01*
X10688771Y-13778867D01*
X10688771Y-13826486D01*
X10679248Y-13864581D01*
X10669724Y-13883628D01*
X10660200Y-13893152D01*
X10641152Y-13902676D01*
X10622105Y-13902676D01*
X10603057Y-13893152D01*
X10593533Y-13883628D01*
X10584009Y-13864581D01*
X10574486Y-13826486D01*
X10574486Y-13778867D01*
X10584009Y-13740771D01*
X10593533Y-13721724D01*
X10603057Y-13712200D01*
X10622105Y-13702676D01*
X10812581Y-13702676D02*
X10831628Y-13702676D01*
X10850676Y-13712200D01*
X10860200Y-13721724D01*
X10869724Y-13740771D01*
X10879248Y-13778867D01*
X10879248Y-13826486D01*
X10869724Y-13864581D01*
X10860200Y-13883628D01*
X10850676Y-13893152D01*
X10831628Y-13902676D01*
X10812581Y-13902676D01*
X10793533Y-13893152D01*
X10784009Y-13883628D01*
X10774486Y-13864581D01*
X10764962Y-13826486D01*
X10764962Y-13778867D01*
X10774486Y-13740771D01*
X10784009Y-13721724D01*
X10793533Y-13712200D01*
X10812581Y-13702676D01*
X10964962Y-13902676D02*
X10964962Y-13769343D01*
X10964962Y-13788390D02*
X10974486Y-13778867D01*
X10993533Y-13769343D01*
X11022105Y-13769343D01*
X11041152Y-13778867D01*
X11050676Y-13797914D01*
X11050676Y-13902676D01*
X11050676Y-13797914D02*
X11060200Y-13778867D01*
X11079248Y-13769343D01*
X11107819Y-13769343D01*
X11126867Y-13778867D01*
X11136390Y-13797914D01*
X11136390Y-13902676D01*
X11231628Y-13902676D02*
X11231628Y-13769343D01*
X11231628Y-13788390D02*
X11241152Y-13778867D01*
X11260200Y-13769343D01*
X11288771Y-13769343D01*
X11307819Y-13778867D01*
X11317343Y-13797914D01*
X11317343Y-13902676D01*
X11317343Y-13797914D02*
X11326866Y-13778867D01*
X11345914Y-13769343D01*
X11374486Y-13769343D01*
X11393533Y-13778867D01*
X11403057Y-13797914D01*
X11403057Y-13902676D01*
X11793533Y-13693152D02*
X11622105Y-13950295D01*
X12050676Y-13702676D02*
X12069724Y-13702676D01*
X12088771Y-13712200D01*
X12098295Y-13721724D01*
X12107819Y-13740771D01*
X12117343Y-13778867D01*
X12117343Y-13826486D01*
X12107819Y-13864581D01*
X12098295Y-13883628D01*
X12088771Y-13893152D01*
X12069724Y-13902676D01*
X12050676Y-13902676D01*
X12031628Y-13893152D01*
X12022105Y-13883628D01*
X12012581Y-13864581D01*
X12003057Y-13826486D01*
X12003057Y-13778867D01*
X12012581Y-13740771D01*
X12022105Y-13721724D01*
X12031628Y-13712200D01*
X12050676Y-13702676D01*
X12203057Y-13883628D02*
X12212581Y-13893152D01*
X12203057Y-13902676D01*
X12193533Y-13893152D01*
X12203057Y-13883628D01*
X12203057Y-13902676D01*
X12336390Y-13702676D02*
X12355438Y-13702676D01*
X12374486Y-13712200D01*
X12384009Y-13721724D01*
X12393533Y-13740771D01*
X12403057Y-13778867D01*
X12403057Y-13826486D01*
X12393533Y-13864581D01*
X12384009Y-13883628D01*
X12374486Y-13893152D01*
X12355438Y-13902676D01*
X12336390Y-13902676D01*
X12317343Y-13893152D01*
X12307819Y-13883628D01*
X12298295Y-13864581D01*
X12288771Y-13826486D01*
X12288771Y-13778867D01*
X12298295Y-13740771D01*
X12307819Y-13721724D01*
X12317343Y-13712200D01*
X12336390Y-13702676D01*
X12593533Y-13902676D02*
X12479247Y-13902676D01*
X12536390Y-13902676D02*
X12536390Y-13702676D01*
X12517343Y-13731248D01*
X12498295Y-13750295D01*
X12479247Y-13759819D01*
X12774486Y-13702676D02*
X12679247Y-13702676D01*
X12669724Y-13797914D01*
X12679247Y-13788390D01*
X12698295Y-13778867D01*
X12745914Y-13778867D01*
X12764962Y-13788390D01*
X12774486Y-13797914D01*
X12784009Y-13816962D01*
X12784009Y-13864581D01*
X12774486Y-13883628D01*
X12764962Y-13893152D01*
X12745914Y-13902676D01*
X12698295Y-13902676D01*
X12679247Y-13893152D01*
X12669724Y-13883628D01*
X12850676Y-13702676D02*
X12984009Y-13702676D01*
X12898295Y-13902676D01*
X13050676Y-13702676D02*
X13050676Y-13740771D01*
X13126866Y-13702676D02*
X13126866Y-13740771D01*
X13422105Y-13978867D02*
X13412581Y-13969343D01*
X13393533Y-13940771D01*
X13384009Y-13921724D01*
X13374486Y-13893152D01*
X13364962Y-13845533D01*
X13364962Y-13807438D01*
X13374486Y-13759819D01*
X13384009Y-13731248D01*
X13393533Y-13712200D01*
X13412581Y-13683628D01*
X13422105Y-13674105D01*
X13479247Y-13702676D02*
X13603057Y-13702676D01*
X13536390Y-13778867D01*
X13564962Y-13778867D01*
X13584009Y-13788390D01*
X13593533Y-13797914D01*
X13603057Y-13816962D01*
X13603057Y-13864581D01*
X13593533Y-13883628D01*
X13584009Y-13893152D01*
X13564962Y-13902676D01*
X13507819Y-13902676D01*
X13488771Y-13893152D01*
X13479247Y-13883628D01*
X13669724Y-13702676D02*
X13793533Y-13702676D01*
X13726866Y-13778867D01*
X13755438Y-13778867D01*
X13774486Y-13788390D01*
X13784009Y-13797914D01*
X13793533Y-13816962D01*
X13793533Y-13864581D01*
X13784009Y-13883628D01*
X13774486Y-13893152D01*
X13755438Y-13902676D01*
X13698295Y-13902676D01*
X13679247Y-13893152D01*
X13669724Y-13883628D01*
X14031628Y-13902676D02*
X14031628Y-13702676D01*
X14117343Y-13902676D02*
X14117343Y-13797914D01*
X14107819Y-13778867D01*
X14088771Y-13769343D01*
X14060200Y-13769343D01*
X14041152Y-13778867D01*
X14031628Y-13788390D01*
X14241152Y-13902676D02*
X14222105Y-13893152D01*
X14212581Y-13883628D01*
X14203057Y-13864581D01*
X14203057Y-13807438D01*
X14212581Y-13788390D01*
X14222105Y-13778867D01*
X14241152Y-13769343D01*
X14269724Y-13769343D01*
X14288771Y-13778867D01*
X14298295Y-13788390D01*
X14307819Y-13807438D01*
X14307819Y-13864581D01*
X14298295Y-13883628D01*
X14288771Y-13893152D01*
X14269724Y-13902676D01*
X14241152Y-13902676D01*
X14422105Y-13902676D02*
X14403057Y-13893152D01*
X14393533Y-13874105D01*
X14393533Y-13702676D01*
X14574486Y-13893152D02*
X14555438Y-13902676D01*
X14517343Y-13902676D01*
X14498295Y-13893152D01*
X14488771Y-13874105D01*
X14488771Y-13797914D01*
X14498295Y-13778867D01*
X14517343Y-13769343D01*
X14555438Y-13769343D01*
X14574486Y-13778867D01*
X14584009Y-13797914D01*
X14584009Y-13816962D01*
X14488771Y-13836009D01*
X14660200Y-13893152D02*
X14679247Y-13902676D01*
X14717343Y-13902676D01*
X14736390Y-13893152D01*
X14745914Y-13874105D01*
X14745914Y-13864581D01*
X14736390Y-13845533D01*
X14717343Y-13836009D01*
X14688771Y-13836009D01*
X14669724Y-13826486D01*
X14660200Y-13807438D01*
X14660200Y-13797914D01*
X14669724Y-13778867D01*
X14688771Y-13769343D01*
X14717343Y-13769343D01*
X14736390Y-13778867D01*
X14812581Y-13978867D02*
X14822105Y-13969343D01*
X14841152Y-13940771D01*
X14850676Y-13921724D01*
X14860200Y-13893152D01*
X14869724Y-13845533D01*
X14869724Y-13807438D01*
X14860200Y-13759819D01*
X14850676Y-13731248D01*
X14841152Y-13712200D01*
X14822105Y-13683628D01*
X14812581Y-13674105D01*
D14*
X9802700Y-14028700D02*
X9802700Y-14123700D01*
X9755200Y-14076200D02*
X9850200Y-14076200D01*
D11*
X10145914Y-13966676D02*
X10164962Y-13966676D01*
X10184009Y-13976200D01*
X10193533Y-13985724D01*
X10203057Y-14004771D01*
X10212581Y-14042867D01*
X10212581Y-14090486D01*
X10203057Y-14128581D01*
X10193533Y-14147628D01*
X10184009Y-14157152D01*
X10164962Y-14166676D01*
X10145914Y-14166676D01*
X10126867Y-14157152D01*
X10117343Y-14147628D01*
X10107819Y-14128581D01*
X10098295Y-14090486D01*
X10098295Y-14042867D01*
X10107819Y-14004771D01*
X10117343Y-13985724D01*
X10126867Y-13976200D01*
X10145914Y-13966676D01*
X10298295Y-14147628D02*
X10307819Y-14157152D01*
X10298295Y-14166676D01*
X10288771Y-14157152D01*
X10298295Y-14147628D01*
X10298295Y-14166676D01*
X10403057Y-14166676D02*
X10441152Y-14166676D01*
X10460200Y-14157152D01*
X10469724Y-14147628D01*
X10488771Y-14119057D01*
X10498295Y-14080962D01*
X10498295Y-14004771D01*
X10488771Y-13985724D01*
X10479248Y-13976200D01*
X10460200Y-13966676D01*
X10422105Y-13966676D01*
X10403057Y-13976200D01*
X10393533Y-13985724D01*
X10384009Y-14004771D01*
X10384009Y-14052390D01*
X10393533Y-14071438D01*
X10403057Y-14080962D01*
X10422105Y-14090486D01*
X10460200Y-14090486D01*
X10479248Y-14080962D01*
X10488771Y-14071438D01*
X10498295Y-14052390D01*
X10679248Y-13966676D02*
X10584009Y-13966676D01*
X10574486Y-14061914D01*
X10584009Y-14052390D01*
X10603057Y-14042867D01*
X10650676Y-14042867D01*
X10669724Y-14052390D01*
X10679248Y-14061914D01*
X10688771Y-14080962D01*
X10688771Y-14128581D01*
X10679248Y-14147628D01*
X10669724Y-14157152D01*
X10650676Y-14166676D01*
X10603057Y-14166676D01*
X10584009Y-14157152D01*
X10574486Y-14147628D01*
X10812581Y-13966676D02*
X10831628Y-13966676D01*
X10850676Y-13976200D01*
X10860200Y-13985724D01*
X10869724Y-14004771D01*
X10879248Y-14042867D01*
X10879248Y-14090486D01*
X10869724Y-14128581D01*
X10860200Y-14147628D01*
X10850676Y-14157152D01*
X10831628Y-14166676D01*
X10812581Y-14166676D01*
X10793533Y-14157152D01*
X10784009Y-14147628D01*
X10774486Y-14128581D01*
X10764962Y-14090486D01*
X10764962Y-14042867D01*
X10774486Y-14004771D01*
X10784009Y-13985724D01*
X10793533Y-13976200D01*
X10812581Y-13966676D01*
X10964962Y-14166676D02*
X10964962Y-14033343D01*
X10964962Y-14052390D02*
X10974486Y-14042867D01*
X10993533Y-14033343D01*
X11022105Y-14033343D01*
X11041152Y-14042867D01*
X11050676Y-14061914D01*
X11050676Y-14166676D01*
X11050676Y-14061914D02*
X11060200Y-14042867D01*
X11079248Y-14033343D01*
X11107819Y-14033343D01*
X11126867Y-14042867D01*
X11136390Y-14061914D01*
X11136390Y-14166676D01*
X11231628Y-14166676D02*
X11231628Y-14033343D01*
X11231628Y-14052390D02*
X11241152Y-14042867D01*
X11260200Y-14033343D01*
X11288771Y-14033343D01*
X11307819Y-14042867D01*
X11317343Y-14061914D01*
X11317343Y-14166676D01*
X11317343Y-14061914D02*
X11326866Y-14042867D01*
X11345914Y-14033343D01*
X11374486Y-14033343D01*
X11393533Y-14042867D01*
X11403057Y-14061914D01*
X11403057Y-14166676D01*
X11793533Y-13957152D02*
X11622105Y-14214295D01*
X12050676Y-13966676D02*
X12069724Y-13966676D01*
X12088771Y-13976200D01*
X12098295Y-13985724D01*
X12107819Y-14004771D01*
X12117343Y-14042867D01*
X12117343Y-14090486D01*
X12107819Y-14128581D01*
X12098295Y-14147628D01*
X12088771Y-14157152D01*
X12069724Y-14166676D01*
X12050676Y-14166676D01*
X12031628Y-14157152D01*
X12022105Y-14147628D01*
X12012581Y-14128581D01*
X12003057Y-14090486D01*
X12003057Y-14042867D01*
X12012581Y-14004771D01*
X12022105Y-13985724D01*
X12031628Y-13976200D01*
X12050676Y-13966676D01*
X12203057Y-14147628D02*
X12212581Y-14157152D01*
X12203057Y-14166676D01*
X12193533Y-14157152D01*
X12203057Y-14147628D01*
X12203057Y-14166676D01*
X12336390Y-13966676D02*
X12355438Y-13966676D01*
X12374486Y-13976200D01*
X12384009Y-13985724D01*
X12393533Y-14004771D01*
X12403057Y-14042867D01*
X12403057Y-14090486D01*
X12393533Y-14128581D01*
X12384009Y-14147628D01*
X12374486Y-14157152D01*
X12355438Y-14166676D01*
X12336390Y-14166676D01*
X12317343Y-14157152D01*
X12307819Y-14147628D01*
X12298295Y-14128581D01*
X12288771Y-14090486D01*
X12288771Y-14042867D01*
X12298295Y-14004771D01*
X12307819Y-13985724D01*
X12317343Y-13976200D01*
X12336390Y-13966676D01*
X12469724Y-13966676D02*
X12593533Y-13966676D01*
X12526866Y-14042867D01*
X12555438Y-14042867D01*
X12574486Y-14052390D01*
X12584009Y-14061914D01*
X12593533Y-14080962D01*
X12593533Y-14128581D01*
X12584009Y-14147628D01*
X12574486Y-14157152D01*
X12555438Y-14166676D01*
X12498295Y-14166676D01*
X12479247Y-14157152D01*
X12469724Y-14147628D01*
X12660200Y-13966676D02*
X12793533Y-13966676D01*
X12707819Y-14166676D01*
X12955438Y-14033343D02*
X12955438Y-14166676D01*
X12907819Y-13957152D02*
X12860200Y-14100009D01*
X12984009Y-14100009D01*
X13050676Y-13966676D02*
X13050676Y-14004771D01*
X13126866Y-13966676D02*
X13126866Y-14004771D01*
X13422105Y-14242867D02*
X13412581Y-14233343D01*
X13393533Y-14204771D01*
X13384009Y-14185724D01*
X13374486Y-14157152D01*
X13364962Y-14109533D01*
X13364962Y-14071438D01*
X13374486Y-14023819D01*
X13384009Y-13995248D01*
X13393533Y-13976200D01*
X13412581Y-13947628D01*
X13422105Y-13938105D01*
X13584009Y-14033343D02*
X13584009Y-14166676D01*
X13536390Y-13957152D02*
X13488771Y-14100009D01*
X13612581Y-14100009D01*
X13841152Y-14166676D02*
X13841152Y-13966676D01*
X13926866Y-14166676D02*
X13926866Y-14061914D01*
X13917343Y-14042867D01*
X13898295Y-14033343D01*
X13869724Y-14033343D01*
X13850676Y-14042867D01*
X13841152Y-14052390D01*
X14050676Y-14166676D02*
X14031628Y-14157152D01*
X14022105Y-14147628D01*
X14012581Y-14128581D01*
X14012581Y-14071438D01*
X14022105Y-14052390D01*
X14031628Y-14042867D01*
X14050676Y-14033343D01*
X14079247Y-14033343D01*
X14098295Y-14042867D01*
X14107819Y-14052390D01*
X14117343Y-14071438D01*
X14117343Y-14128581D01*
X14107819Y-14147628D01*
X14098295Y-14157152D01*
X14079247Y-14166676D01*
X14050676Y-14166676D01*
X14231628Y-14166676D02*
X14212581Y-14157152D01*
X14203057Y-14138105D01*
X14203057Y-13966676D01*
X14384009Y-14157152D02*
X14364962Y-14166676D01*
X14326866Y-14166676D01*
X14307819Y-14157152D01*
X14298295Y-14138105D01*
X14298295Y-14061914D01*
X14307819Y-14042867D01*
X14326866Y-14033343D01*
X14364962Y-14033343D01*
X14384009Y-14042867D01*
X14393533Y-14061914D01*
X14393533Y-14080962D01*
X14298295Y-14100009D01*
X14469724Y-14157152D02*
X14488771Y-14166676D01*
X14526866Y-14166676D01*
X14545914Y-14157152D01*
X14555438Y-14138105D01*
X14555438Y-14128581D01*
X14545914Y-14109533D01*
X14526866Y-14100009D01*
X14498295Y-14100009D01*
X14479247Y-14090486D01*
X14469724Y-14071438D01*
X14469724Y-14061914D01*
X14479247Y-14042867D01*
X14498295Y-14033343D01*
X14526866Y-14033343D01*
X14545914Y-14042867D01*
X14622105Y-14242867D02*
X14631628Y-14233343D01*
X14650676Y-14204771D01*
X14660200Y-14185724D01*
X14669724Y-14157152D01*
X14679247Y-14109533D01*
X14679247Y-14071438D01*
X14669724Y-14023819D01*
X14660200Y-13995248D01*
X14650676Y-13976200D01*
X14631628Y-13947628D01*
X14622105Y-13938105D01*
D10*
X9835556Y-14375556D02*
X9835556Y-14304844D01*
X9764844Y-14304844D01*
X9764844Y-14375556D01*
X9835556Y-14375556D01*
D11*
X10212581Y-14430676D02*
X10098295Y-14430676D01*
X10155438Y-14430676D02*
X10155438Y-14230676D01*
X10136390Y-14259248D01*
X10117343Y-14278295D01*
X10098295Y-14287819D01*
X10298295Y-14411628D02*
X10307819Y-14421152D01*
X10298295Y-14430676D01*
X10288771Y-14421152D01*
X10298295Y-14411628D01*
X10298295Y-14430676D01*
X10431628Y-14230676D02*
X10450676Y-14230676D01*
X10469724Y-14240200D01*
X10479248Y-14249724D01*
X10488771Y-14268771D01*
X10498295Y-14306867D01*
X10498295Y-14354486D01*
X10488771Y-14392581D01*
X10479248Y-14411628D01*
X10469724Y-14421152D01*
X10450676Y-14430676D01*
X10431628Y-14430676D01*
X10412581Y-14421152D01*
X10403057Y-14411628D01*
X10393533Y-14392581D01*
X10384009Y-14354486D01*
X10384009Y-14306867D01*
X10393533Y-14268771D01*
X10403057Y-14249724D01*
X10412581Y-14240200D01*
X10431628Y-14230676D01*
X10622105Y-14230676D02*
X10641152Y-14230676D01*
X10660200Y-14240200D01*
X10669724Y-14249724D01*
X10679248Y-14268771D01*
X10688771Y-14306867D01*
X10688771Y-14354486D01*
X10679248Y-14392581D01*
X10669724Y-14411628D01*
X10660200Y-14421152D01*
X10641152Y-14430676D01*
X10622105Y-14430676D01*
X10603057Y-14421152D01*
X10593533Y-14411628D01*
X10584009Y-14392581D01*
X10574486Y-14354486D01*
X10574486Y-14306867D01*
X10584009Y-14268771D01*
X10593533Y-14249724D01*
X10603057Y-14240200D01*
X10622105Y-14230676D01*
X10812581Y-14230676D02*
X10831628Y-14230676D01*
X10850676Y-14240200D01*
X10860200Y-14249724D01*
X10869724Y-14268771D01*
X10879248Y-14306867D01*
X10879248Y-14354486D01*
X10869724Y-14392581D01*
X10860200Y-14411628D01*
X10850676Y-14421152D01*
X10831628Y-14430676D01*
X10812581Y-14430676D01*
X10793533Y-14421152D01*
X10784009Y-14411628D01*
X10774486Y-14392581D01*
X10764962Y-14354486D01*
X10764962Y-14306867D01*
X10774486Y-14268771D01*
X10784009Y-14249724D01*
X10793533Y-14240200D01*
X10812581Y-14230676D01*
X10964962Y-14430676D02*
X10964962Y-14297343D01*
X10964962Y-14316390D02*
X10974486Y-14306867D01*
X10993533Y-14297343D01*
X11022105Y-14297343D01*
X11041152Y-14306867D01*
X11050676Y-14325914D01*
X11050676Y-14430676D01*
X11050676Y-14325914D02*
X11060200Y-14306867D01*
X11079248Y-14297343D01*
X11107819Y-14297343D01*
X11126867Y-14306867D01*
X11136390Y-14325914D01*
X11136390Y-14430676D01*
X11231628Y-14430676D02*
X11231628Y-14297343D01*
X11231628Y-14316390D02*
X11241152Y-14306867D01*
X11260200Y-14297343D01*
X11288771Y-14297343D01*
X11307819Y-14306867D01*
X11317343Y-14325914D01*
X11317343Y-14430676D01*
X11317343Y-14325914D02*
X11326866Y-14306867D01*
X11345914Y-14297343D01*
X11374486Y-14297343D01*
X11393533Y-14306867D01*
X11403057Y-14325914D01*
X11403057Y-14430676D01*
X11793533Y-14221152D02*
X11622105Y-14478295D01*
X12050676Y-14230676D02*
X12069724Y-14230676D01*
X12088771Y-14240200D01*
X12098295Y-14249724D01*
X12107819Y-14268771D01*
X12117343Y-14306867D01*
X12117343Y-14354486D01*
X12107819Y-14392581D01*
X12098295Y-14411628D01*
X12088771Y-14421152D01*
X12069724Y-14430676D01*
X12050676Y-14430676D01*
X12031628Y-14421152D01*
X12022105Y-14411628D01*
X12012581Y-14392581D01*
X12003057Y-14354486D01*
X12003057Y-14306867D01*
X12012581Y-14268771D01*
X12022105Y-14249724D01*
X12031628Y-14240200D01*
X12050676Y-14230676D01*
X12203057Y-14411628D02*
X12212581Y-14421152D01*
X12203057Y-14430676D01*
X12193533Y-14421152D01*
X12203057Y-14411628D01*
X12203057Y-14430676D01*
X12336390Y-14230676D02*
X12355438Y-14230676D01*
X12374486Y-14240200D01*
X12384009Y-14249724D01*
X12393533Y-14268771D01*
X12403057Y-14306867D01*
X12403057Y-14354486D01*
X12393533Y-14392581D01*
X12384009Y-14411628D01*
X12374486Y-14421152D01*
X12355438Y-14430676D01*
X12336390Y-14430676D01*
X12317343Y-14421152D01*
X12307819Y-14411628D01*
X12298295Y-14392581D01*
X12288771Y-14354486D01*
X12288771Y-14306867D01*
X12298295Y-14268771D01*
X12307819Y-14249724D01*
X12317343Y-14240200D01*
X12336390Y-14230676D01*
X12469724Y-14230676D02*
X12593533Y-14230676D01*
X12526866Y-14306867D01*
X12555438Y-14306867D01*
X12574486Y-14316390D01*
X12584009Y-14325914D01*
X12593533Y-14344962D01*
X12593533Y-14392581D01*
X12584009Y-14411628D01*
X12574486Y-14421152D01*
X12555438Y-14430676D01*
X12498295Y-14430676D01*
X12479247Y-14421152D01*
X12469724Y-14411628D01*
X12688771Y-14430676D02*
X12726866Y-14430676D01*
X12745914Y-14421152D01*
X12755438Y-14411628D01*
X12774486Y-14383057D01*
X12784009Y-14344962D01*
X12784009Y-14268771D01*
X12774486Y-14249724D01*
X12764962Y-14240200D01*
X12745914Y-14230676D01*
X12707819Y-14230676D01*
X12688771Y-14240200D01*
X12679247Y-14249724D01*
X12669724Y-14268771D01*
X12669724Y-14316390D01*
X12679247Y-14335438D01*
X12688771Y-14344962D01*
X12707819Y-14354486D01*
X12745914Y-14354486D01*
X12764962Y-14344962D01*
X12774486Y-14335438D01*
X12784009Y-14316390D01*
X12955438Y-14297343D02*
X12955438Y-14430676D01*
X12907819Y-14221152D02*
X12860200Y-14364009D01*
X12984009Y-14364009D01*
X13050676Y-14230676D02*
X13050676Y-14268771D01*
X13126866Y-14230676D02*
X13126866Y-14268771D01*
X13422105Y-14506867D02*
X13412581Y-14497343D01*
X13393533Y-14468771D01*
X13384009Y-14449724D01*
X13374486Y-14421152D01*
X13364962Y-14373533D01*
X13364962Y-14335438D01*
X13374486Y-14287819D01*
X13384009Y-14259248D01*
X13393533Y-14240200D01*
X13412581Y-14211628D01*
X13422105Y-14202105D01*
X13526866Y-14316390D02*
X13507819Y-14306867D01*
X13498295Y-14297343D01*
X13488771Y-14278295D01*
X13488771Y-14268771D01*
X13498295Y-14249724D01*
X13507819Y-14240200D01*
X13526866Y-14230676D01*
X13564962Y-14230676D01*
X13584009Y-14240200D01*
X13593533Y-14249724D01*
X13603057Y-14268771D01*
X13603057Y-14278295D01*
X13593533Y-14297343D01*
X13584009Y-14306867D01*
X13564962Y-14316390D01*
X13526866Y-14316390D01*
X13507819Y-14325914D01*
X13498295Y-14335438D01*
X13488771Y-14354486D01*
X13488771Y-14392581D01*
X13498295Y-14411628D01*
X13507819Y-14421152D01*
X13526866Y-14430676D01*
X13564962Y-14430676D01*
X13584009Y-14421152D01*
X13593533Y-14411628D01*
X13603057Y-14392581D01*
X13603057Y-14354486D01*
X13593533Y-14335438D01*
X13584009Y-14325914D01*
X13564962Y-14316390D01*
X13841152Y-14430676D02*
X13841152Y-14230676D01*
X13926866Y-14430676D02*
X13926866Y-14325914D01*
X13917343Y-14306867D01*
X13898295Y-14297343D01*
X13869724Y-14297343D01*
X13850676Y-14306867D01*
X13841152Y-14316390D01*
X14050676Y-14430676D02*
X14031628Y-14421152D01*
X14022105Y-14411628D01*
X14012581Y-14392581D01*
X14012581Y-14335438D01*
X14022105Y-14316390D01*
X14031628Y-14306867D01*
X14050676Y-14297343D01*
X14079247Y-14297343D01*
X14098295Y-14306867D01*
X14107819Y-14316390D01*
X14117343Y-14335438D01*
X14117343Y-14392581D01*
X14107819Y-14411628D01*
X14098295Y-14421152D01*
X14079247Y-14430676D01*
X14050676Y-14430676D01*
X14231628Y-14430676D02*
X14212581Y-14421152D01*
X14203057Y-14402105D01*
X14203057Y-14230676D01*
X14384009Y-14421152D02*
X14364962Y-14430676D01*
X14326866Y-14430676D01*
X14307819Y-14421152D01*
X14298295Y-14402105D01*
X14298295Y-14325914D01*
X14307819Y-14306867D01*
X14326866Y-14297343D01*
X14364962Y-14297343D01*
X14384009Y-14306867D01*
X14393533Y-14325914D01*
X14393533Y-14344962D01*
X14298295Y-14364009D01*
X14469724Y-14421152D02*
X14488771Y-14430676D01*
X14526866Y-14430676D01*
X14545914Y-14421152D01*
X14555438Y-14402105D01*
X14555438Y-14392581D01*
X14545914Y-14373533D01*
X14526866Y-14364009D01*
X14498295Y-14364009D01*
X14479247Y-14354486D01*
X14469724Y-14335438D01*
X14469724Y-14325914D01*
X14479247Y-14306867D01*
X14498295Y-14297343D01*
X14526866Y-14297343D01*
X14545914Y-14306867D01*
X14622105Y-14506867D02*
X14631628Y-14497343D01*
X14650676Y-14468771D01*
X14660200Y-14449724D01*
X14669724Y-14421152D01*
X14679247Y-14373533D01*
X14679247Y-14335438D01*
X14669724Y-14287819D01*
X14660200Y-14259248D01*
X14650676Y-14240200D01*
X14631628Y-14211628D01*
X14622105Y-14202105D01*
D15*
X9790200Y-14664200D02*
X9850200Y-14604200D01*
X9790200Y-14544200D01*
X9730200Y-14604200D01*
X9790200Y-14664200D01*
D11*
X10212581Y-14694676D02*
X10098295Y-14694676D01*
X10155438Y-14694676D02*
X10155438Y-14494676D01*
X10136390Y-14523248D01*
X10117343Y-14542295D01*
X10098295Y-14551819D01*
X10298295Y-14675628D02*
X10307819Y-14685152D01*
X10298295Y-14694676D01*
X10288771Y-14685152D01*
X10298295Y-14675628D01*
X10298295Y-14694676D01*
X10384009Y-14513724D02*
X10393533Y-14504200D01*
X10412581Y-14494676D01*
X10460200Y-14494676D01*
X10479248Y-14504200D01*
X10488771Y-14513724D01*
X10498295Y-14532771D01*
X10498295Y-14551819D01*
X10488771Y-14580390D01*
X10374486Y-14694676D01*
X10498295Y-14694676D01*
X10622105Y-14494676D02*
X10641152Y-14494676D01*
X10660200Y-14504200D01*
X10669724Y-14513724D01*
X10679248Y-14532771D01*
X10688771Y-14570867D01*
X10688771Y-14618486D01*
X10679248Y-14656581D01*
X10669724Y-14675628D01*
X10660200Y-14685152D01*
X10641152Y-14694676D01*
X10622105Y-14694676D01*
X10603057Y-14685152D01*
X10593533Y-14675628D01*
X10584009Y-14656581D01*
X10574486Y-14618486D01*
X10574486Y-14570867D01*
X10584009Y-14532771D01*
X10593533Y-14513724D01*
X10603057Y-14504200D01*
X10622105Y-14494676D01*
X10812581Y-14494676D02*
X10831628Y-14494676D01*
X10850676Y-14504200D01*
X10860200Y-14513724D01*
X10869724Y-14532771D01*
X10879248Y-14570867D01*
X10879248Y-14618486D01*
X10869724Y-14656581D01*
X10860200Y-14675628D01*
X10850676Y-14685152D01*
X10831628Y-14694676D01*
X10812581Y-14694676D01*
X10793533Y-14685152D01*
X10784009Y-14675628D01*
X10774486Y-14656581D01*
X10764962Y-14618486D01*
X10764962Y-14570867D01*
X10774486Y-14532771D01*
X10784009Y-14513724D01*
X10793533Y-14504200D01*
X10812581Y-14494676D01*
X10964962Y-14694676D02*
X10964962Y-14561343D01*
X10964962Y-14580390D02*
X10974486Y-14570867D01*
X10993533Y-14561343D01*
X11022105Y-14561343D01*
X11041152Y-14570867D01*
X11050676Y-14589914D01*
X11050676Y-14694676D01*
X11050676Y-14589914D02*
X11060200Y-14570867D01*
X11079248Y-14561343D01*
X11107819Y-14561343D01*
X11126867Y-14570867D01*
X11136390Y-14589914D01*
X11136390Y-14694676D01*
X11231628Y-14694676D02*
X11231628Y-14561343D01*
X11231628Y-14580390D02*
X11241152Y-14570867D01*
X11260200Y-14561343D01*
X11288771Y-14561343D01*
X11307819Y-14570867D01*
X11317343Y-14589914D01*
X11317343Y-14694676D01*
X11317343Y-14589914D02*
X11326866Y-14570867D01*
X11345914Y-14561343D01*
X11374486Y-14561343D01*
X11393533Y-14570867D01*
X11403057Y-14589914D01*
X11403057Y-14694676D01*
X11793533Y-14485152D02*
X11622105Y-14742295D01*
X12050676Y-14494676D02*
X12069724Y-14494676D01*
X12088771Y-14504200D01*
X12098295Y-14513724D01*
X12107819Y-14532771D01*
X12117343Y-14570867D01*
X12117343Y-14618486D01*
X12107819Y-14656581D01*
X12098295Y-14675628D01*
X12088771Y-14685152D01*
X12069724Y-14694676D01*
X12050676Y-14694676D01*
X12031628Y-14685152D01*
X12022105Y-14675628D01*
X12012581Y-14656581D01*
X12003057Y-14618486D01*
X12003057Y-14570867D01*
X12012581Y-14532771D01*
X12022105Y-14513724D01*
X12031628Y-14504200D01*
X12050676Y-14494676D01*
X12203057Y-14675628D02*
X12212581Y-14685152D01*
X12203057Y-14694676D01*
X12193533Y-14685152D01*
X12203057Y-14675628D01*
X12203057Y-14694676D01*
X12336390Y-14494676D02*
X12355438Y-14494676D01*
X12374486Y-14504200D01*
X12384009Y-14513724D01*
X12393533Y-14532771D01*
X12403057Y-14570867D01*
X12403057Y-14618486D01*
X12393533Y-14656581D01*
X12384009Y-14675628D01*
X12374486Y-14685152D01*
X12355438Y-14694676D01*
X12336390Y-14694676D01*
X12317343Y-14685152D01*
X12307819Y-14675628D01*
X12298295Y-14656581D01*
X12288771Y-14618486D01*
X12288771Y-14570867D01*
X12298295Y-14532771D01*
X12307819Y-14513724D01*
X12317343Y-14504200D01*
X12336390Y-14494676D01*
X12574486Y-14561343D02*
X12574486Y-14694676D01*
X12526866Y-14485152D02*
X12479247Y-14628009D01*
X12603057Y-14628009D01*
X12660200Y-14494676D02*
X12793533Y-14494676D01*
X12707819Y-14694676D01*
X12860200Y-14513724D02*
X12869724Y-14504200D01*
X12888771Y-14494676D01*
X12936390Y-14494676D01*
X12955438Y-14504200D01*
X12964962Y-14513724D01*
X12974486Y-14532771D01*
X12974486Y-14551819D01*
X12964962Y-14580390D01*
X12850676Y-14694676D01*
X12974486Y-14694676D01*
X13050676Y-14494676D02*
X13050676Y-14532771D01*
X13126866Y-14494676D02*
X13126866Y-14532771D01*
X13422105Y-14770867D02*
X13412581Y-14761343D01*
X13393533Y-14732771D01*
X13384009Y-14713724D01*
X13374486Y-14685152D01*
X13364962Y-14637533D01*
X13364962Y-14599438D01*
X13374486Y-14551819D01*
X13384009Y-14523248D01*
X13393533Y-14504200D01*
X13412581Y-14475628D01*
X13422105Y-14466105D01*
X13479247Y-14494676D02*
X13603057Y-14494676D01*
X13536390Y-14570867D01*
X13564962Y-14570867D01*
X13584009Y-14580390D01*
X13593533Y-14589914D01*
X13603057Y-14608962D01*
X13603057Y-14656581D01*
X13593533Y-14675628D01*
X13584009Y-14685152D01*
X13564962Y-14694676D01*
X13507819Y-14694676D01*
X13488771Y-14685152D01*
X13479247Y-14675628D01*
X13841152Y-14694676D02*
X13841152Y-14494676D01*
X13926866Y-14694676D02*
X13926866Y-14589914D01*
X13917343Y-14570867D01*
X13898295Y-14561343D01*
X13869724Y-14561343D01*
X13850676Y-14570867D01*
X13841152Y-14580390D01*
X14050676Y-14694676D02*
X14031628Y-14685152D01*
X14022105Y-14675628D01*
X14012581Y-14656581D01*
X14012581Y-14599438D01*
X14022105Y-14580390D01*
X14031628Y-14570867D01*
X14050676Y-14561343D01*
X14079247Y-14561343D01*
X14098295Y-14570867D01*
X14107819Y-14580390D01*
X14117343Y-14599438D01*
X14117343Y-14656581D01*
X14107819Y-14675628D01*
X14098295Y-14685152D01*
X14079247Y-14694676D01*
X14050676Y-14694676D01*
X14231628Y-14694676D02*
X14212581Y-14685152D01*
X14203057Y-14666105D01*
X14203057Y-14494676D01*
X14384009Y-14685152D02*
X14364962Y-14694676D01*
X14326866Y-14694676D01*
X14307819Y-14685152D01*
X14298295Y-14666105D01*
X14298295Y-14589914D01*
X14307819Y-14570867D01*
X14326866Y-14561343D01*
X14364962Y-14561343D01*
X14384009Y-14570867D01*
X14393533Y-14589914D01*
X14393533Y-14608962D01*
X14298295Y-14628009D01*
X14469724Y-14685152D02*
X14488771Y-14694676D01*
X14526866Y-14694676D01*
X14545914Y-14685152D01*
X14555438Y-14666105D01*
X14555438Y-14656581D01*
X14545914Y-14637533D01*
X14526866Y-14628009D01*
X14498295Y-14628009D01*
X14479247Y-14618486D01*
X14469724Y-14599438D01*
X14469724Y-14589914D01*
X14479247Y-14570867D01*
X14498295Y-14561343D01*
X14526866Y-14561343D01*
X14545914Y-14570867D01*
X14622105Y-14770867D02*
X14631628Y-14761343D01*
X14650676Y-14732771D01*
X14660200Y-14713724D01*
X14669724Y-14685152D01*
X14679247Y-14637533D01*
X14679247Y-14599438D01*
X14669724Y-14551819D01*
X14660200Y-14523248D01*
X14650676Y-14504200D01*
X14631628Y-14475628D01*
X14622105Y-14466105D01*
D16*
X9680200Y-14783200D02*
X9850200Y-14953200D01*
X9850200Y-14783200D02*
X9680200Y-14953200D01*
X9850200Y-14868200D02*
G75*
G03*
X9850200Y-14868200I-85000J0D01*
G01*
D11*
X10212581Y-14958676D02*
X10098295Y-14958676D01*
X10155438Y-14958676D02*
X10155438Y-14758676D01*
X10136390Y-14787248D01*
X10117343Y-14806295D01*
X10098295Y-14815819D01*
X10298295Y-14939628D02*
X10307819Y-14949152D01*
X10298295Y-14958676D01*
X10288771Y-14949152D01*
X10298295Y-14939628D01*
X10298295Y-14958676D01*
X10374486Y-14758676D02*
X10507819Y-14758676D01*
X10422105Y-14958676D01*
X10622105Y-14758676D02*
X10641152Y-14758676D01*
X10660200Y-14768200D01*
X10669724Y-14777724D01*
X10679248Y-14796771D01*
X10688771Y-14834867D01*
X10688771Y-14882486D01*
X10679248Y-14920581D01*
X10669724Y-14939628D01*
X10660200Y-14949152D01*
X10641152Y-14958676D01*
X10622105Y-14958676D01*
X10603057Y-14949152D01*
X10593533Y-14939628D01*
X10584009Y-14920581D01*
X10574486Y-14882486D01*
X10574486Y-14834867D01*
X10584009Y-14796771D01*
X10593533Y-14777724D01*
X10603057Y-14768200D01*
X10622105Y-14758676D01*
X10812581Y-14758676D02*
X10831628Y-14758676D01*
X10850676Y-14768200D01*
X10860200Y-14777724D01*
X10869724Y-14796771D01*
X10879248Y-14834867D01*
X10879248Y-14882486D01*
X10869724Y-14920581D01*
X10860200Y-14939628D01*
X10850676Y-14949152D01*
X10831628Y-14958676D01*
X10812581Y-14958676D01*
X10793533Y-14949152D01*
X10784009Y-14939628D01*
X10774486Y-14920581D01*
X10764962Y-14882486D01*
X10764962Y-14834867D01*
X10774486Y-14796771D01*
X10784009Y-14777724D01*
X10793533Y-14768200D01*
X10812581Y-14758676D01*
X10964962Y-14958676D02*
X10964962Y-14825343D01*
X10964962Y-14844390D02*
X10974486Y-14834867D01*
X10993533Y-14825343D01*
X11022105Y-14825343D01*
X11041152Y-14834867D01*
X11050676Y-14853914D01*
X11050676Y-14958676D01*
X11050676Y-14853914D02*
X11060200Y-14834867D01*
X11079248Y-14825343D01*
X11107819Y-14825343D01*
X11126867Y-14834867D01*
X11136390Y-14853914D01*
X11136390Y-14958676D01*
X11231628Y-14958676D02*
X11231628Y-14825343D01*
X11231628Y-14844390D02*
X11241152Y-14834867D01*
X11260200Y-14825343D01*
X11288771Y-14825343D01*
X11307819Y-14834867D01*
X11317343Y-14853914D01*
X11317343Y-14958676D01*
X11317343Y-14853914D02*
X11326866Y-14834867D01*
X11345914Y-14825343D01*
X11374486Y-14825343D01*
X11393533Y-14834867D01*
X11403057Y-14853914D01*
X11403057Y-14958676D01*
X11793533Y-14749152D02*
X11622105Y-15006295D01*
X12050676Y-14758676D02*
X12069724Y-14758676D01*
X12088771Y-14768200D01*
X12098295Y-14777724D01*
X12107819Y-14796771D01*
X12117343Y-14834867D01*
X12117343Y-14882486D01*
X12107819Y-14920581D01*
X12098295Y-14939628D01*
X12088771Y-14949152D01*
X12069724Y-14958676D01*
X12050676Y-14958676D01*
X12031628Y-14949152D01*
X12022105Y-14939628D01*
X12012581Y-14920581D01*
X12003057Y-14882486D01*
X12003057Y-14834867D01*
X12012581Y-14796771D01*
X12022105Y-14777724D01*
X12031628Y-14768200D01*
X12050676Y-14758676D01*
X12203057Y-14939628D02*
X12212581Y-14949152D01*
X12203057Y-14958676D01*
X12193533Y-14949152D01*
X12203057Y-14939628D01*
X12203057Y-14958676D01*
X12336390Y-14758676D02*
X12355438Y-14758676D01*
X12374486Y-14768200D01*
X12384009Y-14777724D01*
X12393533Y-14796771D01*
X12403057Y-14834867D01*
X12403057Y-14882486D01*
X12393533Y-14920581D01*
X12384009Y-14939628D01*
X12374486Y-14949152D01*
X12355438Y-14958676D01*
X12336390Y-14958676D01*
X12317343Y-14949152D01*
X12307819Y-14939628D01*
X12298295Y-14920581D01*
X12288771Y-14882486D01*
X12288771Y-14834867D01*
X12298295Y-14796771D01*
X12307819Y-14777724D01*
X12317343Y-14768200D01*
X12336390Y-14758676D01*
X12574486Y-14758676D02*
X12536390Y-14758676D01*
X12517343Y-14768200D01*
X12507819Y-14777724D01*
X12488771Y-14806295D01*
X12479247Y-14844390D01*
X12479247Y-14920581D01*
X12488771Y-14939628D01*
X12498295Y-14949152D01*
X12517343Y-14958676D01*
X12555438Y-14958676D01*
X12574486Y-14949152D01*
X12584009Y-14939628D01*
X12593533Y-14920581D01*
X12593533Y-14872962D01*
X12584009Y-14853914D01*
X12574486Y-14844390D01*
X12555438Y-14834867D01*
X12517343Y-14834867D01*
X12498295Y-14844390D01*
X12488771Y-14853914D01*
X12479247Y-14872962D01*
X12764962Y-14758676D02*
X12726866Y-14758676D01*
X12707819Y-14768200D01*
X12698295Y-14777724D01*
X12679247Y-14806295D01*
X12669724Y-14844390D01*
X12669724Y-14920581D01*
X12679247Y-14939628D01*
X12688771Y-14949152D01*
X12707819Y-14958676D01*
X12745914Y-14958676D01*
X12764962Y-14949152D01*
X12774486Y-14939628D01*
X12784009Y-14920581D01*
X12784009Y-14872962D01*
X12774486Y-14853914D01*
X12764962Y-14844390D01*
X12745914Y-14834867D01*
X12707819Y-14834867D01*
X12688771Y-14844390D01*
X12679247Y-14853914D01*
X12669724Y-14872962D01*
X12879247Y-14958676D02*
X12917343Y-14958676D01*
X12936390Y-14949152D01*
X12945914Y-14939628D01*
X12964962Y-14911057D01*
X12974486Y-14872962D01*
X12974486Y-14796771D01*
X12964962Y-14777724D01*
X12955438Y-14768200D01*
X12936390Y-14758676D01*
X12898295Y-14758676D01*
X12879247Y-14768200D01*
X12869724Y-14777724D01*
X12860200Y-14796771D01*
X12860200Y-14844390D01*
X12869724Y-14863438D01*
X12879247Y-14872962D01*
X12898295Y-14882486D01*
X12936390Y-14882486D01*
X12955438Y-14872962D01*
X12964962Y-14863438D01*
X12974486Y-14844390D01*
X13050676Y-14758676D02*
X13050676Y-14796771D01*
X13126866Y-14758676D02*
X13126866Y-14796771D01*
X13422105Y-15034867D02*
X13412581Y-15025343D01*
X13393533Y-14996771D01*
X13384009Y-14977724D01*
X13374486Y-14949152D01*
X13364962Y-14901533D01*
X13364962Y-14863438D01*
X13374486Y-14815819D01*
X13384009Y-14787248D01*
X13393533Y-14768200D01*
X13412581Y-14739628D01*
X13422105Y-14730105D01*
X13584009Y-14825343D02*
X13584009Y-14958676D01*
X13536390Y-14749152D02*
X13488771Y-14892009D01*
X13612581Y-14892009D01*
X13841152Y-14958676D02*
X13841152Y-14758676D01*
X13926866Y-14958676D02*
X13926866Y-14853914D01*
X13917343Y-14834867D01*
X13898295Y-14825343D01*
X13869724Y-14825343D01*
X13850676Y-14834867D01*
X13841152Y-14844390D01*
X14050676Y-14958676D02*
X14031628Y-14949152D01*
X14022105Y-14939628D01*
X14012581Y-14920581D01*
X14012581Y-14863438D01*
X14022105Y-14844390D01*
X14031628Y-14834867D01*
X14050676Y-14825343D01*
X14079247Y-14825343D01*
X14098295Y-14834867D01*
X14107819Y-14844390D01*
X14117343Y-14863438D01*
X14117343Y-14920581D01*
X14107819Y-14939628D01*
X14098295Y-14949152D01*
X14079247Y-14958676D01*
X14050676Y-14958676D01*
X14231628Y-14958676D02*
X14212581Y-14949152D01*
X14203057Y-14930105D01*
X14203057Y-14758676D01*
X14384009Y-14949152D02*
X14364962Y-14958676D01*
X14326866Y-14958676D01*
X14307819Y-14949152D01*
X14298295Y-14930105D01*
X14298295Y-14853914D01*
X14307819Y-14834867D01*
X14326866Y-14825343D01*
X14364962Y-14825343D01*
X14384009Y-14834867D01*
X14393533Y-14853914D01*
X14393533Y-14872962D01*
X14298295Y-14892009D01*
X14469724Y-14949152D02*
X14488771Y-14958676D01*
X14526866Y-14958676D01*
X14545914Y-14949152D01*
X14555438Y-14930105D01*
X14555438Y-14920581D01*
X14545914Y-14901533D01*
X14526866Y-14892009D01*
X14498295Y-14892009D01*
X14479247Y-14882486D01*
X14469724Y-14863438D01*
X14469724Y-14853914D01*
X14479247Y-14834867D01*
X14498295Y-14825343D01*
X14526866Y-14825343D01*
X14545914Y-14834867D01*
X14622105Y-15034867D02*
X14631628Y-15025343D01*
X14650676Y-14996771D01*
X14660200Y-14977724D01*
X14669724Y-14949152D01*
X14679247Y-14901533D01*
X14679247Y-14863438D01*
X14669724Y-14815819D01*
X14660200Y-14787248D01*
X14650676Y-14768200D01*
X14631628Y-14739628D01*
X14622105Y-14730105D01*
X9650200Y-15058200D02*
X9850200Y-15258200D01*
X9850200Y-15058200D02*
X9650200Y-15258200D01*
X9750200Y-15058200D02*
X9750200Y-15258200D01*
X9650200Y-15158200D02*
X9850200Y-15158200D01*
X10098295Y-15067724D02*
X10107819Y-15058200D01*
X10126867Y-15048676D01*
X10174486Y-15048676D01*
X10193533Y-15058200D01*
X10203057Y-15067724D01*
X10212581Y-15086771D01*
X10212581Y-15105819D01*
X10203057Y-15134390D01*
X10088771Y-15248676D01*
X10212581Y-15248676D01*
X10298295Y-15229628D02*
X10307819Y-15239152D01*
X10298295Y-15248676D01*
X10288771Y-15239152D01*
X10298295Y-15229628D01*
X10298295Y-15248676D01*
X10403057Y-15248676D02*
X10441152Y-15248676D01*
X10460200Y-15239152D01*
X10469724Y-15229628D01*
X10488771Y-15201057D01*
X10498295Y-15162962D01*
X10498295Y-15086771D01*
X10488771Y-15067724D01*
X10479248Y-15058200D01*
X10460200Y-15048676D01*
X10422105Y-15048676D01*
X10403057Y-15058200D01*
X10393533Y-15067724D01*
X10384009Y-15086771D01*
X10384009Y-15134390D01*
X10393533Y-15153438D01*
X10403057Y-15162962D01*
X10422105Y-15172486D01*
X10460200Y-15172486D01*
X10479248Y-15162962D01*
X10488771Y-15153438D01*
X10498295Y-15134390D01*
X10564962Y-15048676D02*
X10698295Y-15048676D01*
X10612581Y-15248676D01*
X10812581Y-15048676D02*
X10831628Y-15048676D01*
X10850676Y-15058200D01*
X10860200Y-15067724D01*
X10869724Y-15086771D01*
X10879248Y-15124867D01*
X10879248Y-15172486D01*
X10869724Y-15210581D01*
X10860200Y-15229628D01*
X10850676Y-15239152D01*
X10831628Y-15248676D01*
X10812581Y-15248676D01*
X10793533Y-15239152D01*
X10784009Y-15229628D01*
X10774486Y-15210581D01*
X10764962Y-15172486D01*
X10764962Y-15124867D01*
X10774486Y-15086771D01*
X10784009Y-15067724D01*
X10793533Y-15058200D01*
X10812581Y-15048676D01*
X10964962Y-15248676D02*
X10964962Y-15115343D01*
X10964962Y-15134390D02*
X10974486Y-15124867D01*
X10993533Y-15115343D01*
X11022105Y-15115343D01*
X11041152Y-15124867D01*
X11050676Y-15143914D01*
X11050676Y-15248676D01*
X11050676Y-15143914D02*
X11060200Y-15124867D01*
X11079248Y-15115343D01*
X11107819Y-15115343D01*
X11126867Y-15124867D01*
X11136390Y-15143914D01*
X11136390Y-15248676D01*
X11231628Y-15248676D02*
X11231628Y-15115343D01*
X11231628Y-15134390D02*
X11241152Y-15124867D01*
X11260200Y-15115343D01*
X11288771Y-15115343D01*
X11307819Y-15124867D01*
X11317343Y-15143914D01*
X11317343Y-15248676D01*
X11317343Y-15143914D02*
X11326866Y-15124867D01*
X11345914Y-15115343D01*
X11374486Y-15115343D01*
X11393533Y-15124867D01*
X11403057Y-15143914D01*
X11403057Y-15248676D01*
X11793533Y-15039152D02*
X11622105Y-15296295D01*
X12050676Y-15048676D02*
X12069724Y-15048676D01*
X12088771Y-15058200D01*
X12098295Y-15067724D01*
X12107819Y-15086771D01*
X12117343Y-15124867D01*
X12117343Y-15172486D01*
X12107819Y-15210581D01*
X12098295Y-15229628D01*
X12088771Y-15239152D01*
X12069724Y-15248676D01*
X12050676Y-15248676D01*
X12031628Y-15239152D01*
X12022105Y-15229628D01*
X12012581Y-15210581D01*
X12003057Y-15172486D01*
X12003057Y-15124867D01*
X12012581Y-15086771D01*
X12022105Y-15067724D01*
X12031628Y-15058200D01*
X12050676Y-15048676D01*
X12203057Y-15229628D02*
X12212581Y-15239152D01*
X12203057Y-15248676D01*
X12193533Y-15239152D01*
X12203057Y-15229628D01*
X12203057Y-15248676D01*
X12403057Y-15248676D02*
X12288771Y-15248676D01*
X12345914Y-15248676D02*
X12345914Y-15048676D01*
X12326866Y-15077248D01*
X12307819Y-15096295D01*
X12288771Y-15105819D01*
X12593533Y-15248676D02*
X12479247Y-15248676D01*
X12536390Y-15248676D02*
X12536390Y-15048676D01*
X12517343Y-15077248D01*
X12498295Y-15096295D01*
X12479247Y-15105819D01*
X12764962Y-15048676D02*
X12726866Y-15048676D01*
X12707819Y-15058200D01*
X12698295Y-15067724D01*
X12679247Y-15096295D01*
X12669724Y-15134390D01*
X12669724Y-15210581D01*
X12679247Y-15229628D01*
X12688771Y-15239152D01*
X12707819Y-15248676D01*
X12745914Y-15248676D01*
X12764962Y-15239152D01*
X12774486Y-15229628D01*
X12784009Y-15210581D01*
X12784009Y-15162962D01*
X12774486Y-15143914D01*
X12764962Y-15134390D01*
X12745914Y-15124867D01*
X12707819Y-15124867D01*
X12688771Y-15134390D01*
X12679247Y-15143914D01*
X12669724Y-15162962D01*
X12879247Y-15248676D02*
X12917343Y-15248676D01*
X12936390Y-15239152D01*
X12945914Y-15229628D01*
X12964962Y-15201057D01*
X12974486Y-15162962D01*
X12974486Y-15086771D01*
X12964962Y-15067724D01*
X12955438Y-15058200D01*
X12936390Y-15048676D01*
X12898295Y-15048676D01*
X12879247Y-15058200D01*
X12869724Y-15067724D01*
X12860200Y-15086771D01*
X12860200Y-15134390D01*
X12869724Y-15153438D01*
X12879247Y-15162962D01*
X12898295Y-15172486D01*
X12936390Y-15172486D01*
X12955438Y-15162962D01*
X12964962Y-15153438D01*
X12974486Y-15134390D01*
X13050676Y-15048676D02*
X13050676Y-15086771D01*
X13126866Y-15048676D02*
X13126866Y-15086771D01*
X13422105Y-15324867D02*
X13412581Y-15315343D01*
X13393533Y-15286771D01*
X13384009Y-15267724D01*
X13374486Y-15239152D01*
X13364962Y-15191533D01*
X13364962Y-15153438D01*
X13374486Y-15105819D01*
X13384009Y-15077248D01*
X13393533Y-15058200D01*
X13412581Y-15029628D01*
X13422105Y-15020105D01*
X13488771Y-15067724D02*
X13498295Y-15058200D01*
X13517343Y-15048676D01*
X13564962Y-15048676D01*
X13584009Y-15058200D01*
X13593533Y-15067724D01*
X13603057Y-15086771D01*
X13603057Y-15105819D01*
X13593533Y-15134390D01*
X13479247Y-15248676D01*
X13603057Y-15248676D01*
X13841152Y-15248676D02*
X13841152Y-15048676D01*
X13926866Y-15248676D02*
X13926866Y-15143914D01*
X13917343Y-15124867D01*
X13898295Y-15115343D01*
X13869724Y-15115343D01*
X13850676Y-15124867D01*
X13841152Y-15134390D01*
X14050676Y-15248676D02*
X14031628Y-15239152D01*
X14022105Y-15229628D01*
X14012581Y-15210581D01*
X14012581Y-15153438D01*
X14022105Y-15134390D01*
X14031628Y-15124867D01*
X14050676Y-15115343D01*
X14079247Y-15115343D01*
X14098295Y-15124867D01*
X14107819Y-15134390D01*
X14117343Y-15153438D01*
X14117343Y-15210581D01*
X14107819Y-15229628D01*
X14098295Y-15239152D01*
X14079247Y-15248676D01*
X14050676Y-15248676D01*
X14231628Y-15248676D02*
X14212581Y-15239152D01*
X14203057Y-15220105D01*
X14203057Y-15048676D01*
X14384009Y-15239152D02*
X14364962Y-15248676D01*
X14326866Y-15248676D01*
X14307819Y-15239152D01*
X14298295Y-15220105D01*
X14298295Y-15143914D01*
X14307819Y-15124867D01*
X14326866Y-15115343D01*
X14364962Y-15115343D01*
X14384009Y-15124867D01*
X14393533Y-15143914D01*
X14393533Y-15162962D01*
X14298295Y-15182009D01*
X14469724Y-15239152D02*
X14488771Y-15248676D01*
X14526866Y-15248676D01*
X14545914Y-15239152D01*
X14555438Y-15220105D01*
X14555438Y-15210581D01*
X14545914Y-15191533D01*
X14526866Y-15182009D01*
X14498295Y-15182009D01*
X14479247Y-15172486D01*
X14469724Y-15153438D01*
X14469724Y-15143914D01*
X14479247Y-15124867D01*
X14498295Y-15115343D01*
X14526866Y-15115343D01*
X14545914Y-15124867D01*
X14622105Y-15324867D02*
X14631628Y-15315343D01*
X14650676Y-15286771D01*
X14660200Y-15267724D01*
X14669724Y-15239152D01*
X14679247Y-15191533D01*
X14679247Y-15153438D01*
X14669724Y-15105819D01*
X14660200Y-15077248D01*
X14650676Y-15058200D01*
X14631628Y-15029628D01*
X14622105Y-15020105D01*
M02*
