M48
; DRILL file {KiCad (6.0.9)} date Sun Jan 21 16:39:28 2024
; FORMAT={-:-/ absolute / metric / decimal}
; #@! TF.CreationDate,2024-01-21T16:39:28-05:00
; #@! TF.GenerationSoftware,Kicad,Pcbnew,(6.0.9)
; #@! TF.FileFunction,Plated,1,2,PTH
FMAT,2
METRIC
; #@! TA.AperFunction,Plated,PTH,ViaDrill
T1C0.200
; #@! TA.AperFunction,Plated,PTH,ViaDrill
T2C0.400
; #@! TA.AperFunction,Plated,PTH,ComponentDrill
T3C0.950
; #@! TA.AperFunction,Plated,PTH,ComponentDrill
T4C1.000
; #@! TA.AperFunction,Plated,PTH,ComponentDrill
T5C1.200
; #@! TA.AperFunction,Plated,PTH,ComponentDrill
T6C1.700
; #@! TA.AperFunction,Plated,PTH,ComponentDrill
T7C2.970
%
G90
G05
T1
X100.965Y-127.762
X108.585Y-126.746
X118.618Y-92.964
X119.685Y-101.244
X119.888Y-108.077
X119.888Y-110.109
X120.142Y-112.014
X120.65Y-102.489
X121.666Y-86.233
X122.156Y-100.884
X122.428Y-103.175
X122.936Y-109.347
X122.936Y-112.014
X122.936Y-113.538
X123.444Y-120.895
X123.571Y-106.426
X123.698Y-99.06
X124.46Y-86.233
X124.46Y-100.635
X125.059Y-118.781
X125.349Y-103.759
X125.694Y-119.416
X125.766Y-118.074
X126.238Y-95.885
X126.401Y-118.709
X126.528Y-118.019
X127.366Y-96.393
X128.515Y-106.053
X128.524Y-103.886
X129.223Y-101.283
X129.286Y-86.36
X129.785Y-103.919
X129.785Y-105.545
X130.509Y-117.069
X130.509Y-118.44
X130.903Y-96.173
X131.064Y-104.418
X131.22Y-116.357
X131.22Y-117.069
X131.22Y-117.754
X131.22Y-118.44
X131.22Y-119.151
X131.55Y-100.884
X131.752Y-103.304
X131.906Y-117.069
X131.931Y-118.44
X131.946Y-105.289
X132.207Y-86.233
X132.617Y-116.357
X132.617Y-117.069
X132.617Y-117.754
X132.617Y-118.44
X132.617Y-119.151
X133.303Y-117.069
X133.328Y-118.44
X133.909Y-100.635
X134.62Y-104.267
X134.62Y-106.299
X137.287Y-109.347
X137.287Y-111.379
X137.287Y-121.92
X137.287Y-123.825
X138.02Y-111.887
X138.025Y-110.871
X140.283Y-110.852
X140.688Y-111.788
X140.716Y-108.839
X140.97Y-122.301
X141.478Y-114.427
X141.986Y-118.364
X142.113Y-120.904
X142.367Y-115.697
X143.002Y-123.698
X143.383Y-86.868
X144.399Y-107.95
X145.288Y-109.355
X145.415Y-123.688
X145.923Y-110.49
X147.044Y-123.952
X147.447Y-112.268
X148.336Y-114.05
X148.59Y-122.555
X148.717Y-100.711
X148.717Y-117.983
X150.234Y-112.275
X151.067Y-111.443
X151.365Y-113.406
X152.198Y-112.574
X156.337Y-123.063
X156.337Y-124.164
X156.972Y-117.475
X157.226Y-108.458
X163.957Y-125.73
X174.117Y-124.079
X180.848Y-116.84
X183.515Y-123.698
X188.214Y-127.889
T2
X114.554Y-83.312
X115.316Y-124.46
X119.841Y-94.722
X119.841Y-97.262
X119.866Y-125.476
X127.011Y-92.699
X130.186Y-92.699
X133.074Y-94.722
X133.074Y-97.262
X136.144Y-97.536
X140.694Y-125.476
X142.726Y-127.95
X143.256Y-112.268
X144.526Y-81.788
X145.266Y-127.95
X147.32Y-92.456
X148.844Y-86.36
X150.104Y-92.456
X152.781Y-98.679
X152.781Y-100.965
X152.908Y-92.456
X152.908Y-107.315
X152.908Y-109.855
X154.94Y-84.836
X155.702Y-83.566
X162.184Y-100.584
X165.232Y-125.344
X165.481Y-87.884
X165.481Y-88.9
X167.132Y-123.444
X167.386Y-106.256
X167.386Y-108.255
X179.832Y-83.312
T3
X123.25Y-84.853
X125.75Y-84.853
X128.25Y-84.853
X130.75Y-84.853
T4
X159.639Y-116.459
X159.639Y-118.999
X162.179Y-116.459
X162.179Y-118.999
X177.098Y-115.563
X179.598Y-115.563
X182.098Y-115.563
X184.598Y-115.563
T5
X103.406Y-82.623
X103.406Y-126.123
X106.906Y-126.123
T6
X100.956Y-87.973
X100.956Y-120.773
X109.356Y-86.773
X109.356Y-121.973
T7
X175.048Y-104.563
X186.648Y-104.563
T0
M30
